<svg xmlns="http://www.w3.org/2000/svg" viewBox="0 0 192.18 69.75" xmlns:v="https://vecta.io/nano"><g opacity=".4" fill="#fff"><path d="M18.03 58.02a4.71 4.71 0 0 0-.53-.43 54.83 54.83 0 0 0-2.07-5.4l-.16-.33-.05-.1-.04-.11-.16-.32a51.73 51.73 0 0 0-2.77-5.07v-.68-.37a1 1 0 0 0-.25-.8.65.65 0 0 0-.66-.13 2.65 2.65 0 0 0-1.28.85 34.05 34.05 0 0 0-4.3 1.46h-.08a33.5 33.5 0 0 0-3.9 2.33 2.64 2.64 0 0 0-1.46.41.66.66 0 0 0-.32.59 1 1 0 0 0 .44.7l.29.24.54.43a49.18 49.18 0 0 0 2.07 5.39l.4.88a50 50 0 0 0 2.78 5.07v.69.36a1 1 0 0 0 .25.8.65.65 0 0 0 .66.13 2.65 2.65 0 0 0 1.28-.84 25.1 25.1 0 0 0 4.43-1.61 21.69 21.69 0 0 0 3.85-2.23 2.64 2.64 0 0 0 1.48-.43.69.69 0 0 0 .33-.58 1 1 0 0 0-.45-.71zM8.3 63.26h0a2.08 2.08 0 0 1-1 .73h-.12a.76.76 0 0 1 0-.28v-.38a6 6 0 0 1 0-.73.36.36 0 0 0-.05-.22 50.81 50.81 0 0 1-2.82-5.05l-.4-.87a50.45 50.45 0 0 1-2.08-5.43.29.29 0 0 0-.16-.19c-.19-.13-.37-.29-.55-.44l-.29-.24a1.37 1.37 0 0 1-.2-.2l.06-.06a2.16 2.16 0 0 1 1.23-.32h.13l.07-.06a32.38 32.38 0 0 1 3.85-2.31h.08a33.67 33.67 0 0 1 4.26-1.44h.13l.06-.08a2.19 2.19 0 0 1 1-.73h.08a.63.63 0 0 1 0 .29v.38.67.06a.32.32 0 0 0 0 .21 50.81 50.81 0 0 1 2.8 5.1l.15.33v.11l.05.11.15.32a50.68 50.68 0 0 1 2.08 5.44.47.47 0 0 0 .16.19c.19.13.38.29.55.43l.29.24a.89.89 0 0 1 .2.2l-.06.06a2.09 2.09 0 0 1-1.22.32h-.12l-.07.05a21.25 21.25 0 0 1-3.82 2.22 22.07 22.07 0 0 1-4.4 1.58h-.07zm0-4.93a4 4 0 0 0 .66 1.42c.25.26.76.38.92.06h0a.47.47 0 0 0-.23-.69c-.39-.18-.83-.14-1.11-.46a1 1 0 0 0-.21-.33H8.3zm-.06-1.53a1.84 1.84 0 0 0 1.31 1.72.06.06 0 0 0 .07 0h.06c.28-.27.06-.68-.17-.91a1.39 1.39 0 0 0-.54-.31c-.31-.1-.53-.15-.67-.47h0s-.06-.05-.06-.03zm-.19-1.27a1.77 1.77 0 0 0 .73 1.29c.12.1.75.45.78.13a.73.73 0 0 0-.26-.72 1.73 1.73 0 0 0-.54-.23 1.54 1.54 0 0 1-.65-.36z"/><path d="M7.49 54.33a.33.33 0 0 0-.19 0c.39 0 .53.44.65.7a1.31 1.31 0 0 0 .37.5c.16.13.7.33.71 0a.58.58 0 0 0-.31-.81 2.55 2.55 0 0 1-.79-.31.48.48 0 0 0-.44-.08zm-.31-1.39h0c.49.14.49.71.74 1.08.11.16.63.54.73.24s0-.66-.25-.85a4.22 4.22 0 0 0-.61-.28l-.38-.19a.51.51 0 0 0-.23 0zm.14-1.55a.43.43 0 0 0-.2 0c.52.12.35.84.6 1.19a.74.74 0 0 0 .46.29.22.22 0 0 0 .25-.14c.13-.14.05-.51-.06-.64a3.09 3.09 0 0 0-.57-.44c-.18-.11-.27-.25-.48-.26zm-.14-1.31c.33.11.29.75.39 1s.38.54.62.47a.09.09 0 0 0 .07 0c.31-.18.26-.67.06-.92a1.27 1.27 0 0 0-.48-.27c-.19-.07-.29-.25-.48-.29a.27.27 0 0 0-.18.01zm.5-1.65h0-.07c.39.23.12.89.2 1.24s.3.54.55.51h0c.36-.11.34-.63.2-.89s-.32-.32-.46-.5-.21-.32-.42-.36zm1.74-1.32a1 1 0 0 1 .07.15.6.6 0 0 1-.29.56 2.3 2.3 0 0 0-.34.28.77.77 0 0 0-.11.69c0 .16.22.41.43.38s.32-.21.4-.39a.86.86 0 0 0 .11-.65v-.68a.46.46 0 0 0-.24-.36s-.04 0-.03.02z"/><path d="M10.33 48.74a2.69 2.69 0 0 0-1 .76 1.39 1.39 0 0 0-.34 1c0 .32.49.11.66 0a1.23 1.23 0 0 0 .4-.55c.17-.39-.16-.88.25-1.17l.03-.04z"/><path d="M10.27 49.93h0 0a1 1 0 0 1-.61.8 1.47 1.47 0 0 0-.49.23c-.19.17-.37.76 0 .88a.07.07 0 0 0 .06 0c.28.18.74-.28.89-.49a1.64 1.64 0 0 0 .21-1.47zm.1 1.4a.7.7 0 0 0-.06.19 1 1 0 0 1-.45.5c-.17.08-.36.12-.52.21-.58.34-.22 1 .42.81a.74.74 0 0 0 .39-.37 2.69 2.69 0 0 0 .24-1.34s-.02-.06-.02 0z"/><path d="M10.44 52.21h0a1 1 0 0 1-.49.86 3.22 3.22 0 0 0-.53.25.63.63 0 0 0 0 1h.08c.29.12.66-.19.77-.44a5.19 5.19 0 0 0 .18-.78 1.79 1.79 0 0 0 0-.83l-.01-.06z"/><path d="M10.78 53.52a1.8 1.8 0 0 0-.08.35.7.7 0 0 1-.17.37 1.41 1.41 0 0 1-.35.21 1.11 1.11 0 0 0-.51.47.46.46 0 0 0 .39.7c.4 0 .61-.47.69-.78a9.68 9.68 0 0 0 .14-1.32h-.11zm.3 1.69h0 0a.92.92 0 0 1-.51.53 1.63 1.63 0 0 0-.49.37.64.64 0 0 0 .06.92.63.63 0 0 0 .86-.3 1.39 1.39 0 0 0 .14-.64v-.86c-.03-.04-.06-.04-.06-.02zm.31 1.29v.15a1 1 0 0 1-.41.53 6.63 6.63 0 0 0-.59.31.49.49 0 0 0-.05.79.5.5 0 0 0 .73-.21c.1-.22.12-.46.2-.69s.24-.39.2-.65h0a.81.81 0 0 0 0-.22s-.08-.03-.08-.01z"/><path d="M11.29 58.2a1.34 1.34 0 0 0-.16.22c-.35.3-1.17.82-.62 1.34.2.18.47 0 .59-.17a.87.87 0 0 0 .1-.53v-.35a1.18 1.18 0 0 1 .19-.48l-.1-.03zm-2.18-8.82a6.2 6.2 0 0 0-.51 2.25 7.66 7.66 0 0 0 .17 2.19c.31 1.49.87 2.93 1.16 4.42a9 9 0 0 1 0 3.83l.22-.11a8.31 8.31 0 0 0 .2-1.71 14.9 14.9 0 0 0-.83-4.46l-.59-2.17a7.79 7.79 0 0 1-.11-2.36c.05-.64.24-1.25.35-1.87.01-.06-.06-.06-.06-.01z"/></g><g fill="#fff"><path d="M66.44 12.33a1.88 1.88 0 0 1 0-.67 5.08 5.08 0 0 0-.92-3.64c-.45-.73-1.16-1.23-1.66-1.92a2.67 2.67 0 0 1-.48-1.54V4.1a.66.66 0 0 0-.86-.68l-.34.09a.7.7 0 0 0-.14 0l-.56.12-.56.12a.61.61 0 0 0-.13 0l-.4.08a.65.65 0 0 0-.5 1c0 .14.14.27.2.41a2.71 2.71 0 0 1 .19 1.6c-.17.84-.61 1.59-.72 2.44a5.07 5.07 0 0 0 .66 3.7 2 2 0 0 1 .32.58 40.91 40.91 0 0 1 1.09 5.35 18.31 18.31 0 0 0 .37 2.66 1.73 1.73 0 0 0 .74 1.22c.2.11.5.08.56.41 0 .07.13.09.23.07l1.92-.3h.11.07.08a.24.24 0 0 0 .1 0l1.88-.51c.09 0 .19-.1.17-.16-.08-.32.21-.42.35-.61a1.75 1.75 0 0 0 .17-1.41 17.72 17.72 0 0 0-.75-2.58 40.49 40.49 0 0 1-1.19-5.37zm-6.32-.76a5.64 5.64 0 0 1 .32-3.48 3.26 3.26 0 0 0 .14-2.89 3.89 3.89 0 0 1-.19-.42c-.1-.22-.1-.38.22-.43l1-.2 1-.22c.34-.09.37.05.38.3a3.53 3.53 0 0 1 0 .46 3.3 3.3 0 0 0 1.29 2.58 5.75 5.75 0 0 1 1.72 3 2.93 2.93 0 0 1 0 1.25 4 4 0 0 0 .18 1.86c.06.27 0 .34-.27.33a1.33 1.33 0 0 0-1 .31.57.57 0 0 1-.4.13 1.19 1.19 0 0 0-.71.21 1.17 1.17 0 0 0-.73.1.57.57 0 0 1-.42 0 1.34 1.34 0 0 0-1 .13c-.25.12-.32.08-.38-.19a4.12 4.12 0 0 0-.63-1.72 3 3 0 0 1-.52-1.11zm7.87 9.26c0 .49-.56 1-1.14 1.13a10.28 10.28 0 0 0-1.34.39 10.65 10.65 0 0 0-1.38.19 1.35 1.35 0 0 1-1.51-.55 5.61 5.61 0 0 1-.29-1.14l-.45-3.5-.47-2.11a7.21 7.21 0 0 0 2.51-.28 7.37 7.37 0 0 0 2.41-.77l.44 2.11 1 3.38a5.65 5.65 0 0 1 .22 1.15zm11.31-7.5l-.12-.24a.71.71 0 0 1 0-.81.76.76 0 0 1 .84-.4 6.21 6.21 0 0 1 1.39.49 10.88 10.88 0 0 1 2.94 2.14 1.37 1.37 0 0 1 .48.92.7.7 0 0 1-.88.77h-.25a2.48 2.48 0 0 0 .16.52 2.9 2.9 0 0 1-.21 3.27 31.87 31.87 0 0 1-4.2 5.07 1.09 1.09 0 0 1-.64.24 3.25 3.25 0 0 1-1.63-.27 10.87 10.87 0 0 1-4.34-3.33 5.92 5.92 0 0 1-.52-1 1.13 1.13 0 0 1 .12-1.12 37.18 37.18 0 0 1 3.24-4.65 8.52 8.52 0 0 1 .94-1 2.71 2.71 0 0 1 2-.49 3.09 3.09 0 0 0 .68-.11zm-3.34 1.8l-.07.05-1.88 2.58a.48.48 0 0 0 0 .42 8.33 8.33 0 0 0 .88 1.36 13.21 13.21 0 0 0 4 2.93 4.37 4.37 0 0 0 1.63.46.53.53 0 0 0 .51-.22l1.8-2.38a2.09 2.09 0 0 0 .17-.28 12.75 12.75 0 0 1-7.04-4.92zm3.55-1.61a1.37 1.37 0 0 1-1 .28h-.46a2.17 2.17 0 0 0-1.54.62c-.29.26-.32.36-.09.69a12.06 12.06 0 0 0 1 1.18 13.07 13.07 0 0 0 3.28 2.45 6.82 6.82 0 0 0 2.32.85.41.41 0 0 0 .47-.25 2.46 2.46 0 0 0 0-2.38 1.56 1.56 0 0 1-.18-.67.4.4 0 0 0-.27-.42l-2.16-1.28c-.44-.26-.88-.69-1.37-1.07zm-5.89 4.81a10.31 10.31 0 0 1-.75 1.17 1.21 1.21 0 0 0 0 1.56l.26.38a10.56 10.56 0 0 0 3.62 2.89 7.18 7.18 0 0 0 1.51.48 1 1 0 0 0 1.11-.35c.3-.38.67-.71 1.06-1.13a8.43 8.43 0 0 1-3.9-1.82 8 8 0 0 1-2.91-3.18zm6.65-6a15.49 15.49 0 0 0 3.91 2.66 8.94 8.94 0 0 0-3.91-2.66zm1.7 2.5l.51.32.3-.44-.53-.31zm1.53.83a3.38 3.38 0 0 0 .6.16c.08 0 .17-.09.25-.15s-.09-.18-.16-.22-.32-.13-.49-.2zm-2.62-2.25c-.41-.41-.46-.4-.71.14l.38.29zm.86 1.3l.3-.48-.37-.28-.34.47zm-1-.71l.37.27.35-.49-.37-.23zm-.79-.67l.34-.47-.32-.31-.34.49zm3.29 2.19l.22-.41-.45-.25-.27.4zm-3.81-2.69l.26-.32v-.06-.15a.19.19 0 0 0-.15 0c-.17.08-.23.27-.11.55z" opacity=".4"/><path d="M43.65 14.33c.29-.48.75-.43 1.19-.34l2.06.54 3.12.77c.75.17 1 .34.95 1.08a1.48 1.48 0 0 0 .58 1.23 16.56 16.56 0 0 1 1.23 1.28 1.61 1.61 0 0 1 .46 1.17l-.14 4-.13 4a1.83 1.83 0 0 1-1 1.81c-1 .47-1.9 1.07-2.85 1.6a2.21 2.21 0 0 1-1.85.17l-5.07-1.37c-.64-.17-.92-.42-.93-1.09l.06-2.52c0-1.38-.17-2.77-.24-4.15a16 16 0 0 1 0-2.08 2.48 2.48 0 0 1 .37-1.1l1.58-2.45c.14-.42.48-2.63.61-2.55zm-1.89 11.53l-.14 3c0 .59.19.76.77.9l4.92 1.31a1.89 1.89 0 0 0 1.61-.13l3-1.69a1 1 0 0 0 .61-1l.07-1.63v-.83l-2.79 1.41a1.33 1.33 0 0 0-1 1.61 1.83 1.83 0 0 1-.07.56h-.21c0-.34-.1-.69-.11-1 0-.63 0-.65-.63-.83l-3.1-.87zm6.58 1.34a.54.54 0 0 0 0-.15l-.05-4.95a.44.44 0 0 0-.18-.31 2 2 0 0 0-.54-.22l-6.18-1.47v1.71l.25 3.15a.6.6 0 0 0 .56.66l3.68.95zm-4.52-11.76c-.23 1.54-1.48 2.94-2.24 4.33l6.75 1.66 1.93-3.78a2 2 0 0 0 .29-1.25.6.6 0 0 0-.55-.62l-3.5-.91-1.61-.5a5 5 0 0 0-.78-.06v.13c.05 0 0 .17-.06.22-.52.78 1 .68 1.69.9 0 .08.2.09.31.12l3.7 1.13c.14.05.27.13.41.19v.14a2.07 2.07 0 0 1-.5 0l-2.05-.61-1.72-.44m3 11.23l.19-.06 3.31-1.66c.26-.13.26-.31.27-.52l.17-3.16v-1.89l-1.29.53-2.27 1.09c-.35.15-.5.32-.49.68l.05 4.94zm.07-6l.13.12 3.77-1.81-2-2.26z" opacity=".3"/></g><g opacity=".3" fill="#fff"><path d="M33.47 46.63a15.6 15.6 0 0 0-.92-1.37c-.06-.1-.52-.62-.49-.73s.47-.28.54-.35c1-1 .84-2.57.92-3.85a.25.25 0 0 0 .15 0c.27-.08.37-.52.47-.73l.7-1.77c.09-.23.43-.8.32-1.07s-.39-.26-.53-.33a11.06 11.06 0 0 0-1.11-.5c-.43-.15-1.21-.56-1.67-.45s-.36.39-.46.65l-.67 1.76c-.1.26-.4.78-.33 1.08a.51.51 0 0 0 .18.24c-.8 1-1.92 2.16-1.83 3.55 0 .6.18.42-.32.66a3.71 3.71 0 0 1-.66.15 10.25 10.25 0 0 0-1.56.42 3.37 3.37 0 0 0-2.02 2.43c-.46 1.77-.77 3.65-1.07 5.44a.23.23 0 0 0 .14.23 71.78 71.78 0 0 0 7.18 2.76.24.24 0 0 0 .26-.08l2.84-4.76a3.4 3.4 0 0 0-.06-3.38zm-2.5-7.72s-.07-.06-.09-.06v-.06a.59.59 0 0 1 0-.21c.5.22 1 .34 1.54.54l1.2.47v.05a2.14 2.14 0 0 1-.1.22h0l-1-.34-1.07-.4a1.89 1.89 0 0 1-.48-.21zm2.39-2.58c.3.11.6.25.9.39a1.87 1.87 0 0 0 .4.2h0c-.16.36-.27.75-.41 1.11l-.45 1.12-1.21-.48-1.52-.53v-.06l.33-.88a8.55 8.55 0 0 1 .51-1.3 1.89 1.89 0 0 1 .41.1l1.04.33zm-1.7 15.81l-.75 1.32c-.34.58-.38.82-1 .75a11.43 11.43 0 0 1-2.72-1l-2.72-1.14c-.66-.26-.81-.26-.78-1a9.53 9.53 0 0 1 .32-1.5c.39-1.83.32-4.32 2.31-5.18a12.65 12.65 0 0 1 2-.53c.21 0 .78-.09.94-.29s.05-.12.09-.19a.82.82 0 0 0-.1-.4 2.08 2.08 0 0 1 .11-1.16 9.12 9.12 0 0 1 1.63-2.42c.31.14.66.23.84.3l1.14.39.14.06a11.32 11.32 0 0 1-.3 2.85 2.08 2.08 0 0 1-.56.9l-.55.33c0 .06-.09.1-.1.18 0 .25.25.54.38.72a18.24 18.24 0 0 1 1.17 1.74c1.03 2.02-.54 3.65-1.49 5.29zm-2.05-5.41c-1.46-.54-3.64-.83-4.42.89s.84 3.07 2.3 3.66 3.65 1 4.29-.75-.77-3.2-2.17-3.8zm-2 4.13c-1.15-.46-2.65-1.5-2.11-2.94.68-1.59 2.68-1.23 3.95-.78a2.86 2.86 0 0 1 1.95 3c-.34 1.64-2.63 1.19-3.75.72z"/><path d="M27.8 44.94c.28-.06.21-.5-.07-.44a3.44 3.44 0 0 0-2.33 1.21c-.16.24.19.51.36.27a3 3 0 0 1 2.04-1.04zm.47-.2a.23.23 0 0 0 .16-.42.23.23 0 0 0-.16.42z"/></g><path d="M89.26 6.83l7.64.78v.15l-.11 1L89.18 8l.1-1a.7.7 0 0 0-.02-.17zm-.38 3.56l7.68.79.12-1.18L89 9.22zm6.19-6.67l.11-1.39h.3a.52.52 0 0 0 .55-.5v-.37a.52.52 0 0 0-.44-.6l-3.82-.4a.53.53 0 0 0-.55.5v.38a.53.53 0 0 0 .44.6h.32l-.14 1.38a3.84 3.84 0 0 0-1.76 1.45 4.57 4.57 0 0 0-.48.86l7.26.75a3.73 3.73 0 0 0-1.79-2.66zm-6.89 13.4s-.27 1.45 1.07 1.59l4.92.5a1.48 1.48 0 0 0 1.71-1.5l.54-5.31-7.67-.79z" opacity=".4" fill="none" stroke="#f2f2f2" stroke-miterlimit="10"/><path d="M176.42 32.92a2 2 0 0 0 .19-.52v-.13c0-.07-.11-.19-.14-.25a2 2 0 0 1-.16-.71.48.48 0 0 0 .4-.06c.48-.38-.16-.77-.47-.9l-2.65-1-2.33-.82c-.32-.09-.88-.27-1 .24a.41.41 0 0 0 .21.43 2.4 2.4 0 0 1-.67.5 1 1 0 0 0-.2.13 1.72 1.72 0 0 0-.16.45l-.94 2.58-1.22 3.37-.56 1.6c-.18.54.19.76.22 1.24a.52.52 0 0 0-.42.06c-.47.38.17.77.47.9l2.66 1 2.33.82c.31.09.87.27 1-.24a.41.41 0 0 0-.26-.46 1.63 1.63 0 0 1 .56-.36.81.81 0 0 0 .27-.09 1.25 1.25 0 0 0 .18-.41l.57-1.51q.63-1.68 1.23-3.36l.89-2.5zm-8.86 3.5l1.24-3.46.38-1a14.43 14.43 0 0 1 1.56.55 2.78 2.78 0 0 0-1.56 1.4 3.79 3.79 0 0 0-.11 3c-.48-.12-.99-.31-1.51-.49zm2-2.49a2.41 2.41 0 0 1 3.52-.93c1.2.75 1.23 2.09.76 3.29a2.65 2.65 0 0 1-3.48 1.53c-1.48-.68-1.46-2.65-.81-3.89zm4.55 2.46a3.26 3.26 0 0 0 0-2.63l1.49.51-.38 1.05-1.24 3.36h0l-1.6-.59a3.38 3.38 0 0 0 1.72-1.7zm-2.26-7.36q.83.27 1.65.6l1.77.64a3.26 3.26 0 0 1 .88.36c.15.12.24.27 0 .31l-.21-.08-3.09-1.1-1.43-.51c-.12 0-.74-.18-.8-.3-.18-.45 1.08.03 1.22.08zm-1.54.79a1.9 1.9 0 0 0 .48-.5h.1l2 .7 2.38.85c.18.06.48.22.77.32a2.4 2.4 0 0 0 .12.71 1.94 1.94 0 0 0 .13.26l-3.44-1.14c-.075-.028-.157.01-.185.085s.01.157.085.185l3.55 1.18c0 .08-.07.16-.09.22l-.46 1.26c-.61-.17-1.21-.41-1.8-.63h0a2.55 2.55 0 0 0-.88-.72 2.76 2.76 0 0 0-1.89-.27 15.11 15.11 0 0 0-1.91-.7l.45-1.23a1.22 1.22 0 0 0 0-.17c.55.15 1.07.37 1.6.57.048.018.102.009.142-.024s.059-.084.05-.135-.044-.093-.092-.111a15.22 15.22 0 0 0-1.6-.57h0a2 2 0 0 0 .48-.14zm-3.27 8.33a8.72 8.72 0 0 0 1.12.51.15.15 0 0 0 .1-.28 9.18 9.18 0 0 1-1.2-.54 8.8 8.8 0 0 1 .41-1.15l1.84.62h0a2.29 2.29 0 0 0 .94.79 2.62 2.62 0 0 0 1.75.15.1.1 0 0 0 .06 0l1.85.68a8.35 8.35 0 0 1-.47 1.24l-4.15-1.39c-.17-.07-.27.2-.1.28 1.31.54 2.69.93 4 1.35-.24.2-.59.3-.81.58h0l-2-.7-2.39-.85c-.17-.06-.46-.22-.76-.32a9.76 9.76 0 0 0-.2-.97zm4.4 3.2q-.84-.27-1.65-.6l-1.77-.65a3.44 3.44 0 0 1-.89-.35c-.14-.12-.24-.27 0-.31l.2.08 3.1 1.1 1.43.51c.11 0 .74.17.8.29.16.46-1.09-.02-1.23-.09z" opacity=".4" fill="#fff"/><path d="M115.61 14.1l-1.13-3.16a4.71 4.71 0 0 0-.79-1.42c-.38-.43-1-.5-1.28-.8a9.78 9.78 0 0 1-1.15-2l-1.08-2.09a1.49 1.49 0 0 0 .17-.36c0-.18-.11-.3-.25-.41h.15a.21.21 0 0 0 .1-.31c-.15-.24-.37-.58-.65-.66s-1 .21-1.39.34a3.64 3.64 0 0 0-1.42.63 1.31 1.31 0 0 0-.15 1 .2.2 0 0 0 .3.16h0 .08a.61.61 0 0 0 .1.53.88.88 0 0 0 .21.12l.13.06h0c.37 1.39.59 2.84.85 4.25.09.52-.19.71-.28 1.24a4 4 0 0 0 .21 1.87l2.28 6.18c.63 1.54 2 .91 3.2.44 1-.4 3.26-.8 2.93-2.32a26.35 26.35 0 0 0-1.14-3.29zm-3.92-5.77a18.38 18.38 0 0 1-2.94 1.13l-.45-2.43a10.83 10.83 0 0 0 2.19-.86l1 1.69zm-3.71-3.65c.18-.07.25-.16.35-.18a3.11 3.11 0 0 0 .44-.07 1.54 1.54 0 0 0 .31-.25h.17a.7.7 0 0 0 .25 0 .24.24 0 0 0 .16-.08 1.21 1.21 0 0 0 .2.14h0v.09a.41.41 0 0 1-.05.09h0a7.9 7.9 0 0 1-2.15.82h0-.14 0a.06.06 0 0 1 0-.06v-.3a1.72 1.72 0 0 0 .46-.2zm0 .86a8.33 8.33 0 0 0 1.82-.69l.51 1a10.23 10.23 0 0 1-2.07.81c-.06-.39-.18-.75-.28-1.12zm.44-2a4.08 4.08 0 0 1 .92-.29.5.5 0 0 1 .47.2.52.52 0 0 0-.2.08.7.7 0 0 0-.13.16s-.33-.06-.47 0-.32.28-.39.3-.32 0-.44 0-.3.21-.37.23-.32 0-.44 0a.5.5 0 0 0-.2.08c.1-.4.7-.54 1.23-.72zm6.08 8.59l1.28 3.57.49 1.38c.26.92-.5 1.3-1.29 1.6a11.37 11.37 0 0 1-2.75 1c-.9.08-1.11-.42-1.35-1.08l-2.07-5.63a5.21 5.21 0 0 1-.25-1 3.71 3.71 0 0 1 .31-1.63 1.19 1.19 0 0 0 0-.53 19.32 19.32 0 0 0 3-1.18 2.41 2.41 0 0 0 .25.35s.06.09.12.13c.26.17.53.11.81.31a2.37 2.37 0 0 1 .56.62 9.47 9.47 0 0 1 .87 2.13zm-3.23-.29h0 0c-2.55 1.37-.41 7.14 2.38 5.65s.53-6.73-2.38-5.65zm2.12 5.3c-2.34 1.13-4-3.74-2-4.91 2.42-.9 4.23 3.83 2 4.91zm-3.78-4.46a2.14 2.14 0 0 1 .16-1.34.21.21 0 0 0-.37-.18 2.55 2.55 0 0 0-.21 1.56c.05.26.47.22.42-.04zm.19-1.82a.21.21 0 0 0-.14-.39c-.25.1-.11.49.14.39z" opacity=".32" fill="#fff"/><g opacity=".4" fill="#fff"><path d="M103.25 27.5a1.08 1.08 0 0 0-.36-.11l-2.2-.33a14 14 0 0 1-2.37-.61 1.36 1.36 0 0 0-.61-.06c.08-.27.25-.48.3-.74.11-.55.29-1.07.41-1.61l.47-1.83c.1-.36.12-.73.23-1.09a16.9 16.9 0 0 1 1-2.6 3.37 3.37 0 0 0 .16-.94 1.09 1.09 0 0 1 .13-.49c.29-.39.34-.44.81-.31.68.19 1.38.25 2.06.38a15.34 15.34 0 0 0 2.24.24c.21 0 .3.13.22.33a1.88 1.88 0 0 0 0 1.05 9.45 9.45 0 0 0 .73 1.73 5.79 5.79 0 0 1 .19 1.36 8.14 8.14 0 0 1 0 1.78 10.64 10.64 0 0 1-.12 1.12c0 .26.11.49.07.76a7.31 7.31 0 0 0-.06 1.75c0 .21-.14.27-.33.3-.75.11-1.5.11-2.25.16-.12 0-1.08-.28-1-.26a1.83 1.83 0 0 0 .55.1c-.13-.07-.2-.06-.27-.08zm-5.07-1.36l1.49.38a5.43 5.43 0 0 0 1.12.29l2.78.37c.14 0 .21 0 .24-.14a3.38 3.38 0 0 1 .13-.42 16.61 16.61 0 0 0 .69-2.78 20.35 20.35 0 0 0 .28-2.58 1.7 1.7 0 0 0 0-.39 3 3 0 0 1 0-1.23 4.77 4.77 0 0 1 .48-1.8c.09-.14 0-.16-.13-.16a15.2 15.2 0 0 1-2.24-.25l-1.91-.36c-.28 0-.44 0-.41.24a2.17 2.17 0 0 1-.32 1.35 13.06 13.06 0 0 0-.92 2.49l-.65 2.66-.63 2.33zm5.79 1.28a12.27 12.27 0 0 0 2.1-.11c.17 0 .2-.07.18-.22a4.69 4.69 0 0 1 .06-1.54.44.44 0 0 0 0-.3.89.89 0 0 1-.06-.48c0-1 .19-2 .16-3a2.76 2.76 0 0 0-1.23-2.14 19.64 19.64 0 0 1-1.24 7.79zm1.7-7.83a4.32 4.32 0 0 0-.27-1c-.22.54-.22.61.24 1z"/><path d="M103.25 27.5c.07 0 .14 0 .19.08a.28.28 0 0 1-.25 0zm-1.4-5.33a2.05 2.05 0 0 1 1-.19.55.55 0 0 1 .54.61 2.53 2.53 0 0 1-.79 1.6 4.82 4.82 0 0 1-1.23 1 1.81 1.81 0 0 1-1 .29c-.22 0-.32-.12-.32-.34a2.14 2.14 0 0 1 .28-1.42c.06-.08 0-.15 0-.21a3.39 3.39 0 0 1-.39-1.2 3 3 0 0 1 .18-1.19.64.64 0 0 1 1-.34 1.37 1.37 0 0 1 .73 1.39zm1.22.28c-.08.23-.27.3-.43.41s-.46.2-.43.51a.15.15 0 0 1-.08.1c-.45.23-.72.7-1.19.91-.09.05-.18.12-.12.27s0 .25-.16.32a3.47 3.47 0 0 1-.33.18c1 .18 2.99-1.82 2.74-2.7zm-2.83 2.44c.16-.07.35-.11.25-.36 0-.08 0-.16.11-.22a2.07 2.07 0 0 1 .54-.39c.32-.16.43-.54.76-.67v-.07a.64.64 0 0 1 .33-.42l.44-.27a.21.21 0 0 0 .11-.22c0-.06-.13 0-.19 0l-.28.06a2.34 2.34 0 0 0-1.05.67 3.21 3.21 0 0 0-1.02 1.89zm.18-3.79a2.46 2.46 0 0 0 .13 2.28 3.25 3.25 0 0 1 .6-.68c-.08-.08-.2-.12-.19-.23a.74.74 0 0 0-.2-.49.31.31 0 0 1 0-.17 1.08 1.08 0 0 0-.26-.7zm.18-.12a.77.77 0 0 0 .34.19.17.17 0 0 1 .14.27.49.49 0 0 0 .09.65.27.27 0 0 1 .05.15c0 .12.06.24.19.21a.29.29 0 0 0 .25-.31 1.54 1.54 0 0 0-.83-1.2.19.19 0 0 0-.23.04zm2.88-1.71a2.2 2.2 0 0 1-.92-.05c-.18 0-.37-.1-.56 0-.16-.23-.36-.12-.55-.05a.11.11 0 0 1-.13 0 .09.09 0 0 1 0-.13c.23-.09.42-.36.74-.1.11.08.38 0 .58.06.35.07.72.08 1.08.12.1 0 .22 0 .21.15s-.11.13-.21.12-.16-.01-.24-.12z"/></g><g opacity=".46" fill="#fff"><path d="M190.44 61.84a3.42 3.42 0 0 0-.5-1.25c-.34-.35-.6-.51-.48-1.06 0-.15.15-.24.15-.41a2.41 2.41 0 0 0-1-1.66 3.09 3.09 0 0 0-.64-.45 1.11 1.11 0 0 1-.78-.86l.27-.09c.21-.08.1-.4-.1-.33h-.11c-.1-.39-.24-1.17-.6-1.26s-1.13.3-1.49.42a6.62 6.62 0 0 0-1.45.53c-.46.3 0 1 .1 1.46h-.07c-.21.06-.1.39.11.32l.22-.07a.91.91 0 0 1 0 1 5 5 0 0 0-.26.52 3 3 0 0 0-.09 1.9c.13.44.23.44.55.7.73.59.08.89.16 1.53a17.06 17.06 0 0 0 .89 2.73l.64 1.88a11.36 11.36 0 0 0 .59 1.76c.45.86 1.35.55 2.1.35s1.45-.46 2.18-.71c.57-.19 1.05-.33 1.28-.95.34-.9-.38-2.18-.66-3l-1.01-3zm-5.49 1.54l-.06-.21c1.65-.66 3.38-1.1 5.06-1.71l1.61 4.88h0a12.84 12.84 0 0 1-2.48.88l-2.57.87-1.56-4.71zm-1-7.37c0-.36.06-.26.28-.37a6.61 6.61 0 0 1 1.08-.39 4.48 4.48 0 0 1 1-.32c.47 0 .54.55.65 1l-2.78.93a3.67 3.67 0 0 1-.25-.85zm.92 5.29c-.14-.19-.34-.22-.51-.35a.94.94 0 0 1-.36-.67 2.51 2.51 0 0 1 .65-2.26.16.16 0 0 0 0-.16l-.25-.77 2.48-.83.26.79a.19.19 0 0 0 .12.11 2.61 2.61 0 0 1 1.68 1.17 1.26 1.26 0 0 1 .25 1 4 4 0 0 0-.17.52.86.86 0 0 0 .23.7c.14.16.39.22.51.4a.61.61 0 0 1 .09.2l-5 1.71a1.66 1.66 0 0 1 .1-.67.85.85 0 0 0-.1-.86zm6.31 7.03a10.16 10.16 0 0 1-1.88.64 9.58 9.58 0 0 1-1.3.35 1.54 1.54 0 0 1-.85 0c-.29-.15-.4-.59-.49-.89h0c1-.26 1.88-.67 2.83-1a9.85 9.85 0 0 0 2.21-.79c.15.69.2 1.28-.52 1.69zm-3.67-2.9l.4-.16a8.44 8.44 0 0 1 .06 1.51c0 .18.24.31.32.12h0 0l.94-2.72a.17.17 0 0 0-.2-.24l-.65.18-.25-1.17a.12.12 0 0 0 0-.09.14.14 0 0 0-.19 0 .16.16 0 0 0-.12.12c-.22.77-.33 1.56-.51 2.35a.18.18 0 0 0 .2.1zm.72-.41a.17.17 0 0 0-.23-.15l-.31.12.27-1.33.14.68a.18.18 0 0 0 .22.11l.51-.15-.53 1.54-.07-.82z"/><path d="M184.62 56.24l-.1-.29a.17.17 0 0 0-.32.1l.1.29a.17.17 0 0 0 .32-.1zm.64-.21l-.1-.29a.17.17 0 0 0-.32.1l.09.3c.03.091.129.14.22.11s.14-.129.11-.22zm.63-.21l-.09-.29c-.03-.091-.129-.14-.22-.11s-.14.129-.11.22l.1.29a.17.17 0 0 0 .32-.11zm.64-.2l-.1-.3a.17.17 0 0 0-.32.11l.1.29a.17.17 0 0 0 .32-.1zm-1.58 4.71a1.49 1.49 0 0 1 .19-1.51.17.17 0 0 0-.26-.22 1.82 1.82 0 0 0-.26 1.83c.028.091.124.143.215.115s.143-.124.115-.215zm.38-1.79a.17.17 0 0 0-.11-.32.17.17 0 0 0 .11.32z"/></g><g opacity=".4" fill="#fff"><path d="M176.54 45.87a14.14 14.14 0 0 1 3.14.36 5.59 5.59 0 0 1 1.32.4 1.3 1.3 0 0 1 .67.62.92.92 0 0 1 0 .69 1.91 1.91 0 0 1-.48.8 1.57 1.57 0 0 0-.45.78 5.89 5.89 0 0 0-.19 1.39q0 1.08-.15 2.16a2.07 2.07 0 0 1-.42 1 1 1 0 0 1-.33.28 2.83 2.83 0 0 0-.45.32l-1.16.88a26.29 26.29 0 0 1-2.49 1.6l-2.14 1.36a2.45 2.45 0 0 1-1.54.42 2 2 0 0 1-.76-.19l-.11-.05-2.32-.77-1.62-.63a1.18 1.18 0 0 1-.71-1 7.3 7.3 0 0 1-.1-.94v-2.17-.85a.73.73 0 0 0-.2-.51 1.42 1.42 0 0 1-.32-.45 1.15 1.15 0 0 1 .12-1.08.74.74 0 0 1 .36-.36h.06a8.46 8.46 0 0 1 1.59-1.23 13 13 0 0 1 1.36-.76l1.28-.62a20 20 0 0 1 2.88-1 11.09 11.09 0 0 1 3.16-.45zm-1.44 6v-.06l.24-.18a21 21 0 0 1 3.08-1.83l2-1a1.77 1.77 0 0 0 .83-.95.58.58 0 0 0-.19-.76.18.18 0 0 0-.21 0l-2.4 1.24-2.17 1a1 1 0 0 1-.18.06 14 14 0 0 1 2.27-1.31l2.37-1.13-.27-.1-1-.25-1.79-.27a10.72 10.72 0 0 0-1.88 0 12 12 0 0 0-2.15.33 19.86 19.86 0 0 0-3.22 1.21 16.3 16.3 0 0 0-2.64 1.4l-.19.15h.3a7.12 7.12 0 0 1 1.46-.08c.24 0 .49.08.73.09a9.48 9.48 0 0 1 2 .3 2.73 2.73 0 0 1 1.5.69h0a2.83 2.83 0 0 1 1.16-.46 3.8 3.8 0 0 1-1 .6 2.11 2.11 0 0 1 .17.38.75.75 0 0 1-.18.76 1.73 1.73 0 0 0-.39.83c.36-.19.65-.46 1.05-.45a1 1 0 0 1-.22.25l-.75.42a.31.31 0 0 0-.18.26l-.18 2.24-.06 3a1.42 1.42 0 0 0 0 .19l.89-.63 2.52-1.54c1.13-.71 2.19-1.55 3.26-2.36a.39.39 0 0 0 .12-.14 4.15 4.15 0 0 0 .23-.76l.17-1.93a4.67 4.67 0 0 1 .19-1.34.79.79 0 0 0 .05-.37c-1.86.7-3.55 1.74-5.34 2.53zm-3.07 6.62h.15c.17 0 .26-.07.31-.24a1.59 1.59 0 0 0 .06-.38v-1.36c0-.7 0-1.4.11-2.1a11 11 0 0 1 .29-1.72 2.72 2.72 0 0 1 .62-1.3.53.53 0 0 0 0-.7 1.8 1.8 0 0 0-.91-.66l-.45-.12a9 9 0 0 0-2.18-.31l-1.19.05a9.3 9.3 0 0 0-1 .09 3.15 3.15 0 0 0-1.45.55.76.76 0 0 0-.3.63.73.73 0 0 0 .29.6 1.25 1.25 0 0 1 .35 1.05v.38 1.73a7.28 7.28 0 0 0 .13 1.54.92.92 0 0 0 .52.71l1.65.61 2.34.79a2.14 2.14 0 0 0 .66.19zm3.54-5.93a14.06 14.06 0 0 1 3-1.44 9.21 9.21 0 0 1-3 1.44z"/><path d="M177.18 51.33l-2.81 1.59a.61.61 0 0 1-.13 0h0 0s.07-.08.11-.1a19.41 19.41 0 0 1 2.16-1.24l.67-.25zm-2.52 5.13c-.12-.07-.11-.19-.1-.3a1.37 1.37 0 0 1 .05-.4c0-.1.16-.07.2 0a.7.7 0 0 1-.15.7zm.34-.28a.74.74 0 0 1 .06-.59c.12 0 .14.09.13.18a.46.46 0 0 1-.19.41zm1.18-.85c0 .15-.07.28-.15.26a.24.24 0 0 1-.12-.14c0-.1.06-.23.14-.22s.13.1.13.1zm-.76.62a.39.39 0 0 1 .14-.47.3.3 0 0 1-.14.47zm3.82-7.42a.38.38 0 0 1-.08.43.15.15 0 0 1-.13 0v-.12a.52.52 0 0 1 .21-.31zm-1.06 5.8a.13.13 0 0 1-.07-.18.54.54 0 0 1 .07-.19s.12 0 .12.07a.29.29 0 0 1-.12.3zm.34-.15c-.05-.14-.06-.25.08-.32a.21.21 0 0 1-.08.32zm.35-5.24v.07a1.46 1.46 0 0 1-.16.19s-.06-.06-.05-.08.07-.2.21-.18zm.84-.48c0 .22 0 .22-.14.28.01-.14.01-.14.14-.28zm-11.91 3.29s-.05.14-.09.15a.2.2 0 0 1-.19-.06.34.34 0 0 1-.06-.36s.07-.12.11-.11a.2.2 0 0 1 .16.09 1.12 1.12 0 0 1 .07.29zm2.32.84c0 .15-.06.25-.16.25s-.19-.11-.18-.27.06-.25.17-.24.17.1.17.26zm.63-.67c0-.09 0-.2.14-.2s.21.13.21.29a.2.2 0 0 1-.17.2c-.11 0-.18-.11-.18-.29zm-2.45 1c.16 0 .19.12.23.24s0 .18-.06.2a.25.25 0 0 1-.22-.05.24.24 0 0 1-.06-.29.33.33 0 0 1 .11-.1zm-1.12 2.95c.12 0 .25.2.25.31a.16.16 0 0 1-.15.17.26.26 0 0 1-.21-.29.68.68 0 0 1 .11-.19zm2.35.83c0 .11 0 .18-.13.19s-.23-.12-.23-.26 0-.18.15-.18a.24.24 0 0 1 .21.25zm1.09-.13a.23.23 0 0 1 .2.23c0 .11 0 .18-.14.19a.22.22 0 0 1-.21-.22c-.01-.12.06-.2.15-.2zm-1.44-2.66c0-.14 0-.22.14-.22s.17.14.17.27 0 .19-.13.2-.18-.1-.18-.25zm-.12-2.92a.17.17 0 0 1 .17.19.19.19 0 0 1-.17.19.2.2 0 0 1-.17-.2.17.17 0 0 1 .17-.18zm.81 4.34c0 .11-.07.19-.14.18s-.16-.13-.15-.25 0-.16.12-.17.17.09.17.24zm.72-4.38s-.07.08-.12.09a.29.29 0 0 1-.2-.26.12.12 0 0 1 .13-.12.28.28 0 0 1 .19.29zm-2.73 3.38a.52.52 0 0 1 0 .56c-.18-.12-.16-.32 0-.56zm-.58-.6a.32.32 0 0 1-.2-.27.17.17 0 0 1 0-.14h.13a.31.31 0 0 1 .07.41zm5.28-2.34s-.08.09-.14.1-.16-.08-.16-.19 0-.14.12-.14.18.08.18.23zm-.45 2.1c-.06.07-.1.14-.15.16s-.16-.1-.16-.2 0-.18.14-.15.1.11.17.19zm-1.63 1.46s0-.1.09-.1a.24.24 0 0 1 .13.13.15.15 0 0 1 0 .13 1.13 1.13 0 0 1-.12.18 1.4 1.4 0 0 1-.09-.17.72.72 0 0 1-.01-.17zm1.4-2.89c.07.1.12.15.13.21s0 .17-.12.16-.13-.09-.13-.13.06-.13.12-.24zm-1.28 1.63c-.08.07-.12.13-.17.14s-.13-.06-.13-.15 0-.17.09-.16a.86.86 0 0 1 .21.17zm-1.69 1.87a1.37 1.37 0 0 1-.12-.29.2.2 0 0 1 .09-.13c.06 0 .15.08.14.18a1.09 1.09 0 0 1-.11.24zm-1.68-5.1a1 1 0 0 1 .1.24.13.13 0 0 1-.06.12c-.05 0-.14-.08-.13-.18s.04-.08.09-.18zm4.47 4.19l-.14.12s-.07-.08-.07-.12.05-.1.08-.1.07.05.13.1zm-2.63-2.49c0 .05-.07.11-.09.1a.19.19 0 0 1-.09-.09s0-.09.06-.09a.49.49 0 0 1 .12.08zm2.72-1.31c-.06 0-.09.07-.12.06s0 0-.06-.09 0-.05.07 0 .06-.01.11.03zm-3.88 5.84h-.13v-.08h.13z"/></g><g opacity=".4" fill="#fff"><path d="M130.81 24.54a.26.26 0 0 1-.25.25h-.35c-.19.14-.22.39-.44.48a.53.53 0 0 1-.39 0 .64.64 0 0 0-.57 0 1 1 0 0 1-.81.1l-.32.14a.72.72 0 0 1-.32.08.32.32 0 0 1-.34-.23 1.3 1.3 0 0 1-.07-.33 3.49 3.49 0 0 1 .1-1l.27-1c.1-.33.11-.45.16-.69l-.51-.59-.47-.57a.22.22 0 0 0-.21 0l-.34.22a.44.44 0 0 1-.49 0l-.28-.07-.21.06a1.36 1.36 0 0 1-.43.15l-.15-.08a1 1 0 0 1-.05-.22v-.44a9.22 9.22 0 0 0 .14-1.66v-.71a1.08 1.08 0 0 0-.27-.75 5.07 5.07 0 0 1-.7-1.13l-.27-.61a.94.94 0 0 1 0-.44.39.39 0 0 1 .36-.36 2.83 2.83 0 0 1 .41 0h.19l.2-.08a.68.68 0 0 1 .16-.09c.28-.1.52 0 .76 0l.2-.18a.59.59 0 0 1 .77-.1l.16.1c.22 0 .42-.17.65 0a.32.32 0 0 1 .12.22 1.55 1.55 0 0 1 0 .48l-.13 1.07-.1.73a.8.8 0 0 0 .15.6 4 4 0 0 0 .67.76 1.48 1.48 0 0 1 .81.06l.44-.12a.37.37 0 0 1 .38.34 1.3 1.3 0 0 1 0 .52l-.21 1.24-.05.64a.87.87 0 0 0 .06.48l.22.42 1.17 1.9a1.11 1.11 0 0 1 .18.41zm-.57-.14c0-.1-.05-.17-.09-.24l-.91-1.57c-.1-.16-.18-.33-.26-.49a1.59 1.59 0 0 1-.15-1.05 1.16 1.16 0 0 1 0-.18l.2-1c.06-.35 0-.44.06-.66a.16.16 0 0 0-.09-.16l-.4.07-.42-.09a2.4 2.4 0 0 1-.52.07 3 3 0 0 1-.51-.08.81.81 0 0 0-.16.16.84.84 0 0 1-.89.32.34.34 0 0 0-.1 0v.26a6.6 6.6 0 0 0 .68 1.14l.8 1.07a1.87 1.87 0 0 1 .25.41 7.27 7.27 0 0 1-.18 1l-.28 1.22a3.42 3.42 0 0 0 0 .45.14.14 0 0 0 .11.14 5.17 5.17 0 0 1 .51-.18 3.78 3.78 0 0 1 .59 0h.11a1.21 1.21 0 0 1 .93-.09h.09c.09 0 .17-.19.27-.28s.3-.17.36-.24zm-6.59-8.92a.15.15 0 0 0-.09.17 2 2 0 0 0 .1.35l.33.71a2.34 2.34 0 0 0 .33.49l.24.28a1.32 1.32 0 0 1 .29.71 8.35 8.35 0 0 1 0 1 13.87 13.87 0 0 1-.17 1.58c0 .1-.05.2 0 .29h0l.09-.05a.54.54 0 0 1 .63 0l.18.1.43-.24a.28.28 0 0 0 .05-.08c0-.08-.09-.16-.14-.24l-.35-.57a1.05 1.05 0 0 1-.16-.49.37.37 0 0 1 .21-.42c.27-.09.52.08.75 0a.8.8 0 0 0 .36-.23.78.78 0 0 1 .42-.24v-.07a1.71 1.71 0 0 1-.11-.14l-.36-.42a.9.9 0 0 1-.2-.59 1.62 1.62 0 0 1 0-.22c0-.4.11-.81.17-1.21 0-.24.07-.49.11-.73 0-.06 0-.13-.08-.17a.3.3 0 0 0-.19.07.52.52 0 0 1-.56 0 .31.31 0 0 0-.28-.06l-.14.12a.65.65 0 0 1-.62.16l-.32-.07a2.09 2.09 0 0 0-.21.1.8.8 0 0 1-.57.11z"/><path d="M131.47 19.57c-.57-.3-1.11-.65-1.65-1-.26-.17-.54-.31-.81-.46l-.27-.18a.86.86 0 0 1-.13-.14.89.89 0 0 1 0-.14.25.25 0 0 1 0-.1c.08-.19.29-.23.42-.4a2.24 2.24 0 0 1 0-.24v-.29a.48.48 0 0 1 .32-.34l.24-.08a1 1 0 0 0 .55-.35l.37-.37a.56.56 0 0 1 .33-.17.49.49 0 0 1 .37.21 2.35 2.35 0 0 1 .24.37l.36.77.43 1 .14.31a.74.74 0 0 0 .54.41l1.22.28 1 .25a1 1 0 0 1 .67.45v.22l-.42.33v.22.29a.44.44 0 0 1-.12.33c-.11.14-.34.06-.5.19s-.07.22-.1.34a.56.56 0 0 1-.44.41l-.34.07-.14.25a1.61 1.61 0 0 1-.23.33.4.4 0 0 1-.6 0 1.53 1.53 0 0 1-.27-.3 6 6 0 0 1-.37-.6l-.64-1.25c.02-.15-.06-.38-.17-.62zm4-.1c-.07-.05-.08-.07-.11-.07l-1.1-.32-1.32-.35a1.16 1.16 0 0 1-.79-.62l-.19-.36c-.06-.12-.11-.28-.17-.41l-.53-1.27-.2-.35a.17.17 0 0 0-.15-.1.92.92 0 0 0-.32.3c-.07.07-.12.16-.18.23a1 1 0 0 1-.68.42l-.23.07a.9.9 0 0 0-.09.41.74.74 0 0 1-.25.52.67.67 0 0 0-.07.11.83.83 0 0 0 .31.28 11.52 11.52 0 0 0 2 1.1.82.82 0 0 1 .44.38l.64 1.21.36.77.32.55a.2.2 0 0 0 .17.12.19.19 0 0 0 .14-.1c0-.09.1-.18.14-.27a.58.58 0 0 1 .43-.37l.25-.08c.19-.23.18-.56.45-.7.11 0 .25 0 .35-.13a.27.27 0 0 0 0-.13v-.33a.44.44 0 0 1 .2-.38zm-6.29 3.59l-.06.08c-.28-.17-.48-.49-.81-.57a.23.23 0 0 0-.15.22c0 .13 0 .27-.05.4a1.84 1.84 0 0 1 0 .25H128a.5.5 0 0 1-.11-.45.88.88 0 0 1 .25-.66.33.33 0 0 1 .39 0 2.66 2.66 0 0 1 .65.73zm-1.17-1.4a.23.23 0 0 1-.26 0 .59.59 0 0 1-.18-.13 1.42 1.42 0 0 1-.38-.66l.05-.11h.1a1.09 1.09 0 0 1 .23.3 3.37 3.37 0 0 0 .21.31.27.27 0 0 0 .12.07c.15-.17.11-.41.22-.61 0 .05.05.07.05.1a1.43 1.43 0 0 1-.16.73zm-2.97-4.52l.07-.06.35.19.24-.08a.73.73 0 0 0 .22-.39c0-.18.09-.36.14-.54a.18.18 0 0 1 .11-.13h.07v.11a2.42 2.42 0 0 1-.13.65 1 1 0 0 1-.18.36.53.53 0 0 1-.31.19.56.56 0 0 1-.36 0 .46.46 0 0 1-.22-.3z"/><path d="M126.62 18.59l-.05.1a.17.17 0 0 1-.17-.07c-.09-.08-.17-.18-.25-.26a.39.39 0 0 0-.33-.14c-.25.14-.25.46-.46.65l-.09-.08a1.14 1.14 0 0 1 .3-.7.37.37 0 0 1 .46-.09 1.32 1.32 0 0 1 .25.16 2 2 0 0 1 .34.43zm6.24 1.9a.37.37 0 0 1-.14-.06.27.27 0 0 1-.09-.12 2.94 2.94 0 0 1-.33-.85.39.39 0 0 1 .06-.38 1 1 0 0 1 .18-.05 2.21 2.21 0 0 1 .8.14l.05.09c-.06.07-.14.05-.21 0s-.36 0-.55-.06h-.15a1.05 1.05 0 0 0 0 .19l.28.56c0 .07.08.15.11.23s.07.21-.01.31zm-1.32-1.96c.07-.11 0-.19 0-.27s-.16-.41-.23-.62l-.1-.32a.36.36 0 0 1 0-.14h.09s.05 0 .06.09l.39 1a.43.43 0 0 1 0 .35.25.25 0 0 1-.25.14 1 1 0 0 1-.63-.24v-.1c.31-.09.44.12.67.11z"/></g><path d="M183.7 35.53h-.23a.58.58 0 0 1-.57-.28.61.61 0 0 1 .05-.73 5.27 5.27 0 0 1 .87-.77 8.5 8.5 0 0 1 2.6-1.18 1.08 1.08 0 0 1 .81 0 .55.55 0 0 1 .18.9l-.12.15a2 2 0 0 0 .42.09 2.28 2.28 0 0 1 2.15 1.4 25.34 25.34 0 0 1 1.84 4.82.83.83 0 0 1-.08.53 2.49 2.49 0 0 1-.81 1 8.56 8.56 0 0 1-3.94 1.68 3.81 3.81 0 0 1-.89 0 .88.88 0 0 1-.71-.51 29.45 29.45 0 0 1-1.93-4 6.1 6.1 0 0 1-.29-1 2.08 2.08 0 0 1 .44-1.57 2.9 2.9 0 0 0 .21-.53zm-.06 3a.17.17 0 0 0 0 .07l1 2.27a.37.37 0 0 0 .29.17 6.57 6.57 0 0 0 1.26-.08 10.32 10.32 0 0 0 3.57-1.63 3.24 3.24 0 0 0 .94-.94.41.41 0 0 0 0-.44l-.9-2.15c0-.08-.09-.15-.13-.22a9.93 9.93 0 0 1-6.03 2.92zm.26-3a1.08 1.08 0 0 1-.17.76c-.07.1-.11.22-.17.32a1.71 1.71 0 0 0-.18 1.29c.07.3.13.36.44.32a7.86 7.86 0 0 0 1.18-.2 9.87 9.87 0 0 0 2.93-1.3 5.22 5.22 0 0 0 1.48-1.25.32.32 0 0 0 0-.42 1.92 1.92 0 0 0-1.6-.94 1.19 1.19 0 0 1-.53-.13.3.3 0 0 0-.39 0l-1.71 1-1.28.48zm1 5.86a7.6 7.6 0 0 1 .51 1 1 1 0 0 0 1.06.61h.36a8.4 8.4 0 0 0 3.4-1.36 6.08 6.08 0 0 0 .91-.85.77.77 0 0 0 .18-.89c-.14-.35-.23-.73-.36-1.16a6.53 6.53 0 0 1-2.75 2 6.2 6.2 0 0 1-3.3.59zm-1.52-6.84a11.84 11.84 0 0 0 3.29-1.61 7 7 0 0 0-3.28 1.54zm2.36-.2l.41-.22-.18-.37-.42.24zm1.15-.72a2.88 2.88 0 0 0 .35-.35v-.22c0-.07-.16 0-.21 0a2.6 2.6 0 0 0-.32.26zm-2.55.92c-.43.12-.44.16-.18.54l.35-.15zm1.22-.09l-.21-.39-.33.15.19.41zm-.86.4l.33-.15-.2-.42-.3.16zm-.76.3l-.18-.41-.34.09.21.43zm2.77-1.4l-.2-.31-.34.21.16.34zm-3.31 1.57a2.54 2.54 0 0 0-.12-.31h0s-.08-.06-.1 0a.14.14 0 0 0-.08.1c-.03-.01.08.11.31.14zm-59.39-31.6l-.17-.08a.43.43 0 0 1-.29-.38.47.47 0 0 1 .28-.48 4.19 4.19 0 0 1 .84-.23 6.53 6.53 0 0 1 2.16.06.81.81 0 0 1 .55.29.41.41 0 0 1-.18.67l-.13.07a1.81 1.81 0 0 0 .25.2 1.71 1.71 0 0 1 1 1.66 18.93 18.93 0 0 1-.35 3.9.67.67 0 0 1-.23.33 1.83 1.83 0 0 1-.88.41 6.51 6.51 0 0 1-3.25-.16 2.82 2.82 0 0 1-.59-.32.68.68 0 0 1-.32-.58 23.69 23.69 0 0 1 0-3.37 5.32 5.32 0 0 1 .14-.78 1.61 1.61 0 0 1 .82-.92 3.8 3.8 0 0 0 .35-.29zm-1 2a.43.43 0 0 0 0 .05v1.89a.26.26 0 0 0 .14.21 4.92 4.92 0 0 0 .89.37 7.75 7.75 0 0 0 2.92.1 2.69 2.69 0 0 0 .95-.33.34.34 0 0 0 .18-.28c0-.59.07-1.18.1-1.77v-.19a7.48 7.48 0 0 1-5.22-.06zm1.2-2a.79.79 0 0 1-.38.46l-.22.16a1.28 1.28 0 0 0-.54.82c-.06.23 0 .29.18.37a7.11 7.11 0 0 0 .87.25 7.35 7.35 0 0 0 2.43.09 3.92 3.92 0 0 0 1.42-.36.22.22 0 0 0 .14-.28 1.46 1.46 0 0 0-.78-1.18.86.86 0 0 1-.31-.26.24.24 0 0 0-.27-.12c-.5 0-1 .09-1.49.1-.38.02-.73-.02-1.08-.04zm-1.27 4.33a7.86 7.86 0 0 1 0 .82.71.71 0 0 0 .51.77l.26.1a6.18 6.18 0 0 0 2.77.2 4.4 4.4 0 0 0 .9-.27.59.59 0 0 0 .42-.54 9 9 0 0 1 .14-.92 5 5 0 0 1-2.52.43 4.89 4.89 0 0 1-2.52-.58zm1.24-5.15a9.25 9.25 0 0 0 2.78 0 5.35 5.35 0 0 0-2.78 0zm1.68.65h.35v-.33h-.37zm1-.11c.13 0 .25-.07.35-.12s.05-.11.07-.16a.58.58 0 0 0-.15-.06c-.1 0-.2 0-.31.07zm-2-.23c-.34-.06-.36 0-.3.31h.28zm.86.35v-.33h-.27v.34zm-.72 0h.27v-.36h-.26zm-.62 0v-.4h-.26v.36zm2.35 0V3.3h-.3v.29zm-2.77 0v-.25c0-.08 0 0 0 0a.18.18 0 0 0-.05-.07.09.09 0 0 0-.08 0c-.12-.02-.08.08.07.19z" opacity=".4" fill="#fff"/><g opacity=".4" fill="#fff"><path d="M160.35 35.65a.6.6 0 0 0-.27.06l-1.51.59a11.56 11.56 0 0 1-1.72.48.88.88 0 0 0-.41.18 5.07 5.07 0 0 0-.08-.58l-.33-1.16a13.39 13.39 0 0 1-.36-1.33c-.07-.26-.19-.5-.25-.77a12.27 12.27 0 0 1-.33-2 2.54 2.54 0 0 0-.24-.65.68.68 0 0 1-.09-.35c0-.35 0-.4.4-.49s1-.34 1.44-.51a11 11 0 0 0 1.5-.66c.13-.07.23 0 .25.13a1.42 1.42 0 0 0 .4.66 8.61 8.61 0 0 0 1.08.83 3.38 3.38 0 0 1 .62.79 6.5 6.5 0 0 1 .62 1.13l.33.75c.09.26.25.27.32.46a5.45 5.45 0 0 0 .59 1.12c.09.13 0 .22-.1.31-.43.35-.91.61-1.36.92a5 5 0 0 1-.74.2c.07 0 .34-.07.38-.13s-.1.01-.14.02zm-3.72 1l1.08-.3a3.89 3.89 0 0 0 .81-.22c.62-.29 1.25-.53 1.89-.77.1 0 .13-.08.1-.18a1.73 1.73 0 0 1-.07-.31 12.49 12.49 0 0 0-.57-2 14 14 0 0 0-.76-1.73 1.57 1.57 0 0 0-.14-.25 2.32 2.32 0 0 1-.46-.77 3.49 3.49 0 0 1-.35-1.31c0-.12-.08-.08-.14-.05a10.57 10.57 0 0 1-1.51.65l-1.33.47c-.2.07-.27.17-.17.3a1.6 1.6 0 0 1 .28 1 10.93 10.93 0 0 0 .32 1.9l.56 1.92.46 1.64zm4.12-1.32a9.76 9.76 0 0 0 1.29-.83c.1-.08.1-.12 0-.2a3.53 3.53 0 0 1-.52-1 .32.32 0 0 0-.12-.18.7.7 0 0 1-.22-.29c-.32-.64-.59-1.3-1-1.92a2 2 0 0 0-1.56-.93 14.24 14.24 0 0 1 2.13 5.35zm-1.77-5.56a3.51 3.51 0 0 0-.51-.51c.05.41.09.45.51.53z"/><path d="M160.35 35.65h.14a.21.21 0 0 1-.16.08zm-2.85-5.32c-.15.18-.39.21-.59.3s-.27.08-.36.21 0 0 0 0c-.19-.09-.27 0-.37.16s-.06.05-.1 0a.06.06 0 0 1 0-.1c.11-.14.13-.38.43-.34.1 0 .24-.12.38-.17a6.66 6.66 0 0 0 .73-.31c.07 0 .14-.09.19 0s0 .13-.09.16-.13.17-.22.09z"/></g></svg>