<?xml version="1.0"?>
<svg xmlns="http://www.w3.org/2000/svg" xmlns:xlink="http://www.w3.org/1999/xlink" version="1.1" viewBox="0 0 224 224" width="30px" height="30px"><g fill="none" fill-rule="nonzero" stroke="none" stroke-width="1" stroke-linecap="butt" stroke-linejoin="miter" stroke-miterlimit="10" stroke-dasharray="" stroke-dashoffset="0" font-family="none" font-weight="none" font-size="none" text-anchor="none" style="mix-blend-mode: normal"><path d="M0,224v-224h224v224z" fill="none"/><g fill="#1f1f1f"><path d="M134.4,141.86667v-14.93333c3.36,-1.66507 12.9696,-13.104 13.9776,-22.0416c2.6432,-0.2016 6.79467,-2.62827 8.0192,-12.208c0.65707,-5.14453 -1.95627,-8.03413 -3.5392,-8.94507c0,0 3.9424,-7.48907 3.9424,-16.5312c0,-18.12907 -7.11573,-33.6 -22.4,-33.6c0,0 -5.3088,-11.2 -22.4,-11.2c-31.6736,0 -44.8,20.3168 -44.8,44.8c0,8.2432 3.9424,16.5312 3.9424,16.5312c-1.58293,0.91093 -4.19627,3.808 -3.5392,8.94507c1.22453,9.57973 5.376,12.0064 8.0192,12.208c1.008,8.9376 10.6176,20.37653 13.9776,22.0416v14.93333c-7.46667,22.4 -67.2,7.46667 -67.2,59.73333h179.2c0,-52.26667 -59.73333,-37.33333 -67.2,-59.73333z"/></g></g></svg>
