<svg xmlns="http://www.w3.org/2000/svg" width="120" height="120"><g transform="translate(-903 -227)"><circle cx="60" cy="60" r="60" transform="translate(903 227)" fill="#fecd26"/><path d="M962.7 300.7l31.6-41.7-37 17.3z" fill="#fff"/><path d="M994.3 259L936 271l21.5 5.3 5.3 24.5 1.8-22.1 23.9 4.2z" fill="#fff"/><path d="M957.4 276.3l37-16.1-29.9 18.5-1.8 22z" fill="#88e3ff"/><path d="M962.7 300.7l1.8-22 23.9 4.2 6-23.9-58.5 12 21.5 5.3 2 6.6" fill="none" stroke="#444b54" stroke-linecap="round" stroke-linejoin="round" stroke-width="4"/><g fill="none" stroke="#444b54" stroke-linecap="round" stroke-linejoin="round"><path d="M947.8 287.3l-1.4 1.1" stroke-width="4"/><path d="M938.5 294.3c-4.6 3.9-6.3 7-6.5 15.4-.4 19.7 40.3 6.1 45.3 5 9-1.8 8.7-10.7-2.7-8.6-8.3 1.5-9.4 15.5 8.3 15.5" stroke-width="4" stroke-dasharray="4 10"/><path d="M987.8 321.3l1.8-.3" stroke-width="6"/></g></g></svg>