<svg xmlns="http://www.w3.org/2000/svg" width="37.4" height="60"><g fill="#444b54"><path d="M31.9 59.6H5.5a5.1 5.1 0 0 1-5.1-5.1v-49C.4 2.6 2.7.4 5.4.4H32c2.8 0 5.1 2.2 5.1 5v49c0 3-2.3 5.2-5.1 5.2zM3.3 50v4.5c0 1.2 1 2.2 2.2 2.2h26.4c1.2 0 2.2-1 2.2-2.2V50H3.3zm0-37V47H34.1V13H3.3zm2.2-9.7c-1.2 0-2.2 1-2.2 2.2V10H34.1V5.5c0-1.2-1-2.2-2.2-2.2H5.5z"/><path d="M5.5.7A4.8 4.8 0 0 0 .7 5.5v49c0 2.6 2.1 4.8 4.8 4.8h26.4c2.6 0 4.8-2.2 4.8-4.8v-49c0-2.7-2.2-4.8-4.8-4.8H5.5m29 9.7H3V5.5C3 4 4 2.9 5.5 2.9h26.4c1.4 0 2.5 1.2 2.5 2.6v4.9m0 37H3V12.6h31.4V47.4M32 57H5.5A2.5 2.5 0 0 1 3 54.5v-4.9h31.4v4.9c0 1.4-1.1 2.5-2.5 2.5M5.5 0h26.4c3 0 5.5 2.5 5.5 5.5v49c0 3-2.5 5.5-5.5 5.5H5.5c-3 0-5.5-2.5-5.5-5.5v-49C0 2.5 2.5 0 5.5 0zm28.2 9.7V5.5c0-1-.8-1.9-1.8-1.9H5.5c-1 0-1.8.9-1.8 1.9v4.2h30zm0 37V13.3h-30v33.4h30zM32 56.3c1 0 1.8-.8 1.8-1.8v-4.2h-30v4.2c0 1 .8 1.8 1.8 1.8h26.4z" fill="#e8e8e8"/></g><path d="M15.6 54.8h6.3a1.3 1.3 0 1 0 0-2.6h-6.3a1.3 1.3 0 1 0 0 2.6zM24.3 5.2h-6.8c-1 0-1.8.6-1.8 1.3s.8 1.3 1.8 1.3h6.8c1 0 1.8-.6 1.8-1.3s-.8-1.3-1.8-1.3zM12.9 5.2h-.5a1.3 1.3 0 0 0 0 2.6h.5a1.3 1.3 0 0 0 0-2.6z" fill="#444b54"/><path d="M26.6 28.4a1 1 0 0 0 .3-1.1 1.1 1.1 0 0 0-1-.8l-3.7-.5a.5.5 0 0 1-.4-.3l-1.7-3.4a1.1 1.1 0 0 0-2 0l-1.7 3.4a.5.5 0 0 1-.4.3l-3.7.5a1.1 1.1 0 0 0-1 .8 1 1 0 0 0 .3 1.1l2.8 2.7a.5.5 0 0 1 .1.4l-.6 3.7a1 1 0 0 0 .4 1 1.1 1.1 0 0 0 1.2.2l3.4-1.8a.5.5 0 0 1 .4 0l3.4 1.8a1.1 1.1 0 0 0 1.2-.1 1 1 0 0 0 .5-1.1l-.7-3.7a.5.5 0 0 1 .2-.4zm-3.5 3.2l.6 3.7a.5.5 0 0 1-.2.5.5.5 0 0 1-.5 0l-3.4-1.7a1.1 1.1 0 0 0-1 0l-3.4 1.7a.5.5 0 0 1-.5 0 .5.5 0 0 1-.2-.5l.6-3.7a1.1 1.1 0 0 0-.3-1L12.1 28a.5.5 0 0 1-.2-.5.5.5 0 0 1 .4-.4l3.8-.5a1.1 1.1 0 0 0 .9-.6l1.7-3.4a.5.5 0 0 1 .9 0l1.7 3.4a1.1 1.1 0 0 0 .8.6l3.8.5a.5.5 0 0 1 .4.4.5.5 0 0 1-.1.5l-2.8 2.6a1.1 1.1 0 0 0-.3 1z" fill="#444b54" stroke="#444b54" stroke-width="2"/></svg>