<svg id="laptop" xmlns="http://www.w3.org/2000/svg" width="58" height="46" viewBox="0 0 58 46">
  <g id="Grupo_317" data-name="Grupo 317" transform="translate(0 0)">
    <g id="Grupo_316" data-name="Grupo 316">
      <path id="Trazado_502" data-name="Trazado 502" d="M58,100.908c0-.009,0-.017,0-.026a.883.883,0,0,0-.015-.1l0-.01a.867.867,0,0,0-.025-.09l-.008-.023q-.014-.04-.032-.077l-.006-.013-4.544-9.247V60.9a1.673,1.673,0,0,0-1.645-1.7H6.28a1.673,1.673,0,0,0-1.645,1.7V91.319L.092,100.566l-.006.013c-.012.025-.023.051-.032.077l-.008.023a.913.913,0,0,0-.025.09l0,.009a.889.889,0,0,0-.015.1c0,.009,0,.017,0,.026s0,.036,0,.055v2.224A1.987,1.987,0,0,0,1.953,105.2H56.047A1.987,1.987,0,0,0,58,103.186v-2.224C58,100.944,58,100.926,58,100.908ZM6.335,60.954h45.33v29.7H6.335ZM6.007,92.405H51.993l3.774,7.68H37.1l-.937-3.5a1.613,1.613,0,0,0-1.542-1.212H23.379a1.613,1.613,0,0,0-1.542,1.212l-.937,3.5H2.233Zm29.331,7.681H22.662l.792-2.964H34.546Zm20.963,3.1a.259.259,0,0,1-.254.262H1.953a.259.259,0,0,1-.254-.262v-1.347H56.3Z" transform="translate(0 -59.201)" fill="#fff"/>
    </g>
  </g>
  <g id="Grupo_319" data-name="Grupo 319" transform="translate(8.331 18.117)">
    <g id="Grupo_318" data-name="Grupo 318" transform="translate(0 0)">
      <path id="Trazado_503" data-name="Trazado 503" d="M112.419,213.756a.856.856,0,0,0-.842.869v8.809H73.607v-8.809a.843.843,0,1,0-1.684,0v9.185a1.343,1.343,0,0,0,1.321,1.362h38.7a1.343,1.343,0,0,0,1.321-1.362v-9.185A.856.856,0,0,0,112.419,213.756Z" transform="translate(-71.923 -213.756)" fill="#fff"/>
    </g>
  </g>
  <g id="Grupo_321" data-name="Grupo 321" transform="translate(8.331 3.591)">
    <g id="Grupo_320" data-name="Grupo 320" transform="translate(0 0)">
      <path id="Trazado_504" data-name="Trazado 504" d="M111.941,90.2h-38.7a1.343,1.343,0,0,0-1.321,1.362v15.6a.843.843,0,1,0,1.684,0V91.94h37.97v15.228a.843.843,0,1,0,1.684,0v-15.6A1.343,1.343,0,0,0,111.941,90.2Z" transform="translate(-71.923 -90.203)" fill="#fff"/>
    </g>
  </g>
</svg>
