<svg xmlns="http://www.w3.org/2000/svg" width="50.4" height="38.2"><g fill="#444b54"><path d="M44.2 38.1h-38a6 6 0 0 1-6.1-6V6a6 6 0 0 1 6-6h38.2a6 6 0 0 1 6 6v26a6 6 0 0 1-6 6zM6.2 2.7a3.4 3.4 0 0 0-3.5 3.5V32c0 1.9 1.6 3.4 3.5 3.4h38c2 0 3.5-1.5 3.5-3.4V6.2c0-2-1.6-3.5-3.5-3.5h-38z"/><path d="M6.2.2a6 6 0 0 0-6 6V32a6 6 0 0 0 6 6h38a6 6 0 0 0 6-6V6a6 6 0 0 0-6-6L6.3.3m41.6 31.7v.2c0 2-1.6 3.5-3.5 3.5H6.2c-2 0-3.6-1.6-3.6-3.5V6c0-1.9 1.6-3.5 3.6-3.5h38c2 0 3.6 1.6 3.6 3.6v25.7M6.2 0h38c3.5 0 6.2 2.8 6.2 6.2V32c0 3.4-2.8 6.1-6.2 6.1h-38A6.2 6.2 0 0 1 0 32.1V6C0 2.8 2.8 0 6.2 0zm38 35.4c1.9 0 3.4-1.5 3.4-3.3V6c0-1.8-1.5-3.3-3.4-3.3h-38a3.3 3.3 0 0 0-3.4 3.4V32c0 1.8 1.5 3.3 3.4 3.3h38z" fill="#e8e8e8"/><g><path d="M43.2 32.8c-.3 0-.7-.1-.9-.3L29.8 20.6h-.1L26 23.7a1.3 1.3 0 0 1-1.7 0l-3.5-3L8.1 32.5a1.3 1.3 0 0 1-1.8-.1c-.5-.5-.5-1.4 0-1.9L18.8 19l.1-.1L6.3 7.6A1.3 1.3 0 0 1 6.2 6a1.3 1.3 0 0 1 1.9-.1l13.5 12 .2.2 3.4 3 17-15.2a1.3 1.3 0 0 1 2 0c.4.6.4 1.4-.2 2l-12.3 11 12.4 11.8a1.3 1.3 0 0 1-.9 2.2z"/><path d="M7.2 5.5A1.2 1.2 0 0 0 6 6.8c0 .3.2.6.4.8L19 18.7l.2.2-.2.1L6.5 30.6A1.2 1.2 0 0 0 8 32.4l12.6-11.8H21l3.4 3a1.2 1.2 0 0 0 1.6 0l3.6-3 .1-.2.1.1 12.6 11.9c.2.2.5.3.8.3.3 0 .6-.1.9-.4a1.2 1.2 0 0 0 0-1.7L31.6 19l-.2-.1.2-.2L44 7.6c.5-.4.5-1.2 0-1.7a1.2 1.2 0 0 0-1.6 0L25.4 21l-.2.2-.1-.2-3.3-3-.3-.1L8 5.9c-.2-.3-.5-.4-.8-.4m0-.2c.4 0 .7.2 1 .4l13.5 12a2 2 0 0 1 .2.2l3.3 3 17-15.2a1.4 1.4 0 0 1 2 .1c.5.6.5 1.5 0 2l-12.4 11 12.4 11.7a1.4 1.4 0 1 1-2 2L29.7 20.7l-3.5 3.1a1.4 1.4 0 0 1-1.9 0l-3.4-3L8.3 32.5a1.4 1.4 0 0 1-2 0c-.6-.6-.5-1.5 0-2l12.5-11.6L6.3 7.8c-.6-.5-.6-1.4-.1-2 .3-.3.6-.5 1-.5z" fill="#e8e8e8"/></g></g></svg>