<!-- <svg xmlns="http://www.w3.org/2000/svg" xmlns:xlink="http://www.w3.org/1999/xlink" width="121" height="123.881" viewBox="0 0 121 123.881"><defs><clipPath id="a"><ellipse cx="60.5" cy="61.94" rx="60.5" ry="61.94" transform="translate(843 147)" fill="#fff" stroke="#707070" stroke-width="1"/></clipPath></defs><g transform="translate(-903 -146.119)"><circle cx="60" cy="60" r="60" transform="translate(904 150)" fill="#fecd26"/><g transform="translate(60 -0.881)" clip-path="url(#a)"><g transform="translate(875.906 170.614)"><g transform="translate(0 0)"><path d="M209.025,93.675V76.682s-15.869-.488-15.869-20.2h24.312V93.675Z" transform="translate(-183.569 6.713)" fill="#ead3b5"/><path d="M209.025,93.675V76.682s-15.869-.488-15.869-20.2" transform="translate(-183.569 6.713)" fill="none" stroke="#444b54" stroke-miterlimit="10" stroke-width="2"/><path d="M190.283-2.342a3.19,3.19,0,0,1-3.988,2.164L179-2.533A3.211,3.211,0,0,1,176.833-6.5l.233-.828a3.191,3.191,0,0,1,3.988-2.164l7.3,2.355a3.19,3.19,0,0,1,2.164,3.988Z" transform="translate(-176.707 34.291)" fill="#ead3b5" stroke="#444b54" stroke-miterlimit="10" stroke-width="2"/><g transform="translate(9.121)"><path d="M192.356-46.895a5.061,5.061,0,0,1,5.049-5.049h23.761a5.062,5.062,0,0,1,5.049,5.049V11.636a5.061,5.061,0,0,1-5.049,5.049H197.4a5.061,5.061,0,0,1-5.049-5.049V-46.895Z" transform="translate(-192.356 51.944)" fill="#fff"/><rect width="29.17" height="47.881" transform="translate(2.333 12.729)" fill="#dedddd"/><path d="M225.5-30.1h12.185V17.776h0Z" transform="translate(-206.182 42.834)" fill="#c9c9c9"/><rect width="29.17" height="4.858" transform="translate(2.333 7.85)" fill="#6fcacd"/><rect width="29.17" height="0.764" transform="translate(2.333 12.899)" fill="#b2b3b3"/><g transform="translate(-192.356 51.944)" fill="none" stroke-miterlimit="10"><path d="M192.356-46.895a5.061,5.061,0,0,1,5.049-5.049h23.761a5.062,5.062,0,0,1,5.049,5.049V11.636a5.061,5.061,0,0,1-5.049,5.049H197.4a5.061,5.061,0,0,1-5.049-5.049V-46.895Z" stroke="none"/><path d="M 197.4046783447266 -51.94400405883789 C 194.6256256103516 -51.94400405883789 192.3560028076172 -49.67378997802734 192.3560028076172 -46.89475250244141 L 192.3560028076172 11.63643646240234 C 192.3560028076172 14.41547775268555 194.6256256103516 16.68510437011719 197.4046783447266 16.68510437011719 L 221.1652374267578 16.68510437011719 C 223.9442596435547 16.68510437011719 226.2144775390625 14.41547775268555 226.2144775390625 11.63643646240234 L 226.2144775390625 -46.89475250244141 C 226.2144775390625 -49.67378997802734 223.9442596435547 -51.94400405883789 221.1652374267578 -51.94400405883789 L 197.4046783447266 -51.94400405883789 M 197.4046783447266 -53.94400405883789 L 221.1652374267578 -53.94400405883789 C 225.0522003173828 -53.94400405883789 228.2144775390625 -50.78172302246094 228.2144775390625 -46.89475250244141 L 228.2144775390625 11.63643646240234 C 228.2144775390625 15.52309036254883 225.0522003173828 18.68510437011719 221.1652374267578 18.68510437011719 L 197.4046783447266 18.68510437011719 C 193.5180206298828 18.68510437011719 190.3560028076172 15.52309036254883 190.3560028076172 11.63643646240234 L 190.3560028076172 -46.89475250244141 C 190.3560028076172 -50.78172302246094 193.5180206298828 -53.94400405883789 197.4046783447266 -53.94400405883789 Z" stroke="none" fill="#444b54"/></g><g transform="translate(2.333 7.85)" fill="none" stroke="#444b54" stroke-miterlimit="10" stroke-width="2"><rect width="29.17" height="52.739" stroke="none"/><rect x="1" y="1" width="27.17" height="50.739" fill="none"/></g><g transform="translate(-204.092 50.668)" fill="none" stroke-miterlimit="10"><path d="M221.552-48.356a.525.525,0,0,1-.53.53.526.526,0,0,1-.53-.53.525.525,0,0,1,.53-.53A.525.525,0,0,1,221.552-48.356Z" stroke="none"/><path d="M 221.0214080810547 -48.88600540161133 C 221.3186492919922 -48.88600540161133 221.5517730712891 -48.65286636352539 221.5517730712891 -48.35560607910156 C 221.5517730712891 -48.05892562866211 221.3186492919922 -47.82521438598633 221.0214080810547 -47.82521438598633 C 220.7247009277344 -47.82521438598633 220.4909973144531 -48.05892562866211 220.4909973144531 -48.35560607910156 C 220.4909973144531 -48.65286636352539 220.7247009277344 -48.88600540161133 221.0214080810547 -48.88600540161133 Z" stroke="none" fill="#444b54"/></g><g transform="translate(-202.422 48.998)" fill="none" stroke-miterlimit="10"><path d="M222.194-44.458a.425.425,0,0,1-.424.424h-4.859a.425.425,0,0,1-.424-.424h0a.425.425,0,0,1,.424-.424h4.859a.425.425,0,0,1,.424.424Z" stroke="none"/><path d="M 216.9113159179688 -44.88200378417969 L 221.7699890136719 -44.88200378417969 C 222.0031433105469 -44.88200378417969 222.1937103271484 -44.69140243530273 222.1937103271484 -44.4582633972168 C 222.1937103271484 -44.22454452514648 222.0031433105469 -44.03394317626953 221.7699890136719 -44.03394317626953 L 216.9113159179688 -44.03394317626953 C 216.6781921386719 -44.03394317626953 216.4870147705078 -44.22454452514648 216.4870147705078 -44.4582633972168 C 216.4870147705078 -44.69140243530273 216.6781921386719 -44.88200378417969 216.9113159179688 -44.88200378417969 Z" stroke="none" fill="#444b54"/></g><g transform="translate(-202.772 7.472)" fill="none" stroke-miterlimit="10"><path d="M222.077,57.042a2.376,2.376,0,1,1-2.376-2.376A2.372,2.372,0,0,1,222.077,57.042Z" stroke="none"/><path d="M 219.70068359375 56.66600036621094 C 219.4900054931641 56.66600036621094 219.3249816894531 56.83102798461914 219.3249816894531 57.04169845581055 C 219.3249816894531 57.25270843505859 219.4900054931641 57.41799926757812 219.70068359375 57.41799926757812 C 219.9117126464844 57.41799926757812 220.0770111083984 57.25270843505859 220.0770111083984 57.04169845581055 C 220.0770111083984 56.83102798461914 219.9117126464844 56.66600036621094 219.70068359375 56.66600036621094 M 219.70068359375 54.66600036621094 C 221.0161895751953 54.66600036621094 222.0770111083984 55.72679138183594 222.0770111083984 57.04169845581055 C 222.0770111083984 58.35720062255859 221.0161895751953 59.41799926757812 219.70068359375 59.41799926757812 C 218.3851928710938 59.41799926757812 217.3249816894531 58.35720062255859 217.3249816894531 57.04169845581055 C 217.3249816894531 55.72679138183594 218.3851928710938 54.66600036621094 219.70068359375 54.66600036621094 Z" stroke="none" fill="#444b54"/></g><line x2="29.191" transform="translate(2.333 12.729)" fill="none" stroke="#444b54" stroke-miterlimit="10" stroke-width="2"/></g><path d="M248.835,74.771V26.381l-5.6-15.211H228.978s-1.273,7.489,7.382,7.489l3.2,9.4s-15.847,5.028-10.65,23.93V74.75h19.921Z" transform="translate(-198.049 25.616)" fill="#ead3b5"/><path d="M255.474,75.809V32.361l-3.4-11.694" transform="translate(-208.147 21.655)" fill="none" stroke="#e0a763" stroke-linecap="round" stroke-miterlimit="10" stroke-width="6.809"/><path d="M248.835,74.771V26.381l-5.6-15.211H228.978s-1.273,7.489,7.382,7.489l3.2,9.4s-15.847,5.028-10.65,23.93" transform="translate(-198.048 25.616)" fill="none" stroke="#444b54" stroke-miterlimit="10" stroke-width="2"/><path d="M194.3,30.577a3.215,3.215,0,0,1-4.052,2.037l-5.685-1.888a3.215,3.215,0,0,1-2.037-4.052l.276-.806a3.215,3.215,0,0,1,4.052-2.036l5.685,1.888a3.215,3.215,0,0,1,2.037,4.052Z" transform="translate(-179.066 20.402)" fill="#ead3b5" stroke="#444b54" stroke-miterlimit="10" stroke-width="2"/><path d="M193.681,14.859a3.216,3.216,0,0,1-4.052,2.036l-5.07-1.676a3.216,3.216,0,0,1-2.037-4.052l.276-.806a3.215,3.215,0,0,1,4.052-2.037L191.92,10a3.215,3.215,0,0,1,2.036,4.052Z" transform="translate(-179.066 26.87)" fill="#ead3b5" stroke="#444b54" stroke-miterlimit="10" stroke-width="2"/><path d="M194.182,46.994a3.218,3.218,0,0,1-4.2,1.7l-4.625-1.973a3.211,3.211,0,0,1-1.7-4.2l.339-.785a3.218,3.218,0,0,1,4.2-1.7l4.624,1.973a3.218,3.218,0,0,1,1.7,4.2Z" transform="translate(-179.503 13.679)" fill="#ead3b5" stroke="#444b54" stroke-miterlimit="10" stroke-width="2"/></g></g></g></g></svg> -->

<svg width="121" height="123.881" viewBox="0 0 121 123.881" class="form-grid__icon"><defs><clipPath id="a"><ellipse cx="60.5" cy="61.94" rx="60.5" ry="61.94" transform="translate(843 147)" fill="#fff" stroke="#707070" stroke-width="1"></ellipse></clipPath></defs><g transform="translate(-903 -146.119)"><circle cx="60" cy="60" r="60" transform="translate(904 150)" fill="#fecd26"></circle><g transform="translate(935.906 170.614)"><g transform=""><path d="M209.025,93.675V76.682s-15.869-.488-15.869-20.2h24.312V93.675Z" transform="translate(-183.569 6.713)" fill="#ead3b5"></path><path d="M209.025,93.675V76.682s-15.869-.488-15.869-20.2" transform="translate(-183.569 6.713)" fill="none" stroke="#444b54" stroke-miterlimit="10" stroke-width="2"></path><path d="M190.283-2.342a3.19,3.19,0,0,1-3.988,2.164L179-2.533A3.211,3.211,0,0,1,176.833-6.5l.233-.828a3.191,3.191,0,0,1,3.988-2.164l7.3,2.355a3.19,3.19,0,0,1,2.164,3.988Z" transform="translate(-176.707 34.291)" fill="#ead3b5" stroke="#444b54" stroke-miterlimit="10" stroke-width="2"></path><g transform="translate(9.121)"><path d="M192.356-46.895a5.061,5.061,0,0,1,5.049-5.049h23.761a5.062,5.062,0,0,1,5.049,5.049V11.636a5.061,5.061,0,0,1-5.049,5.049H197.4a5.061,5.061,0,0,1-5.049-5.049V-46.895Z" transform="translate(-192.356 51.944)" fill="#fff"></path><rect width="29.17" height="47.881" transform="translate(2.333 12.729)" fill="#dedddd"></rect><path d="M225.5-30.1h12.185V17.776h0Z" transform="translate(-206.182 42.834)" fill="#c9c9c9"></path><rect width="29.17" height="4.858" transform="translate(2.333 7.85)" fill="#6fcacd"></rect><rect width="29.17" height="0.764" transform="translate(2.333 12.899)" fill="#b2b3b3"></rect><g transform="translate(-192.356 51.944)" fill="none" stroke-miterlimit="10"><path d="M192.356-46.895a5.061,5.061,0,0,1,5.049-5.049h23.761a5.062,5.062,0,0,1,5.049,5.049V11.636a5.061,5.061,0,0,1-5.049,5.049H197.4a5.061,5.061,0,0,1-5.049-5.049V-46.895Z" stroke="none"></path><path d="M 197.4046783447266 -51.94400405883789 C 194.6256256103516 -51.94400405883789 192.3560028076172 -49.67378997802734 192.3560028076172 -46.89475250244141 L 192.3560028076172 11.63643646240234 C 192.3560028076172 14.41547775268555 194.6256256103516 16.68510437011719 197.4046783447266 16.68510437011719 L 221.1652374267578 16.68510437011719 C 223.9442596435547 16.68510437011719 226.2144775390625 14.41547775268555 226.2144775390625 11.63643646240234 L 226.2144775390625 -46.89475250244141 C 226.2144775390625 -49.67378997802734 223.9442596435547 -51.94400405883789 221.1652374267578 -51.94400405883789 L 197.4046783447266 -51.94400405883789 M 197.4046783447266 -53.94400405883789 L 221.1652374267578 -53.94400405883789 C 225.0522003173828 -53.94400405883789 228.2144775390625 -50.78172302246094 228.2144775390625 -46.89475250244141 L 228.2144775390625 11.63643646240234 C 228.2144775390625 15.52309036254883 225.0522003173828 18.68510437011719 221.1652374267578 18.68510437011719 L 197.4046783447266 18.68510437011719 C 193.5180206298828 18.68510437011719 190.3560028076172 15.52309036254883 190.3560028076172 11.63643646240234 L 190.3560028076172 -46.89475250244141 C 190.3560028076172 -50.78172302246094 193.5180206298828 -53.94400405883789 197.4046783447266 -53.94400405883789 Z" stroke="none" fill="#444b54"></path></g><g transform="translate(2.333 7.85)" fill="none" stroke="#444b54" stroke-miterlimit="10" stroke-width="2"><rect width="29.17" height="52.739" stroke="none"></rect><rect x="1" y="1" width="27.17" height="50.739" fill="none"></rect></g><g transform="translate(-204.092 50.668)" fill="none" stroke-miterlimit="10"><path d="M221.552-48.356a.525.525,0,0,1-.53.53.526.526,0,0,1-.53-.53.525.525,0,0,1,.53-.53A.525.525,0,0,1,221.552-48.356Z" stroke="none"></path><path d="M 221.0214080810547 -48.88600540161133 C 221.3186492919922 -48.88600540161133 221.5517730712891 -48.65286636352539 221.5517730712891 -48.35560607910156 C 221.5517730712891 -48.05892562866211 221.3186492919922 -47.82521438598633 221.0214080810547 -47.82521438598633 C 220.7247009277344 -47.82521438598633 220.4909973144531 -48.05892562866211 220.4909973144531 -48.35560607910156 C 220.4909973144531 -48.65286636352539 220.7247009277344 -48.88600540161133 221.0214080810547 -48.88600540161133 Z" stroke="none" fill="#444b54"></path></g><g transform="translate(-202.422 48.998)" fill="none" stroke-miterlimit="10"><path d="M222.194-44.458a.425.425,0,0,1-.424.424h-4.859a.425.425,0,0,1-.424-.424h0a.425.425,0,0,1,.424-.424h4.859a.425.425,0,0,1,.424.424Z" stroke="none"></path><path d="M 216.9113159179688 -44.88200378417969 L 221.7699890136719 -44.88200378417969 C 222.0031433105469 -44.88200378417969 222.1937103271484 -44.69140243530273 222.1937103271484 -44.4582633972168 C 222.1937103271484 -44.22454452514648 222.0031433105469 -44.03394317626953 221.7699890136719 -44.03394317626953 L 216.9113159179688 -44.03394317626953 C 216.6781921386719 -44.03394317626953 216.4870147705078 -44.22454452514648 216.4870147705078 -44.4582633972168 C 216.4870147705078 -44.69140243530273 216.6781921386719 -44.88200378417969 216.9113159179688 -44.88200378417969 Z" stroke="none" fill="#444b54"></path></g><g transform="translate(-202.772 7.472)" fill="none" stroke-miterlimit="10"><path d="M222.077,57.042a2.376,2.376,0,1,1-2.376-2.376A2.372,2.372,0,0,1,222.077,57.042Z" stroke="none"></path><path d="M 219.70068359375 56.66600036621094 C 219.4900054931641 56.66600036621094 219.3249816894531 56.83102798461914 219.3249816894531 57.04169845581055 C 219.3249816894531 57.25270843505859 219.4900054931641 57.41799926757812 219.70068359375 57.41799926757812 C 219.9117126464844 57.41799926757812 220.0770111083984 57.25270843505859 220.0770111083984 57.04169845581055 C 220.0770111083984 56.83102798461914 219.9117126464844 56.66600036621094 219.70068359375 56.66600036621094 M 219.70068359375 54.66600036621094 C 221.0161895751953 54.66600036621094 222.0770111083984 55.72679138183594 222.0770111083984 57.04169845581055 C 222.0770111083984 58.35720062255859 221.0161895751953 59.41799926757812 219.70068359375 59.41799926757812 C 218.3851928710938 59.41799926757812 217.3249816894531 58.35720062255859 217.3249816894531 57.04169845581055 C 217.3249816894531 55.72679138183594 218.3851928710938 54.66600036621094 219.70068359375 54.66600036621094 Z" stroke="none" fill="#444b54"></path></g><line x2="29.191" transform="translate(2.333 12.729)" fill="none" stroke="#444b54" stroke-miterlimit="10" stroke-width="2"></line></g><path d="M248.835,74.771V26.381l-5.6-15.211H228.978s-1.273,7.489,7.382,7.489l3.2,9.4s-15.847,5.028-10.65,23.93V74.75h19.921Z" transform="translate(-198.049 25.616)" fill="#ead3b5"></path><path d="M255.474,75.809V32.361l-3.4-11.694" transform="translate(-208.147 21.655)" fill="none" stroke="#e0a763" stroke-linecap="round" stroke-miterlimit="10" stroke-width="6.809"></path><path d="M248.835,74.771V26.381l-5.6-15.211H228.978s-1.273,7.489,7.382,7.489l3.2,9.4s-15.847,5.028-10.65,23.93" transform="translate(-198.048 25.616)" fill="none" stroke="#444b54" stroke-miterlimit="10" stroke-width="2"></path><path d="M194.3,30.577a3.215,3.215,0,0,1-4.052,2.037l-5.685-1.888a3.215,3.215,0,0,1-2.037-4.052l.276-.806a3.215,3.215,0,0,1,4.052-2.036l5.685,1.888a3.215,3.215,0,0,1,2.037,4.052Z" transform="translate(-179.066 20.402)" fill="#ead3b5" stroke="#444b54" stroke-miterlimit="10" stroke-width="2"></path><path d="M193.681,14.859a3.216,3.216,0,0,1-4.052,2.036l-5.07-1.676a3.216,3.216,0,0,1-2.037-4.052l.276-.806a3.215,3.215,0,0,1,4.052-2.037L191.92,10a3.215,3.215,0,0,1,2.036,4.052Z" transform="translate(-179.066 26.87)" fill="#ead3b5" stroke="#444b54" stroke-miterlimit="10" stroke-width="2"></path><path d="M194.182,46.994a3.218,3.218,0,0,1-4.2,1.7l-4.625-1.973a3.211,3.211,0,0,1-1.7-4.2l.339-.785a3.218,3.218,0,0,1,4.2-1.7l4.624,1.973a3.218,3.218,0,0,1,1.7,4.2Z" transform="translate(-179.503 13.679)" fill="#ead3b5" stroke="#444b54" stroke-miterlimit="10" stroke-width="2"></path></g></g></g></svg>