<svg xmlns="http://www.w3.org/2000/svg" width="120" height="120"><g transform="translate(-903 -203)"><circle cx="60" cy="60" r="60" transform="translate(903 203)" fill="#fecd26"/><path d="M984.6 282c0 9.7-9.3 17.5-21 17.5h-.5c-11.5 0-20.9-7.8-20.9-17.5v-10.3c0-9.8 9.3-17.6 21-17.6h.5c11.6 0 20.9 7.8 20.9 17.6V282z" fill="#b0e0d4"/><path d="M963.7 299.5h-.6c-11.5 0-20.9-7.8-20.9-17.5v-10.3c0-9.8 9.3-17.6 21-17.6h.5" fill="#7ac1ab"/><path d="M963.8 304h-.6c-13.9 0-25.2-9.7-25.2-21.5v-11.3c0-11.9 11.3-21.5 25.2-21.5h.6c13.9 0 25.2 9.6 25.2 21.5v11.3c0 11.8-11.3 21.5-25.2 21.5zm-.6-49.8c-11.3 0-20.6 7.6-20.6 17v11.3c0 9.3 9.2 17 20.6 17h.6c11.3 0 20.6-7.6 20.6-17v-11.3c0-9.3-9.2-17-20.6-17z" fill="#3f4954"/><path d="M984.6 282c0 9.7-9.3 17.5-21 17.5h-.5c-11.5 0-20.9-7.8-20.9-17.5v-10.3c0-9.8 9.3-17.6 21-17.6h.5c11.6 0 20.9 7.8 20.9 17.6V282z" fill="#f4767a"/><path d="M963.7 299.5h-.6c-11.5 0-20.9-7.8-20.9-17.5v-10.3c0-9.8 9.3-17.6 21-17.6h.5" fill="#e25963"/><path d="M963.8 304h-.6c-13.9 0-25.2-9.7-25.2-21.5v-11.3c0-11.9 11.3-21.5 25.2-21.5h.6c13.9 0 25.2 9.6 25.2 21.5v11.3c0 11.8-11.3 21.5-25.2 21.5zm-.6-49.8c-11.3 0-20.6 7.6-20.6 17v11.3c0 9.3 9.2 17 20.6 17h.6c11.3 0 20.6-7.6 20.6-17v-11.3c0-9.3-9.2-17-20.6-17z" fill="#3f4954"/><path d="M963.6 222c10.9 0 19.7 7.6 19.7 17a2.3 2.3 0 0 1-2.3 2.2 2.3 2.3 0 0 1-2.2-2.2c0-6.9-6.8-12.4-15.2-12.4h-.4c-8.3 0-15.2 5.5-15.2 12.4v17.8a2.2 2.2 0 0 1-2.2 2.3 2.3 2.3 0 0 1-2.3-2.3V239c0-9.4 8.8-17 19.7-17" fill="#3f4954"/><path d="M963.2 222c-10.9 0-19.7 7.6-19.7 17a2.3 2.3 0 0 0 2.2 2.2 2.3 2.3 0 0 0 2.3-2.2c0-6.9 6.8-12.4 15.2-12.4h.4c8.3 0 15.2 5.5 15.2 12.4v10.5a2.2 2.2 0 0 0 2.2 2.3 2.3 2.3 0 0 0 2.3-2.3V239c0-9.4-8.8-17-19.7-17M963.4 287.2a2.3 2.3 0 0 1-2.3-2.2v-14.8a2.3 2.3 0 0 1 2.3-2.3 2.3 2.3 0 0 1 2.3 2.3V285a2.3 2.3 0 0 1-2.3 2.2z" fill="#3f4954"/><g transform="translate(973.9 259.2)"><path d="M17 0A17 17 0 0 0 0 17a17 17 0 0 0 17 17.1 17 17 0 0 0 17.1-17A17 17 0 0 0 17.1 0z" fill="#3f4954"/><circle cx="13.7" cy="13.7" r="13.7" transform="translate(3.4 3.3)" fill="#fff"/><path d="M21.5 13.6A4.7 4.7 0 0 0 16.8 9a4.7 4.7 0 0 0-4.8 4.8 1.3 1.3 0 0 0 1.3 1.3 1.3 1.3 0 0 0 1.4-1.3 2 2 0 0 1 2-2 2 2 0 0 1 2.1 2 2 2 0 0 1-1.2 1.9 3.5 3.5 0 0 0-2.2 3.3V20a1.3 1.3 0 0 0 1.4 1.3A1.3 1.3 0 0 0 18 20V19a.9.9 0 0 1 .5-.9 4.7 4.7 0 0 0 2.9-4.3z" fill="#3f4954"/><circle cx="1.3" cy="1.3" r="1.3" transform="translate(15.4 23)" fill="#3f4954"/></g></g></svg>