<svg xmlns="http://www.w3.org/2000/svg" width="58.2" height="58.2"><g fill="#444b54"><path d="M48.5 34.6a8 8 0 0 0 3.4-6.4v-5a1.1 1.1 0 0 0 0-.4 8 8 0 0 0-16 .7v4.7a8 8 0 0 0 3.3 6.4 14.5 14.5 0 0 0-5.5 3.4l-.7-3.2a2.4 2.4 0 0 0-2.4-2h-22a2.5 2.5 0 0 0-2.4 3l3.5 15.6H1A1.1 1.1 0 0 0 0 52.5v4.6a1.1 1.1 0 0 0 1.1 1.1h56a1.1 1.1 0 0 0 1.1-1.1v-8.9a14.4 14.4 0 0 0-9.7-13.6zm-4.7-16.8a5.8 5.8 0 0 1 5.4 3.8 7.6 7.6 0 0 1-5.4 2.3h-5.7v-.3a5.8 5.8 0 0 1 5.7-5.8zm-5.7 10.4v-2h5.7a9.9 9.9 0 0 0 5.8-2v4a5.6 5.6 0 0 1-2.8 4.9 6 6 0 0 1-5.9 0 5.6 5.6 0 0 1-2.8-5zm5.7 7.9A12.1 12.1 0 0 1 56 48.2v3.2H36.7l-2.4-10.7a12.2 12.2 0 0 1 9.5-4.6zM9.4 39.7h12a1.1 1.1 0 0 0 0-2.3H8.9l-.5-2a.2.2 0 0 1 .2-.3h22a.2.2 0 0 1 .2.2l3.6 16.1H12zM56 55.9H2.3v-2.2H56z"/><path d="M26 37.4a1.1 1.1 0 1 0 .8.3 1.1 1.1 0 0 0-.9-.3zM14.6 29.1A14.6 14.6 0 0 0 27.7 8.3a1.1 1.1 0 0 0-2 1 12.3 12.3 0 1 1-6-5.9 1.1 1.1 0 0 0 1-2A14.6 14.6 0 0 0 4.3 24.7a14.5 14.5 0 0 0 10.3 4.3z"/><path d="M23.3 15.7h.8a1.1 1.1 0 1 0 0-2.3h-.8a1.1 1.1 0 0 0 0 2.3zM5 13.4a1.1 1.1 0 1 0 0 2.3h.8a1.1 1.1 0 0 0 0-2.3zM13.4 23.3v.8a1.1 1.1 0 0 0 2.3 0v-.8a1.1 1.1 0 1 0-2.3 0zM17.3 18.3a1.1 1.1 0 0 0 .8-2l-2.4-2.2V5.9a1.1 1.1 0 0 0-1.1-1.2A1.1 1.1 0 0 0 13.4 6v8.6a1.1 1.1 0 0 0 .4.9l2.7 2.6a1.1 1.1 0 0 0 .8.3zM24 6.2a1.1 1.1 0 1 0-.8-.3 1.1 1.1 0 0 0 .8.3z"/></g></svg>