<svg xmlns="http://www.w3.org/2000/svg" width="120" height="120"><g transform="translate(-903 -223)"><circle cx="60" cy="60" r="60" transform="translate(903 223)" fill="#fecd26"/><path d="M978.8 299.7c0 8.5-8.2 15.4-18.3 15.4h-.5c-10 0-18.3-6.9-18.3-15.4v-9c0-8.6 8.2-15.4 18.3-15.4h.5c10.1 0 18.3 6.8 18.3 15.4v9z" fill="#b0e0d4"/><path d="M960.5 315h-.5c-10 0-18.3-6.8-18.3-15.3v-9c0-8.6 8.2-15.4 18.3-15.4h.5" fill="#7ac1ab"/><path d="M960.6 319h-.5c-12.2 0-22.1-8.5-22.1-18.9v-9.9c0-10.4 10-18.8 22-18.8h.6c12.2 0 22 8.4 22 18.8v10c0 10.3-9.8 18.8-22 18.8zm-.5-43.6c-10 0-18.1 6.6-18.1 14.8v10c0 8.1 8 14.8 18 14.8h.6c10 0 18-6.6 18-14.9v-9.9c0-8.1-8-14.8-18-14.8z" fill="#3f4954"/><path d="M978.8 299.7c0 8.5-8.2 15.4-18.3 15.4h-.5c-10 0-18.3-6.9-18.3-15.4v-9c0-8.6 8.2-15.4 18.3-15.4h.5c10.1 0 18.3 6.8 18.3 15.4v9z" fill="#b0e0d4"/><path d="M960.5 315h-.5c-10 0-18.3-6.8-18.3-15.3v-9c0-8.6 8.2-15.4 18.3-15.4h.5" fill="#7ac1ab"/><path d="M960.6 319h-.5c-12.2 0-22.1-8.5-22.1-18.9v-9.9c0-10.4 10-18.8 22-18.8h.6c12.2 0 22 8.4 22 18.8v10c0 10.3-9.8 18.8-22 18.8zm-.5-43.6c-10 0-18.1 6.6-18.1 14.8v10c0 8.1 8 14.8 18 14.8h.6c10 0 18-6.6 18-14.9v-9.9c0-8.1-8-14.8-18-14.8z" fill="#3f4954"/><path d="M960.5 247c9.5 0 17.2 6.6 17.2 14.9a2 2 0 1 1-4 0c0-6-5.9-10.9-13.2-10.9h-.4c-7.3 0-13.3 4.9-13.3 10.9v15.6a2 2 0 0 1-2 2 2 2 0 0 1-2-2V262c0-8.3 7.7-14.9 17.3-14.9" fill="#3f4954"/><path d="M960 247c-9.5 0-17.2 6.6-17.2 14.9a2 2 0 1 0 4 0c0-6 5.9-10.9 13.3-10.9h.4c7.2 0 13.2 4.9 13.2 10.9v9.2a2 2 0 0 0 2 2 2 2 0 0 0 2-2V262c0-8.3-7.7-14.9-17.2-14.9M960.2 304.3a2 2 0 0 1-2-2v-13a2 2 0 1 1 4 0v13a2 2 0 0 1-2 2z" fill="#3f4954"/><g transform="translate(969.1 279.8)"><path d="M15 0a15 15 0 1 0 14.9 15 15 15 0 0 0-15-15z" fill="#3f4954"/><circle cx="12" cy="12" r="12" transform="translate(3 2.9)" fill="#fff"/><path d="M22.2 9.7a1.5 1.5 0 0 0-2 0l-7.3 7.2-3.2-3a1.5 1.5 0 0 0-2 2l4.2 4.2a1.3 1.3 0 0 0 1 .4 1.5 1.5 0 0 0 1-.4l8.4-8.3a1.7 1.7 0 0 0 0-2.1z" fill="#7bc000"/></g></g></svg>