<svg xmlns="http://www.w3.org/2000/svg" width="120" height="120"><g transform="translate(-903 -173)"><circle cx="60" cy="60" r="60" transform="translate(903 173)" fill="#fecd26"/><path d="M982.1 249.7c0 8.5-8.2 15.4-18.4 15.4h-.5c-10.2 0-18.5-6.9-18.5-15.4v-9.1c0-8.6 8.2-15.4 18.5-15.4h.5c10.2 0 18.4 6.8 18.4 15.4v9z" fill="#b0e0d4"/><path d="M963.6 265h-.5c-10.1 0-18.4-6.8-18.4-15.3v-9.1c0-8.6 8.2-15.4 18.4-15.4h.5" fill="#7ac1ab"/><path d="M963.8 269h-.6c-12.2 0-22.2-8.5-22.2-19v-9.8c0-10.5 10-19 22.2-19h.6c12.2 0 22.2 8.5 22.2 19v9.9c0 10.4-10 18.9-22.2 18.9zm-.6-43.7c-10 0-18.2 6.6-18.2 14.9v9.9c0 8.2 8.2 14.9 18.2 14.9h.6c10 0 18.2-6.7 18.2-15v-9.8c0-8.2-8.2-15-18.2-15z" fill="#3f4954"/><path d="M982.1 249.7c0 8.5-8.2 15.4-18.4 15.4h-.5c-10.2 0-18.5-6.9-18.5-15.4v-9.1c0-8.6 8.2-15.4 18.5-15.4h.5c10.2 0 18.4 6.8 18.4 15.4v9z" fill="#b0e0d4"/><path d="M963.6 265h-.5c-10.1 0-18.4-6.8-18.4-15.3v-9.1c0-8.6 8.2-15.4 18.4-15.4h.5" fill="#7ac1ab"/><path d="M963.8 269h-.6c-12.2 0-22.2-8.5-22.2-19v-9.8c0-10.5 10-19 22.2-19h.6c12.2 0 22.2 8.5 22.2 19v9.9c0 10.4-10 18.9-22.2 18.9zm-.6-43.7c-10 0-18.2 6.6-18.2 14.9v9.9c0 8.2 8.2 14.9 18.2 14.9h.6c10 0 18.2-6.7 18.2-15v-9.8c0-8.2-8.2-15-18.2-15z" fill="#3f4954"/><path d="M963.6 197c9.6 0 17.4 6.7 17.4 14.9a2 2 0 0 1-4 0c0-6-6-10.9-13.4-10.9h-.4c-7.3 0-13.4 4.9-13.4 10.9v15.7a2 2 0 0 1-2 2 2 2 0 0 1-2-2v-15.7c0-8.3 7.8-14.9 17.4-14.9M963.5 254.3a2 2 0 0 1-2-2v-13a2 2 0 1 1 4 0v13a2 2 0 0 1-2 2z" fill="#3f4954"/></g></svg>