<svg xmlns="http://www.w3.org/2000/svg" width="54.3" height="57.3" viewBox="0 0 54.3 57.3">
  <g id="Grupo_395" data-name="Grupo 395" transform="translate(0.15 0.15)">
    <path id="Trazado_591" data-name="Trazado 591" d="M65.551,40.452h-4.4L52.61,36.206v4.246H50.761c-.049,0-.1.012-.144.015l-3.553-.758V36.981a12.009,12.009,0,0,0,3.7-4.812v.008h4.622a7.343,7.343,0,0,0,3.653-13.742,19.391,19.391,0,0,0-38.734,0,7.343,7.343,0,0,0,3.653,13.742h4.622V32.17a12.015,12.015,0,0,0,3.7,4.812v2.727l-8.181,1.744A8.248,8.248,0,0,0,18,46.76L14.324,57h50.69l-1.321-3.677h1.858a2.769,2.769,0,0,0,2.773-2.758V43.21A2.769,2.769,0,0,0,65.551,40.452ZM60.929,24.823a5.537,5.537,0,0,1-5.546,5.516V28.5H53.534v1.839H51.35a11.854,11.854,0,0,0,.336-2.758V19.306h1.849v7.355h1.849V19.306A5.537,5.537,0,0,1,60.929,24.823ZM39.669,1.839a17.546,17.546,0,0,1,17.481,15.85,7.412,7.412,0,0,0-1.766-.221h-.127a15.7,15.7,0,0,0-31.175,0h-.127a7.412,7.412,0,0,0-1.766.221A17.546,17.546,0,0,1,39.669,1.839ZM25.8,30.339V28.5H23.955v1.839a5.516,5.516,0,1,1,0-11.032v7.355H25.8V19.306h1.849v8.274a11.854,11.854,0,0,0,.336,2.758Zm1.849-12.871H25.939a13.863,13.863,0,0,1,27.461,0H46.364a8.511,8.511,0,0,1-6.042-2.489l-.654-.65-.654.65a8.511,8.511,0,0,1-6.042,2.489H27.652ZM29.5,27.581V19.306h3.473a10.348,10.348,0,0,0,6.7-2.43,10.346,10.346,0,0,0,6.7,2.43h3.473v8.274a10.168,10.168,0,0,1-20.336,0ZM45.215,38.173v2.036a6.627,6.627,0,0,1-11.092,0V38.173a11.991,11.991,0,0,0,11.092,0ZM16.947,55.161l2.8-7.783A6.416,6.416,0,0,1,24.48,43.25l8.277-1.764a8.488,8.488,0,0,0,13.826,0l1.774.378a2.712,2.712,0,0,0-.368,1.346v7.355a2.769,2.769,0,0,0,2.773,2.758H61.731l.66,1.839Zm49.528-4.6a.923.923,0,0,1-.924.919H50.761a.923.923,0,0,1-.924-.919V43.21a.923.923,0,0,1,.924-.919h3.7V39.181l6.252,3.109h4.84a.923.923,0,0,1,.924.919Z" transform="translate(-14.324)" fill="#444b54" stroke="#444b54" stroke-linecap="round" stroke-linejoin="round" stroke-width="0.3"/>
  </g>
</svg>
