<svg xmlns="http://www.w3.org/2000/svg" width="159" height="24"><g fill-rule="evenodd"><path data-name="Trazado 175" d="M105.6 7.6l4.5 4.9-4.5 3V7.6zm-1 0l-2.8 1v9.8a6.1 6.1 0 0 1-.2 2 1.6 1.6 0 0 1-.8 1v.4a22.3 22.3 0 0 1 3.2.8 23.2 23.2 0 0 1 3 1.4l5.7-4-.3-.6-2.5 1.7-4.2-1.7v-3l7.7-5.4-4.8-5.5-3.9 2z"/><path data-name="Trazado 176" d="M133.2 5.5l4.4 2.6-2 3L132 9v10.7l3.4 1.6 1.8-1.3.4.5-4.7 3.6a24.3 24.3 0 0 0-2.8-1.5 16.4 16.4 0 0 0-2.8-.7v-.4a2.1 2.1 0 0 0 .7-1 6.6 6.6 0 0 0 .2-2V9a13.6 13.6 0 0 0 5-3.5z"/><path data-name="Trazado 177" d="M152.4 9l2.6 1.2v10.7l-3.8-1.6V8.7a7.8 7.8 0 0 1 1.2.4zm.8-3.5a16.7 16.7 0 0 1-5.8 3.3v9.6a5.5 5.5 0 0 1-.2 2 2.6 2.6 0 0 1-.7 1l.1.2a10.3 10.3 0 0 1 2.7.6 18 18 0 0 1 3.8 1.8 11.3 11.3 0 0 1 2-1.4 32.8 32.8 0 0 1 3.9-1.9V7.8a16.7 16.7 0 0 1-5.8-2.3z"/><path data-name="Trazado 178" d="M67.2 9l2.7 1.2v10.7L66 19.3V8.7a7.8 7.8 0 0 1 1.2.4zm.8-3.5a16.4 16.4 0 0 1-5.9 3.3v9.6a5.5 5.5 0 0 1-.2 2 3 3 0 0 1-.8 1l.1.2a9.2 9.2 0 0 1 2.7.6 20.4 20.4 0 0 1 3.8 1.8 11.3 11.3 0 0 1 2-1.4 32.8 32.8 0 0 1 4-1.9V7.8A17.1 17.1 0 0 1 68 5.5z"/><path data-name="Trazado 179" d="M32 20.7l-1 .7-2-1.4V3.9l1.4-1.3L27 0l-3.4 2.6L25 3.9v13.9a7 7 0 0 1 0 1.9 2 2 0 0 1-.4.9 2 2 0 0 1-.7.7v.2a9.5 9.5 0 0 1 2.2.8 27.6 27.6 0 0 1 2.4 1.7l4-2.8-.5-.5z"/><path data-name="Trazado 180" d="M60.5 17.3l-.4.4A15 15 0 0 1 56 20a11.6 11.6 0 0 1-4.3.7H51V3.4a7 7 0 0 0 3.7 1c2.2 0 4.2-1.5 5.7-3.7l-.6-.3A3.5 3.5 0 0 1 57 2c-1.3 0-3-.7-4.8-1.9l-7.6 6v7.3a9.4 9.4 0 0 1-.1 2.8 3 3 0 0 1-.8 1 9.4 9.4 0 0 1-2.3-6A8.6 8.6 0 0 1 43 6a12.8 12.8 0 0 1 3.5-3.6l.2-.1-.4-.5-.2.1a18.8 18.8 0 0 0-5.6 4.4 10.6 10.6 0 0 0-2.2 6.5 11.3 11.3 0 0 0 1.5 5.6 10.6 10.6 0 0 0 4.3 4.1A12.6 12.6 0 0 0 50 24a14.8 14.8 0 0 0 4.2-.7 13 13 0 0 0 3.7-1.8 14.7 14.7 0 0 0 2.9-3.3l.3-.5-.6-.4zm-10.4 3.3a11.4 11.4 0 0 1-3.3-.9 8.8 8.8 0 0 1-2.7-2.1 34.2 34.2 0 0 0 3.4-3.2 4 4 0 0 0 .9-1.3 8.8 8.8 0 0 0 .1-2v-7l1.7-1.5v18z"/><path data-name="Trazado 181" d="M123.4 5.5l-3.7 3.3a2.2 2.2 0 0 0-.5-1.3 8.6 8.6 0 0 0-2-2l-3.9 3.3.5.6a2 2 0 0 1 1-.7.7.7 0 0 1 .7.4 3 3 0 0 1 .3 1.7v7a5.4 5.4 0 0 1-.2 2 2.5 2.5 0 0 1-1 1v.5a12.3 12.3 0 0 1 2.3 1 23.4 23.4 0 0 1 2.3 1.7l4-3-.6-.6-1 .8-2-1.5v-10l1.2-1c1 1 1.5 1.7 2.5 1.7 1.7 0 4-2.6 4-2.6l-.3-.3c-1.5 1.3-2.7-1.2-3.6-2z"/><path data-name="Trazado 182" d="M22.5 17.4l-.5.3a14.4 14.4 0 0 1-4 2.3 11.6 11.6 0 0 1-4.3.7h-.9V13a5.7 5.7 0 0 0 1.5.3c1.9 0 3.8-1.8 5.2-3.7l-.6-.3a3 3 0 0 1-2.3 1.2 8.2 8.2 0 0 1-3.8-1.4V3.4a7 7 0 0 0 3.8 1c2.2 0 4.2-1.5 5.7-3.7l-.6-.3A3.5 3.5 0 0 1 18.9 2C17.6 1.9 16 1.2 14 0L6.5 6v7.3a14.4 14.4 0 0 1-.1 2.8 4 4 0 0 1-.9 1 9.3 9.3 0 0 1-2.2-6A9.1 9.1 0 0 1 4.8 6a14 14 0 0 1 3.5-3.6l.2-.1-.4-.5-.2.2a20.3 20.3 0 0 0-5.7 4.3A11 11 0 0 0 0 12.8a11.3 11.3 0 0 0 1.5 5.6A10.2 10.2 0 0 0 6 22.5a12.6 12.6 0 0 0 5.8 1.5 12.4 12.4 0 0 0 4.3-.7 12 12 0 0 0 3.6-1.9 13 13 0 0 0 2.9-3.2l.4-.5-.4-.3zM12.1 2.7v6.5l-1.7 1.4V4l1.7-1.4zm-3.3 17A10.2 10.2 0 0 1 6 17.6a27.2 27.2 0 0 0 3.4-3.2 4 4 0 0 0 .9-1.3 4.2 4.2 0 0 0 .1-1.3 7.8 7.8 0 0 0 1.8.9v8a9.5 9.5 0 0 1-3.4-1z"/><path data-name="Trazado 183" d="M96.8 8.4l1.8-1.8.4.5a10 10 0 0 0-1.3 1.3 2.4 2.4 0 0 0-.4 1V19a3.4 3.4 0 0 0 .2 1.8.7.7 0 0 0 .5.5c.3 0 .4-.3 1-.7l.4.4-3.7 3a6.1 6.1 0 0 1-1.7-1.7 3.5 3.5 0 0 1-.6-1.9V10.2l-1.7-1.5-2 1.9V20l1.3 1.5-3.3 2.5-3.2-2.5 1.3-1.5v-8.3a3.6 3.6 0 0 0-.3-1.8A4.1 4.1 0 0 0 84 8.5l-2 1.8V20l1.4 1.5-3.3 2.5-3.3-2.5 1.4-1.5v-9a4.2 4.2 0 0 0-.4-1.9c-.2-.3-.4-.4-.5-.4a3.3 3.3 0 0 0-1.2.6l-.4-.5 3.9-3.2A10.5 10.5 0 0 1 81.2 7a4.2 4.2 0 0 1 .7 1 4.9 4.9 0 0 1 .2 1.6l4.7-4a15 15 0 0 1 2.1 2.2 3.4 3.4 0 0 1 .7 2l4.5-4.2 2.7 2.9z"/><path data-name="Trazado 184" d="M138.3 3c1 1 1.9 2.2 2.8 2.2 1.6 0 3.9-2.5 3.9-2.5l-.3-.3c-1.5 1.3-2.7-1-3.5-1.7L138.3 3z"/><path data-name="Trazado 185" d="M145.4 20.6c-.5.4-.7.6-1 .6a.7.7 0 0 1-.5-.5 4.1 4.1 0 0 1-.4-1.8V9.7l1.4-1.4-3.3-2.8-3.3 2.8 1.4 1.4v10.7a3.6 3.6 0 0 0 .6 2 7.5 7.5 0 0 0 1.8 1.6l3.6-3-.3-.4z"/></g></svg>