<svg xmlns="http://www.w3.org/2000/svg" width="310.556" height="50"><defs><clipPath id="a"><path fill="none" d="M0 0h134v50H0z"/></clipPath></defs><g transform="translate(176.555)" clip-path="url(#a)"><g fill="none" stroke="#5b5400" stroke-width=".2"><path d="M3.625-65.962L-82.972 87.173M5.214-65.962L-81.383 87.173M6.802-65.962L-79.794 87.173M8.39-65.962L-78.206 87.173M9.978-65.962L-76.618 87.173M11.566-65.962L-75.029 87.173M13.155-65.962L-73.44 87.173M14.742-65.962L-71.852 87.173M16.333-65.962L-70.264 87.173M17.921-65.962L-68.675 87.173M19.509-65.962L-67.087 87.173M21.098-65.962L-65.498 87.173M22.686-65.962L-63.91 87.173M24.273-65.962L-62.321 87.173M25.863-65.962L-60.734 87.173M27.452-65.962L-59.145 87.173M29.04-65.962L-57.556 87.173M30.627-65.962L-55.967 87.173M32.217-65.962L-54.38 87.173M33.806-65.962L-52.791 87.173M35.393-65.962L-51.201 87.173M36.98-65.962L-49.614 87.173M38.571-65.962L-48.026 87.173M40.16-65.962L-46.437 87.173M41.747-65.962L-44.849 87.173M43.336-65.962L-43.26 87.173M44.925-65.962L-41.671 87.173M46.512-65.962L-40.084 87.173M48.102-65.962L-38.495 87.173M49.689-65.962L-36.907 87.173M51.279-65.962L-35.317 87.173M52.866-65.962L-33.731 87.173M54.454-65.962L-32.141 87.173M56.044-65.962L-30.552 87.173M57.632-65.962L-28.964 87.173M59.219-65.962L-27.375 87.173M60.809-65.962L-25.788 87.173M62.397-65.962L-24.199 87.173M63.986-65.962L-22.61 87.173M65.573-65.962L-21.021 87.173M67.161-65.962L-19.433 87.173M68.752-65.962L-17.845 87.173M70.339-65.962L-16.257 87.173M71.929-65.962L-14.667 87.173M73.516-65.962L-13.08 87.173M75.105-65.962L-11.491 87.173M76.693-65.962L-9.903 87.173M78.283-65.962L-8.315 87.173M79.87-65.962L-6.727 87.173M81.457-65.962L-5.137 87.173M83.049-65.962L-3.549 87.173M84.635-65.962L-1.961 87.173M86.223-65.962L-.371 87.173M87.813-65.962L1.217 87.173M89.399-65.962L2.805 87.173M90.99-65.962L4.393 87.173M92.578-65.962L5.981 87.173M94.167-65.962L7.57 87.173M95.754-65.962L9.158 87.173M97.343-65.962L10.747 87.173M98.93-65.962L12.336 87.173M100.52-65.962L13.923 87.173M102.107-65.962L15.513 87.173M103.697-65.962L17.101 87.173M105.286-65.962L18.689 87.173M106.874-65.962L20.278 87.173M108.463-65.962L21.865 87.173M110.051-65.962L23.455 87.173M111.637-65.962L25.043 87.173M113.227-65.962L26.631 87.173M114.816-65.962L28.22 87.173M116.404-65.962L29.808 87.173M117.993-65.962L31.396 87.173M119.58-65.962L32.986 87.173M121.17-65.962L34.574 87.173M122.759-65.962L36.162 87.173M124.347-65.962L37.751 87.173M125.935-65.962L39.339 87.173M127.524-65.962L40.927 87.173M129.112-65.962L42.516 87.173M130.7-65.962L44.104 87.173M132.289-65.962L45.692 87.173M133.878-65.962L47.282 87.173M135.466-65.962L48.869 87.173M137.055-65.962L50.458 87.173M138.643-65.962L52.046 87.173M140.229-65.962L53.635 87.173M141.82-65.962L55.224 87.173M143.407-65.962L56.811 87.173M144.998-65.962L58.4 87.173M146.586-65.962L59.991 87.173M148.173-65.962L61.578 87.173M149.762-65.962L63.167 87.173M151.35-65.962L64.753 87.173M152.939-65.962L66.342 87.173M154.527-65.962L67.931 87.173M156.116-65.962L69.519 87.173M157.705-65.962L71.108 87.173M159.293-65.962L72.696 87.173M160.881-65.962L74.286 87.173M162.47-65.962L75.873 87.173M164.059-65.962L77.461 87.173M165.647-65.962L79.051 87.173M167.236-65.962L80.638 87.173M168.823-65.962L82.227 87.173M170.411-65.962L83.816 87.173M172.001-65.962L85.404 87.173M173.589-65.962L86.992 87.173M175.178-65.962L88.581 87.173M176.766-65.962L90.17 87.173M178.353-65.962L91.758 87.173M179.943-65.962L93.347 87.173M181.531-65.962L94.934 87.173M183.118-65.962L96.524 87.173M184.708-65.962L98.112 87.173M186.296-65.962L99.699 87.173M187.885-65.962L101.289 87.173M189.475-65.962L102.878 87.173M191.062-65.962L104.466 87.173M192.651-65.962L106.055 87.173M194.239-65.962L107.642 87.173M195.827-65.962L109.231 87.173M197.415-65.962L110.819 87.173M199.004-65.962L112.408 87.173M200.591-65.962L113.997 87.173M202.182-65.962L115.585 87.173M203.77-65.962L117.172 87.173M205.358-65.962L118.762 87.173M206.947-65.962L120.35 87.173M208.535-65.962L121.939 87.173M210.123-65.962L123.527 87.173M211.712-65.962L125.115 87.173M213.299-65.962L126.703 87.173M214.888-65.962L128.292 87.173M216.479-65.962L129.88 87.173M218.064-65.962L131.47 87.173M219.653-65.962L133.059 87.173"/></g></g><path d="M109.16 21.316c-.71.321-1.861.747-2.937 1.136v10.044a7.494 7.494 0 0 1-.2 2.188 1.734 1.734 0 0 1-.781.85v.428a27.341 27.341 0 0 1 3.209.829 25.08 25.08 0 0 1 2.974 1.388l5.89-4.108-.378-.516-2.536 1.732-4.242-1.7v-3.186l7.808-5.471-4.841-5.647c-1.9.973-3.452 1.794-3.967 2.035m1 .1l4.516 5.026-4.516 3.172zM137.369 19.281l4.608 2.641-2.075 3.07-3.839-2.245v10.947l3.6 1.644 1.858-1.34.44.55-5.026 3.661a23.548 23.548 0 0 0-2.984-1.449 19.127 19.127 0 0 0-2.958-.767v-.412a2.05 2.05 0 0 0 .79-.893 5.941 5.941 0 0 0 .273-2.094V22.78a13.7 13.7 0 0 0 5.314-3.5M159.135 19.281a17.445 17.445 0 0 1-6 3.366v9.867a5.7 5.7 0 0 1-.24 1.975 2.728 2.728 0 0 1-.824 1l.171.343a9.419 9.419 0 0 1 2.8.515 19.867 19.867 0 0 1 3.884 1.864 14.207 14.207 0 0 1 2.126-1.489 36.822 36.822 0 0 1 4.007-1.854v-13.23a18.357 18.357 0 0 1-5.92-2.357m-.832 3.611c.582.206 1.372.542 2.78 1.193v11.052l-3.992-1.706V22.484a5.677 5.677 0 0 1 1.212.408M70.63 19.281a17.466 17.466 0 0 1-6 3.366v9.867a5.766 5.766 0 0 1-.239 1.975 2.734 2.734 0 0 1-.825 1l.172.343a9.413 9.413 0 0 1 2.8.515 19.79 19.79 0 0 1 3.883 1.864 14.316 14.316 0 0 1 2.127-1.489 36.992 36.992 0 0 1 4.006-1.854v-13.23a18.353 18.353 0 0 1-5.919-2.357m-.833 3.611c.583.206 1.373.542 2.781 1.193v11.052l-3.995-1.706V22.484a5.647 5.647 0 0 1 1.212.408M32.689 34.509l-.97.775-2.1-1.58V16.276l1.426-1.4-3.42-2.824-3.38 2.822 1.409 1.407v15.1c0 1.392-.029 1.923-.051 2.059a3.037 3.037 0 0 1-.369 1.047 2.127 2.127 0 0 1-.747.738l-.025.248a11.386 11.386 0 0 1 2.287.936 17.631 17.631 0 0 1 2.335 1.8l4.027-3.092zM52.076 34.452a10.646 10.646 0 0 1-3.4-1.032 9.985 9.985 0 0 1-2.874-2.29 31.517 31.517 0 0 0 3.506-3.36 3.881 3.881 0 0 0 .84-1.452 7.857 7.857 0 0 0 .163-2v-7.7l1.764-1.509zm10.759-3.566l-.425.37a15.234 15.234 0 0 1-4.307 2.5 11.48 11.48 0 0 1-4.412.823l-.842-.016V15.85a7.243 7.243 0 0 0 3.883 1.088c2.256 0 4.293-1.561 5.892-3.9l-.614-.327a3.568 3.568 0 0 1-2.872 1.517c-1.353 0-2.952-.739-4.963-2.051l-7.8 6.508v7.8a10.718 10.718 0 0 1-.191 3.067 3.944 3.944 0 0 1-.812 1.043 10.485 10.485 0 0 1-2.335-6.544 9.912 9.912 0 0 1 1.575-5.4 12.962 12.962 0 0 1 3.592-3.83l.226-.153-.424-.459-.2.122c-2.626 1.578-4.683 3.02-5.864 4.7a12.043 12.043 0 0 0-2.276 7.041 12.267 12.267 0 0 0 1.609 5.988 11.194 11.194 0 0 0 4.466 4.473 12.485 12.485 0 0 0 6.064 1.557 13.681 13.681 0 0 0 4.371-.742 12.4 12.4 0 0 0 3.772-1.989 13.422 13.422 0 0 0 2.964-3.531l.361-.57z"/><path d="M128.049 19.281l-3.863 3.365a2.331 2.331 0 0 0-.464-1.376 10.333 10.333 0 0 0-2.114-1.989l-3.949 3.382.431.526a2.192 2.192 0 0 1 1.153-.743.831.831 0 0 1 .661.437 3.466 3.466 0 0 1 .3 1.759v7.259a6.059 6.059 0 0 1-.231 2.068 2.717 2.717 0 0 1-.987 1.073v.377a10.978 10.978 0 0 1 2.323.992 15.414 15.414 0 0 1 2.359 1.8l4.109-3.133-.5-.567-.969.775-2.119-1.585v-10.2l1.259-1.141c.9 1.141 1.514 1.845 2.52 1.845 1.71 0 4.1-2.7 4.1-2.7l-.311-.381c-1.586 1.433-2.838-1.038-3.706-1.844M9.016 33.463a9.959 9.959 0 0 1-2.875-2.29 31.648 31.648 0 0 0 3.505-3.36 3.873 3.873 0 0 0 .84-1.452 5.546 5.546 0 0 0 .154-1.352 14.765 14.765 0 0 0 1.773.961v8.527a10.655 10.655 0 0 1-3.4-1.035m3.4-18.314v7.018l-1.764 1.476v-6.985zM23.172 30.93l-.426.371a15.283 15.283 0 0 1-4.307 2.5 11.517 11.517 0 0 1-4.413.823l-.841-.018v-8.342a4.848 4.848 0 0 0 1.483.262c1.953 0 3.961-1.976 5.321-3.963l-.593-.348a2.994 2.994 0 0 1-2.371 1.359 7.788 7.788 0 0 1-3.841-1.5v-6.182a7.257 7.257 0 0 0 3.883 1.088c2.255 0 4.292-1.562 5.891-3.9l-.615-.328a3.564 3.564 0 0 1-2.87 1.518c-1.353 0-2.954-.739-4.963-2.051l-7.8 6.506v7.8a10.751 10.751 0 0 1-.191 3.067 3.962 3.962 0 0 1-.813 1.043 10.486 10.486 0 0 1-2.335-6.545 9.906 9.906 0 0 1 1.576-5.395 12.974 12.974 0 0 1 3.592-3.83l.227-.154-.424-.458-.2.123c-2.626 1.578-4.682 3.02-5.865 4.7a12.049 12.049 0 0 0-2.275 7.04 12.253 12.253 0 0 0 1.61 5.99 11.186 11.186 0 0 0 4.464 4.473 12.491 12.491 0 0 0 6.065 1.556 13.7 13.7 0 0 0 4.37-.741 12.451 12.451 0 0 0 3.773-1.988 13.444 13.444 0 0 0 2.964-3.532l.361-.571zM100.762 22.044l1.812-1.768.5.464a7.633 7.633 0 0 0-1.312 1.373 2.964 2.964 0 0 0-.438 1.03 13.49 13.49 0 0 0-.1 2.111v7.762a3.955 3.955 0 0 0 .292 1.87c.193.31.378.464.549.464.24 0 .4-.228.992-.687l.395.5-3.811 3.037a8.247 8.247 0 0 1-1.8-1.727 3.864 3.864 0 0 1-.633-1.964V23.964l-1.839-1.575-2.168 1.961.008 9.757 1.424 1.516-3.379 2.578-3.4-2.571 1.364-1.519v-8.552a3.69 3.69 0 0 0-.284-1.866 4.7 4.7 0 0 0-1.487-1.392l-2.165 1.831v9.969l1.448 1.517-3.385 2.577-3.441-2.577 1.462-1.518v-9.15a3.893 3.893 0 0 0-.477-2.046q-.309-.479-.566-.48a3.117 3.117 0 0 0-1.253.7l-.378-.566 4.07-3.286a10.164 10.164 0 0 1 1.588 1.347 3.184 3.184 0 0 1 .722 1.079 4.874 4.874 0 0 1 .2 1.635l4.884-4.061a12.177 12.177 0 0 1 2.27 2.192 3.576 3.576 0 0 1 .709 2.068l4.642-4.26zM143.193 15.595c.9 1.141 1.957 2.386 2.963 2.386 1.709 0 4.1-2.7 4.1-2.7l-.311-.383c-1.588 1.434-2.839-1.037-3.706-1.843zM150.119 34.673c-.6.458-.752.687-.991.687q-.258 0-.55-.464a3.788 3.788 0 0 1-.347-1.872v-9.557l1.423-1.391-3.422-2.826-3.38 2.822 1.412 1.41v11.036a3.868 3.868 0 0 0 .634 1.964 8.234 8.234 0 0 0 1.8 1.726l3.81-3.036z"/><g><path d="M254.717 27.699h-2.083l-.275.717c-.414 1.079-.276 1.356.511 1.483v.115h-2.005v-.115c.562-.155.855-.458 1.242-1.423l1.869-4.677h.192l1.917 5.2c.241.649.371.812 1.045.9v.115h-2.635v-.115c.82-.034.924-.223.743-.732zm-.059-.175l-.907-2.6h-.036l-1.009 2.6zM257.194 29.896c.769-.026.977-.242.977-.621v-4.562c0-.37-.208-.6-.977-.621v-.1h2.7v.1c-.82.025-.907.232-.907.621v5.125h.8c1.14 0 1.683-.372 2.184-1.721l.113.009-.087 1.885h-4.8zM264.266 28.04h.122c.466 1.1 1.01 1.918 1.988 1.918a1.21 1.21 0 0 0 1.337-1.15c0-.821-.525-1.1-1.623-1.486-.822-.293-1.7-.526-1.7-1.641a1.825 1.825 0 0 1 2-1.812 3.224 3.224 0 0 1 1.27.259l.277-.312h.1v1.894h-.122c-.4-1.1-.949-1.678-1.674-1.678a1.089 1.089 0 0 0-1.16 1.108c0 .783.572 1.044 1.547 1.369.83.28 1.685.556 1.685 1.677a1.862 1.862 0 0 1-2.031 1.945 3.076 3.076 0 0 1-1.381-.372l-.536.407h-.1zM269.024 29.896c.771-.026.977-.242.977-.621v-4.562c0-.37-.206-.6-.977-.621v-.1h4.891l.025 1.865-.112.008c-.424-1.131-.865-1.7-1.867-1.7h-1.138v2.633h.543c.727 0 1.088-.242 1.322-1.191h.11v2.556h-.11c-.234-.951-.595-1.191-1.322-1.191h-.543v2.868h1.138c1.174 0 1.675-.6 2.135-1.807l.111.008-.043 1.971h-5.14zM276.709 29.275c0 .4.139.6.952.621v.115h-2.749v-.115c.77-.026.978-.242.978-.621v-4.562c0-.37-.208-.6-.978-.621v-.1h2.548c1.763 0 2.471.628 2.471 1.459 0 .752-.517 1.347-1.83 1.538v.025c1.279.06 1.556.63 1.693 1.556l.052.353c.137.81.286.924 1.055.924v.1a3.269 3.269 0 0 1-.881.121c-.806 0-.978-.321-1.072-1.114l-.1-.822c-.1-.863-.336-1.044-1.366-1.044h-.778zm.822-2.367c1.227 0 1.468-.58 1.468-1.434 0-.793-.363-1.312-1.6-1.312h-.69v2.746zM281.546 24.999c-.244-.64-.371-.8-1.037-.907v-.1h2.627v.1c-.812.045-.926.252-.746.742l1.54 4.206h.034l1.426-3.7c.3-.787.191-1.1-.588-1.245v-.1h2v.1c-.589.121-.847.433-1.244 1.427l-1.851 4.672h-.189zM286.95 29.896c.823-.026 1-.242 1-.621v-4.562c0-.37-.181-.6-1-.621v-.1h2.819v.1c-.823.025-1 .252-1 .621v4.562c0 .38.18.6 1 .621v.115h-2.819zM290.516 27.073a3.123 3.123 0 0 1 3.1-3.229 3.315 3.315 0 0 1 1.536.335l.363-.389h.087v1.98h-.1c-.422-1.167-1.08-1.763-1.977-1.763-1.054 0-2.048.854-2.048 3.031 0 2.073 1.191 2.808 2.21 2.808a2.391 2.391 0 0 0 2.126-1.5l.138.079a2.688 2.688 0 0 1-2.5 1.729 2.868 2.868 0 0 1-2.935-3.081zM296.57 29.896c.821-.026 1-.242 1-.621v-4.562c0-.37-.182-.6-1-.621v-.1h2.816v.1c-.82.025-1 .252-1 .621v4.562c0 .38.183.6 1 .621v.115h-2.816zM300.137 27.013a3.031 3.031 0 0 1 2.876-3.169 2.974 2.974 0 0 1 2.875 3.143 3.039 3.039 0 0 1-2.875 3.171 2.971 2.971 0 0 1-2.876-3.145zm4.793-.009c0-2.34-.847-3-1.96-3s-1.875.665-1.875 2.987c0 2.343.846 3 1.952 3s1.884-.663 1.884-2.988zM251.409 39.057c.769-.026.977-.242.977-.624v-4.559c0-.373-.207-.6-.977-.624v-.1h2.6c2.117 0 3.249 1.271 3.249 2.911a2.969 2.969 0 0 1-3.163 3.11h-2.686zm2.408-.063c1.893 0 2.481-.656 2.481-2.885 0-2.264-.8-2.79-2.419-2.79h-.673v5.674zM257.957 39.057c.769-.026.975-.242.975-.624v-4.559c0-.373-.206-.6-.975-.624v-.1h4.889l.025 1.866-.112.007c-.424-1.131-.864-1.7-1.865-1.7h-1.14v2.628h.545c.725 0 1.088-.239 1.322-1.191h.11v2.557h-.11c-.234-.95-.6-1.191-1.322-1.191h-.545v2.866h1.14c1.174 0 1.677-.594 2.134-1.8l.113.007-.042 1.97h-5.142zM263.844 39.057c.769-.026.975-.242.975-.624v-4.559c0-.373-.206-.6-.975-.624v-.1h2.705v.1c-.823.025-.911.235-.911.624v5.12h.8c1.141 0 1.685-.37 2.185-1.717l.113.007-.086 1.884h-4.8zM270.726 39.057c.768-.026.975-.242.975-.624v-4.559c0-.373-.208-.6-.975-.624v-.1h2.471c1.829 0 2.41.735 2.41 1.633 0 .836-.6 1.7-2.472 1.7h-.613v1.952c0 .4.216.6 1.036.624v.111h-2.832zm2.471-2.748c1.242 0 1.476-.6 1.476-1.547 0-.822-.258-1.442-1.451-1.442h-.7v2.989zM279.12 36.854h-2.083l-.275.716c-.415 1.08-.276 1.357.509 1.487v.111h-2v-.111c.562-.156.856-.458 1.245-1.427l1.867-4.673h.19l1.916 5.2c.241.65.372.812 1.045.9v.111h-2.635v-.111c.821-.035.923-.225.742-.735zm-.06-.174l-.908-2.6h-.032l-1.011 2.6zM281.649 39.056c.822-.025 1-.242 1-.624v-4.559c0-.373-.182-.6-1-.624v-.1h2.817v.1c-.822.025-1 .251-1 .624v4.559c0 .382.18.6 1 .624v.111h-2.817zm1.624-7.649c.164-.382.285-.589.51-.589a.325.325 0 0 1 .328.337c0 .153-.147.346-.371.561l-.855.8h-.1zM285.31 37.198h.122c.466 1.1 1.01 1.919 1.986 1.919a1.214 1.214 0 0 0 1.339-1.152c0-.818-.526-1.1-1.624-1.484-.819-.3-1.7-.528-1.7-1.643a1.827 1.827 0 0 1 2-1.812 3.236 3.236 0 0 1 1.269.259l.275-.31h.1v1.891h-.12c-.405-1.1-.949-1.675-1.677-1.675a1.087 1.087 0 0 0-1.155 1.105c0 .787.569 1.045 1.547 1.373.827.277 1.682.551 1.682 1.675a1.861 1.861 0 0 1-2.031 1.945 3.047 3.047 0 0 1-1.38-.372l-.535.407h-.105zM261.776 13.969s-.859 1.782-1.883 3.6c-.572.982-2.149 3.581-2.968 3.581-.9 0-1.514-.777-1.615-2.21a8.278 8.278 0 0 1 .245-2.518c-.267.307-.635.735-1.044 1.167-1.043 1.063-1.823 1.615-2.354 1.615a1.437 1.437 0 0 1-1.29-1.593c0-2.151 1.821-4.833 4.053-4.833a.917.917 0 0 1 .819.348 1.562 1.562 0 0 1 .1 1.188.158.158 0 0 1-.246-.063c.062-.244.184-.816-.164-.816-1.35 0-3.151 3.417-3.151 4.523 0 .53.368.53.492.53.2 0 .675-.163 1.759-1.308.531-.553.984-1.126 1.126-1.291.081-.286.144-.591.244-.919.349-1.25.717-2.212.717-2.231l.042-.1.122.04a4.563 4.563 0 0 1 .635.286c.472.247.676.491.614.717a26.263 26.263 0 0 0-1.106 5.444c-.02.267-.08 1.433.369 1.433.206 0 .635-.2 2.437-3.295.983-1.718 1.822-3.4 1.841-3.42a.386.386 0 0 1 .123.023.207.207 0 0 1 .083.102z"/><path d="M271.969 13.968c-.022 0-.778 1.412-1.761 2.845-1.352 1.945-2.435 2.926-3.233 2.926a1.807 1.807 0 0 1-1.883-1.534 6.024 6.024 0 0 1 .286-2.045c.021-.124.409-1.392.021-1.392-.2 0-.8.307-2.376 2.292a60.126 60.126 0 0 0-1.616 2.19l-.083.246-.041.018a.83.83 0 0 1-.389.1c-.656 0-1.268-.8-1.289-.84l-.021-.018v-.063a10.518 10.518 0 0 1 1-3.436 11.349 11.349 0 0 1 .8-1.475l.021-.039h.04a.969.969 0 0 1 .327-.063.923.923 0 0 1 .84.635 1.68 1.68 0 0 1 .164.594v.021l-1.086 3.4c.409-.593 1-1.452 1.657-2.292 1.7-2.149 3.009-3.234 3.931-3.234 1.166.042.635 1.617.328 2.641a21.2 21.2 0 0 0-.554 2.129c-.041.244-.285 1.512.267 1.512.428 0 1.248-.449 2.782-2.617.922-1.333 1.619-2.6 1.639-2.622a.171.171 0 0 1 .142.042.28.28 0 0 1 .087.079zm-5.506-1.476c0 .066-.021.147-.084.084a.957.957 0 0 0-.755-.307c-.39 0-.9.409-1.5.37a.942.942 0 0 1-1-.737c-.022-.063.081-.123.145-.1.224.287.366.389.632.389.595.021 1.145-.37 1.515-.37a1.246 1.246 0 0 1 1.047.672z"/><path d="M278.293 13.868c.041.019.08.1.08.1a4.774 4.774 0 0 1-1.616 1.863 3.187 3.187 0 0 1-1.658.554c-.042 0-.1-.023-.143-.023-.43.882-1.721 2.969-2.845 2.969a1.709 1.709 0 0 1-1.721-1.9 5.387 5.387 0 0 1 .718-2.843 2.618 2.618 0 0 1 .717-.861l.041-.021h.04a.834.834 0 0 1 .655.307 1.564 1.564 0 0 1 .267 1.291v.039l-.021.019a6.393 6.393 0 0 0-.778 2.272c0 .349.06.9.551.9.841 0 1.7-1.454 2.09-2.21a2.472 2.472 0 0 1-1.781-2.6c0-.758.511-1.9 1.494-1.9.778 0 1.269.7 1.269 1.68a6.327 6.327 0 0 1-.594 2.62 3.637 3.637 0 0 0 3.092-2.273.479.479 0 0 1 .143.017zm-3.521 2.229a6.38 6.38 0 0 0 .634-2.6c0-.8-.348-1.434-1.023-1.434-.635 0-.961.962-.961 1.659 0 1.208.429 2.213 1.328 2.374z"/><path d="M280.543 16.792a3.26 3.26 0 0 1-.018 1.476 3.831 3.831 0 0 1-3.583 2.6 1.024 1.024 0 0 1-1.127-1 1.819 1.819 0 0 1 .942-1.433 11.929 11.929 0 0 1 2.045-1.106 5.44 5.44 0 0 0-.387-1.451 6.152 6.152 0 0 1-.511-2.6 2.328 2.328 0 0 1 2.312-2.273.866.866 0 0 1 .817.9 1.9 1.9 0 0 1-.634 1.147.124.124 0 0 1-.12-.041.235.235 0 0 1-.045-.124 1.768 1.768 0 0 0 .553-.982c0-.165-.142-.656-.572-.656-.594 0-.88.881-.984 1.393a3.521 3.521 0 0 0 .614 2.394 8.872 8.872 0 0 1 .655 1.514 7.278 7.278 0 0 0 3.379-2.7.207.207 0 0 1 .144.023.2.2 0 0 1 .08.1 7.518 7.518 0 0 1-3.56 2.819zm-3.623 3.6a2.459 2.459 0 0 0 1.781-1.985 2.861 2.861 0 0 0 .123-.819 11.722 11.722 0 0 0-1.923 1.022 1.606 1.606 0 0 0-.84 1.249.632.632 0 0 0 .859.538z"/></g><g><path d="M182.977 35.357c3.175-.035 4.072-.655 4.072-2.037V16.554c0-2.036-.449-2.725-4.141-2.9v-.379l9-.725v20.768c0 1.381.793 2 4.036 2.037v.448h-12.967zM206.285 25.532c-5.048-2.372-8.088-5.535-8.088-10.28 0-6.507 6.2-11.252 13.381-11.252 7.421 0 13.383 3.893 13.383 9.367 0 4.38-3.347 7.176-8.76 9.49 6.691 2.675 10.035 6.143 10.035 11.373 0 6.752-7.238 11.739-14.294 11.739-9.244 0-14.9-4.258-14.9-10.28 0-4.257 3.709-8.029 9.243-10.157zm1.583.669a10.71 10.71 0 0 0-4.865 9.124c0 5.777 3.161 9.549 8.514 9.549 4.805 0 8.333-2.189 8.333-8.089 0-4.684-3.467-7.421-10.4-9.976a12.276 12.276 0 0 1-1.582-.608zm6.386-4.074l.73.3c2.98-2.068 4.015-4.8 4.015-8.577 0-5.231-2.8-8.7-7.6-8.7-4.136 0-7.055 2.25-7.055 7.6-.003 4.57 3.524 7.063 9.91 9.377zM226.81 23.867c0-6.854 3.9-12.18 9.744-12.18 5.953 0 9.64 5.186 9.64 12.041 0 6.786-3.9 12.076-9.744 12.076-5.951 0-9.64-5.116-9.64-11.937zm13.955-.069c0-7.759-1.079-11.449-4.42-11.449-3.271 0-4.106 3.69-4.106 11.449 0 7.691 1.078 11.381 4.42 11.381 3.27-.001 4.106-3.656 4.106-11.385z" fill="#fff"/></g></svg>