<svg xmlns="http://www.w3.org/2000/svg" width="100.9" height="16"><g fill="#fff"><path d="M66.7 5.7l-1.8.7v6.1a4.6 4.6 0 0 1 0 1.3 1 1 0 0 1-.6.6v.2a16.7 16.7 0 0 1 2 .5 15.3 15.3 0 0 1 1.8.9l3.6-2.5-.2-.3-1.6 1-2.5-1v-2L72 8l-3-3.5-2.4 1.3m.6 0l2.8 3.1-2.8 2zM84 4.4L86.8 6l-1.3 2-2.3-1.5v6.7l2.2 1 1.1-.8.3.4-3 2.2a14.4 14.4 0 0 0-1.9-.9 11.7 11.7 0 0 0-1.8-.5v-.2a1.3 1.3 0 0 0 .5-.6 3.6 3.6 0 0 0 .1-1.2v-6A8.4 8.4 0 0 0 84 4.4M97.3 4.4a10.7 10.7 0 0 1-3.7 2v6.1a3.5 3.5 0 0 1-.1 1.2 1.7 1.7 0 0 1-.5.6v.2a5.8 5.8 0 0 1 1.8.4 12.1 12.1 0 0 1 2.4 1.1 8.7 8.7 0 0 1 1.3-1 22.5 22.5 0 0 1 2.4-1V5.9a11.2 11.2 0 0 1-3.6-1.5m-.5 2.2l1.7.8V14l-2.4-1V6.4a3.5 3.5 0 0 1 .7.2M43.2 4.4a10.7 10.7 0 0 1-3.7 2v6.1a3.5 3.5 0 0 1-.1 1.2 1.7 1.7 0 0 1-.5.6v.2a5.8 5.8 0 0 1 1.8.4A12.1 12.1 0 0 1 43 16a8.8 8.8 0 0 1 1.3-1 22.6 22.6 0 0 1 2.4-1V5.9a11.2 11.2 0 0 1-3.6-1.5m-.5 2.2l1.7.8V14l-2.5-1V6.4a3.5 3.5 0 0 1 .8.2M20 13.7l-.6.5-1.3-1V2.6l.9-.9L16.9 0l-2 1.7.8.9V13a1.9 1.9 0 0 1-.3.6 1.3 1.3 0 0 1-.4.5v.1a7 7 0 0 1 1.4.6 10.8 10.8 0 0 1 1.4 1l2.4-1.8zM31.8 13.7a6.5 6.5 0 0 1-2-.6 6.1 6.1 0 0 1-1.8-1.4 19.3 19.3 0 0 0 2.2-2 2.4 2.4 0 0 0 .5-1 4.8 4.8 0 0 0 0-1.2V2.8l1.1-1zm6.6-2.2l-.2.2a9.3 9.3 0 0 1-2.7 1.6 7 7 0 0 1-2.7.5h-.5V2.3a4.4 4.4 0 0 0 2.4.7A4.6 4.6 0 0 0 38.3.6l-.4-.2a2.2 2.2 0 0 1-1.7 1 6 6 0 0 1-3-1.3l-4.9 4v4.7a6.6 6.6 0 0 1 0 1.9 2.4 2.4 0 0 1-.6.6 6.4 6.4 0 0 1-1.4-4 6 6 0 0 1 1-3.3 8 8 0 0 1 2.2-2.3l.1-.1-.3-.3a11.7 11.7 0 0 0-3.7 3 7.4 7.4 0 0 0-1.4 4.3 7.5 7.5 0 0 0 1 3.6A6.8 6.8 0 0 0 28 15a7.6 7.6 0 0 0 3.7 1 8.4 8.4 0 0 0 2.6-.5 7.6 7.6 0 0 0 2.3-1.2 8.2 8.2 0 0 0 1.9-2.2l.2-.4zM78.3 4.4l-2.4 2a1.4 1.4 0 0 0-.2-.8 6.3 6.3 0 0 0-1.3-1.2l-2.5 2 .3.4a1.3 1.3 0 0 1 .7-.4.5.5 0 0 1 .4.2 2.1 2.1 0 0 1 .2 1.1v4.4a3.7 3.7 0 0 1-.2 1.3 1.7 1.7 0 0 1-.6.7v.2a6.7 6.7 0 0 1 1.5.6 9.4 9.4 0 0 1 1.4 1.1l2.5-2-.3-.3-.6.5-1.3-1V7l.8-.7c.6.7 1 1.1 1.5 1.1 1 0 2.5-1.6 2.5-1.6l-.1-.2c-1 .8-1.8-.7-2.3-1.2M5.5 13a6 6 0 0 1-1.7-1.3 19.4 19.4 0 0 0 2.1-2 2.4 2.4 0 0 0 .5-1 3.4 3.4 0 0 0 .1-.8 9 9 0 0 0 1 .6v5.2a6.5 6.5 0 0 1-2-.6m2-11.2v4.3l-1 .9V2.8zm6.7 9.6l-.3.3a9.3 9.3 0 0 1-2.6 1.5 7 7 0 0 1-2.7.5H8V8.7a3 3 0 0 0 .9.2c1.2 0 2.4-1.3 3.2-2.5l-.3-.2a1.8 1.8 0 0 1-1.5.8 4.8 4.8 0 0 1-2.3-.9V2.4a4.4 4.4 0 0 0 2.3.6A4.6 4.6 0 0 0 14 .6l-.3-.2a2.2 2.2 0 0 1-1.8 1A6 6 0 0 1 9 0L4 4.1v4.7a6.6 6.6 0 0 1-.1 2 2.4 2.4 0 0 1-.5.6 6.4 6.4 0 0 1-1.4-4A6 6 0 0 1 3 4a8 8 0 0 1 2.1-2.4h.2L5 1.2l-.1.1a11.7 11.7 0 0 0-3.6 2.9A7.4 7.4 0 0 0 0 8.6a7.5 7.5 0 0 0 1 3.7A6.8 6.8 0 0 0 3.7 15a7.6 7.6 0 0 0 3.7 1 8.4 8.4 0 0 0 2.7-.5 7.6 7.6 0 0 0 2.3-1.2 8.2 8.2 0 0 0 1.8-2.2l.2-.3zM61.6 6.1l1.1-1 .3.2a4.7 4.7 0 0 0-.8.9 1.8 1.8 0 0 0-.2.6 8.2 8.2 0 0 0-.1 1.3v4.7A2.4 2.4 0 0 0 62 14c0 .2.2.2.3.2.2 0 .2 0 .6-.4l.3.3-2.4 1.9a5 5 0 0 1-1-1 2.4 2.4 0 0 1-.5-1.3V7.3l-1-1L57 7.5v6l.9 1-2.1 1.5-2-1.6.8-1V8.4a2.3 2.3 0 0 0-.2-1.2 2.9 2.9 0 0 0-1-.8l-1.3 1v6.2l1 1L51 16l-2.1-1.6.9-1V8a2.4 2.4 0 0 0-.3-1.3q-.2-.3-.4-.3a2 2 0 0 0-.7.5l-.3-.4 2.5-2a6.2 6.2 0 0 1 1 .8 2 2 0 0 1 .4.7 3 3 0 0 1 .1 1l3-2.5a7.4 7.4 0 0 1 1.4 1.4A2.2 2.2 0 0 1 57 7l2.8-2.6zM87.6 2.2c.5.7 1.2 1.4 1.8 1.4 1 0 2.5-1.6 2.5-1.6l-.2-.3c-1 1-1.8-.6-2.3-1zM91.8 13.8l-.6.5-.3-.3a2.3 2.3 0 0 1-.3-1.2V7l1-.9-2.2-1.7-2 1.7.8.9v6.7a2.4 2.4 0 0 0 .4 1.2 5 5 0 0 0 1.1 1l2.3-1.8z"/></g></svg>