<svg id="Grupo_339" data-name="Grupo 339" xmlns="http://www.w3.org/2000/svg" width="138" height="30" viewBox="0 0 138 30">
  <path id="Trazado_142" data-name="Trazado 142" d="M25.04,16.83H15.961A4,4,0,0,1,17.2,18.182c.2.363.321.577.347.643a3.037,3.037,0,0,1,.169,1.113v5.721l-.279.1H15.234A6.089,6.089,0,0,1,9.9,22.534a13.848,13.848,0,0,1-1.894-7.477,10.848,10.848,0,0,1,1.336-5.7C10.584,7.341,12.63,6.211,15.5,5.964h.448a9.878,9.878,0,0,1,2.824.495,8.06,8.06,0,0,1,2,.824l1.615.956V2.551a22.006,22.006,0,0,0-6.619-.841A16.455,16.455,0,0,0,4.7,5.75,12.765,12.765,0,0,0,0,15.8,12.942,12.942,0,0,0,4.852,26.368,16.814,16.814,0,0,0,15.859,30.02a35.363,35.363,0,0,0,5.309-.47,25.9,25.9,0,0,0,3.872-.775Z" transform="translate(0 -0.3)" fill="#fff"/>
  <path id="Trazado_143" data-name="Trazado 143" d="M135.98,6.529a2.811,2.811,0,0,1,.566.692,7.486,7.486,0,0,1,.44.8,7.455,7.455,0,0,1,.4.965,3.077,3.077,0,0,1,.127.915v10.66L126.748,6.529h-7.3a3.479,3.479,0,0,1,.719.758,6.658,6.658,0,0,1,.778,1.228,4.377,4.377,0,0,1,.414,1.212,8.753,8.753,0,0,1,.1,1.467V25.556a4.542,4.542,0,0,1-.71,2.514,4.819,4.819,0,0,1-.879,1.047h6.966a4.686,4.686,0,0,1-.9-1.047,4.422,4.422,0,0,1-.71-2.49V15.062l8.073,10.519a7.959,7.959,0,0,0,1.471,1.492A14.585,14.585,0,0,0,137.4,28.73a10.27,10.27,0,0,0,1.8.783,18.806,18.806,0,0,0,1.97.486V9.926a3.6,3.6,0,0,1,.2-1.245,4.157,4.157,0,0,1,.321-.692c.254-.445.406-.709.465-.8a3.355,3.355,0,0,1,.609-.66H135.98ZM109.258,0l-6.374,3.66,1.589.89,6.061-2.325Zm2.376,24.122a5.344,5.344,0,0,1-4.641,2.209,5.413,5.413,0,0,1-4.675-2.927,11.708,11.708,0,0,1-1.7-6.356,8.725,8.725,0,0,1,1.471-5.251,5.162,5.162,0,0,1,4.421-2.185A5.511,5.511,0,0,1,111.5,12.6,12.687,12.687,0,0,1,113,19.06a8.617,8.617,0,0,1-1.37,5.062M116.266,9.34a13.769,13.769,0,0,0-9.274-3.092,13.366,13.366,0,0,0-9.418,3.38A11.052,11.052,0,0,0,93.905,18.1a11.084,11.084,0,0,0,3.339,8.178,12.264,12.264,0,0,0,9,3.479q6.087,0,9.8-3.232a11.284,11.284,0,0,0,3.821-9,10.2,10.2,0,0,0-3.6-8.178M92.959,28.648a2.681,2.681,0,0,1-.482-.577,2.21,2.21,0,0,1-.38-.833,5.341,5.341,0,0,1-.068-1.022V9.093a3.992,3.992,0,0,1,.152-.66,2.2,2.2,0,0,1,.355-.8A6.464,6.464,0,0,1,93.018,7a2.693,2.693,0,0,1,.592-.47H83.8a2.608,2.608,0,0,1,.651.445,4.739,4.739,0,0,1,.507.594,2.278,2.278,0,0,1,.372.816,3.251,3.251,0,0,1,.11.717V26.257a4.141,4.141,0,0,1-.194,1.336,2.945,2.945,0,0,1-1.42,1.533H93.6a5.8,5.8,0,0,1-.642-.478M65.8,6.529l-1.327,4.864a5.477,5.477,0,0,1,1.471-.882,4.188,4.188,0,0,1,1.64-.47h2.494l.287.107V26.216a3.49,3.49,0,0,1-.82,2.35,3.66,3.66,0,0,1-.651.61h9.8a3.964,3.964,0,0,1-1.175-1.121,3.876,3.876,0,0,1-.541-.965,6.3,6.3,0,0,1-.068-1.228V10.256l.507-.223h1.758a2.367,2.367,0,0,1,1.725.635c.059.058.161.165.313.33a1.705,1.705,0,0,1,.338.528l1.3-5H65.8ZM64.7,18.293a8.012,8.012,0,0,0-3.145-2.432l-2.325-1.047c-1.192-.552-1.894-.89-2.122-1.022-1.1-.61-1.64-1.261-1.64-1.962a2.015,2.015,0,0,1,.169-.742,2.126,2.126,0,0,1,1.2-1.187,5.282,5.282,0,0,1,1.97-.33,6.127,6.127,0,0,1,1.784.28,9.222,9.222,0,0,1,1.53.577l1.386.742V7.164L61.3,6.636a12.557,12.557,0,0,0-1.936-.33c-.617-.058-1.277-.082-2-.082a10.216,10.216,0,0,0-5.96,1.7,5.225,5.225,0,0,0-2.452,4.485,6.331,6.331,0,0,0,1.336,4.171,12.665,12.665,0,0,0,4.388,3.009l2.435,1.162a6.216,6.216,0,0,1,1.758,1.162,2.5,2.5,0,0,1,.735,1.764,2.032,2.032,0,0,1-.921,1.822,4.34,4.34,0,0,1-2.418.61,12.544,12.544,0,0,1-2.722-.322,9.41,9.41,0,0,1-2.409-.841l-2.519-1.41,1.048,4.724.879.305a18.527,18.527,0,0,0,3.06.8,17.565,17.565,0,0,0,2.917.247,11.062,11.062,0,0,0,6.9-2.045,6.5,6.5,0,0,0,2.68-5.441,6.224,6.224,0,0,0-1.4-3.833M46.31,25.276a7.944,7.944,0,0,1-2.722.66,2.089,2.089,0,0,0-.423.058h-.457a12.343,12.343,0,0,1-2.037-.165,9.186,9.186,0,0,1-1.64-.412V18.928h2.325a4.021,4.021,0,0,1,.761.1,2.1,2.1,0,0,1,.795.322,2.195,2.195,0,0,1,.879,1.1V15.342l-.457.223H39.049V10.041h3.483a2.739,2.739,0,0,1,.735.148,3.131,3.131,0,0,1,.854.412,3.725,3.725,0,0,1,.524.429,2.2,2.2,0,0,1,.33.552V6.331l-.389.2H30.933a2.528,2.528,0,0,1,.626.495,4.794,4.794,0,0,1,.507.61,2.266,2.266,0,0,1,.355.783,3.127,3.127,0,0,1,.127.676v17.1a3.93,3.93,0,0,1-.186,1.311,2.9,2.9,0,0,1-.668,1.039,1.79,1.79,0,0,1-.287.28c-.017.016-.211.124-.566.305H46.589l1.471-5.218a13.894,13.894,0,0,1-1.75,1.369" transform="translate(-4.768)" fill="#fff"/>
</svg>
