<svg xmlns="http://www.w3.org/2000/svg" width="71" height="16"><path d="M12.9 8.8H8.2a2.1 2.1 0 0 1 .7.7l.1.4a1.7 1.7 0 0 1 .1.6v3H7.8A3.1 3.1 0 0 1 5.1 12a7.6 7.6 0 0 1-1-4 6 6 0 0 1 .7-3A3.8 3.8 0 0 1 8 3h.2a5 5 0 0 1 1.5.3 4 4 0 0 1 1 .4l.8.5v-3A11 11 0 0 0 8.1.8a8.3 8.3 0 0 0-5.7 2.1A7 7 0 0 0 0 8.3a7 7 0 0 0 2.5 5.6 8.5 8.5 0 0 0 5.7 2 17.6 17.6 0 0 0 2.7-.3 13 13 0 0 0 2-.4zM67.5 3.5a1.5 1.5 0 0 1 .3.4 4 4 0 0 1 .2.4 4 4 0 0 1 .2.5 1.7 1.7 0 0 1 0 .5V11l-5.4-7.5H59a1.8 1.8 0 0 1 .4.4 3.6 3.6 0 0 1 .4.6 2.4 2.4 0 0 1 .2.7 4.8 4.8 0 0 1 0 .8v7.6a2.5 2.5 0 0 1-.3 1.4 2.6 2.6 0 0 1-.5.5h3.6a2.5 2.5 0 0 1-.5-.5 2.4 2.4 0 0 1-.3-1.4V8l4.1 5.6a4.2 4.2 0 0 0 .8.8 7.5 7.5 0 0 0 1.3 1 5.2 5.2 0 0 0 1 .3 9.4 9.4 0 0 0 1 .3V5.3a2 2 0 0 1 0-.7 2.3 2.3 0 0 1 .2-.3l.3-.5a1.8 1.8 0 0 1 .3-.3h-3.5zM53.8 0l-3.3 2 .8.4 3.1-1.2zM55 12.9a2.7 2.7 0 0 1-2.4 1.1 2.8 2.8 0 0 1-2.4-1.5 6.4 6.4 0 0 1-.9-3.4 4.8 4.8 0 0 1 .8-2.8A2.6 2.6 0 0 1 52.3 5 2.8 2.8 0 0 1 55 6.7a7 7 0 0 1 .8 3.5 4.7 4.7 0 0 1-.7 2.7m2.4-8a7 7 0 0 0-4.8-1.6 6.7 6.7 0 0 0-4.9 1.8A6 6 0 0 0 46 9.6a6 6 0 0 0 1.7 4.4 6.2 6.2 0 0 0 4.6 1.9 7.2 7.2 0 0 0 5-1.8 6.1 6.1 0 0 0 2-4.8A5.5 5.5 0 0 0 57.4 5m-12 10.3a1.4 1.4 0 0 1-.3-.3 1.2 1.2 0 0 1-.2-.5 3 3 0 0 1 0-.5V4.8a2.2 2.2 0 0 1 0-.3 1.2 1.2 0 0 1 .3-.4 3.4 3.4 0 0 1 .2-.4 1.4 1.4 0 0 1 .3-.2h-5a1.3 1.3 0 0 1 .3.2 2.5 2.5 0 0 1 .3.3 1.2 1.2 0 0 1 .2.5 1.8 1.8 0 0 1 0 .4V14a2.3 2.3 0 0 1 0 .7 1.4 1.4 0 0 1-.5.6 1.3 1.3 0 0 1-.3.2h5a3 3 0 0 1-.3-.2m-14-11.8L30.7 6a2.8 2.8 0 0 1 .8-.5 2.1 2.1 0 0 1 .8-.3h1.3l.2.1V14a2 2 0 0 1-.8 1.6h5a2.4 2.4 0 0 1-.8-1.2 3.5 3.5 0 0 1 0-.6V5.5l.2-.1h.9a1.2 1.2 0 0 1 .9.3l.1.2a1 1 0 0 1 .2.2l.7-2.6h-8.8zm-.6 6.2a4.1 4.1 0 0 0-1.6-1.3L28 8l-1-.6c-.6-.3-1-.6-1-1a1.2 1.2 0 0 1 .8-1 2.6 2.6 0 0 1 1-.2 3 3 0 0 1 1 .1 4.6 4.6 0 0 1 .7.4l.7.4V3.8l-1.1-.3a6.3 6.3 0 0 0-1-.1h-1a5.1 5.1 0 0 0-3.1.8 2.8 2.8 0 0 0-1.3 2.4 3.5 3.5 0 0 0 .7 2.2 6.5 6.5 0 0 0 2.3 1.6l1.2.7a3.2 3.2 0 0 1 1 .6 1.4 1.4 0 0 1 .3 1 1.1 1.1 0 0 1-.5.9 2.2 2.2 0 0 1-1.2.3 6.2 6.2 0 0 1-1.4-.2 4.7 4.7 0 0 1-1.3-.4l-1.3-.8.6 2.6.4.1a9.3 9.3 0 0 0 1.6.5 8.7 8.7 0 0 0 1.5 0 5.6 5.6 0 0 0 3.6-1 3.5 3.5 0 0 0 1.4-2.9 3.4 3.4 0 0 0-.8-2m-9.4 3.7a4 4 0 0 1-1.4.3 1 1 0 0 0-.2 0h-.3a6.1 6.1 0 0 1-1 0 4.6 4.6 0 0 1-.9-.2V10h1.2a2 2 0 0 1 .4 0 1 1 0 0 1 .4.2 1.2 1.2 0 0 1 .5.6V8.2l-.3.1h-2.2v-3h1.8a1.4 1.4 0 0 1 .4.1 1.6 1.6 0 0 1 .4.3 2 2 0 0 1 .3.2 1.2 1.2 0 0 1 .2.3V3.4h-7.2a1.3 1.3 0 0 1 .3.3 2.5 2.5 0 0 1 .2.4 1.2 1.2 0 0 1 .2.4 1.7 1.7 0 0 1 0 .4v9a2.2 2.2 0 0 1 0 .8 1.6 1.6 0 0 1-.4.5 1 1 0 0 1-.1.2l-.3.1h8.1l.8-2.7a7.2 7.2 0 0 1-1 .7" fill="#fff"/></svg>