<?xml version="1.0" standalone="no"?>
<!DOCTYPE svg PUBLIC "-//W3C//DTD SVG 1.1//EN" "http://www.w3.org/Graphics/SVG/1.1/DTD/svg11.dtd" >
<svg xmlns="http://www.w3.org/2000/svg" xmlns:xlink="http://www.w3.org/1999/xlink" version="1.1">
<metadata>
Created by FontForge 20190801 at Tue Jul  2 23:26:35 2019
 By Jimmy Wärting
Copyright \(c\) 2019, The Saira Project Authors \(https://github.com/Omnibus-Type/Saira/Saira\)
</metadata>
<defs>
<font id="Saira-Bold" horiz-adv-x="0" >
  <font-face 
    font-family="Saira"
    font-weight="700"
    font-stretch="normal"
    units-per-em="1000"
    panose-1="0 0 8 0 0 0 0 0 0 0"
    ascent="800"
    descent="-200"
    x-height="510"
    cap-height="688"
    bbox="-638 -418 1260 1164"
    underline-thickness="121"
    underline-position="-160"
    stemh="133"
    stemv="160"
    unicode-range="U+000D-FB02"
  />
<missing-glyph horiz-adv-x="500" 
d="M0 0v700h500v-700h-500zM50 50h400v600h-400v-600zM229 215v63c0 43 26 66 54 89s56 47 56 98c0 28 -12 87 -89 87c-90 0 -98 -77 -98 -100v-28h-49c-1 3 -4 17 -4 31c0 23 11 147 151 147s143 -123 143 -135c0 -67 -37 -103 -67 -129c-23 -19 -44 -37 -44 -70v-53h-53z
M225 99v70h60v-70h-60z" />
    <glyph glyph-name="f_f" unicode="ff" horiz-adv-x="840" 
d="M113 0v389h-93v121h93v35c0 191 50 197 282 197v-110c-110 0 -121 -5 -121 -65v-57h121v-121h-121v-389h-161zM533 0v389h-93v121h93v35c0 191 50 197 282 197v-110c-110 0 -121 -5 -121 -65v-57h121v-121h-121v-389h-161z" />
    <glyph glyph-name="f_f_i" unicode="ffi" horiz-adv-x="1124" 
d="M900 613v130h164v-130h-164zM113 0v389h-93v121h93v35c0 191 50 197 282 197v-110c-110 0 -121 -5 -121 -65v-57h121v-121h-121v-389h-161zM533 0v389h-93v121h93v35c0 191 50 197 282 197v-110c-110 0 -121 -5 -121 -65v-57h121v-121h-121v-389h-161zM901 0v510h162
v-510h-162z" />
    <glyph glyph-name="f_f_l" unicode="ffl" horiz-adv-x="1104" 
d="M881 0v743h162v-743h-162zM113 0v389h-93v121h93v35c0 191 50 197 282 197v-110c-110 0 -121 -5 -121 -65v-57h121v-121h-121v-389h-161zM533 0v389h-93v121h93v35c0 191 50 197 282 197v-110c-110 0 -121 -5 -121 -65v-57h121v-121h-121v-389h-161z" />
    <glyph glyph-name="fi" unicode="fi" horiz-adv-x="704" 
d="M480 613v130h164v-130h-164zM113 0v389h-93v121h93v35c0 191 50 197 282 197v-110c-110 0 -121 -5 -121 -65v-57h121v-121h-121v-389h-161zM481 0v510h162v-510h-162z" />
    <glyph glyph-name="fl" unicode="fl" horiz-adv-x="684" 
d="M461 0v743h162v-743h-162zM113 0v389h-93v121h93v35c0 191 50 197 282 197v-110c-110 0 -121 -5 -121 -65v-57h121v-121h-121v-389h-161z" />
    <glyph glyph-name=".notdef" horiz-adv-x="500" 
d="M0 0v700h500v-700h-500zM50 50h400v600h-400v-600zM229 215v63c0 43 26 66 54 89s56 47 56 98c0 28 -12 87 -89 87c-90 0 -98 -77 -98 -100v-28h-49c-1 3 -4 17 -4 31c0 23 11 147 151 147s143 -123 143 -135c0 -67 -37 -103 -67 -129c-23 -19 -44 -37 -44 -70v-53h-53z
M225 99v70h60v-70h-60z" />
    <glyph glyph-name="NULL" horiz-adv-x="600" 
 />
    <glyph glyph-name="CR" unicode="&#xd;" horiz-adv-x="600" 
 />
    <glyph glyph-name="space" unicode=" " horiz-adv-x="251" 
 />
    <glyph glyph-name="A" unicode="A" horiz-adv-x="691" 
d="M8 0l220 688h235l220 -688h-177l-41 134h-244l-40 -134h-173zM261 272h164l-80 267h-6z" />
    <glyph glyph-name="Aacute" unicode="&#xc1;" horiz-adv-x="691" 
d="M262 754v5l91 140h155v-5l-132 -140h-114zM8 0l220 688h235l220 -688h-177l-41 134h-244l-40 -134h-173zM261 272h164l-80 267h-6z" />
    <glyph glyph-name="Abreve" unicode="&#x102;" horiz-adv-x="691" 
d="M345 750c-134 0 -151 62 -151 149h88c0 -38 0 -64 63 -64s64 26 64 64h89c0 -87 -19 -149 -153 -149zM8 0l220 688h235l220 -688h-177l-41 134h-244l-40 -134h-173zM261 272h164l-80 267h-6z" />
    <glyph glyph-name="uni1EAE" unicode="&#x1eae;" horiz-adv-x="691" 
d="M262 926v5l91 140h155v-5l-132 -140h-114zM345 750c-134 0 -151 62 -151 149h88c0 -38 0 -64 63 -64s64 26 64 64h89c0 -87 -19 -149 -153 -149zM8 0l220 688h235l220 -688h-177l-41 134h-244l-40 -134h-173zM261 272h164l-80 267h-6z" />
    <glyph glyph-name="uni1EB6" unicode="&#x1eb6;" horiz-adv-x="691" 
d="M345 750c-134 0 -151 62 -151 149h88c0 -38 0 -64 63 -64s64 26 64 64h89c0 -87 -19 -149 -153 -149zM8 0l220 688h235l220 -688h-177l-41 134h-244l-40 -134h-173zM261 272h164l-80 267h-6zM284 -212v116h125v-116h-125z" />
    <glyph glyph-name="uni1EB0" unicode="&#x1eb0;" horiz-adv-x="691" 
d="M316 926l-132 140v5h155l91 -140v-5h-114zM345 750c-134 0 -151 62 -151 149h88c0 -38 0 -64 63 -64s64 26 64 64h89c0 -87 -19 -149 -153 -149zM8 0l220 688h235l220 -688h-177l-41 134h-244l-40 -134h-173zM261 272h164l-80 267h-6z" />
    <glyph glyph-name="uni1EB2" unicode="&#x1eb2;" horiz-adv-x="691" 
d="M285 917v6c0 37 8 55 48 66l18 5c31 9 36 12 36 31c0 28 -16 29 -65 29c-26 0 -77 -3 -104 -6v73c34 6 89 10 128 10c83 0 143 -5 143 -96c0 -58 -25 -70 -71 -83l-16 -5c-29 -9 -33 -13 -33 -30h-84zM345 750c-134 0 -151 62 -151 149h88c0 -38 0 -64 63 -64
s64 26 64 64h89c0 -87 -19 -149 -153 -149zM8 0l220 688h235l220 -688h-177l-41 134h-244l-40 -134h-173zM261 272h164l-80 267h-6z" />
    <glyph glyph-name="uni1EB4" unicode="&#x1eb4;" horiz-adv-x="691" 
d="M156 922c0 90 3 141 93 141c38 0 77 -10 111 -18c27 -7 50 -14 70 -14c25 0 25 11 25 44h79c0 -90 -2 -142 -91 -142c-40 0 -78 11 -112 19c-27 7 -52 14 -69 14c-26 0 -26 -11 -26 -44h-80zM345 750c-134 0 -151 62 -151 149h88c0 -38 0 -64 63 -64s64 26 64 64h89
c0 -87 -19 -149 -153 -149zM8 0l220 688h235l220 -688h-177l-41 134h-244l-40 -134h-173zM261 272h164l-80 267h-6z" />
    <glyph glyph-name="uni01CD" unicode="&#x1cd;" horiz-adv-x="691" 
d="M271 754l-93 138v7h103l65 -81l65 81h103v-7l-94 -138h-149zM8 0l220 688h235l220 -688h-177l-41 134h-244l-40 -134h-173zM261 272h164l-80 267h-6z" />
    <glyph glyph-name="Acircumflex" unicode="&#xc2;" horiz-adv-x="691" 
d="M178 754v8l93 137h149l94 -137v-8h-103l-66 81l-64 -81h-103zM8 0l220 688h235l220 -688h-177l-41 134h-244l-40 -134h-173zM261 272h164l-80 267h-6z" />
    <glyph glyph-name="uni1EA4" unicode="&#x1ea4;" horiz-adv-x="691" 
d="M262 932v5l91 140h155v-5l-132 -140h-114zM178 754v8l93 137h149l94 -137v-8h-103l-66 81l-64 -81h-103zM8 0l220 688h235l220 -688h-177l-41 134h-244l-40 -134h-173zM261 272h164l-80 267h-6z" />
    <glyph glyph-name="uni1EAC" unicode="&#x1eac;" horiz-adv-x="691" 
d="M178 754v8l93 137h149l94 -137v-8h-103l-66 81l-64 -81h-103zM8 0l220 688h235l220 -688h-177l-41 134h-244l-40 -134h-173zM261 272h164l-80 267h-6zM284 -212v116h125v-116h-125z" />
    <glyph glyph-name="uni1EA6" unicode="&#x1ea6;" horiz-adv-x="691" 
d="M313 932l-132 140v5h155l91 -140v-5h-114zM178 754v8l93 137h149l94 -137v-8h-103l-66 81l-64 -81h-103zM8 0l220 688h235l220 -688h-177l-41 134h-244l-40 -134h-173zM261 272h164l-80 267h-6z" />
    <glyph glyph-name="uni1EA8" unicode="&#x1ea8;" horiz-adv-x="691" 
d="M284 923v6c0 36 9 54 48 66l18 5c32 9 37 12 37 30c0 29 -17 30 -66 30c-25 0 -76 -3 -103 -6v73c34 6 88 10 128 10c83 0 142 -5 142 -96c0 -58 -24 -70 -71 -84l-15 -4c-30 -9 -33 -13 -33 -30h-85zM178 754v8l93 137h149l94 -137v-8h-103l-66 81l-64 -81h-103zM8 0
l220 688h235l220 -688h-177l-41 134h-244l-40 -134h-173zM261 272h164l-80 267h-6z" />
    <glyph glyph-name="uni1EAA" unicode="&#x1eaa;" horiz-adv-x="691" 
d="M157 928c0 90 3 141 92 141c39 0 78 -10 112 -18c27 -7 50 -14 69 -14c26 0 26 11 26 44h79c0 -90 -3 -142 -92 -142c-39 0 -77 11 -111 19c-27 7 -52 13 -70 13c-25 0 -25 -11 -25 -43h-80zM178 754v8l93 137h149l94 -137v-8h-103l-66 81l-64 -81h-103zM8 0l220 688h235
l220 -688h-177l-41 134h-244l-40 -134h-173zM261 272h164l-80 267h-6z" />
    <glyph glyph-name="uni0200" unicode="&#x200;" horiz-adv-x="691" 
d="M314 754h-94l-112 122v4h127l79 -121v-5zM503 754h-93l-112 122v4h127l78 -121v-5zM8 0l220 688h235l220 -688h-177l-41 134h-244l-40 -134h-173zM261 272h164l-80 267h-6z" />
    <glyph glyph-name="Adieresis" unicode="&#xc4;" horiz-adv-x="691" 
d="M174 773v108h131v-108h-131zM386 773v108h130v-108h-130zM8 0l220 688h235l220 -688h-177l-41 134h-244l-40 -134h-173zM261 272h164l-80 267h-6z" />
    <glyph glyph-name="uni1EA0" unicode="&#x1ea0;" horiz-adv-x="691" 
d="M8 0l220 688h235l220 -688h-177l-41 134h-244l-40 -134h-173zM261 272h164l-80 267h-6zM284 -212v116h125v-116h-125z" />
    <glyph glyph-name="Agrave" unicode="&#xc0;" horiz-adv-x="691" 
d="M313 754l-132 140v5h155l91 -140v-5h-114zM8 0l220 688h235l220 -688h-177l-41 134h-244l-40 -134h-173zM261 272h164l-80 267h-6z" />
    <glyph glyph-name="uni1EA2" unicode="&#x1ea2;" horiz-adv-x="691" 
d="M285 745v6c0 37 9 55 48 66l18 5c31 9 36 12 36 31c0 28 -16 29 -65 29c-26 0 -76 -3 -104 -6v73c34 6 89 10 128 10c84 0 143 -5 143 -96c0 -58 -25 -70 -71 -84l-16 -4c-29 -9 -33 -13 -33 -30h-84zM8 0l220 688h235l220 -688h-177l-41 134h-244l-40 -134h-173z
M261 272h164l-80 267h-6z" />
    <glyph glyph-name="uni0202" unicode="&#x202;" horiz-adv-x="691" 
d="M347 903c134 0 151 -62 151 -149h-88c0 39 0 64 -63 64s-64 -25 -64 -64h-89c0 87 19 149 153 149zM8 0l220 688h235l220 -688h-177l-41 134h-244l-40 -134h-173zM261 272h164l-80 267h-6z" />
    <glyph glyph-name="Amacron" unicode="&#x100;" horiz-adv-x="691" 
d="M181 772v93h329v-93h-329zM8 0l220 688h235l220 -688h-177l-41 134h-244l-40 -134h-173zM261 272h164l-80 267h-6z" />
    <glyph glyph-name="Aogonek" unicode="&#x104;" horiz-adv-x="691" 
d="M566 -74c0 -20 9 -34 47 -34c3 0 9 0 17 1v-81c-19 -2 -46 -3 -68 -3c-100 0 -126 39 -126 84c0 40 27 83 66 119l-37 122h-244l-40 -134h-173l220 688h235l220 -688h-67c-24 -18 -50 -49 -50 -74zM261 272h164l-80 267h-6z" />
    <glyph glyph-name="Aring" unicode="&#xc5;" horiz-adv-x="691" 
d="M464 684l219 -684h-177l-41 134h-244l-40 -134h-173l218 681c-36 18 -40 53 -40 108c0 91 11 128 156 128s158 -37 158 -128c0 -52 -4 -86 -36 -105zM342 847c-65 0 -65 -13 -65 -58s0 -57 65 -57c66 0 66 12 66 57s0 58 -66 58zM261 272h164l-80 267h-6z" />
    <glyph glyph-name="Aringacute" unicode="&#x1fa;" horiz-adv-x="691" 
d="M505 1098l-132 -140h-114v5l91 140h155v-5zM464 684l219 -684h-177l-41 134h-244l-40 -134h-173l218 681c-36 18 -40 53 -40 108c0 91 11 128 156 128s158 -37 158 -128c0 -52 -4 -86 -36 -105zM342 847c-65 0 -65 -13 -65 -58s0 -57 65 -57c66 0 66 12 66 57
s0 58 -66 58zM261 272h164l-80 267h-6z" />
    <glyph glyph-name="Atilde" unicode="&#xc3;" horiz-adv-x="691" 
d="M157 750c0 90 3 141 92 141c38 0 78 -10 112 -18c27 -7 50 -14 69 -14c26 0 26 11 26 44h79c0 -90 -3 -142 -92 -142c-39 0 -77 11 -111 19c-27 7 -52 14 -70 14c-25 0 -25 -11 -25 -44h-80zM8 0l220 688h235l220 -688h-177l-41 134h-244l-40 -134h-173zM261 272h164
l-80 267h-6z" />
    <glyph glyph-name="AE" unicode="&#xc6;" horiz-adv-x="979" 
d="M-16 0l323 688h616v-138h-360l22 -135h291v-136h-270l22 -141h295v-138h-441l-22 135h-243l-62 -135h-171zM276 272h165l-40 269h-6z" />
    <glyph glyph-name="AEacute" unicode="&#x1fc;" horiz-adv-x="979" 
d="M451 754v5l91 140h155v-5l-132 -140h-114zM-16 0l323 688h616v-138h-360l22 -135h291v-136h-270l22 -141h295v-138h-441l-22 135h-243l-62 -135h-171zM276 272h165l-40 269h-6z" />
    <glyph glyph-name="B" unicode="B" horiz-adv-x="666" 
d="M71 0v688h345c131 0 195 -58 195 -173c0 -97 -38 -144 -120 -162v-4c87 -19 125 -61 125 -166c0 -114 -51 -183 -201 -183h-344zM242 408h110c68 0 87 16 87 74c0 63 -15 75 -87 75h-110v-149zM242 130h113c71 0 88 14 88 78s-18 80 -88 80h-113v-158z" />
    <glyph glyph-name="C" unicode="C" horiz-adv-x="566" 
d="M345 -8c-256 0 -290 76 -290 352s34 352 290 352c59 0 131 -7 174 -18v-124c-63 6 -107 9 -133 9c-150 0 -158 -18 -158 -219s8 -219 158 -219c42 0 99 4 137 9v-127c-45 -9 -119 -15 -178 -15z" />
    <glyph glyph-name="Cacute" unicode="&#x106;" horiz-adv-x="566" 
d="M243 754v5l91 140h155v-5l-132 -140h-114zM345 -8c-256 0 -290 76 -290 352s34 352 290 352c59 0 131 -7 174 -18v-124c-63 6 -107 9 -133 9c-150 0 -158 -18 -158 -219s8 -219 158 -219c42 0 99 4 137 9v-127c-45 -9 -119 -15 -178 -15z" />
    <glyph glyph-name="Ccaron" unicode="&#x10c;" horiz-adv-x="566" 
d="M252 754l-93 138v7h103l65 -81l65 81h103v-7l-94 -138h-149zM345 -8c-256 0 -290 76 -290 352s34 352 290 352c59 0 131 -7 174 -18v-124c-63 6 -107 9 -133 9c-150 0 -158 -18 -158 -219s8 -219 158 -219c42 0 99 4 137 9v-127c-45 -9 -119 -15 -178 -15z" />
    <glyph glyph-name="Ccedilla" unicode="&#xc7;" horiz-adv-x="566" 
d="M523 134v-127c-32 -6 -78 -11 -123 -13l-34 -184h-145v5l70 178c-207 11 -236 96 -236 351c0 276 34 352 290 352c59 0 131 -7 174 -18v-124c-63 6 -107 9 -133 9c-150 0 -158 -18 -158 -219s8 -219 158 -219c42 0 99 4 137 9z" />
    <glyph glyph-name="Ccircumflex" unicode="&#x108;" horiz-adv-x="566" 
d="M159 754v8l93 137h149l94 -137v-8h-103l-66 81l-64 -81h-103zM345 -8c-256 0 -290 76 -290 352s34 352 290 352c59 0 131 -7 174 -18v-124c-63 6 -107 9 -133 9c-150 0 -158 -18 -158 -219s8 -219 158 -219c42 0 99 4 137 9v-127c-45 -9 -119 -15 -178 -15z" />
    <glyph glyph-name="Cdotaccent" unicode="&#x10a;" horiz-adv-x="566" 
d="M261 773v108h131v-108h-131zM345 -8c-256 0 -290 76 -290 352s34 352 290 352c59 0 131 -7 174 -18v-124c-63 6 -107 9 -133 9c-150 0 -158 -18 -158 -219s8 -219 158 -219c42 0 99 4 137 9v-127c-45 -9 -119 -15 -178 -15z" />
    <glyph glyph-name="D" unicode="D" horiz-adv-x="684" 
d="M74 0v688h243c305 0 313 -83 313 -344s-8 -344 -313 -344h-243zM246 138h66c139 0 142 0 142 206s-3 206 -142 206h-66v-412z" />
    <glyph glyph-name="uni01F1" unicode="&#x1f1;" horiz-adv-x="1303" 
d="M74 0v688h243c305 0 313 -83 313 -344s-8 -344 -313 -344h-243zM728 0v132l314 418h-303v138h519v-127l-318 -423h320v-138h-532zM246 138h66c139 0 142 0 142 206s-3 206 -142 206h-66v-412z" />
    <glyph glyph-name="uni01C4" unicode="&#x1c4;" horiz-adv-x="1303" 
d="M919 754l-93 138v7h103l65 -81l65 81h103v-7l-94 -138h-149zM74 0v688h243c305 0 313 -83 313 -344s-8 -344 -313 -344h-243zM728 0v132l314 418h-303v138h519v-127l-318 -423h320v-138h-532zM246 138h66c139 0 142 0 142 206s-3 206 -142 206h-66v-412z" />
    <glyph glyph-name="Eth" unicode="&#xd0;" horiz-adv-x="684" 
d="M74 0v289h-67v118h67v281h243c305 0 313 -83 313 -344s-8 -344 -313 -344h-243zM246 138h66c139 0 142 0 142 206s-3 206 -142 206h-66v-143h88v-118h-88v-151z" />
    <glyph glyph-name="Dcaron" unicode="&#x10e;" horiz-adv-x="684" 
d="M268 754l-93 138v7h103l65 -81l65 81h103v-7l-94 -138h-149zM74 0v688h243c305 0 313 -83 313 -344s-8 -344 -313 -344h-243zM246 138h66c139 0 142 0 142 206s-3 206 -142 206h-66v-412z" />
    <glyph glyph-name="Dcroat" unicode="&#x110;" horiz-adv-x="684" 
d="M74 0v289h-67v118h67v281h243c305 0 313 -83 313 -344s-8 -344 -313 -344h-243zM246 138h66c139 0 142 0 142 206s-3 206 -142 206h-66v-143h88v-118h-88v-151z" />
    <glyph glyph-name="uni1E0C" unicode="&#x1e0c;" horiz-adv-x="684" 
d="M74 0v688h243c305 0 313 -83 313 -344s-8 -344 -313 -344h-243zM246 138h66c139 0 142 0 142 206s-3 206 -142 206h-66v-412zM280 -212v116h125v-116h-125z" />
    <glyph glyph-name="uni01F2" unicode="&#x1f2;" horiz-adv-x="1208" 
d="M74 0v688h243c305 0 313 -83 313 -344s-8 -344 -313 -344h-243zM246 138h66c139 0 142 0 142 206s-3 206 -142 206h-66v-412zM727 0v114l233 275h-221v121h423v-114l-233 -275h235v-121h-437z" />
    <glyph glyph-name="uni01C5" unicode="&#x1c5;" horiz-adv-x="1208" 
d="M878 576l-93 138v7h103l65 -81l65 81h103v-7l-94 -138h-149zM74 0v688h243c305 0 313 -83 313 -344s-8 -344 -313 -344h-243zM246 138h66c139 0 142 0 142 206s-3 206 -142 206h-66v-412zM727 0v114l233 275h-221v121h423v-114l-233 -275h235v-121h-437z" />
    <glyph glyph-name="E" unicode="E" horiz-adv-x="615" 
d="M74 0v688h486v-138h-314v-134h267v-137h-267v-141h314v-138h-486z" />
    <glyph glyph-name="Eacute" unicode="&#xc9;" horiz-adv-x="615" 
d="M224 754v5l91 140h155v-5l-132 -140h-114zM74 0v688h486v-138h-314v-134h267v-137h-267v-141h314v-138h-486z" />
    <glyph glyph-name="Ebreve" unicode="&#x114;" horiz-adv-x="615" 
d="M306 750c-134 0 -151 62 -151 149h88c0 -38 0 -64 63 -64s64 26 64 64h89c0 -87 -19 -149 -153 -149zM74 0v688h486v-138h-314v-134h267v-137h-267v-141h314v-138h-486z" />
    <glyph glyph-name="Ecaron" unicode="&#x11a;" horiz-adv-x="615" 
d="M233 754l-93 138v7h103l65 -81l65 81h103v-7l-94 -138h-149zM74 0v688h486v-138h-314v-134h267v-137h-267v-141h314v-138h-486z" />
    <glyph glyph-name="Ecircumflex" unicode="&#xca;" horiz-adv-x="615" 
d="M140 754v8l93 137h149l94 -137v-8h-103l-66 81l-64 -81h-103zM74 0v688h486v-138h-314v-134h267v-137h-267v-141h314v-138h-486z" />
    <glyph glyph-name="uni1EBE" unicode="&#x1ebe;" horiz-adv-x="615" 
d="M224 932v5l91 140h155v-5l-132 -140h-114zM140 754v8l93 137h149l94 -137v-8h-103l-66 81l-64 -81h-103zM74 0v688h486v-138h-314v-134h267v-137h-267v-141h314v-138h-486z" />
    <glyph glyph-name="uni1EC6" unicode="&#x1ec6;" horiz-adv-x="615" 
d="M140 754v8l93 137h149l94 -137v-8h-103l-66 81l-64 -81h-103zM74 0v688h486v-138h-314v-134h267v-137h-267v-141h314v-138h-486zM245 -212v116h125v-116h-125z" />
    <glyph glyph-name="uni1EC0" unicode="&#x1ec0;" horiz-adv-x="615" 
d="M275 932l-132 140v5h155l91 -140v-5h-114zM140 754v8l93 137h149l94 -137v-8h-103l-66 81l-64 -81h-103zM74 0v688h486v-138h-314v-134h267v-137h-267v-141h314v-138h-486z" />
    <glyph glyph-name="uni1EC2" unicode="&#x1ec2;" horiz-adv-x="615" 
d="M246 923v6c0 36 9 54 48 66l18 5c32 9 37 12 37 30c0 29 -17 30 -66 30c-25 0 -76 -3 -103 -6v73c34 6 88 10 128 10c83 0 142 -5 142 -96c0 -58 -24 -70 -71 -84l-15 -4c-30 -9 -33 -13 -33 -30h-85zM140 754v8l93 137h149l94 -137v-8h-103l-66 81l-64 -81h-103zM74 0
v688h486v-138h-314v-134h267v-137h-267v-141h314v-138h-486z" />
    <glyph glyph-name="uni1EC4" unicode="&#x1ec4;" horiz-adv-x="615" 
d="M119 928c0 90 3 141 92 141c39 0 78 -10 112 -18c27 -7 50 -14 69 -14c26 0 26 11 26 44h79c0 -90 -3 -142 -92 -142c-39 0 -77 11 -111 19c-27 7 -52 13 -70 13c-25 0 -25 -11 -25 -43h-80zM140 754v8l93 137h149l94 -137v-8h-103l-66 81l-64 -81h-103zM74 0v688h486
v-138h-314v-134h267v-137h-267v-141h314v-138h-486z" />
    <glyph glyph-name="uni0204" unicode="&#x204;" horiz-adv-x="615" 
d="M275 754h-94l-112 122v4h127l79 -121v-5zM464 754h-93l-112 122v4h127l78 -121v-5zM74 0v688h486v-138h-314v-134h267v-137h-267v-141h314v-138h-486z" />
    <glyph glyph-name="Edieresis" unicode="&#xcb;" horiz-adv-x="615" 
d="M136 773v108h131v-108h-131zM348 773v108h130v-108h-130zM74 0v688h486v-138h-314v-134h267v-137h-267v-141h314v-138h-486z" />
    <glyph glyph-name="Edotaccent" unicode="&#x116;" horiz-adv-x="615" 
d="M242 773v108h131v-108h-131zM74 0v688h486v-138h-314v-134h267v-137h-267v-141h314v-138h-486z" />
    <glyph glyph-name="uni1EB8" unicode="&#x1eb8;" horiz-adv-x="615" 
d="M74 0v688h486v-138h-314v-134h267v-137h-267v-141h314v-138h-486zM245 -212v116h125v-116h-125z" />
    <glyph glyph-name="Egrave" unicode="&#xc8;" horiz-adv-x="615" 
d="M275 754l-132 140v5h155l91 -140v-5h-114zM74 0v688h486v-138h-314v-134h267v-137h-267v-141h314v-138h-486z" />
    <glyph glyph-name="uni1EBA" unicode="&#x1eba;" horiz-adv-x="615" 
d="M246 745v6c0 37 9 55 48 66l18 5c31 9 36 12 36 31c0 28 -16 29 -65 29c-26 0 -76 -3 -104 -6v73c34 6 89 10 128 10c84 0 143 -5 143 -96c0 -58 -25 -70 -71 -84l-16 -4c-29 -9 -33 -13 -33 -30h-84zM74 0v688h486v-138h-314v-134h267v-137h-267v-141h314v-138h-486z
" />
    <glyph glyph-name="uni0206" unicode="&#x206;" horiz-adv-x="615" 
d="M308 903c134 0 151 -62 151 -149h-88c0 39 0 64 -63 64s-64 -25 -64 -64h-89c0 87 19 149 153 149zM74 0v688h486v-138h-314v-134h267v-137h-267v-141h314v-138h-486z" />
    <glyph glyph-name="Emacron" unicode="&#x112;" horiz-adv-x="615" 
d="M143 772v93h329v-93h-329zM74 0v688h486v-138h-314v-134h267v-137h-267v-141h314v-138h-486z" />
    <glyph glyph-name="Eogonek" unicode="&#x118;" horiz-adv-x="615" 
d="M544 -117c3 0 9 0 17 1v-81c-19 -2 -46 -3 -68 -3c-100 0 -126 39 -126 84c0 39 26 81 64 116h-357v688h486v-138h-314v-134h267v-137h-267v-141h314v-138c-26 -16 -63 -53 -63 -83c0 -20 9 -34 47 -34z" />
    <glyph glyph-name="uni1EBC" unicode="&#x1ebc;" horiz-adv-x="615" 
d="M119 750c0 90 3 141 92 141c38 0 78 -10 112 -18c27 -7 50 -14 69 -14c26 0 26 11 26 44h79c0 -90 -3 -142 -92 -142c-39 0 -77 11 -111 19c-27 7 -52 14 -70 14c-25 0 -25 -11 -25 -44h-80zM74 0v688h486v-138h-314v-134h267v-137h-267v-141h314v-138h-486z" />
    <glyph glyph-name="F" unicode="F" horiz-adv-x="576" 
d="M74 0v688h466v-138h-294v-154h257v-138h-257v-258h-172z" />
    <glyph glyph-name="G" unicode="G" horiz-adv-x="668" 
d="M363 -8c-255 0 -308 56 -308 352c0 271 54 352 308 352c117 0 228 -22 235 -23v-129c-5 1 -113 14 -172 14c-178 0 -196 -4 -196 -214c0 -187 14 -218 141 -218c15 0 47 1 69 2v143h-95v130h256v-385c-69 -14 -169 -24 -238 -24z" />
    <glyph glyph-name="uni01F4" unicode="&#x1f4;" horiz-adv-x="668" 
d="M252 754v5l91 140h155v-5l-132 -140h-114zM363 -8c-255 0 -308 56 -308 352c0 271 54 352 308 352c117 0 228 -22 235 -23v-129c-5 1 -113 14 -172 14c-178 0 -196 -4 -196 -214c0 -187 14 -218 141 -218c15 0 47 1 69 2v143h-95v130h256v-385c-69 -14 -169 -24 -238 -24
z" />
    <glyph glyph-name="Gbreve" unicode="&#x11e;" horiz-adv-x="668" 
d="M335 750c-134 0 -151 62 -151 149h88c0 -38 0 -64 63 -64s64 26 64 64h89c0 -87 -19 -149 -153 -149zM363 -8c-255 0 -308 56 -308 352c0 271 54 352 308 352c117 0 228 -22 235 -23v-129c-5 1 -113 14 -172 14c-178 0 -196 -4 -196 -214c0 -187 14 -218 141 -218
c15 0 47 1 69 2v143h-95v130h256v-385c-69 -14 -169 -24 -238 -24z" />
    <glyph glyph-name="Gcaron" unicode="&#x1e6;" horiz-adv-x="668" 
d="M261 754l-93 138v7h103l65 -81l65 81h103v-7l-94 -138h-149zM363 -8c-255 0 -308 56 -308 352c0 271 54 352 308 352c117 0 228 -22 235 -23v-129c-5 1 -113 14 -172 14c-178 0 -196 -4 -196 -214c0 -187 14 -218 141 -218c15 0 47 1 69 2v143h-95v130h256v-385
c-69 -14 -169 -24 -238 -24z" />
    <glyph glyph-name="Gcircumflex" unicode="&#x11c;" horiz-adv-x="668" 
d="M168 754v8l93 137h149l94 -137v-8h-103l-66 81l-64 -81h-103zM363 -8c-255 0 -308 56 -308 352c0 271 54 352 308 352c117 0 228 -22 235 -23v-129c-5 1 -113 14 -172 14c-178 0 -196 -4 -196 -214c0 -187 14 -218 141 -218c15 0 47 1 69 2v143h-95v130h256v-385
c-69 -14 -169 -24 -238 -24z" />
    <glyph glyph-name="uni0122" unicode="&#x122;" horiz-adv-x="668" 
d="M363 -8c-255 0 -308 56 -308 352c0 271 54 352 308 352c117 0 228 -22 235 -23v-129c-5 1 -113 14 -172 14c-178 0 -196 -4 -196 -214c0 -187 14 -218 141 -218c15 0 47 1 69 2v143h-95v130h256v-385c-69 -14 -169 -24 -238 -24zM249 -289v60c56 0 67 7 67 38v13h-60v118
h161v-80c0 -119 -18 -149 -168 -149z" />
    <glyph glyph-name="Gdotaccent" unicode="&#x120;" horiz-adv-x="668" 
d="M271 773v108h131v-108h-131zM363 -8c-255 0 -308 56 -308 352c0 271 54 352 308 352c117 0 228 -22 235 -23v-129c-5 1 -113 14 -172 14c-178 0 -196 -4 -196 -214c0 -187 14 -218 141 -218c15 0 47 1 69 2v143h-95v130h256v-385c-69 -14 -169 -24 -238 -24z" />
    <glyph glyph-name="H" unicode="H" horiz-adv-x="709" 
d="M71 0v688h173v-271h221v271h173v-688h-173v273h-221v-273h-173z" />
    <glyph glyph-name="Hbar" unicode="&#x126;" horiz-adv-x="709" 
d="M71 0v688h173v-100h221v100h173v-688h-173v233h-221v-233h-173zM244 377h221v96h-221v-96z" />
    <glyph glyph-name="Hcircumflex" unicode="&#x124;" horiz-adv-x="709" 
d="M187 754v8l93 137h149l94 -137v-8h-103l-66 81l-64 -81h-103zM71 0v688h173v-271h221v271h173v-688h-173v273h-221v-273h-173z" />
    <glyph glyph-name="uni1E24" unicode="&#x1e24;" horiz-adv-x="709" 
d="M71 0v688h173v-271h221v271h173v-688h-173v273h-221v-273h-173zM292 -212v116h125v-116h-125z" />
    <glyph glyph-name="I" unicode="I" horiz-adv-x="315" 
d="M71 0v688h173v-688h-173z" />
    <glyph glyph-name="IJ" unicode="&#x132;" horiz-adv-x="719" 
d="M71 0v688h173v-688h-173zM338 0v126c137 1 139 8 139 137v425h173v-379c0 -298 -12 -308 -312 -309z" />
    <glyph glyph-name="Iacute" unicode="&#xcd;" horiz-adv-x="315" 
d="M74 754v5l91 140h155v-5l-132 -140h-114zM71 0v688h173v-688h-173z" />
    <glyph glyph-name="Ibreve" unicode="&#x12c;" horiz-adv-x="315" 
d="M156 750c-134 0 -151 62 -151 149h88c0 -38 0 -64 63 -64s64 26 64 64h89c0 -87 -19 -149 -153 -149zM71 0v688h173v-688h-173z" />
    <glyph glyph-name="uni01CF" unicode="&#x1cf;" horiz-adv-x="315" 
d="M83 754l-93 138v7h103l65 -81l65 81h103v-7l-94 -138h-149zM71 0v688h173v-688h-173z" />
    <glyph glyph-name="Icircumflex" unicode="&#xce;" horiz-adv-x="315" 
d="M-10 754v8l93 137h149l94 -137v-8h-103l-66 81l-64 -81h-103zM71 0v688h173v-688h-173z" />
    <glyph glyph-name="uni0208" unicode="&#x208;" horiz-adv-x="315" 
d="M125 754h-94l-112 122v4h127l79 -121v-5zM314 754h-93l-112 122v4h127l78 -121v-5zM71 0v688h173v-688h-173z" />
    <glyph glyph-name="Idieresis" unicode="&#xcf;" horiz-adv-x="315" 
d="M-14 773v108h131v-108h-131zM198 773v108h130v-108h-130zM71 0v688h173v-688h-173z" />
    <glyph glyph-name="Idotaccent" unicode="&#x130;" horiz-adv-x="315" 
d="M92 773v108h131v-108h-131zM71 0v688h173v-688h-173z" />
    <glyph glyph-name="uni1ECA" unicode="&#x1eca;" horiz-adv-x="315" 
d="M71 0v688h173v-688h-173zM95 -212v116h125v-116h-125z" />
    <glyph glyph-name="Igrave" unicode="&#xcc;" horiz-adv-x="315" 
d="M124 754l-132 140v5h155l91 -140v-5h-114zM71 0v688h173v-688h-173z" />
    <glyph glyph-name="uni1EC8" unicode="&#x1ec8;" horiz-adv-x="315" 
d="M96 745v6c0 37 9 55 48 66l18 5c31 9 36 12 36 31c0 28 -16 29 -65 29c-26 0 -76 -3 -104 -6v73c34 6 89 10 128 10c84 0 143 -5 143 -96c0 -58 -25 -70 -71 -84l-16 -4c-29 -9 -33 -13 -33 -30h-84zM71 0v688h173v-688h-173z" />
    <glyph glyph-name="uni020A" unicode="&#x20a;" horiz-adv-x="315" 
d="M158 903c134 0 151 -62 151 -149h-88c0 39 0 64 -63 64s-64 -25 -64 -64h-89c0 87 19 149 153 149zM71 0v688h173v-688h-173z" />
    <glyph glyph-name="Imacron" unicode="&#x12a;" horiz-adv-x="315" 
d="M-7 772v93h329v-93h-329zM71 0v688h173v-688h-173z" />
    <glyph glyph-name="Iogonek" unicode="&#x12e;" horiz-adv-x="315" 
d="M228 -117c3 0 9 0 17 1v-81c-19 -2 -46 -3 -68 -3c-100 0 -126 39 -126 84c0 39 26 81 64 116h-44v688h173v-688c-26 -16 -63 -53 -63 -83c0 -20 9 -34 47 -34z" />
    <glyph glyph-name="Itilde" unicode="&#x128;" horiz-adv-x="315" 
d="M-31 750c0 90 3 141 92 141c38 0 78 -10 112 -18c27 -7 50 -14 69 -14c26 0 26 11 26 44h79c0 -90 -3 -142 -92 -142c-39 0 -77 11 -111 19c-27 7 -52 14 -70 14c-25 0 -25 -11 -25 -44h-80zM71 0v688h173v-688h-173z" />
    <glyph glyph-name="J" unicode="J" horiz-adv-x="403" 
d="M23 0v126c137 1 139 8 139 137v425h173v-379c0 -298 -12 -308 -312 -309z" />
    <glyph glyph-name="uni00A40301" horiz-adv-x="719" 
d="M74 754v5l91 140h155v-5l-132 -140h-114zM480 754v5l91 140h155v-5l-132 -140h-114zM71 0v688h173v-688h-173zM338 0v126c137 1 139 8 139 137v425h173v-379c0 -298 -12 -308 -312 -309z" />
    <glyph glyph-name="Jcircumflex" unicode="&#x134;" horiz-adv-x="403" 
d="M81 754v8l93 137h149l94 -137v-8h-103l-66 81l-64 -81h-103zM23 0v126c137 1 139 8 139 137v425h173v-379c0 -298 -12 -308 -312 -309z" />
    <glyph glyph-name="K" unicode="K" horiz-adv-x="685" 
d="M74 0v688h173v-269h42l198 269h190l-249 -327l252 -361h-195l-196 282h-42v-282h-173z" />
    <glyph glyph-name="uni0136" unicode="&#x136;" horiz-adv-x="685" 
d="M74 0v688h173v-269h42l198 269h190l-249 -327l252 -361h-195l-196 282h-42v-282h-173zM269 -289v56c54 0 64 8 64 42v13h-58v96h138v-66c0 -111 -17 -141 -144 -141z" />
    <glyph glyph-name="L" unicode="L" horiz-adv-x="542" 
d="M74 0v688h173v-544h273v-144h-446z" />
    <glyph glyph-name="uni01C7" unicode="&#x1c7;" horiz-adv-x="946" 
d="M74 0v688h173v-544h273v-144h-446zM565 0v126c137 1 139 8 139 137v425h173v-379c0 -298 -12 -308 -312 -309z" />
    <glyph glyph-name="Lacute" unicode="&#x139;" horiz-adv-x="542" 
d="M179 754v5l91 140h155v-5l-132 -140h-114zM74 0v688h173v-544h273v-144h-446z" />
    <glyph glyph-name="Lcaron" unicode="&#x13d;" horiz-adv-x="542" 
d="M530 592l13 202v57h124v-57l-47 -202h-90zM74 0v688h173v-544h273v-144h-446z" />
    <glyph glyph-name="uni013B" unicode="&#x13b;" horiz-adv-x="542" 
d="M74 0v688h173v-544h273v-144h-446zM200 -289v56c54 0 64 8 64 42v13h-58v96h138v-66c0 -111 -17 -141 -144 -141z" />
    <glyph glyph-name="Ldot" unicode="&#x13f;" horiz-adv-x="542" 
d="M74 0v688h173v-544h273v-144h-446zM343 307v145h171v-145h-171z" />
    <glyph glyph-name="uni01C8" unicode="&#x1c8;" horiz-adv-x="827" 
d="M602 614v129h164v-129h-164zM74 0v688h173v-544h273v-144h-446zM522 -199v111c77 0 81 14 81 53v545h162v-510c0 -183 -44 -199 -243 -199z" />
    <glyph glyph-name="Lslash" unicode="&#x141;" horiz-adv-x="533" 
d="M247 144h273v-144h-446v263l-59 -22v116l59 22v309h173v-246l146 54v-115l-146 -54v-183z" />
    <glyph glyph-name="M" unicode="M" horiz-adv-x="896" 
d="M71 0v688h238l136 -410h7l136 410h237v-688h-166v448h-7l-148 -448h-118l-147 448h-7v-448h-161z" />
    <glyph glyph-name="N" unicode="N" horiz-adv-x="713" 
d="M71 0v688h178l222 -369h5v369h166v-688h-162l-239 403h-4v-403h-166z" />
    <glyph glyph-name="uni01CA" unicode="&#x1ca;" horiz-adv-x="1116" 
d="M71 0v688h178l222 -369h5v369h166v-688h-162l-239 403h-4v-403h-166zM736 0v126c137 1 139 8 139 137v425h173v-379c0 -298 -12 -308 -312 -309z" />
    <glyph glyph-name="Nacute" unicode="&#x143;" horiz-adv-x="713" 
d="M281 754v5l91 140h155v-5l-132 -140h-114zM71 0v688h178l222 -369h5v369h166v-688h-162l-239 403h-4v-403h-166z" />
    <glyph glyph-name="Ncaron" unicode="&#x147;" horiz-adv-x="713" 
d="M289 754l-93 138v7h103l65 -81l65 81h103v-7l-94 -138h-149zM71 0v688h178l222 -369h5v369h166v-688h-162l-239 403h-4v-403h-166z" />
    <glyph glyph-name="uni0145" unicode="&#x145;" horiz-adv-x="713" 
d="M71 0v688h178l222 -369h5v369h166v-688h-162l-239 403h-4v-403h-166zM291 -289v56c54 0 64 8 64 42v13h-58v96h138v-66c0 -111 -17 -141 -144 -141z" />
    <glyph glyph-name="uni1E44" unicode="&#x1e44;" horiz-adv-x="713" 
d="M299 773v108h131v-108h-131zM71 0v688h178l222 -369h5v369h166v-688h-162l-239 403h-4v-403h-166z" />
    <glyph glyph-name="Eng" unicode="&#x14a;" horiz-adv-x="713" 
d="M395 -199v111c77 0 81 14 81 53v42l-235 396h-4v-403h-166v688h178l222 -369h5v369h166v-689c0 -182 -45 -198 -247 -198z" />
    <glyph glyph-name="uni019D" unicode="&#x19d;" horiz-adv-x="713" 
d="M-11 -199v111c77 0 82 14 82 53v723h178l222 -369h5v369h166v-688h-162l-239 403h-4v-403c0 -183 -45 -199 -248 -199z" />
    <glyph glyph-name="uni01CB" unicode="&#x1cb;" horiz-adv-x="997" 
d="M773 614v129h164v-129h-164zM71 0v688h178l222 -369h5v369h166v-688h-162l-239 403h-4v-403h-166zM693 -199v111c77 0 81 14 81 53v545h162v-510c0 -183 -44 -199 -243 -199z" />
    <glyph glyph-name="Ntilde" unicode="&#xd1;" horiz-adv-x="713" 
d="M176 750c0 90 3 141 92 141c38 0 78 -10 112 -18c27 -7 50 -14 69 -14c26 0 26 11 26 44h79c0 -90 -3 -142 -92 -142c-39 0 -77 11 -111 19c-27 7 -52 14 -70 14c-25 0 -25 -11 -25 -44h-80zM71 0v688h178l222 -369h5v369h166v-688h-162l-239 403h-4v-403h-166z" />
    <glyph glyph-name="O" unicode="O" horiz-adv-x="706" 
d="M353 -8c-291 0 -298 80 -298 352s7 352 298 352c292 0 298 -80 298 -352s-6 -352 -298 -352zM353 130c120 0 122 5 122 214s-2 214 -122 214c-119 0 -123 -5 -123 -214s4 -214 123 -214z" />
    <glyph glyph-name="Oacute" unicode="&#xd3;" horiz-adv-x="706" 
d="M269 754v5l91 140h155v-5l-132 -140h-114zM353 -8c-291 0 -298 80 -298 352s7 352 298 352c292 0 298 -80 298 -352s-6 -352 -298 -352zM353 130c120 0 122 5 122 214s-2 214 -122 214c-119 0 -123 -5 -123 -214s4 -214 123 -214z" />
    <glyph glyph-name="Obreve" unicode="&#x14e;" horiz-adv-x="706" 
d="M352 750c-134 0 -151 62 -151 149h88c0 -38 0 -64 63 -64s64 26 64 64h89c0 -87 -19 -149 -153 -149zM353 -8c-291 0 -298 80 -298 352s7 352 298 352c292 0 298 -80 298 -352s-6 -352 -298 -352zM353 130c120 0 122 5 122 214s-2 214 -122 214c-119 0 -123 -5 -123 -214
s4 -214 123 -214z" />
    <glyph glyph-name="uni01D1" unicode="&#x1d1;" horiz-adv-x="706" 
d="M278 754l-93 138v7h103l65 -81l65 81h103v-7l-94 -138h-149zM353 -8c-291 0 -298 80 -298 352s7 352 298 352c292 0 298 -80 298 -352s-6 -352 -298 -352zM353 130c120 0 122 5 122 214s-2 214 -122 214c-119 0 -123 -5 -123 -214s4 -214 123 -214z" />
    <glyph glyph-name="Ocircumflex" unicode="&#xd4;" horiz-adv-x="706" 
d="M185 754v8l93 137h149l94 -137v-8h-103l-66 81l-64 -81h-103zM353 -8c-291 0 -298 80 -298 352s7 352 298 352c292 0 298 -80 298 -352s-6 -352 -298 -352zM353 130c120 0 122 5 122 214s-2 214 -122 214c-119 0 -123 -5 -123 -214s4 -214 123 -214z" />
    <glyph glyph-name="uni1ED0" unicode="&#x1ed0;" horiz-adv-x="706" 
d="M269 932v5l91 140h155v-5l-132 -140h-114zM185 754v8l93 137h149l94 -137v-8h-103l-66 81l-64 -81h-103zM353 -8c-291 0 -298 80 -298 352s7 352 298 352c292 0 298 -80 298 -352s-6 -352 -298 -352zM353 130c120 0 122 5 122 214s-2 214 -122 214
c-119 0 -123 -5 -123 -214s4 -214 123 -214z" />
    <glyph glyph-name="uni1ED8" unicode="&#x1ed8;" horiz-adv-x="706" 
d="M185 754v8l93 137h149l94 -137v-8h-103l-66 81l-64 -81h-103zM353 -8c-291 0 -298 80 -298 352s7 352 298 352c292 0 298 -80 298 -352s-6 -352 -298 -352zM353 130c120 0 122 5 122 214s-2 214 -122 214c-119 0 -123 -5 -123 -214s4 -214 123 -214zM291 -212v116h125
v-116h-125z" />
    <glyph glyph-name="uni1ED2" unicode="&#x1ed2;" horiz-adv-x="706" 
d="M320 932l-132 140v5h155l91 -140v-5h-114zM185 754v8l93 137h149l94 -137v-8h-103l-66 81l-64 -81h-103zM353 -8c-291 0 -298 80 -298 352s7 352 298 352c292 0 298 -80 298 -352s-6 -352 -298 -352zM353 130c120 0 122 5 122 214s-2 214 -122 214
c-119 0 -123 -5 -123 -214s4 -214 123 -214z" />
    <glyph glyph-name="uni1ED4" unicode="&#x1ed4;" horiz-adv-x="706" 
d="M291 923v6c0 36 9 54 48 66l18 5c32 9 37 12 37 30c0 29 -17 30 -66 30c-25 0 -76 -3 -103 -6v73c34 6 88 10 128 10c83 0 142 -5 142 -96c0 -58 -24 -70 -71 -84l-15 -4c-30 -9 -33 -13 -33 -30h-85zM185 754v8l93 137h149l94 -137v-8h-103l-66 81l-64 -81h-103zM353 -8
c-291 0 -298 80 -298 352s7 352 298 352c292 0 298 -80 298 -352s-6 -352 -298 -352zM353 130c120 0 122 5 122 214s-2 214 -122 214c-119 0 -123 -5 -123 -214s4 -214 123 -214z" />
    <glyph glyph-name="uni1ED6" unicode="&#x1ed6;" horiz-adv-x="706" 
d="M164 928c0 90 3 141 92 141c39 0 78 -10 112 -18c27 -7 50 -14 69 -14c26 0 26 11 26 44h79c0 -90 -3 -142 -92 -142c-39 0 -77 11 -111 19c-27 7 -52 13 -70 13c-25 0 -25 -11 -25 -43h-80zM185 754v8l93 137h149l94 -137v-8h-103l-66 81l-64 -81h-103zM353 -8
c-291 0 -298 80 -298 352s7 352 298 352c292 0 298 -80 298 -352s-6 -352 -298 -352zM353 130c120 0 122 5 122 214s-2 214 -122 214c-119 0 -123 -5 -123 -214s4 -214 123 -214z" />
    <glyph glyph-name="uni020C" unicode="&#x20c;" horiz-adv-x="706" 
d="M321 754h-94l-112 122v4h127l79 -121v-5zM510 754h-93l-112 122v4h127l78 -121v-5zM353 -8c-291 0 -298 80 -298 352s7 352 298 352c292 0 298 -80 298 -352s-6 -352 -298 -352zM353 130c120 0 122 5 122 214s-2 214 -122 214c-119 0 -123 -5 -123 -214s4 -214 123 -214z
" />
    <glyph glyph-name="Odieresis" unicode="&#xd6;" horiz-adv-x="706" 
d="M182 773v108h131v-108h-131zM394 773v108h130v-108h-130zM353 -8c-291 0 -298 80 -298 352s7 352 298 352c292 0 298 -80 298 -352s-6 -352 -298 -352zM353 130c120 0 122 5 122 214s-2 214 -122 214c-119 0 -123 -5 -123 -214s4 -214 123 -214z" />
    <glyph glyph-name="uni022A" unicode="&#x22a;" horiz-adv-x="706" 
d="M188 965v93h329v-93h-329zM182 773v108h131v-108h-131zM394 773v108h130v-108h-130zM353 -8c-291 0 -298 80 -298 352s7 352 298 352c292 0 298 -80 298 -352s-6 -352 -298 -352zM353 130c120 0 122 5 122 214s-2 214 -122 214c-119 0 -123 -5 -123 -214s4 -214 123 -214
z" />
    <glyph glyph-name="uni0230" unicode="&#x230;" horiz-adv-x="706" 
d="M188 951v93h329v-93h-329zM287 773v108h131v-108h-131zM353 -8c-291 0 -298 80 -298 352s7 352 298 352c292 0 298 -80 298 -352s-6 -352 -298 -352zM353 130c120 0 122 5 122 214s-2 214 -122 214c-119 0 -123 -5 -123 -214s4 -214 123 -214z" />
    <glyph glyph-name="uni1ECC" unicode="&#x1ecc;" horiz-adv-x="706" 
d="M353 -8c-291 0 -298 80 -298 352s7 352 298 352c292 0 298 -80 298 -352s-6 -352 -298 -352zM353 130c120 0 122 5 122 214s-2 214 -122 214c-119 0 -123 -5 -123 -214s4 -214 123 -214zM291 -212v116h125v-116h-125z" />
    <glyph glyph-name="Ograve" unicode="&#xd2;" horiz-adv-x="706" 
d="M320 754l-132 140v5h155l91 -140v-5h-114zM353 -8c-291 0 -298 80 -298 352s7 352 298 352c292 0 298 -80 298 -352s-6 -352 -298 -352zM353 130c120 0 122 5 122 214s-2 214 -122 214c-119 0 -123 -5 -123 -214s4 -214 123 -214z" />
    <glyph glyph-name="uni1ECE" unicode="&#x1ece;" horiz-adv-x="706" 
d="M292 745v6c0 37 9 55 48 66l18 5c31 9 36 12 36 31c0 28 -16 29 -65 29c-26 0 -76 -3 -104 -6v73c34 6 89 10 128 10c84 0 143 -5 143 -96c0 -58 -25 -70 -71 -84l-16 -4c-29 -9 -33 -13 -33 -30h-84zM353 -8c-291 0 -298 80 -298 352s7 352 298 352
c292 0 298 -80 298 -352s-6 -352 -298 -352zM353 130c120 0 122 5 122 214s-2 214 -122 214c-119 0 -123 -5 -123 -214s4 -214 123 -214z" />
    <glyph glyph-name="Ohorn" unicode="&#x1a0;" horiz-adv-x="706" 
d="M663 629v59h52c58 0 65 15 65 64v27h104v-18c0 -103 -20 -132 -169 -132h-52zM353 -8c-291 0 -298 80 -298 352s7 352 298 352c292 0 298 -80 298 -352s-6 -352 -298 -352zM353 130c120 0 122 5 122 214s-2 214 -122 214c-119 0 -123 -5 -123 -214s4 -214 123 -214z" />
    <glyph glyph-name="uni1EDA" unicode="&#x1eda;" horiz-adv-x="706" 
d="M269 754v5l91 140h155v-5l-132 -140h-114zM663 629v59h52c58 0 65 15 65 64v27h104v-18c0 -103 -20 -132 -169 -132h-52zM353 -8c-291 0 -298 80 -298 352s7 352 298 352c292 0 298 -80 298 -352s-6 -352 -298 -352zM353 130c120 0 122 5 122 214s-2 214 -122 214
c-119 0 -123 -5 -123 -214s4 -214 123 -214z" />
    <glyph glyph-name="uni1EE2" unicode="&#x1ee2;" horiz-adv-x="706" 
d="M663 629v59h52c58 0 65 15 65 64v27h104v-18c0 -103 -20 -132 -169 -132h-52zM353 -8c-291 0 -298 80 -298 352s7 352 298 352c292 0 298 -80 298 -352s-6 -352 -298 -352zM353 130c120 0 122 5 122 214s-2 214 -122 214c-119 0 -123 -5 -123 -214s4 -214 123 -214z
M291 -212v116h125v-116h-125z" />
    <glyph glyph-name="uni1EDC" unicode="&#x1edc;" horiz-adv-x="706" 
d="M320 754l-132 140v5h155l91 -140v-5h-114zM663 629v59h52c58 0 65 15 65 64v27h104v-18c0 -103 -20 -132 -169 -132h-52zM353 -8c-291 0 -298 80 -298 352s7 352 298 352c292 0 298 -80 298 -352s-6 -352 -298 -352zM353 130c120 0 122 5 122 214s-2 214 -122 214
c-119 0 -123 -5 -123 -214s4 -214 123 -214z" />
    <glyph glyph-name="uni1EDE" unicode="&#x1ede;" horiz-adv-x="706" 
d="M292 745v6c0 37 9 55 48 66l18 5c31 9 36 12 36 31c0 28 -16 29 -65 29c-26 0 -76 -3 -104 -6v73c34 6 89 10 128 10c84 0 143 -5 143 -96c0 -58 -25 -70 -71 -84l-16 -4c-29 -9 -33 -13 -33 -30h-84zM663 629v59h52c58 0 65 15 65 64v27h104v-18
c0 -103 -20 -132 -169 -132h-52zM353 -8c-291 0 -298 80 -298 352s7 352 298 352c292 0 298 -80 298 -352s-6 -352 -298 -352zM353 130c120 0 122 5 122 214s-2 214 -122 214c-119 0 -123 -5 -123 -214s4 -214 123 -214z" />
    <glyph glyph-name="uni1EE0" unicode="&#x1ee0;" horiz-adv-x="706" 
d="M164 750c0 90 3 141 92 141c38 0 78 -10 112 -18c27 -7 50 -14 69 -14c26 0 26 11 26 44h79c0 -90 -3 -142 -92 -142c-39 0 -77 11 -111 19c-27 7 -52 14 -70 14c-25 0 -25 -11 -25 -44h-80zM663 629v59h52c58 0 65 15 65 64v27h104v-18c0 -103 -20 -132 -169 -132h-52z
M353 -8c-291 0 -298 80 -298 352s7 352 298 352c292 0 298 -80 298 -352s-6 -352 -298 -352zM353 130c120 0 122 5 122 214s-2 214 -122 214c-119 0 -123 -5 -123 -214s4 -214 123 -214z" />
    <glyph glyph-name="Ohungarumlaut" unicode="&#x150;" horiz-adv-x="706" 
d="M214 754v5l78 121h127v-4l-112 -122h-93zM403 754v5l79 121h127v-4l-112 -122h-94zM353 -8c-291 0 -298 80 -298 352s7 352 298 352c292 0 298 -80 298 -352s-6 -352 -298 -352zM353 130c120 0 122 5 122 214s-2 214 -122 214c-119 0 -123 -5 -123 -214s4 -214 123 -214z
" />
    <glyph glyph-name="uni020E" unicode="&#x20e;" horiz-adv-x="706" 
d="M354 903c134 0 151 -62 151 -149h-88c0 39 0 64 -63 64s-64 -25 -64 -64h-89c0 87 19 149 153 149zM353 -8c-291 0 -298 80 -298 352s7 352 298 352c292 0 298 -80 298 -352s-6 -352 -298 -352zM353 130c120 0 122 5 122 214s-2 214 -122 214c-119 0 -123 -5 -123 -214
s4 -214 123 -214z" />
    <glyph glyph-name="Omacron" unicode="&#x14c;" horiz-adv-x="706" 
d="M188 772v93h329v-93h-329zM353 -8c-291 0 -298 80 -298 352s7 352 298 352c292 0 298 -80 298 -352s-6 -352 -298 -352zM353 130c120 0 122 5 122 214s-2 214 -122 214c-119 0 -123 -5 -123 -214s4 -214 123 -214z" />
    <glyph glyph-name="uni01EA" unicode="&#x1ea;" horiz-adv-x="706" 
d="M474 -1c-24 -19 -49 -48 -49 -73c0 -20 9 -34 47 -34c3 0 9 0 17 1v-81c-19 -2 -46 -3 -68 -3c-100 0 -126 39 -126 84c0 33 18 68 47 99c-280 2 -287 84 -287 352c0 272 7 352 298 352c292 0 298 -80 298 -352c0 -228 -4 -321 -177 -345zM230 344
c0 -209 4 -214 123 -214c120 0 122 5 122 214s-2 214 -122 214c-119 0 -123 -5 -123 -214z" />
    <glyph glyph-name="Oslash" unicode="&#xd8;" horiz-adv-x="699" 
d="M587 643c54 -51 57 -143 57 -299c0 -276 -9 -352 -295 -352c-51 0 -93 2 -128 8l-32 -55h-134l57 100c-54 50 -57 143 -57 299c0 276 8 352 294 352c51 0 94 -2 129 -8l31 55h135zM349 125c117 0 122 5 122 219s-5 219 -122 219s-121 -5 -121 -219s4 -219 121 -219z" />
    <glyph glyph-name="Oslashacute" unicode="&#x1fe;" horiz-adv-x="699" 
d="M512 894l-132 -140h-114v5l91 140h155v-5zM587 643c54 -51 57 -143 57 -299c0 -276 -9 -352 -295 -352c-51 0 -93 2 -128 8l-32 -55h-134l57 100c-54 50 -57 143 -57 299c0 276 8 352 294 352c51 0 94 -2 129 -8l31 55h135zM349 125c117 0 122 5 122 219s-5 219 -122 219
s-121 -5 -121 -219s4 -219 121 -219z" />
    <glyph glyph-name="Otilde" unicode="&#xd5;" horiz-adv-x="706" 
d="M164 750c0 90 3 141 92 141c38 0 78 -10 112 -18c27 -7 50 -14 69 -14c26 0 26 11 26 44h79c0 -90 -3 -142 -92 -142c-39 0 -77 11 -111 19c-27 7 -52 14 -70 14c-25 0 -25 -11 -25 -44h-80zM353 -8c-291 0 -298 80 -298 352s7 352 298 352c292 0 298 -80 298 -352
s-6 -352 -298 -352zM353 130c120 0 122 5 122 214s-2 214 -122 214c-119 0 -123 -5 -123 -214s4 -214 123 -214z" />
    <glyph glyph-name="uni022C" unicode="&#x22c;" horiz-adv-x="706" 
d="M188 950v93h329v-93h-329zM164 750c0 90 3 141 92 141c38 0 78 -10 112 -18c27 -7 50 -14 69 -14c26 0 26 11 26 44h79c0 -90 -3 -142 -92 -142c-39 0 -77 11 -111 19c-27 7 -52 14 -70 14c-25 0 -25 -11 -25 -44h-80zM353 -8c-291 0 -298 80 -298 352s7 352 298 352
c292 0 298 -80 298 -352s-6 -352 -298 -352zM353 130c120 0 122 5 122 214s-2 214 -122 214c-119 0 -123 -5 -123 -214s4 -214 123 -214z" />
    <glyph glyph-name="OE" unicode="&#x152;" horiz-adv-x="1010" 
d="M353 0c-291 0 -298 78 -298 344s7 344 298 344h602v-138h-255c-24 0 -53 3 -72 8c15 -38 20 -85 22 -142h258v-137h-257c-2 -61 -7 -111 -23 -149c18 4 47 8 72 8h255v-138h-602zM353 138c120 0 122 5 122 206c0 202 -2 206 -122 206c-119 0 -123 -5 -123 -206
s4 -206 123 -206z" />
    <glyph glyph-name="P" unicode="P" horiz-adv-x="649" 
d="M74 0v688h325c191 0 218 -89 218 -233c0 -131 -21 -233 -218 -233h-152v-222h-173zM247 358h81c104 0 114 14 114 97s-10 96 -114 96h-81v-193z" />
    <glyph glyph-name="Thorn" unicode="&#xde;" horiz-adv-x="649" 
d="M74 0v688h173v-104h152c191 0 218 -89 218 -233c0 -131 -21 -233 -218 -233h-152v-118h-173zM247 255h81c104 0 114 13 114 96s-10 96 -114 96h-81v-192z" />
    <glyph glyph-name="Q" unicode="Q" horiz-adv-x="699" 
d="M494 -115l-74 110c-21 -2 -45 -3 -71 -3c-286 0 -294 76 -294 352s8 352 294 352s295 -76 295 -352c0 -169 -8 -260 -71 -305l105 -149v-5h-184zM349 125c117 0 122 5 122 219s-5 219 -122 219s-121 -5 -121 -219s4 -219 121 -219z" />
    <glyph glyph-name="R" unicode="R" horiz-adv-x="679" 
d="M640 0h-182l-92 242h-119v-242h-173v688h328c199 0 224 -89 224 -223c0 -73 -11 -167 -93 -202zM337 377c104 0 114 14 114 87c0 75 -7 87 -113 87h-91v-174h90z" />
    <glyph glyph-name="Racute" unicode="&#x154;" horiz-adv-x="679" 
d="M502 894l-132 -140h-114v5l91 140h155v-5zM640 0h-182l-92 242h-119v-242h-173v688h328c199 0 224 -89 224 -223c0 -73 -11 -167 -93 -202zM337 377c104 0 114 14 114 87c0 75 -7 87 -113 87h-91v-174h90z" />
    <glyph glyph-name="Rcaron" unicode="&#x158;" horiz-adv-x="679" 
d="M414 754h-149l-93 138v7h103l65 -81l65 81h103v-7zM640 0h-182l-92 242h-119v-242h-173v688h328c199 0 224 -89 224 -223c0 -73 -11 -167 -93 -202zM337 377c104 0 114 14 114 87c0 75 -7 87 -113 87h-91v-174h90z" />
    <glyph glyph-name="uni0156" unicode="&#x156;" horiz-adv-x="679" 
d="M533 263l107 -263h-182l-92 242h-119v-242h-173v688h328c199 0 224 -89 224 -223c0 -73 -11 -167 -93 -202zM337 377c104 0 114 14 114 87c0 75 -7 87 -113 87h-91v-174h90zM272 -178v96h138v-66c0 -111 -17 -141 -144 -141v56c54 0 64 8 64 42v13h-58z" />
    <glyph glyph-name="uni0210" unicode="&#x210;" horiz-adv-x="679" 
d="M307 754h-94l-112 122v4h127l79 -121v-5zM496 754h-93l-112 122v4h127l78 -121v-5zM640 0h-182l-92 242h-119v-242h-173v688h328c199 0 224 -89 224 -223c0 -73 -11 -167 -93 -202zM337 377c104 0 114 14 114 87c0 75 -7 87 -113 87h-91v-174h90z" />
    <glyph glyph-name="uni1E5A" unicode="&#x1e5a;" horiz-adv-x="679" 
d="M533 263l107 -263h-182l-92 242h-119v-242h-173v688h328c199 0 224 -89 224 -223c0 -73 -11 -167 -93 -202zM337 377c104 0 114 14 114 87c0 75 -7 87 -113 87h-91v-174h90zM277 -212v116h125v-116h-125z" />
    <glyph glyph-name="uni0212" unicode="&#x212;" horiz-adv-x="679" 
d="M340 818c-63 0 -64 -25 -64 -64h-89c0 87 19 149 153 149s151 -62 151 -149h-88c0 39 0 64 -63 64zM640 0h-182l-92 242h-119v-242h-173v688h328c199 0 224 -89 224 -223c0 -73 -11 -167 -93 -202zM337 377c104 0 114 14 114 87c0 75 -7 87 -113 87h-91v-174h90z" />
    <glyph glyph-name="S" unicode="S" horiz-adv-x="620" 
d="M325 -8c-103 0 -186 5 -259 17v133c72 -7 152 -12 207 -12c64 0 96 5 112 17c13 13 14 30 14 55c0 48 -4 55 -60 62l-126 16c-143 17 -167 96 -167 206c0 189 114 210 263 210c85 0 147 -6 230 -21v-129c-73 7 -129 12 -195 12c-57 0 -89 -3 -105 -12
c-18 -9 -19 -25 -19 -51c0 -47 3 -54 57 -61l147 -18c50 -7 93 -17 120 -60c18 -27 29 -71 29 -137c0 -206 -107 -227 -248 -227z" />
    <glyph glyph-name="Sacute" unicode="&#x15a;" horiz-adv-x="620" 
d="M226 754v5l91 140h155v-5l-132 -140h-114zM325 -8c-103 0 -186 5 -259 17v133c72 -7 152 -12 207 -12c64 0 96 5 112 17c13 13 14 30 14 55c0 48 -4 55 -60 62l-126 16c-143 17 -167 96 -167 206c0 189 114 210 263 210c85 0 147 -6 230 -21v-129c-73 7 -129 12 -195 12
c-57 0 -89 -3 -105 -12c-18 -9 -19 -25 -19 -51c0 -47 3 -54 57 -61l147 -18c50 -7 93 -17 120 -60c18 -27 29 -71 29 -137c0 -206 -107 -227 -248 -227z" />
    <glyph glyph-name="uniA78B" unicode="&#xa78b;" horiz-adv-x="208" 
d="M33 269v419h142v-173l-33 -246h-109z" />
    <glyph glyph-name="Scaron" unicode="&#x160;" horiz-adv-x="613" 
d="M236 729l-93 137v8h103l66 -81l64 81h103v-8l-94 -137h-149zM325 -8c-103 0 -186 5 -259 17v133c72 -7 152 -12 207 -12c64 0 96 5 112 17c13 13 14 30 14 55c0 48 -4 55 -60 62l-126 16c-143 17 -167 96 -167 206c0 189 114 210 263 210c85 0 147 -6 230 -21v-129
c-73 7 -129 12 -195 12c-57 0 -89 -3 -105 -12c-18 -9 -19 -25 -19 -51c0 -47 3 -54 57 -61l147 -18c50 -7 93 -17 120 -60c18 -27 29 -71 29 -137c0 -206 -107 -227 -248 -227z" />
    <glyph glyph-name="Scedilla" unicode="&#x15e;" horiz-adv-x="620" 
d="M573 219c0 -176 -78 -217 -190 -225l-34 -184h-145v5l70 177c-80 2 -147 7 -208 17v133c72 -7 152 -12 207 -12c64 0 96 5 112 17c13 13 14 30 14 55c0 48 -4 55 -60 62l-126 16c-143 17 -167 96 -167 206c0 189 114 210 263 210c85 0 147 -6 230 -21v-129
c-73 7 -129 12 -195 12c-57 0 -89 -3 -105 -12c-18 -9 -19 -25 -19 -51c0 -47 3 -54 57 -61l147 -18c50 -7 93 -17 120 -60c18 -27 29 -71 29 -137z" />
    <glyph glyph-name="Scircumflex" unicode="&#x15c;" horiz-adv-x="620" 
d="M142 754v8l93 137h149l94 -137v-8h-103l-66 81l-64 -81h-103zM325 -8c-103 0 -186 5 -259 17v133c72 -7 152 -12 207 -12c64 0 96 5 112 17c13 13 14 30 14 55c0 48 -4 55 -60 62l-126 16c-143 17 -167 96 -167 206c0 189 114 210 263 210c85 0 147 -6 230 -21v-129
c-73 7 -129 12 -195 12c-57 0 -89 -3 -105 -12c-18 -9 -19 -25 -19 -51c0 -47 3 -54 57 -61l147 -18c50 -7 93 -17 120 -60c18 -27 29 -71 29 -137c0 -206 -107 -227 -248 -227z" />
    <glyph glyph-name="uni0218" unicode="&#x218;" horiz-adv-x="620" 
d="M325 -8c-103 0 -186 5 -259 17v133c72 -7 152 -12 207 -12c64 0 96 5 112 17c13 13 14 30 14 55c0 48 -4 55 -60 62l-126 16c-143 17 -167 96 -167 206c0 189 114 210 263 210c85 0 147 -6 230 -21v-129c-73 7 -129 12 -195 12c-57 0 -89 -3 -105 -12
c-18 -9 -19 -25 -19 -51c0 -47 3 -54 57 -61l147 -18c50 -7 93 -17 120 -60c18 -27 29 -71 29 -137c0 -206 -107 -227 -248 -227zM237 -289v56c54 0 64 8 64 42v13h-58v96h138v-66c0 -111 -17 -141 -144 -141z" />
    <glyph glyph-name="uni1E62" unicode="&#x1e62;" horiz-adv-x="620" 
d="M325 -8c-103 0 -186 5 -259 17v133c72 -7 152 -12 207 -12c64 0 96 5 112 17c13 13 14 30 14 55c0 48 -4 55 -60 62l-126 16c-143 17 -167 96 -167 206c0 189 114 210 263 210c85 0 147 -6 230 -21v-129c-73 7 -129 12 -195 12c-57 0 -89 -3 -105 -12
c-18 -9 -19 -25 -19 -51c0 -47 3 -54 57 -61l147 -18c50 -7 93 -17 120 -60c18 -27 29 -71 29 -137c0 -206 -107 -227 -248 -227zM248 -212v116h125v-116h-125z" />
    <glyph glyph-name="uni1E9E" unicode="&#x1e9e;" horiz-adv-x="744" 
d="M515 380c124 -10 179 -56 179 -196c0 -127 -61 -192 -251 -192c-43 0 -102 9 -139 21v124c39 -7 85 -12 112 -12c87 0 103 10 103 76c0 68 -19 81 -87 81h-98v114l138 162c-33 4 -62 5 -78 5c-147 0 -154 -20 -154 -227v-336h-173v354c0 274 43 342 295 342
c103 0 218 -16 297 -33v-114z" />
    <glyph glyph-name="uni018F" unicode="&#x18f;" horiz-adv-x="680" 
d="M339 -8c-276 0 -284 76 -284 352v72h395c-3 130 -26 142 -162 142c-49 0 -113 -4 -157 -9v130c50 10 133 17 200 17c258 0 294 -86 294 -352c0 -276 -10 -352 -286 -352zM339 125c97 0 111 4 114 154h-226c3 -150 16 -154 112 -154z" />
    <glyph glyph-name="T" unicode="T" horiz-adv-x="585" 
d="M206 0v544h-190v144h554v-144h-191v-544h-173z" />
    <glyph glyph-name="Tbar" unicode="&#x166;" horiz-adv-x="584" 
d="M570 544h-191v-164h167v-115h-167v-265h-173v265h-168v115h168v164h-190v144h554v-144z" />
    <glyph glyph-name="Tcaron" unicode="&#x164;" horiz-adv-x="585" 
d="M218 754l-93 138v7h103l65 -81l65 81h103v-7l-94 -138h-149zM206 0v544h-190v144h554v-144h-191v-544h-173z" />
    <glyph glyph-name="uni0162" unicode="&#x162;" horiz-adv-x="585" 
d="M16 688h554v-144h-191v-544h-29l-35 -190h-146v5l73 185h-36v544h-190v144z" />
    <glyph glyph-name="uni021A" unicode="&#x21a;" horiz-adv-x="585" 
d="M206 0v544h-190v144h554v-144h-191v-544h-173zM219 -289v56c54 0 64 8 64 42v13h-58v96h138v-66c0 -111 -17 -141 -144 -141z" />
    <glyph glyph-name="uni1E6C" unicode="&#x1e6c;" horiz-adv-x="585" 
d="M206 0v544h-190v144h554v-144h-191v-544h-173zM230 -212v116h125v-116h-125z" />
    <glyph glyph-name="U" unicode="U" horiz-adv-x="686" 
d="M343 -8c-256 0 -276 68 -276 318v378h173v-415c0 -131 4 -146 103 -146c100 0 102 15 102 146v415h173v-378c0 -250 -19 -318 -275 -318z" />
    <glyph glyph-name="Uacute" unicode="&#xda;" horiz-adv-x="686" 
d="M259 754v5l91 140h155v-5l-132 -140h-114zM343 -8c-256 0 -276 68 -276 318v378h173v-415c0 -131 4 -146 103 -146c100 0 102 15 102 146v415h173v-378c0 -250 -19 -318 -275 -318z" />
    <glyph glyph-name="Ubreve" unicode="&#x16c;" horiz-adv-x="686" 
d="M342 750c-134 0 -151 62 -151 149h88c0 -38 0 -64 63 -64s64 26 64 64h89c0 -87 -19 -149 -153 -149zM343 -8c-256 0 -276 68 -276 318v378h173v-415c0 -131 4 -146 103 -146c100 0 102 15 102 146v415h173v-378c0 -250 -19 -318 -275 -318z" />
    <glyph glyph-name="uni01D3" unicode="&#x1d3;" horiz-adv-x="686" 
d="M268 754l-93 138v7h103l65 -81l65 81h103v-7l-94 -138h-149zM343 -8c-256 0 -276 68 -276 318v378h173v-415c0 -131 4 -146 103 -146c100 0 102 15 102 146v415h173v-378c0 -250 -19 -318 -275 -318z" />
    <glyph glyph-name="Ucircumflex" unicode="&#xdb;" horiz-adv-x="686" 
d="M175 754v8l93 137h149l94 -137v-8h-103l-66 81l-64 -81h-103zM343 -8c-256 0 -276 68 -276 318v378h173v-415c0 -131 4 -146 103 -146c100 0 102 15 102 146v415h173v-378c0 -250 -19 -318 -275 -318z" />
    <glyph glyph-name="uni0214" unicode="&#x214;" horiz-adv-x="686" 
d="M311 754h-94l-112 122v4h127l79 -121v-5zM500 754h-93l-112 122v4h127l78 -121v-5zM343 -8c-256 0 -276 68 -276 318v378h173v-415c0 -131 4 -146 103 -146c100 0 102 15 102 146v415h173v-378c0 -250 -19 -318 -275 -318z" />
    <glyph glyph-name="Udieresis" unicode="&#xdc;" horiz-adv-x="686" 
d="M172 773v108h131v-108h-131zM384 773v108h130v-108h-130zM343 -8c-256 0 -276 68 -276 318v378h173v-415c0 -131 4 -146 103 -146c100 0 102 15 102 146v415h173v-378c0 -250 -19 -318 -275 -318z" />
    <glyph glyph-name="uni01D7" unicode="&#x1d7;" horiz-adv-x="686" 
d="M259 947v5l91 140h155v-5l-132 -140h-114zM172 773v108h131v-108h-131zM384 773v108h130v-108h-130zM343 -8c-256 0 -276 68 -276 318v378h173v-415c0 -131 4 -146 103 -146c100 0 102 15 102 146v415h173v-378c0 -250 -19 -318 -275 -318z" />
    <glyph glyph-name="uni01D9" unicode="&#x1d9;" horiz-adv-x="686" 
d="M268 947l-93 138v7h103l65 -81l65 81h103v-7l-94 -138h-149zM172 773v108h131v-108h-131zM384 773v108h130v-108h-130zM343 -8c-256 0 -276 68 -276 318v378h173v-415c0 -131 4 -146 103 -146c100 0 102 15 102 146v415h173v-378c0 -250 -19 -318 -275 -318z" />
    <glyph glyph-name="uni01DB" unicode="&#x1db;" horiz-adv-x="686" 
d="M310 947l-132 140v5h155l91 -140v-5h-114zM172 773v108h131v-108h-131zM384 773v108h130v-108h-130zM343 -8c-256 0 -276 68 -276 318v378h173v-415c0 -131 4 -146 103 -146c100 0 102 15 102 146v415h173v-378c0 -250 -19 -318 -275 -318z" />
    <glyph glyph-name="uni01D5" unicode="&#x1d5;" horiz-adv-x="686" 
d="M179 955v81h329v-81h-329zM172 773v108h131v-108h-131zM384 773v108h130v-108h-130zM343 -8c-256 0 -276 68 -276 318v378h173v-415c0 -131 4 -146 103 -146c100 0 102 15 102 146v415h173v-378c0 -250 -19 -318 -275 -318z" />
    <glyph glyph-name="uni1EE4" unicode="&#x1ee4;" horiz-adv-x="686" 
d="M343 -8c-256 0 -276 68 -276 318v378h173v-415c0 -131 4 -146 103 -146c100 0 102 15 102 146v415h173v-378c0 -250 -19 -318 -275 -318zM281 -212v116h125v-116h-125z" />
    <glyph glyph-name="Ugrave" unicode="&#xd9;" horiz-adv-x="686" 
d="M310 754l-132 140v5h155l91 -140v-5h-114zM343 -8c-256 0 -276 68 -276 318v378h173v-415c0 -131 4 -146 103 -146c100 0 102 15 102 146v415h173v-378c0 -250 -19 -318 -275 -318z" />
    <glyph glyph-name="uni1EE6" unicode="&#x1ee6;" horiz-adv-x="686" 
d="M282 745v6c0 37 9 55 48 66l18 5c31 9 36 12 36 31c0 28 -16 29 -65 29c-26 0 -76 -3 -104 -6v73c34 6 89 10 128 10c84 0 143 -5 143 -96c0 -58 -25 -70 -71 -84l-16 -4c-29 -9 -33 -13 -33 -30h-84zM343 -8c-256 0 -276 68 -276 318v378h173v-415
c0 -131 4 -146 103 -146c100 0 102 15 102 146v415h173v-378c0 -250 -19 -318 -275 -318z" />
    <glyph glyph-name="Uhorn" unicode="&#x1af;" horiz-adv-x="686" 
d="M620 779h104v-18c0 -86 -14 -121 -106 -129v-322c0 -250 -19 -318 -275 -318s-276 68 -276 318v378h173v-415c0 -131 4 -146 103 -146c100 0 102 15 102 146v415h110c58 0 65 15 65 64v27z" />
    <glyph glyph-name="uni1EE8" unicode="&#x1ee8;" horiz-adv-x="686" 
d="M505 894l-132 -140h-114v5l91 140h155v-5zM620 779h104v-18c0 -86 -14 -121 -106 -129v-322c0 -250 -19 -318 -275 -318s-276 68 -276 318v378h173v-415c0 -131 4 -146 103 -146c100 0 102 15 102 146v415h110c58 0 65 15 65 64v27z" />
    <glyph glyph-name="uni1EF0" unicode="&#x1ef0;" horiz-adv-x="686" 
d="M620 779h104v-18c0 -86 -14 -121 -106 -129v-322c0 -250 -19 -318 -275 -318s-276 68 -276 318v378h173v-415c0 -131 4 -146 103 -146c100 0 102 15 102 146v415h110c58 0 65 15 65 64v27zM281 -212v116h125v-116h-125z" />
    <glyph glyph-name="uni1EEA" unicode="&#x1eea;" horiz-adv-x="686" 
d="M424 754h-114l-132 140v5h155l91 -140v-5zM620 779h104v-18c0 -86 -14 -121 -106 -129v-322c0 -250 -19 -318 -275 -318s-276 68 -276 318v378h173v-415c0 -131 4 -146 103 -146c100 0 102 15 102 146v415h110c58 0 65 15 65 64v27z" />
    <glyph glyph-name="uni1EEC" unicode="&#x1eec;" horiz-adv-x="686" 
d="M384 853c0 28 -16 29 -65 29c-26 0 -76 -3 -104 -6v73c34 6 89 10 128 10c84 0 143 -5 143 -96c0 -58 -25 -70 -71 -84l-16 -4c-29 -9 -33 -13 -33 -30h-84v6c0 37 9 55 48 66l18 5c31 9 36 12 36 31zM620 779h104v-18c0 -86 -14 -121 -106 -129v-322
c0 -250 -19 -318 -275 -318s-276 68 -276 318v378h173v-415c0 -131 4 -146 103 -146c100 0 102 15 102 146v415h110c58 0 65 15 65 64v27z" />
    <glyph glyph-name="uni1EEE" unicode="&#x1eee;" horiz-adv-x="686" 
d="M260 794c-25 0 -25 -11 -25 -44h-80c0 90 3 141 92 141c38 0 78 -10 112 -18c27 -7 50 -14 69 -14c26 0 26 11 26 44h79c0 -90 -3 -142 -92 -142c-39 0 -77 11 -111 19c-27 7 -52 14 -70 14zM620 779h104v-18c0 -86 -14 -121 -106 -129v-322c0 -250 -19 -318 -275 -318
s-276 68 -276 318v378h173v-415c0 -131 4 -146 103 -146c100 0 102 15 102 146v415h110c58 0 65 15 65 64v27z" />
    <glyph glyph-name="Uhungarumlaut" unicode="&#x170;" horiz-adv-x="686" 
d="M205 754v5l78 121h127v-4l-112 -122h-93zM394 754v5l79 121h127v-4l-112 -122h-94zM343 -8c-256 0 -276 68 -276 318v378h173v-415c0 -131 4 -146 103 -146c100 0 102 15 102 146v415h173v-378c0 -250 -19 -318 -275 -318z" />
    <glyph glyph-name="uni0216" unicode="&#x216;" horiz-adv-x="686" 
d="M344 903c134 0 151 -62 151 -149h-88c0 39 0 64 -63 64s-64 -25 -64 -64h-89c0 87 19 149 153 149zM343 -8c-256 0 -276 68 -276 318v378h173v-415c0 -131 4 -146 103 -146c100 0 102 15 102 146v415h173v-378c0 -250 -19 -318 -275 -318z" />
    <glyph glyph-name="Umacron" unicode="&#x16a;" horiz-adv-x="686" 
d="M179 772v93h329v-93h-329zM343 -8c-256 0 -276 68 -276 318v378h173v-415c0 -131 4 -146 103 -146c100 0 102 15 102 146v415h173v-378c0 -250 -19 -318 -275 -318z" />
    <glyph glyph-name="Uogonek" unicode="&#x172;" horiz-adv-x="686" 
d="M445 688h173v-378c0 -222 -15 -301 -198 -315c-25 -18 -55 -51 -55 -78c0 -20 9 -34 47 -34c3 0 9 0 17 1v-81c-19 -2 -46 -3 -68 -3c-100 0 -126 39 -126 84c0 37 23 76 56 109c-207 10 -224 85 -224 317v378h173v-415c0 -131 4 -146 103 -146c100 0 102 15 102 146v415
z" />
    <glyph glyph-name="Uring" unicode="&#x16e;" horiz-adv-x="686" 
d="M342 740c-134 0 -145 33 -145 118c0 84 11 118 145 118c135 0 147 -34 147 -118c0 -85 -12 -118 -147 -118zM342 805c62 0 62 11 62 53s0 53 -62 53c-60 0 -61 -11 -61 -53s1 -53 61 -53zM343 -8c-256 0 -276 68 -276 318v378h173v-415c0 -131 4 -146 103 -146
c100 0 102 15 102 146v415h173v-378c0 -250 -19 -318 -275 -318z" />
    <glyph glyph-name="Utilde" unicode="&#x168;" horiz-adv-x="686" 
d="M155 750c0 90 3 141 92 141c38 0 78 -10 112 -18c27 -7 50 -14 69 -14c26 0 26 11 26 44h79c0 -90 -3 -142 -92 -142c-39 0 -77 11 -111 19c-27 7 -52 14 -70 14c-25 0 -25 -11 -25 -44h-80zM343 -8c-256 0 -276 68 -276 318v378h173v-415c0 -131 4 -146 103 -146
c100 0 102 15 102 146v415h173v-378c0 -250 -19 -318 -275 -318z" />
    <glyph glyph-name="V" unicode="V" horiz-adv-x="659" 
d="M215 0l-205 688h177l141 -505h7l140 505h174l-205 -688h-229z" />
    <glyph glyph-name="W" unicode="W" horiz-adv-x="972" 
d="M174 0l-158 688h173l103 -492h5l116 492h177l117 -492h6l97 492h172l-159 -688h-218l-103 424h-6l-104 -424h-218z" />
    <glyph glyph-name="Wacute" unicode="&#x1e82;" horiz-adv-x="972" 
d="M413 754v5l91 140h155v-5l-132 -140h-114zM174 0l-158 688h173l103 -492h5l116 492h177l117 -492h6l97 492h172l-159 -688h-218l-103 424h-6l-104 -424h-218z" />
    <glyph glyph-name="Wcircumflex" unicode="&#x174;" horiz-adv-x="972" 
d="M329 754v8l93 137h149l94 -137v-8h-103l-66 81l-64 -81h-103zM174 0l-158 688h173l103 -492h5l116 492h177l117 -492h6l97 492h172l-159 -688h-218l-103 424h-6l-104 -424h-218z" />
    <glyph glyph-name="Wdieresis" unicode="&#x1e84;" horiz-adv-x="972" 
d="M325 773v108h131v-108h-131zM537 773v108h130v-108h-130zM174 0l-158 688h173l103 -492h5l116 492h177l117 -492h6l97 492h172l-159 -688h-218l-103 424h-6l-104 -424h-218z" />
    <glyph glyph-name="Wgrave" unicode="&#x1e80;" horiz-adv-x="972" 
d="M463 754l-132 140v5h155l91 -140v-5h-114zM174 0l-158 688h173l103 -492h5l116 492h177l117 -492h6l97 492h172l-159 -688h-218l-103 424h-6l-104 -424h-218z" />
    <glyph glyph-name="X" unicode="X" horiz-adv-x="683" 
d="M13 0l221 345l-217 343h196l127 -209h9l128 209h189l-216 -339l219 -349h-196l-130 215h-10l-131 -215h-189z" />
    <glyph glyph-name="Y" unicode="Y" horiz-adv-x="633" 
d="M230 0v236l-228 452h178l136 -289h7l134 289h174l-228 -452v-236h-173z" />
    <glyph glyph-name="Yacute" unicode="&#xdd;" horiz-adv-x="633" 
d="M233 754v5l91 140h155v-5l-132 -140h-114zM230 0v236l-228 452h178l136 -289h7l134 289h174l-228 -452v-236h-173z" />
    <glyph glyph-name="Ycircumflex" unicode="&#x176;" horiz-adv-x="633" 
d="M149 754v8l93 137h149l94 -137v-8h-103l-66 81l-64 -81h-103zM230 0v236l-228 452h178l136 -289h7l134 289h174l-228 -452v-236h-173z" />
    <glyph glyph-name="Ydieresis" unicode="&#x178;" horiz-adv-x="633" 
d="M145 773v108h131v-108h-131zM357 773v108h130v-108h-130zM230 0v236l-228 452h178l136 -289h7l134 289h174l-228 -452v-236h-173z" />
    <glyph glyph-name="uni1EF4" unicode="&#x1ef4;" horiz-adv-x="633" 
d="M230 0v236l-228 452h178l136 -289h7l134 289h174l-228 -452v-236h-173zM254 -212v116h125v-116h-125z" />
    <glyph glyph-name="Ygrave" unicode="&#x1ef2;" horiz-adv-x="633" 
d="M284 754l-132 140v5h155l91 -140v-5h-114zM230 0v236l-228 452h178l136 -289h7l134 289h174l-228 -452v-236h-173z" />
    <glyph glyph-name="uni1EF6" unicode="&#x1ef6;" horiz-adv-x="633" 
d="M255 745v6c0 37 9 55 48 66l18 5c31 9 36 12 36 31c0 28 -16 29 -65 29c-26 0 -76 -3 -104 -6v73c34 6 89 10 128 10c84 0 143 -5 143 -96c0 -58 -25 -70 -71 -84l-16 -4c-29 -9 -33 -13 -33 -30h-84zM230 0v236l-228 452h178l136 -289h7l134 289h174l-228 -452v-236
h-173z" />
    <glyph glyph-name="uni0232" unicode="&#x232;" horiz-adv-x="633" 
d="M152 772v93h329v-93h-329zM230 0v236l-228 452h178l136 -289h7l134 289h174l-228 -452v-236h-173z" />
    <glyph glyph-name="uni1EF8" unicode="&#x1ef8;" horiz-adv-x="633" 
d="M128 750c0 90 3 141 92 141c38 0 78 -10 112 -18c27 -7 50 -14 69 -14c26 0 26 11 26 44h79c0 -90 -3 -142 -92 -142c-39 0 -77 11 -111 19c-27 7 -52 14 -70 14c-25 0 -25 -11 -25 -44h-80zM230 0v236l-228 452h178l136 -289h7l134 289h174l-228 -452v-236h-173z" />
    <glyph glyph-name="Z" unicode="Z" horiz-adv-x="618" 
d="M44 0v132l314 418h-303v138h519v-127l-318 -423h320v-138h-532z" />
    <glyph glyph-name="Zacute" unicode="&#x179;" horiz-adv-x="618" 
d="M226 754v5l91 140h155v-5l-132 -140h-114zM44 0v132l314 418h-303v138h519v-127l-318 -423h320v-138h-532z" />
    <glyph glyph-name="Zcaron" unicode="&#x17d;" horiz-adv-x="618" 
d="M235 754l-93 138v7h103l65 -81l65 81h103v-7l-94 -138h-149zM44 0v132l314 418h-303v138h519v-127l-318 -423h320v-138h-532z" />
    <glyph glyph-name="Zdotaccent" unicode="&#x17b;" horiz-adv-x="618" 
d="M244 773v108h131v-108h-131zM44 0v132l314 418h-303v138h519v-127l-318 -423h320v-138h-532z" />
    <glyph glyph-name="uni1E92" unicode="&#x1e92;" horiz-adv-x="618" 
d="M44 0v132l314 418h-303v138h519v-127l-318 -423h320v-138h-532zM247 -212v116h125v-116h-125z" />
    <glyph glyph-name="G_tilde.loclGUA" horiz-adv-x="668" 
d="M147 750c0 90 3 141 92 141c38 0 78 -10 112 -18c27 -7 50 -14 69 -14c26 0 26 11 26 44h79c0 -90 -3 -142 -92 -142c-39 0 -77 11 -111 19c-27 7 -52 14 -70 14c-25 0 -25 -11 -25 -44h-80zM363 -8c-255 0 -308 56 -308 352c0 271 54 352 308 352c117 0 228 -22 235 -23
v-129c-5 1 -113 14 -172 14c-178 0 -196 -4 -196 -214c0 -187 14 -218 141 -218c15 0 47 1 69 2v143h-95v130h256v-385c-69 -14 -169 -24 -238 -24z" />
    <glyph glyph-name="Y.loclGUA" horiz-adv-x="635" 
d="M420 688h173v-178c0 -218 -14 -298 -188 -314v-196h-173v195c-175 17 -190 97 -190 315v178h173v-215c0 -131 3 -146 103 -146c99 0 102 15 102 146v215z" />
    <glyph glyph-name="Yacute.loclGUA" horiz-adv-x="635" 
d="M479 894l-132 -140h-114v5l91 140h155v-5zM420 688h173v-178c0 -218 -14 -298 -188 -314v-196h-173v195c-175 17 -190 97 -190 315v178h173v-215c0 -131 3 -146 103 -146c99 0 102 15 102 146v215z" />
    <glyph glyph-name="Ycircumflex.loclGUA" horiz-adv-x="635" 
d="M316 835l-64 -81h-103v8l93 137h149l94 -137v-8h-103zM420 688h173v-178c0 -218 -14 -298 -188 -314v-196h-173v195c-175 17 -190 97 -190 315v178h173v-215c0 -131 3 -146 103 -146c99 0 102 15 102 146v215z" />
    <glyph glyph-name="Ydieresis.loclGUA" horiz-adv-x="635" 
d="M276 881v-108h-131v108h131zM487 881v-108h-130v108h130zM420 688h173v-178c0 -218 -14 -298 -188 -314v-196h-173v195c-175 17 -190 97 -190 315v178h173v-215c0 -131 3 -146 103 -146c99 0 102 15 102 146v215z" />
    <glyph glyph-name="uni1EF4.loclGUA" horiz-adv-x="635" 
d="M420 688h173v-178c0 -218 -14 -298 -188 -314v-196h-173v195c-175 17 -190 97 -190 315v178h173v-215c0 -131 3 -146 103 -146c99 0 102 15 102 146v215zM256 -212v116h125v-116h-125z" />
    <glyph glyph-name="Ygrave.loclGUA" horiz-adv-x="635" 
d="M398 754h-114l-132 140v5h155l91 -140v-5zM420 688h173v-178c0 -218 -14 -298 -188 -314v-196h-173v195c-175 17 -190 97 -190 315v178h173v-215c0 -131 3 -146 103 -146c99 0 102 15 102 146v215z" />
    <glyph glyph-name="uni1EF6.loclGUA" horiz-adv-x="635" 
d="M357 853c0 28 -16 29 -65 29c-26 0 -76 -3 -104 -6v73c34 6 89 10 128 10c84 0 143 -5 143 -96c0 -58 -25 -70 -71 -84l-16 -4c-29 -9 -33 -13 -33 -30h-84v6c0 37 9 55 48 66l18 5c31 9 36 12 36 31zM420 688h173v-178c0 -218 -14 -298 -188 -314v-196h-173v195
c-175 17 -190 97 -190 315v178h173v-215c0 -131 3 -146 103 -146c99 0 102 15 102 146v215z" />
    <glyph glyph-name="uni0232.loclGUA" horiz-adv-x="635" 
d="M481 865v-93h-329v93h329zM420 688h173v-178c0 -218 -14 -298 -188 -314v-196h-173v195c-175 17 -190 97 -190 315v178h173v-215c0 -131 3 -146 103 -146c99 0 102 15 102 146v215z" />
    <glyph glyph-name="uni1EF8.loclGUA" horiz-adv-x="635" 
d="M233 794c-25 0 -25 -11 -25 -44h-80c0 90 3 141 92 141c38 0 78 -10 112 -18c27 -7 50 -14 69 -14c26 0 26 11 26 44h79c0 -90 -3 -142 -92 -142c-39 0 -77 11 -111 19c-27 7 -52 14 -70 14zM420 688h173v-178c0 -218 -14 -298 -188 -314v-196h-173v195
c-175 17 -190 97 -190 315v178h173v-215c0 -131 3 -146 103 -146c99 0 102 15 102 146v215z" />
    <glyph glyph-name="Cacute.loclPLK" horiz-adv-x="566" 
d="M264 743v5l46 140h154v-5l-86 -140h-114zM345 -8c-256 0 -290 76 -290 352s34 352 290 352c59 0 131 -7 174 -18v-124c-63 6 -107 9 -133 9c-150 0 -158 -18 -158 -219s8 -219 158 -219c42 0 99 4 137 9v-127c-45 -9 -119 -15 -178 -15z" />
    <glyph glyph-name="Nacute.loclPLK" horiz-adv-x="713" 
d="M302 743v5l46 140h154v-5l-86 -140h-114zM71 0v688h178l222 -369h5v369h166v-688h-162l-239 403h-4v-403h-166z" />
    <glyph glyph-name="Oacute.loclPLK" horiz-adv-x="706" 
d="M290 743v5l46 140h154v-5l-86 -140h-114zM353 -8c-291 0 -298 80 -298 352s7 352 298 352c292 0 298 -80 298 -352s-6 -352 -298 -352zM353 130c120 0 122 5 122 214s-2 214 -122 214c-119 0 -123 -5 -123 -214s4 -214 123 -214z" />
    <glyph glyph-name="Sacute.loclPLK" horiz-adv-x="620" 
d="M247 743v5l46 140h154v-5l-86 -140h-114zM325 -8c-103 0 -186 5 -259 17v133c72 -7 152 -12 207 -12c64 0 96 5 112 17c13 13 14 30 14 55c0 48 -4 55 -60 62l-126 16c-143 17 -167 96 -167 206c0 189 114 210 263 210c85 0 147 -6 230 -21v-129c-73 7 -129 12 -195 12
c-57 0 -89 -3 -105 -12c-18 -9 -19 -25 -19 -51c0 -47 3 -54 57 -61l147 -18c50 -7 93 -17 120 -60c18 -27 29 -71 29 -137c0 -206 -107 -227 -248 -227z" />
    <glyph glyph-name="Zacute.loclPLK" horiz-adv-x="618" 
d="M247 743v5l46 140h154v-5l-86 -140h-114zM44 0v132l314 418h-303v138h519v-127l-318 -423h320v-138h-532z" />
    <glyph glyph-name="A.ss01" horiz-adv-x="686" 
d="M67 0v378c0 250 19 318 276 318c256 0 275 -68 275 -318v-378h-173v189h-205v-189h-173zM240 327h205v88c0 131 -3 146 -102 146c-100 0 -103 -15 -103 -146v-88z" />
    <glyph glyph-name="Aacute.ss01" horiz-adv-x="686" 
d="M259 754v5l91 140h155v-5l-132 -140h-114zM67 0v378c0 250 19 318 276 318c256 0 275 -68 275 -318v-378h-173v189h-205v-189h-173zM240 327h205v88c0 131 -3 146 -102 146c-100 0 -103 -15 -103 -146v-88z" />
    <glyph glyph-name="Abreve.ss01" horiz-adv-x="686" 
d="M342 750c-134 0 -151 62 -151 149h88c0 -38 0 -64 63 -64s64 26 64 64h89c0 -87 -19 -149 -153 -149zM67 0v378c0 250 19 318 276 318c256 0 275 -68 275 -318v-378h-173v189h-205v-189h-173zM240 327h205v88c0 131 -3 146 -102 146c-100 0 -103 -15 -103 -146v-88z" />
    <glyph glyph-name="uni1EAE.ss01" horiz-adv-x="686" 
d="M259 926v5l91 140h155v-5l-132 -140h-114zM342 750c-134 0 -151 62 -151 149h88c0 -38 0 -64 63 -64s64 26 64 64h89c0 -87 -19 -149 -153 -149zM67 0v378c0 250 19 318 276 318c256 0 275 -68 275 -318v-378h-173v189h-205v-189h-173zM240 327h205v88
c0 131 -3 146 -102 146c-100 0 -103 -15 -103 -146v-88z" />
    <glyph glyph-name="uni1EB6.ss01" horiz-adv-x="686" 
d="M342 750c-134 0 -151 62 -151 149h88c0 -38 0 -64 63 -64s64 26 64 64h89c0 -87 -19 -149 -153 -149zM67 0v378c0 250 19 318 276 318c256 0 275 -68 275 -318v-378h-173v189h-205v-189h-173zM240 327h205v88c0 131 -3 146 -102 146c-100 0 -103 -15 -103 -146v-88z
M281 -212v116h125v-116h-125z" />
    <glyph glyph-name="uni1EB0.ss01" horiz-adv-x="686" 
d="M313 926l-132 140v5h155l91 -140v-5h-114zM342 750c-134 0 -151 62 -151 149h88c0 -38 0 -64 63 -64s64 26 64 64h89c0 -87 -19 -149 -153 -149zM67 0v378c0 250 19 318 276 318c256 0 275 -68 275 -318v-378h-173v189h-205v-189h-173zM240 327h205v88
c0 131 -3 146 -102 146c-100 0 -103 -15 -103 -146v-88z" />
    <glyph glyph-name="uni1EB2.ss01" horiz-adv-x="686" 
d="M282 917v6c0 37 8 55 48 66l18 5c31 9 36 12 36 31c0 28 -16 29 -65 29c-26 0 -77 -3 -104 -6v73c34 6 89 10 128 10c83 0 143 -5 143 -96c0 -58 -25 -70 -71 -83l-16 -5c-29 -9 -33 -13 -33 -30h-84zM342 750c-134 0 -151 62 -151 149h88c0 -38 0 -64 63 -64
s64 26 64 64h89c0 -87 -19 -149 -153 -149zM67 0v378c0 250 19 318 276 318c256 0 275 -68 275 -318v-378h-173v189h-205v-189h-173zM240 327h205v88c0 131 -3 146 -102 146c-100 0 -103 -15 -103 -146v-88z" />
    <glyph glyph-name="uni1EB4.ss01" horiz-adv-x="686" 
d="M153 922c0 90 3 141 93 141c38 0 77 -10 111 -18c27 -7 50 -14 70 -14c25 0 25 11 25 44h79c0 -90 -2 -142 -91 -142c-40 0 -78 11 -112 19c-27 7 -52 14 -69 14c-26 0 -26 -11 -26 -44h-80zM342 750c-134 0 -151 62 -151 149h88c0 -38 0 -64 63 -64s64 26 64 64h89
c0 -87 -19 -149 -153 -149zM67 0v378c0 250 19 318 276 318c256 0 275 -68 275 -318v-378h-173v189h-205v-189h-173zM240 327h205v88c0 131 -3 146 -102 146c-100 0 -103 -15 -103 -146v-88z" />
    <glyph glyph-name="uni01CD.ss01" horiz-adv-x="686" 
d="M268 754l-93 138v7h103l65 -81l65 81h103v-7l-94 -138h-149zM67 0v378c0 250 19 318 276 318c256 0 275 -68 275 -318v-378h-173v189h-205v-189h-173zM240 327h205v88c0 131 -3 146 -102 146c-100 0 -103 -15 -103 -146v-88z" />
    <glyph glyph-name="Acircumflex.ss01" horiz-adv-x="686" 
d="M175 754v8l93 137h149l94 -137v-8h-103l-66 81l-64 -81h-103zM67 0v378c0 250 19 318 276 318c256 0 275 -68 275 -318v-378h-173v189h-205v-189h-173zM240 327h205v88c0 131 -3 146 -102 146c-100 0 -103 -15 -103 -146v-88z" />
    <glyph glyph-name="uni1EA4.ss01" horiz-adv-x="686" 
d="M259 932v5l91 140h155v-5l-132 -140h-114zM175 754v8l93 137h149l94 -137v-8h-103l-66 81l-64 -81h-103zM67 0v378c0 250 19 318 276 318c256 0 275 -68 275 -318v-378h-173v189h-205v-189h-173zM240 327h205v88c0 131 -3 146 -102 146c-100 0 -103 -15 -103 -146v-88z
" />
    <glyph glyph-name="uni1EAC.ss01" horiz-adv-x="686" 
d="M175 754v8l93 137h149l94 -137v-8h-103l-66 81l-64 -81h-103zM67 0v378c0 250 19 318 276 318c256 0 275 -68 275 -318v-378h-173v189h-205v-189h-173zM240 327h205v88c0 131 -3 146 -102 146c-100 0 -103 -15 -103 -146v-88zM281 -212v116h125v-116h-125z" />
    <glyph glyph-name="uni1EA6.ss01" horiz-adv-x="686" 
d="M310 932l-132 140v5h155l91 -140v-5h-114zM175 754v8l93 137h149l94 -137v-8h-103l-66 81l-64 -81h-103zM67 0v378c0 250 19 318 276 318c256 0 275 -68 275 -318v-378h-173v189h-205v-189h-173zM240 327h205v88c0 131 -3 146 -102 146c-100 0 -103 -15 -103 -146v-88z
" />
    <glyph glyph-name="uni1EA8.ss01" horiz-adv-x="686" 
d="M281 923v6c0 36 9 54 48 66l18 5c32 9 37 12 37 30c0 29 -17 30 -66 30c-25 0 -76 -3 -103 -6v73c34 6 88 10 128 10c83 0 142 -5 142 -96c0 -58 -24 -70 -71 -84l-15 -4c-30 -9 -33 -13 -33 -30h-85zM175 754v8l93 137h149l94 -137v-8h-103l-66 81l-64 -81h-103zM67 0
v378c0 250 19 318 276 318c256 0 275 -68 275 -318v-378h-173v189h-205v-189h-173zM240 327h205v88c0 131 -3 146 -102 146c-100 0 -103 -15 -103 -146v-88z" />
    <glyph glyph-name="uni1EAA.ss01" horiz-adv-x="686" 
d="M154 928c0 90 3 141 92 141c39 0 78 -10 112 -18c27 -7 50 -14 69 -14c26 0 26 11 26 44h79c0 -90 -3 -142 -92 -142c-39 0 -77 11 -111 19c-27 7 -52 13 -70 13c-25 0 -25 -11 -25 -43h-80zM175 754v8l93 137h149l94 -137v-8h-103l-66 81l-64 -81h-103zM67 0v378
c0 250 19 318 276 318c256 0 275 -68 275 -318v-378h-173v189h-205v-189h-173zM240 327h205v88c0 131 -3 146 -102 146c-100 0 -103 -15 -103 -146v-88z" />
    <glyph glyph-name="uni0200.ss01" horiz-adv-x="686" 
d="M311 754h-94l-112 122v4h127l79 -121v-5zM500 754h-93l-112 122v4h127l78 -121v-5zM67 0v378c0 250 19 318 276 318c256 0 275 -68 275 -318v-378h-173v189h-205v-189h-173zM240 327h205v88c0 131 -3 146 -102 146c-100 0 -103 -15 -103 -146v-88z" />
    <glyph glyph-name="Adieresis.ss01" horiz-adv-x="686" 
d="M172 773v108h131v-108h-131zM384 773v108h130v-108h-130zM67 0v378c0 250 19 318 276 318c256 0 275 -68 275 -318v-378h-173v189h-205v-189h-173zM240 327h205v88c0 131 -3 146 -102 146c-100 0 -103 -15 -103 -146v-88z" />
    <glyph glyph-name="uni1EA0.ss01" horiz-adv-x="686" 
d="M67 0v378c0 250 19 318 276 318c256 0 275 -68 275 -318v-378h-173v189h-205v-189h-173zM240 327h205v88c0 131 -3 146 -102 146c-100 0 -103 -15 -103 -146v-88zM281 -212v116h125v-116h-125z" />
    <glyph glyph-name="Agrave.ss01" horiz-adv-x="686" 
d="M310 754l-132 140v5h155l91 -140v-5h-114zM67 0v378c0 250 19 318 276 318c256 0 275 -68 275 -318v-378h-173v189h-205v-189h-173zM240 327h205v88c0 131 -3 146 -102 146c-100 0 -103 -15 -103 -146v-88z" />
    <glyph glyph-name="uni1EA2.ss01" horiz-adv-x="686" 
d="M282 745v6c0 37 9 55 48 66l18 5c31 9 36 12 36 31c0 28 -16 29 -65 29c-26 0 -76 -3 -104 -6v73c34 6 89 10 128 10c84 0 143 -5 143 -96c0 -58 -25 -70 -71 -84l-16 -4c-29 -9 -33 -13 -33 -30h-84zM67 0v378c0 250 19 318 276 318c256 0 275 -68 275 -318v-378h-173
v189h-205v-189h-173zM240 327h205v88c0 131 -3 146 -102 146c-100 0 -103 -15 -103 -146v-88z" />
    <glyph glyph-name="uni0202.ss01" horiz-adv-x="686" 
d="M344 903c134 0 151 -62 151 -149h-88c0 39 0 64 -63 64s-64 -25 -64 -64h-89c0 87 19 149 153 149zM67 0v378c0 250 19 318 276 318c256 0 275 -68 275 -318v-378h-173v189h-205v-189h-173zM240 327h205v88c0 131 -3 146 -102 146c-100 0 -103 -15 -103 -146v-88z" />
    <glyph glyph-name="Amacron.ss01" horiz-adv-x="686" 
d="M179 772v93h329v-93h-329zM67 0v378c0 250 19 318 276 318c256 0 275 -68 275 -318v-378h-173v189h-205v-189h-173zM240 327h205v88c0 131 -3 146 -102 146c-100 0 -103 -15 -103 -146v-88z" />
    <glyph glyph-name="Aogonek.ss01" horiz-adv-x="686" 
d="M603 -117c3 0 9 0 17 1v-81c-19 -2 -46 -3 -68 -3c-100 0 -126 39 -126 84c0 39 26 81 64 116h-45v189h-205v-189h-173v378c0 250 19 318 276 318c256 0 275 -68 275 -318v-378h1c-26 -16 -63 -53 -63 -83c0 -20 9 -34 47 -34zM445 327v88c0 131 -3 146 -102 146
c-100 0 -103 -15 -103 -146v-88h205z" />
    <glyph glyph-name="Aring.ss01" horiz-adv-x="686" 
d="M342 740c-134 0 -145 33 -145 118c0 84 11 118 145 118c135 0 147 -34 147 -118c0 -85 -12 -118 -147 -118zM342 805c62 0 62 11 62 53s0 53 -62 53c-60 0 -61 -11 -61 -53s1 -53 61 -53zM67 0v378c0 250 19 318 276 318c256 0 275 -68 275 -318v-378h-173v189h-205v-189
h-173zM240 327h205v88c0 131 -3 146 -102 146c-100 0 -103 -15 -103 -146v-88z" />
    <glyph glyph-name="Aringacute.ss01" horiz-adv-x="686" 
d="M259 1019v5l91 140h155v-5l-132 -140h-114zM342 740c-134 0 -145 33 -145 118c0 84 11 118 145 118c135 0 147 -34 147 -118c0 -85 -12 -118 -147 -118zM342 805c62 0 62 11 62 53s0 53 -62 53c-60 0 -61 -11 -61 -53s1 -53 61 -53zM67 0v378c0 250 19 318 276 318
c256 0 275 -68 275 -318v-378h-173v189h-205v-189h-173zM240 327h205v88c0 131 -3 146 -102 146c-100 0 -103 -15 -103 -146v-88z" />
    <glyph glyph-name="Atilde.ss01" horiz-adv-x="686" 
d="M155 750c0 90 3 141 92 141c38 0 78 -10 112 -18c27 -7 50 -14 69 -14c26 0 26 11 26 44h79c0 -90 -3 -142 -92 -142c-39 0 -77 11 -111 19c-27 7 -52 14 -70 14c-25 0 -25 -11 -25 -44h-80zM67 0v378c0 250 19 318 276 318c256 0 275 -68 275 -318v-378h-173v189h-205
v-189h-173zM240 327h205v88c0 131 -3 146 -102 146c-100 0 -103 -15 -103 -146v-88z" />
    <glyph glyph-name="G.ss01" horiz-adv-x="681" 
d="M363 -8c-268 0 -308 74 -308 352s57 352 314 352c68 0 164 -9 231 -22v-125c-70 8 -137 14 -170 14c-183 0 -204 -4 -204 -219c0 -207 18 -221 127 -221c102 0 105 8 105 128v30h-102v126h271v-136c0 -208 -3 -279 -264 -279z" />
    <glyph glyph-name="uni01F4.ss01" horiz-adv-x="681" 
d="M257 754v5l91 140h155v-5l-132 -140h-114zM363 -8c-268 0 -308 74 -308 352s57 352 314 352c68 0 164 -9 231 -22v-125c-70 8 -137 14 -170 14c-183 0 -204 -4 -204 -219c0 -207 18 -221 127 -221c102 0 105 8 105 128v30h-102v126h271v-136c0 -208 -3 -279 -264 -279z
" />
    <glyph glyph-name="Gbreve.ss01" horiz-adv-x="681" 
d="M339 750c-134 0 -151 62 -151 149h88c0 -38 0 -64 63 -64s64 26 64 64h89c0 -87 -19 -149 -153 -149zM363 -8c-268 0 -308 74 -308 352s57 352 314 352c68 0 164 -9 231 -22v-125c-70 8 -137 14 -170 14c-183 0 -204 -4 -204 -219c0 -207 18 -221 127 -221
c102 0 105 8 105 128v30h-102v126h271v-136c0 -208 -3 -279 -264 -279z" />
    <glyph glyph-name="Gcaron.ss01" horiz-adv-x="681" 
d="M266 754l-93 138v7h103l65 -81l65 81h103v-7l-94 -138h-149zM363 -8c-268 0 -308 74 -308 352s57 352 314 352c68 0 164 -9 231 -22v-125c-70 8 -137 14 -170 14c-183 0 -204 -4 -204 -219c0 -207 18 -221 127 -221c102 0 105 8 105 128v30h-102v126h271v-136
c0 -208 -3 -279 -264 -279z" />
    <glyph glyph-name="Gcircumflex.ss01" horiz-adv-x="681" 
d="M173 754v8l93 137h149l94 -137v-8h-103l-66 81l-64 -81h-103zM363 -8c-268 0 -308 74 -308 352s57 352 314 352c68 0 164 -9 231 -22v-125c-70 8 -137 14 -170 14c-183 0 -204 -4 -204 -219c0 -207 18 -221 127 -221c102 0 105 8 105 128v30h-102v126h271v-136
c0 -208 -3 -279 -264 -279z" />
    <glyph glyph-name="uni0122.ss01" horiz-adv-x="681" 
d="M363 -8c-268 0 -308 74 -308 352s57 352 314 352c68 0 164 -9 231 -22v-125c-70 8 -137 14 -170 14c-183 0 -204 -4 -204 -219c0 -207 18 -221 127 -221c102 0 105 8 105 128v30h-102v126h271v-136c0 -208 -3 -279 -264 -279zM268 -289v56c54 0 64 8 64 42v13h-58v96h138
v-66c0 -111 -17 -141 -144 -141z" />
    <glyph glyph-name="Gdotaccent.ss01" horiz-adv-x="681" 
d="M275 773v108h131v-108h-131zM363 -8c-268 0 -308 74 -308 352s57 352 314 352c68 0 164 -9 231 -22v-125c-70 8 -137 14 -170 14c-183 0 -204 -4 -204 -219c0 -207 18 -221 127 -221c102 0 105 8 105 128v30h-102v126h271v-136c0 -208 -3 -279 -264 -279z" />
    <glyph glyph-name="R.ss01" horiz-adv-x="674" 
d="M613 171l11 -171h-172l-11 152c-5 65 -10 93 -90 93h-107v-245h-173v688h362c137 0 187 -65 187 -188s-42 -161 -117 -181v-4c68 -17 104 -41 110 -144zM348 377c85 0 96 17 96 89c0 73 -7 89 -95 89h-105v-178h104z" />
    <glyph glyph-name="Racute.ss01" horiz-adv-x="674" 
d="M499 894l-132 -140h-114v5l91 140h155v-5zM613 171l11 -171h-172l-11 152c-5 65 -10 93 -90 93h-107v-245h-173v688h362c137 0 187 -65 187 -188s-42 -161 -117 -181v-4c68 -17 104 -41 110 -144zM348 377c85 0 96 17 96 89c0 73 -7 89 -95 89h-105v-178h104z" />
    <glyph glyph-name="Rcaron.ss01" horiz-adv-x="674" 
d="M411 754h-149l-93 138v7h103l65 -81l65 81h103v-7zM613 171l11 -171h-172l-11 152c-5 65 -10 93 -90 93h-107v-245h-173v688h362c137 0 187 -65 187 -188s-42 -161 -117 -181v-4c68 -17 104 -41 110 -144zM348 377c85 0 96 17 96 89c0 73 -7 89 -95 89h-105v-178h104z
" />
    <glyph glyph-name="uni0156.ss01" horiz-adv-x="674" 
d="M613 171l11 -171h-172l-11 152c-5 65 -10 93 -90 93h-107v-245h-173v688h362c137 0 187 -65 187 -188s-42 -161 -117 -181v-4c68 -17 104 -41 110 -144zM348 377c85 0 96 17 96 89c0 73 -7 89 -95 89h-105v-178h104zM270 -178v96h138v-66c0 -111 -17 -141 -144 -141v56
c54 0 64 8 64 42v13h-58z" />
    <glyph glyph-name="uni0210.ss01" horiz-adv-x="674" 
d="M305 754h-94l-112 122v4h127l79 -121v-5zM494 754h-93l-112 122v4h127l78 -121v-5zM613 171l11 -171h-172l-11 152c-5 65 -10 93 -90 93h-107v-245h-173v688h362c137 0 187 -65 187 -188s-42 -161 -117 -181v-4c68 -17 104 -41 110 -144zM348 377c85 0 96 17 96 89
c0 73 -7 89 -95 89h-105v-178h104z" />
    <glyph glyph-name="uni1E5A.ss01" horiz-adv-x="674" 
d="M613 171l11 -171h-172l-11 152c-5 65 -10 93 -90 93h-107v-245h-173v688h362c137 0 187 -65 187 -188s-42 -161 -117 -181v-4c68 -17 104 -41 110 -144zM348 377c85 0 96 17 96 89c0 73 -7 89 -95 89h-105v-178h104zM274 -212v116h125v-116h-125z" />
    <glyph glyph-name="uni0212.ss01" horiz-adv-x="674" 
d="M338 818c-63 0 -64 -25 -64 -64h-89c0 87 19 149 153 149s151 -62 151 -149h-88c0 39 0 64 -63 64zM613 171l11 -171h-172l-11 152c-5 65 -10 93 -90 93h-107v-245h-173v688h362c137 0 187 -65 187 -188s-42 -161 -117 -181v-4c68 -17 104 -41 110 -144zM348 377
c85 0 96 17 96 89c0 73 -7 89 -95 89h-105v-178h104z" />
    <glyph glyph-name="a" unicode="a" horiz-adv-x="563" 
d="M185 -8c-96 0 -146 42 -146 153c0 116 32 157 160 157c24 0 96 -2 142 -4v19c0 77 -15 80 -124 80c-45 0 -112 -4 -149 -8v113c55 9 125 16 200 16c214 0 233 -66 233 -210v-308h-153l-4 60h-8c-37 -61 -97 -68 -151 -68zM261 106c35 0 57 7 69 28c8 14 11 35 11 65v19
h-92c-51 0 -59 -7 -59 -58c0 -44 7 -54 71 -54z" />
    <glyph glyph-name="aacute" unicode="&#xe1;" horiz-adv-x="563" 
d="M217 576v5l91 140h155v-5l-132 -140h-114zM185 -8c-96 0 -146 42 -146 153c0 116 32 157 160 157c24 0 96 -2 142 -4v19c0 77 -15 80 -124 80c-45 0 -112 -4 -149 -8v113c55 9 125 16 200 16c214 0 233 -66 233 -210v-308h-153l-4 60h-8c-37 -61 -97 -68 -151 -68z
M261 106c35 0 57 7 69 28c8 14 11 35 11 65v19h-92c-51 0 -59 -7 -59 -58c0 -44 7 -54 71 -54z" />
    <glyph glyph-name="abreve" unicode="&#x103;" horiz-adv-x="563" 
d="M282 572c-134 0 -151 62 -151 149h88c0 -38 0 -64 63 -64s64 26 64 64h89c0 -87 -19 -149 -153 -149zM185 -8c-96 0 -146 42 -146 153c0 116 32 157 160 157c24 0 96 -2 142 -4v19c0 77 -15 80 -124 80c-45 0 -112 -4 -149 -8v113c55 9 125 16 200 16
c214 0 233 -66 233 -210v-308h-153l-4 60h-8c-37 -61 -97 -68 -151 -68zM261 106c35 0 57 7 69 28c8 14 11 35 11 65v19h-92c-51 0 -59 -7 -59 -58c0 -44 7 -54 71 -54z" />
    <glyph glyph-name="uni1EAF" unicode="&#x1eaf;" horiz-adv-x="563" 
d="M198 748v5l91 140h154v-5l-131 -140h-114zM282 572c-134 0 -151 62 -151 149h88c0 -38 0 -64 63 -64s64 26 64 64h89c0 -87 -19 -149 -153 -149zM185 -8c-96 0 -146 42 -146 153c0 116 32 157 160 157c24 0 96 -2 142 -4v19c0 77 -15 80 -124 80c-45 0 -112 -4 -149 -8
v113c55 9 125 16 200 16c214 0 233 -66 233 -210v-308h-153l-4 60h-8c-37 -61 -97 -68 -151 -68zM261 106c35 0 57 7 69 28c8 14 11 35 11 65v19h-92c-51 0 -59 -7 -59 -58c0 -44 7 -54 71 -54z" />
    <glyph glyph-name="uni1EB7" unicode="&#x1eb7;" horiz-adv-x="563" 
d="M282 572c-134 0 -151 62 -151 149h88c0 -38 0 -64 63 -64s64 26 64 64h89c0 -87 -19 -149 -153 -149zM185 -8c-96 0 -146 42 -146 153c0 116 32 157 160 157c24 0 96 -2 142 -4v19c0 77 -15 80 -124 80c-45 0 -112 -4 -149 -8v113c55 9 125 16 200 16
c214 0 233 -66 233 -210v-308h-153l-4 60h-8c-37 -61 -97 -68 -151 -68zM261 106c35 0 57 7 69 28c8 14 11 35 11 65v19h-92c-51 0 -59 -7 -59 -58c0 -44 7 -54 71 -54zM219 -212v116h125v-116h-125z" />
    <glyph glyph-name="uni1EB1" unicode="&#x1eb1;" horiz-adv-x="563" 
d="M253 748l-132 140v5h155l91 -140v-5h-114zM282 572c-133 0 -150 62 -150 149h88c0 -38 0 -64 62 -64c64 0 65 26 65 64h88c0 -87 -18 -149 -153 -149zM185 -8c-96 0 -146 42 -146 153c0 116 32 157 160 157c24 0 96 -2 142 -4v19c0 77 -15 80 -124 80
c-45 0 -112 -4 -149 -8v113c55 9 125 16 200 16c214 0 233 -66 233 -210v-308h-153l-4 60h-8c-37 -61 -97 -68 -151 -68zM261 106c35 0 57 7 69 28c8 14 11 35 11 65v19h-92c-51 0 -59 -7 -59 -58c0 -44 7 -54 71 -54z" />
    <glyph glyph-name="uni1EB3" unicode="&#x1eb3;" horiz-adv-x="563" 
d="M222 739v6c0 37 8 55 48 66l18 5c31 9 36 12 36 31c0 28 -16 29 -65 29c-26 0 -77 -3 -104 -6v73c34 6 89 10 128 10c83 0 143 -5 143 -96c0 -58 -25 -70 -71 -83l-16 -5c-29 -9 -33 -13 -33 -30h-84zM282 572c-134 0 -151 62 -151 149h88c0 -38 0 -64 63 -64
s64 26 64 64h89c0 -87 -19 -149 -153 -149zM185 -8c-96 0 -146 42 -146 153c0 116 32 157 160 157c24 0 96 -2 142 -4v19c0 77 -15 80 -124 80c-45 0 -112 -4 -149 -8v113c55 9 125 16 200 16c214 0 233 -66 233 -210v-308h-153l-4 60h-8c-37 -61 -97 -68 -151 -68zM261 106
c35 0 57 7 69 28c8 14 11 35 11 65v19h-92c-51 0 -59 -7 -59 -58c0 -44 7 -54 71 -54z" />
    <glyph glyph-name="uni1EB5" unicode="&#x1eb5;" horiz-adv-x="563" 
d="M94 744c0 90 3 141 92 141c38 0 78 -10 112 -18c27 -7 50 -14 69 -14c26 0 26 11 26 44h79c0 -90 -3 -142 -92 -142c-39 0 -77 11 -111 19c-27 7 -52 14 -70 14c-25 0 -25 -11 -25 -44h-80zM283 572c-134 0 -151 62 -151 149h88c0 -38 0 -64 63 -64s64 26 64 64h89
c0 -87 -19 -149 -153 -149zM185 -8c-96 0 -146 42 -146 153c0 116 32 157 160 157c24 0 96 -2 142 -4v19c0 77 -15 80 -124 80c-45 0 -112 -4 -149 -8v113c55 9 125 16 200 16c214 0 233 -66 233 -210v-308h-153l-4 60h-8c-37 -61 -97 -68 -151 -68zM261 106
c35 0 57 7 69 28c8 14 11 35 11 65v19h-92c-51 0 -59 -7 -59 -58c0 -44 7 -54 71 -54z" />
    <glyph glyph-name="uni01CE" unicode="&#x1ce;" horiz-adv-x="563" 
d="M209 576l-93 138v7h103l65 -81l65 81h103v-7l-94 -138h-149zM185 -8c-96 0 -146 42 -146 153c0 116 32 157 160 157c24 0 96 -2 142 -4v19c0 77 -15 80 -124 80c-45 0 -112 -4 -149 -8v113c55 9 125 16 200 16c214 0 233 -66 233 -210v-308h-153l-4 60h-8
c-37 -61 -97 -68 -151 -68zM261 106c35 0 57 7 69 28c8 14 11 35 11 65v19h-92c-51 0 -59 -7 -59 -58c0 -44 7 -54 71 -54z" />
    <glyph glyph-name="acircumflex" unicode="&#xe2;" horiz-adv-x="563" 
d="M116 576v8l93 137h149l94 -137v-8h-104l-65 81l-64 -81h-103zM185 -8c-96 0 -146 42 -146 153c0 116 32 157 160 157c24 0 96 -2 142 -4v19c0 77 -15 80 -124 80c-45 0 -112 -4 -149 -8v113c55 9 125 16 200 16c214 0 233 -66 233 -210v-308h-153l-4 60h-8
c-37 -61 -97 -68 -151 -68zM261 106c35 0 57 7 69 28c8 14 11 35 11 65v19h-92c-51 0 -59 -7 -59 -58c0 -44 7 -54 71 -54z" />
    <glyph glyph-name="uni1EA5" unicode="&#x1ea5;" horiz-adv-x="563" 
d="M199 754v5l91 140h155v-5l-132 -140h-114zM116 576v8l93 137h149l94 -137v-8h-103l-66 81l-64 -81h-103zM185 -8c-96 0 -146 42 -146 153c0 116 32 157 160 157c24 0 96 -2 142 -4v19c0 77 -15 80 -124 80c-45 0 -112 -4 -149 -8v113c55 9 125 16 200 16
c214 0 233 -66 233 -210v-308h-153l-4 60h-8c-37 -61 -97 -68 -151 -68zM261 106c35 0 57 7 69 28c8 14 11 35 11 65v19h-92c-51 0 -59 -7 -59 -58c0 -44 7 -54 71 -54z" />
    <glyph glyph-name="uni1EAD" unicode="&#x1ead;" horiz-adv-x="563" 
d="M116 576v8l93 137h149l94 -137v-8h-103l-66 81l-64 -81h-103zM185 -8c-96 0 -146 42 -146 153c0 116 32 157 160 157c24 0 96 -2 142 -4v19c0 77 -15 80 -124 80c-45 0 -112 -4 -149 -8v113c55 9 125 16 200 16c214 0 233 -66 233 -210v-308h-153l-4 60h-8
c-37 -61 -97 -68 -151 -68zM261 106c35 0 57 7 69 28c8 14 11 35 11 65v19h-92c-51 0 -59 -7 -59 -58c0 -44 7 -54 71 -54zM219 -212v116h125v-116h-125z" />
    <glyph glyph-name="uni1EA7" unicode="&#x1ea7;" horiz-adv-x="563" 
d="M254 754l-132 140v5h155l91 -140v-5h-114zM116 576v8l93 137h149l94 -137v-8h-103l-66 81l-64 -81h-103zM185 -8c-96 0 -146 42 -146 153c0 116 32 157 160 157c24 0 96 -2 142 -4v19c0 77 -15 80 -124 80c-45 0 -112 -4 -149 -8v113c55 9 125 16 200 16
c214 0 233 -66 233 -210v-308h-153l-4 60h-8c-37 -61 -97 -68 -151 -68zM261 106c35 0 57 7 69 28c8 14 11 35 11 65v19h-92c-51 0 -59 -7 -59 -58c0 -44 7 -54 71 -54z" />
    <glyph glyph-name="uni1EA9" unicode="&#x1ea9;" horiz-adv-x="563" 
d="M223 745v6c0 36 9 54 48 65l18 6c32 8 37 12 37 30c0 29 -17 30 -66 30c-25 0 -76 -3 -104 -6v73c35 5 89 10 129 10c83 0 142 -6 142 -96c0 -58 -24 -70 -71 -84l-15 -4c-30 -9 -34 -14 -34 -30h-84zM116 576v8l93 137h149l94 -137v-8h-103l-66 81l-64 -81h-103zM185 -8
c-96 0 -146 42 -146 153c0 116 32 157 160 157c24 0 96 -2 142 -4v19c0 77 -15 80 -124 80c-45 0 -112 -4 -149 -8v113c55 9 125 16 200 16c214 0 233 -66 233 -210v-308h-153l-4 60h-8c-37 -61 -97 -68 -151 -68zM261 106c35 0 57 7 69 28c8 14 11 35 11 65v19h-92
c-51 0 -59 -7 -59 -58c0 -44 7 -54 71 -54z" />
    <glyph glyph-name="uni1EAB" unicode="&#x1eab;" horiz-adv-x="563" 
d="M94 750c0 90 3 141 92 141c38 0 78 -10 112 -18c27 -7 50 -14 69 -14c26 0 26 11 26 44h79c0 -90 -3 -142 -92 -142c-39 0 -77 11 -111 19c-27 7 -52 13 -70 13c-25 0 -25 -11 -25 -43h-80zM115 576v8l93 137h149l94 -137v-8h-103l-66 81l-64 -81h-103zM185 -8
c-96 0 -146 42 -146 153c0 116 32 157 160 157c24 0 96 -2 142 -4v19c0 77 -15 80 -124 80c-45 0 -112 -4 -149 -8v113c55 9 125 16 200 16c214 0 233 -66 233 -210v-308h-153l-4 60h-8c-37 -61 -97 -68 -151 -68zM261 106c35 0 57 7 69 28c8 14 11 35 11 65v19h-92
c-51 0 -59 -7 -59 -58c0 -44 7 -54 71 -54z" />
    <glyph glyph-name="uni0201" unicode="&#x201;" horiz-adv-x="563" 
d="M154 576l-112 119v4h127l79 -118v-5h-94zM344 576l-112 119v4h127l78 -118v-5h-93zM185 -8c-96 0 -146 42 -146 153c0 116 32 157 160 157c24 0 96 -2 142 -4v19c0 77 -15 80 -124 80c-45 0 -112 -4 -149 -8v113c55 9 125 16 200 16c214 0 233 -66 233 -210v-308h-153
l-4 60h-8c-37 -61 -97 -68 -151 -68zM261 106c35 0 57 7 69 28c8 14 11 35 11 65v19h-92c-51 0 -59 -7 -59 -58c0 -44 7 -54 71 -54z" />
    <glyph glyph-name="adieresis" unicode="&#xe4;" horiz-adv-x="563" 
d="M115 595v108h131v-108h-131zM327 595v108h130v-108h-130zM185 -8c-96 0 -146 42 -146 153c0 116 32 157 160 157c24 0 96 -2 142 -4v19c0 77 -15 80 -124 80c-45 0 -112 -4 -149 -8v113c55 9 125 16 200 16c214 0 233 -66 233 -210v-308h-153l-4 60h-8
c-37 -61 -97 -68 -151 -68zM261 106c35 0 57 7 69 28c8 14 11 35 11 65v19h-92c-51 0 -59 -7 -59 -58c0 -44 7 -54 71 -54z" />
    <glyph glyph-name="uni1EA1" unicode="&#x1ea1;" horiz-adv-x="563" 
d="M185 -8c-96 0 -146 42 -146 153c0 116 32 157 160 157c24 0 96 -2 142 -4v19c0 77 -15 80 -124 80c-45 0 -112 -4 -149 -8v113c55 9 125 16 200 16c214 0 233 -66 233 -210v-308h-153l-4 60h-8c-37 -61 -97 -68 -151 -68zM261 106c35 0 57 7 69 28c8 14 11 35 11 65v19
h-92c-51 0 -59 -7 -59 -58c0 -44 7 -54 71 -54zM219 -212v116h125v-116h-125z" />
    <glyph glyph-name="agrave" unicode="&#xe0;" horiz-adv-x="563" 
d="M232 576l-132 140v5h155l91 -140v-5h-114zM185 -8c-96 0 -146 42 -146 153c0 116 32 157 160 157c24 0 96 -2 142 -4v19c0 77 -15 80 -124 80c-45 0 -112 -4 -149 -8v113c55 9 125 16 200 16c214 0 233 -66 233 -210v-308h-153l-4 60h-8c-37 -61 -97 -68 -151 -68z
M261 106c35 0 57 7 69 28c8 14 11 35 11 65v19h-92c-51 0 -59 -7 -59 -58c0 -44 7 -54 71 -54z" />
    <glyph glyph-name="uni1EA3" unicode="&#x1ea3;" horiz-adv-x="563" 
d="M222 567v6c0 37 9 55 48 66l18 5c31 9 36 12 36 31c0 28 -16 29 -65 29c-26 0 -76 -3 -104 -6v73c34 6 89 10 128 10c84 0 143 -5 143 -96c0 -58 -25 -70 -71 -84l-16 -4c-29 -9 -33 -13 -33 -30h-84zM185 -8c-96 0 -146 42 -146 153c0 116 32 157 160 157
c24 0 96 -2 142 -4v19c0 77 -15 80 -124 80c-45 0 -112 -4 -149 -8v113c55 9 125 16 200 16c214 0 233 -66 233 -210v-308h-153l-4 60h-8c-37 -61 -97 -68 -151 -68zM261 106c35 0 57 7 69 28c8 14 11 35 11 65v19h-92c-51 0 -59 -7 -59 -58c0 -44 7 -54 71 -54z" />
    <glyph glyph-name="uni0203" unicode="&#x203;" horiz-adv-x="563" 
d="M284 725c134 0 151 -62 151 -149h-88c0 39 0 64 -63 64s-64 -25 -64 -64h-89c0 87 19 149 153 149zM185 -8c-96 0 -146 42 -146 153c0 116 32 157 160 157c24 0 96 -2 142 -4v19c0 77 -15 80 -124 80c-45 0 -112 -4 -149 -8v113c55 9 125 16 200 16
c214 0 233 -66 233 -210v-308h-153l-4 60h-8c-37 -61 -97 -68 -151 -68zM261 106c35 0 57 7 69 28c8 14 11 35 11 65v19h-92c-51 0 -59 -7 -59 -58c0 -44 7 -54 71 -54z" />
    <glyph glyph-name="amacron" unicode="&#x101;" horiz-adv-x="563" 
d="M119 594v93h329v-93h-329zM185 -8c-96 0 -146 42 -146 153c0 116 32 157 160 157c24 0 96 -2 142 -4v19c0 77 -15 80 -124 80c-45 0 -112 -4 -149 -8v113c55 9 125 16 200 16c214 0 233 -66 233 -210v-308h-153l-4 60h-8c-37 -61 -97 -68 -151 -68zM261 106
c35 0 57 7 69 28c8 14 11 35 11 65v19h-92c-51 0 -59 -7 -59 -58c0 -44 7 -54 71 -54z" />
    <glyph glyph-name="aogonek" unicode="&#x105;" horiz-adv-x="563" 
d="M486 -117c3 0 9 0 17 1v-81c-19 -2 -46 -3 -68 -3c-100 0 -126 39 -126 84c0 39 26 81 64 116h-25l-4 60h-8c-37 -61 -97 -68 -151 -68c-96 0 -146 42 -146 153c0 116 32 157 160 157c24 0 96 -2 142 -4v19c0 77 -15 80 -124 80c-45 0 -112 -4 -149 -8v113
c55 9 125 16 200 16c214 0 233 -66 233 -210v-308h1c-26 -16 -63 -53 -63 -83c0 -20 9 -34 47 -34zM341 199v19h-92c-51 0 -59 -7 -59 -58c0 -44 7 -54 71 -54c35 0 57 7 69 28c8 14 11 35 11 65z" />
    <glyph glyph-name="aring" unicode="&#xe5;" horiz-adv-x="563" 
d="M284 562c-135 0 -145 33 -145 117c0 85 10 119 145 119s147 -34 147 -119c0 -84 -12 -117 -147 -117zM284 627c62 0 62 11 62 52c0 42 0 54 -62 54c-60 0 -61 -12 -61 -54c0 -41 1 -52 61 -52zM185 -8c-96 0 -146 42 -146 153c0 116 32 157 160 157c24 0 96 -2 142 -4v19
c0 77 -15 80 -124 80c-45 0 -112 -4 -149 -8v113c55 9 125 16 200 16c214 0 233 -66 233 -210v-308h-153l-4 60h-8c-37 -61 -97 -68 -151 -68zM261 106c35 0 57 7 69 28c8 14 11 35 11 65v19h-92c-51 0 -59 -7 -59 -58c0 -44 7 -54 71 -54z" />
    <glyph glyph-name="aringacute" unicode="&#x1fb;" horiz-adv-x="563" 
d="M198 841v5l91 140h155v-5l-132 -140h-114zM282 562c-134 0 -145 33 -145 117c0 85 11 119 145 119c135 0 147 -34 147 -119c0 -84 -12 -117 -147 -117zM282 627c62 0 62 11 62 52c0 42 0 54 -62 54c-60 0 -61 -12 -61 -54c0 -41 1 -52 61 -52zM185 -8
c-96 0 -146 42 -146 153c0 116 32 157 160 157c24 0 96 -2 142 -4v19c0 77 -15 80 -124 80c-45 0 -112 -4 -149 -8v113c55 9 125 16 200 16c214 0 233 -66 233 -210v-308h-153l-4 60h-8c-37 -61 -97 -68 -151 -68zM261 106c35 0 57 7 69 28c8 14 11 35 11 65v19h-92
c-51 0 -59 -7 -59 -58c0 -44 7 -54 71 -54z" />
    <glyph glyph-name="atilde" unicode="&#xe3;" horiz-adv-x="563" 
d="M94 572c0 90 3 141 92 141c38 0 78 -10 112 -18c27 -7 50 -14 69 -14c26 0 26 11 26 44h79c0 -90 -3 -142 -92 -142c-39 0 -77 11 -111 19c-27 7 -52 14 -70 14c-25 0 -25 -11 -25 -44h-80zM185 -8c-96 0 -146 42 -146 153c0 116 32 157 160 157c24 0 96 -2 142 -4v19
c0 77 -15 80 -124 80c-45 0 -112 -4 -149 -8v113c55 9 125 16 200 16c214 0 233 -66 233 -210v-308h-153l-4 60h-8c-37 -61 -97 -68 -151 -68zM261 106c35 0 57 7 69 28c8 14 11 35 11 65v19h-92c-51 0 -59 -7 -59 -58c0 -44 7 -54 71 -54z" />
    <glyph glyph-name="ae" unicode="&#xe6;" horiz-adv-x="855" 
d="M218 -8c-134 0 -179 42 -179 153c0 116 32 157 160 157c24 0 95 -2 142 -4v19c0 77 -15 80 -124 80c-42 0 -113 -4 -149 -8v113c45 8 112 16 192 16c78 0 131 -14 166 -42c37 29 91 42 165 42c212 0 216 -75 216 -264v-38h-305c0 -92 7 -103 133 -103c39 0 102 3 153 8
v-112c-43 -10 -123 -17 -191 -17c-102 0 -160 15 -194 50c-51 -46 -121 -50 -185 -50zM502 298h155c0 97 -15 106 -76 106c-69 0 -78 -14 -79 -106zM261 106c41 0 63 9 73 37c5 15 7 33 7 56v18h-92c-51 0 -59 -6 -59 -57c0 -44 7 -54 71 -54z" />
    <glyph glyph-name="aeacute" unicode="&#x1fd;" horiz-adv-x="855" 
d="M342 576v5l91 140h155v-5l-132 -140h-114zM218 -8c-134 0 -179 42 -179 153c0 116 32 157 160 157c24 0 95 -2 142 -4v19c0 77 -15 80 -124 80c-42 0 -113 -4 -149 -8v113c45 8 112 16 192 16c78 0 131 -14 166 -42c37 29 91 42 165 42c212 0 216 -75 216 -264v-38h-305
c0 -92 7 -103 133 -103c39 0 102 3 153 8v-112c-43 -10 -123 -17 -191 -17c-102 0 -160 15 -194 50c-51 -46 -121 -50 -185 -50zM502 298h155c0 97 -15 106 -76 106c-69 0 -78 -14 -79 -106zM261 106c41 0 63 9 73 37c5 15 7 33 7 56v18h-92c-51 0 -59 -6 -59 -57
c0 -44 7 -54 71 -54z" />
    <glyph glyph-name="b" unicode="b" horiz-adv-x="582" 
d="M370 -8c-57 0 -114 12 -144 69h-9l-4 -61h-152v743h160v-287h8c33 51 83 62 142 62c119 0 166 -59 166 -264s-48 -262 -167 -262zM299 123c72 0 78 10 78 132c0 121 -6 131 -78 131c-36 0 -55 -6 -65 -27c-11 -22 -13 -55 -13 -104s2 -83 13 -104c10 -21 29 -28 65 -28z
" />
    <glyph glyph-name="c" unicode="c" horiz-adv-x="461" 
d="M266 -8c-211 0 -221 95 -221 263c0 165 14 263 219 263c53 0 110 -6 153 -16v-113c-28 4 -74 8 -109 8c-93 0 -102 -23 -102 -142c0 -122 10 -142 103 -142c31 0 75 3 112 8v-113c-44 -10 -104 -16 -155 -16z" />
    <glyph glyph-name="cacute" unicode="&#x107;" horiz-adv-x="461" 
d="M161 576v5l91 140h155v-5l-132 -140h-114zM266 -8c-211 0 -221 95 -221 263c0 165 14 263 219 263c53 0 110 -6 153 -16v-113c-28 4 -74 8 -109 8c-93 0 -102 -23 -102 -142c0 -122 10 -142 103 -142c31 0 75 3 112 8v-113c-44 -10 -104 -16 -155 -16z" />
    <glyph glyph-name="ccaron" unicode="&#x10d;" horiz-adv-x="461" 
d="M171 576l-93 138v7h103l65 -81l65 81h103v-7l-94 -138h-149zM266 -8c-211 0 -221 95 -221 263c0 165 14 263 219 263c53 0 110 -6 153 -16v-113c-28 4 -74 8 -109 8c-93 0 -102 -23 -102 -142c0 -122 10 -142 103 -142c31 0 75 3 112 8v-113c-44 -10 -104 -16 -155 -16z
" />
    <glyph glyph-name="ccedilla" unicode="&#xe7;" horiz-adv-x="461" 
d="M421 121v-113c-28 -6 -61 -11 -95 -14l-35 -184h-145v5l71 179c-164 15 -172 107 -172 261c0 165 14 263 219 263c53 0 110 -6 153 -16v-113c-28 4 -74 8 -109 8c-93 0 -102 -23 -102 -142c0 -122 10 -142 103 -142c31 0 75 3 112 8z" />
    <glyph glyph-name="ccircumflex" unicode="&#x109;" horiz-adv-x="461" 
d="M78 576v8l93 137h149l94 -137v-8h-103l-66 81l-64 -81h-103zM266 -8c-211 0 -221 95 -221 263c0 165 14 263 219 263c53 0 110 -6 153 -16v-113c-28 4 -74 8 -109 8c-93 0 -102 -23 -102 -142c0 -122 10 -142 103 -142c31 0 75 3 112 8v-113c-44 -10 -104 -16 -155 -16z
" />
    <glyph glyph-name="cdotaccent" unicode="&#x10b;" horiz-adv-x="461" 
d="M181 595v108h131v-108h-131zM266 -8c-211 0 -221 95 -221 263c0 165 14 263 219 263c53 0 110 -6 153 -16v-113c-28 4 -74 8 -109 8c-93 0 -102 -23 -102 -142c0 -122 10 -142 103 -142c31 0 75 3 112 8v-113c-44 -10 -104 -16 -155 -16z" />
    <glyph glyph-name="d" unicode="d" horiz-adv-x="582" 
d="M211 -8c-119 0 -166 56 -166 262c0 204 47 264 165 264c60 0 110 -11 142 -62h8v287h160v-743h-151l-4 61h-9c-30 -57 -88 -69 -145 -69zM283 123c41 0 59 9 68 35c8 24 9 55 9 97s-1 72 -8 93c-9 29 -28 38 -69 38c-72 0 -78 -10 -78 -131c0 -122 6 -132 78 -132z" />
    <glyph glyph-name="eth" unicode="&#xf0;" horiz-adv-x="572" 
d="M285 -8c-228 0 -240 61 -240 262c0 184 15 263 188 263c42 0 69 -5 96 -13l5 4c-11 30 -23 56 -38 81l-123 -18v91l66 9c-23 25 -48 48 -71 68v4h172c19 -17 34 -32 50 -50l122 17v-89l-61 -10c26 -47 46 -102 60 -172c9 -50 14 -109 14 -178c0 -209 -12 -269 -240 -269z
M285 113c80 0 81 12 81 141c0 123 -1 143 -81 143s-80 -13 -80 -143c0 -129 0 -141 80 -141z" />
    <glyph glyph-name="dcaron" unicode="&#x10f;" horiz-adv-x="582" 
d="M211 -8c-119 0 -166 56 -166 262c0 204 47 264 165 264c60 0 110 -11 142 -62h8v287h160v-743h-151l-4 61h-9c-30 -57 -88 -69 -145 -69zM550 429l13 202v57h124v-57l-47 -202h-90zM283 123c41 0 59 9 68 35c8 24 9 55 9 97s-1 72 -8 93c-9 29 -28 38 -69 38
c-72 0 -78 -10 -78 -131c0 -122 6 -132 78 -132z" />
    <glyph glyph-name="dcroat" unicode="&#x111;" horiz-adv-x="582" 
d="M580 688v-115h-60v-573h-151l-4 61h-9c-30 -57 -88 -69 -145 -69c-119 0 -166 56 -166 262c0 204 47 264 165 264c60 0 110 -11 142 -62h8v117h-121v115h121v55h160v-55h60zM351 158c8 24 9 55 9 97s-1 72 -8 93c-9 29 -28 38 -69 38c-72 0 -78 -10 -78 -131
c0 -122 6 -132 78 -132c41 0 59 9 68 35z" />
    <glyph glyph-name="uni1E0D" unicode="&#x1e0d;" horiz-adv-x="582" 
d="M211 -8c-119 0 -166 56 -166 262c0 204 47 264 165 264c60 0 110 -11 142 -62h8v287h160v-743h-151l-4 61h-9c-30 -57 -88 -69 -145 -69zM283 123c41 0 59 9 68 35c8 24 9 55 9 97s-1 72 -8 93c-9 29 -28 38 -69 38c-72 0 -78 -10 -78 -131c0 -122 6 -132 78 -132z
M229 -212v116h125v-116h-125z" />
    <glyph glyph-name="uni01F3" unicode="&#x1f3;" horiz-adv-x="1105" 
d="M211 -8c-119 0 -166 56 -166 262c0 204 47 264 165 264c60 0 110 -11 142 -62h8v287h160v-743h-151l-4 61h-9c-30 -57 -88 -69 -145 -69zM625 0v114l233 275h-221v121h423v-114l-233 -275h235v-121h-437zM283 123c41 0 59 9 68 35c8 24 9 55 9 97s-1 72 -8 93
c-9 29 -28 38 -69 38c-72 0 -78 -10 -78 -131c0 -122 6 -132 78 -132z" />
    <glyph glyph-name="uni01C6" unicode="&#x1c6;" horiz-adv-x="1105" 
d="M211 -8c-119 0 -166 56 -166 262c0 204 47 264 165 264c60 0 110 -11 142 -62h8v287h160v-743h-151l-4 61h-9c-30 -57 -88 -69 -145 -69zM776 576l-93 138v7h103l65 -81l65 81h103v-7l-94 -138h-149zM625 0v114l233 275h-221v121h423v-114l-233 -275h235v-121h-437z
M283 123c41 0 59 9 68 35c8 24 9 55 9 97s-1 72 -8 93c-9 29 -28 38 -69 38c-72 0 -78 -10 -78 -131c0 -122 6 -132 78 -132z" />
    <glyph glyph-name="e" unicode="e" horiz-adv-x="555" 
d="M508 254v-39h-305c0 -92 7 -102 133 -102c38 0 102 3 152 8v-112c-42 -10 -122 -17 -190 -17c-238 0 -253 73 -253 262c0 185 18 264 238 264c221 0 225 -75 225 -264zM282 404c-70 0 -78 -14 -79 -106h155c0 97 -14 106 -76 106z" />
    <glyph glyph-name="eacute" unicode="&#xe9;" horiz-adv-x="555" 
d="M443 716l-132 -140h-114v5l91 140h155v-5zM508 254v-39h-305c0 -92 7 -102 133 -102c38 0 102 3 152 8v-112c-42 -10 -122 -17 -190 -17c-238 0 -253 73 -253 262c0 185 18 264 238 264c221 0 225 -75 225 -264zM282 404c-70 0 -78 -14 -79 -106h155
c0 97 -14 106 -76 106z" />
    <glyph glyph-name="ebreve" unicode="&#x115;" horiz-adv-x="555" 
d="M281 572c-134 0 -151 62 -151 149h88c0 -38 0 -64 63 -64s64 26 64 64h89c0 -87 -19 -149 -153 -149zM508 254v-39h-305c0 -92 7 -102 133 -102c38 0 102 3 152 8v-112c-42 -10 -122 -17 -190 -17c-238 0 -253 73 -253 262c0 185 18 264 238 264c221 0 225 -75 225 -264z
M282 404c-70 0 -78 -14 -79 -106h155c0 97 -14 106 -76 106z" />
    <glyph glyph-name="ecaron" unicode="&#x11b;" horiz-adv-x="555" 
d="M357 576h-149l-93 138v7h103l65 -81l65 81h103v-7zM508 254v-39h-305c0 -92 7 -102 133 -102c38 0 102 3 152 8v-112c-42 -10 -122 -17 -190 -17c-238 0 -253 73 -253 262c0 185 18 264 238 264c221 0 225 -75 225 -264zM282 404c-70 0 -78 -14 -79 -106h155
c0 97 -14 106 -76 106z" />
    <glyph glyph-name="ecircumflex" unicode="&#xea;" horiz-adv-x="555" 
d="M282 657l-64 -81h-103v8l93 137h149l94 -137v-8h-103zM508 254v-39h-305c0 -92 7 -102 133 -102c38 0 102 3 152 8v-112c-42 -10 -122 -17 -190 -17c-238 0 -253 73 -253 262c0 185 18 264 238 264c221 0 225 -75 225 -264zM282 404c-70 0 -78 -14 -79 -106h155
c0 97 -14 106 -76 106z" />
    <glyph glyph-name="uni1EBF" unicode="&#x1ebf;" horiz-adv-x="555" 
d="M444 894l-132 -140h-114v5l91 140h155v-5zM282 657l-64 -81h-103v8l93 137h149l94 -137v-8h-103zM508 254v-39h-305c0 -92 7 -102 133 -102c38 0 102 3 152 8v-112c-42 -10 -122 -17 -190 -17c-238 0 -253 73 -253 262c0 185 18 264 238 264c221 0 225 -75 225 -264z
M282 404c-70 0 -78 -14 -79 -106h155c0 97 -14 106 -76 106z" />
    <glyph glyph-name="uni1EC7" unicode="&#x1ec7;" horiz-adv-x="555" 
d="M282 657l-64 -81h-103v8l93 137h149l94 -137v-8h-103zM508 254v-39h-305c0 -92 7 -102 133 -102c38 0 102 3 152 8v-112c-42 -10 -122 -17 -190 -17c-238 0 -253 73 -253 262c0 185 18 264 238 264c221 0 225 -75 225 -264zM282 404c-70 0 -78 -14 -79 -106h155
c0 97 -14 106 -76 106zM215 -212v116h125v-116h-125z" />
    <glyph glyph-name="uni1EC1" unicode="&#x1ec1;" horiz-adv-x="555" 
d="M367 754h-114l-132 140v5h155l91 -140v-5zM282 657l-64 -81h-103v8l93 137h149l94 -137v-8h-103zM508 254v-39h-305c0 -92 7 -102 133 -102c38 0 102 3 152 8v-112c-42 -10 -122 -17 -190 -17c-238 0 -253 73 -253 262c0 185 18 264 238 264c221 0 225 -75 225 -264z
M282 404c-70 0 -78 -14 -79 -106h155c0 97 -14 106 -76 106z" />
    <glyph glyph-name="uni1EC3" unicode="&#x1ec3;" horiz-adv-x="555" 
d="M325 852c0 29 -17 30 -66 30c-25 0 -76 -3 -104 -6v73c35 5 89 10 129 10c83 0 142 -6 142 -96c0 -58 -24 -70 -71 -84l-15 -4c-30 -9 -34 -14 -34 -30h-84v6c0 36 9 54 48 65l18 6c32 8 37 12 37 30zM282 657l-64 -81h-103v8l93 137h149l94 -137v-8h-103zM508 254v-39
h-305c0 -92 7 -102 133 -102c38 0 102 3 152 8v-112c-42 -10 -122 -17 -190 -17c-238 0 -253 73 -253 262c0 185 18 264 238 264c221 0 225 -75 225 -264zM282 404c-70 0 -78 -14 -79 -106h155c0 97 -14 106 -76 106z" />
    <glyph glyph-name="uni1EC5" unicode="&#x1ec5;" horiz-adv-x="555" 
d="M198 793c-25 0 -25 -11 -25 -43h-80c0 90 3 141 92 141c38 0 78 -10 112 -18c27 -7 50 -14 69 -14c26 0 26 11 26 44h79c0 -90 -3 -142 -92 -142c-39 0 -77 11 -111 19c-27 7 -52 13 -70 13zM207 721h149l94 -137v-8h-103l-66 81l-64 -81h-103v8zM508 254v-39h-305
c0 -92 7 -102 133 -102c38 0 102 3 152 8v-112c-42 -10 -122 -17 -190 -17c-238 0 -253 73 -253 262c0 185 18 264 238 264c221 0 225 -75 225 -264zM282 404c-70 0 -78 -14 -79 -106h155c0 97 -14 106 -76 106z" />
    <glyph glyph-name="uni0205" unicode="&#x205;" horiz-adv-x="555" 
d="M247 576h-94l-112 119v4h127l79 -118v-5zM436 576h-93l-112 119v4h127l78 -118v-5zM508 254v-39h-305c0 -92 7 -102 133 -102c38 0 102 3 152 8v-112c-42 -10 -122 -17 -190 -17c-238 0 -253 73 -253 262c0 185 18 264 238 264c221 0 225 -75 225 -264zM282 404
c-70 0 -78 -14 -79 -106h155c0 97 -14 106 -76 106z" />
    <glyph glyph-name="edieresis" unicode="&#xeb;" horiz-adv-x="555" 
d="M245 703v-108h-131v108h131zM456 703v-108h-130v108h130zM508 254v-39h-305c0 -92 7 -102 133 -102c38 0 102 3 152 8v-112c-42 -10 -122 -17 -190 -17c-238 0 -253 73 -253 262c0 185 18 264 238 264c221 0 225 -75 225 -264zM282 404c-70 0 -78 -14 -79 -106h155
c0 97 -14 106 -76 106z" />
    <glyph glyph-name="edotaccent" unicode="&#x117;" horiz-adv-x="555" 
d="M348 703v-108h-131v108h131zM508 254v-39h-305c0 -92 7 -102 133 -102c38 0 102 3 152 8v-112c-42 -10 -122 -17 -190 -17c-238 0 -253 73 -253 262c0 185 18 264 238 264c221 0 225 -75 225 -264zM282 404c-70 0 -78 -14 -79 -106h155c0 97 -14 106 -76 106z" />
    <glyph glyph-name="uni1EB9" unicode="&#x1eb9;" horiz-adv-x="555" 
d="M508 254v-39h-305c0 -92 7 -102 133 -102c38 0 102 3 152 8v-112c-42 -10 -122 -17 -190 -17c-238 0 -253 73 -253 262c0 185 18 264 238 264c221 0 225 -75 225 -264zM282 404c-70 0 -78 -14 -79 -106h155c0 97 -14 106 -76 106zM215 -212v116h125v-116h-125z" />
    <glyph glyph-name="egrave" unicode="&#xe8;" horiz-adv-x="555" 
d="M366 576h-114l-132 140v5h155l91 -140v-5zM508 254v-39h-305c0 -92 7 -102 133 -102c38 0 102 3 152 8v-112c-42 -10 -122 -17 -190 -17c-238 0 -253 73 -253 262c0 185 18 264 238 264c221 0 225 -75 225 -264zM282 404c-70 0 -78 -14 -79 -106h155
c0 97 -14 106 -76 106z" />
    <glyph glyph-name="uni1EBB" unicode="&#x1ebb;" horiz-adv-x="555" 
d="M323 675c0 28 -16 29 -65 29c-26 0 -76 -3 -104 -6v73c34 6 89 10 128 10c84 0 143 -5 143 -96c0 -58 -25 -70 -71 -84l-16 -4c-29 -9 -33 -13 -33 -30h-84v6c0 37 9 55 48 66l18 5c31 9 36 12 36 31zM508 254v-39h-305c0 -92 7 -102 133 -102c38 0 102 3 152 8v-112
c-42 -10 -122 -17 -190 -17c-238 0 -253 73 -253 262c0 185 18 264 238 264c221 0 225 -75 225 -264zM282 404c-70 0 -78 -14 -79 -106h155c0 97 -14 106 -76 106z" />
    <glyph glyph-name="uni0207" unicode="&#x207;" horiz-adv-x="555" 
d="M283 640c-63 0 -64 -25 -64 -64h-89c0 87 19 149 153 149s151 -62 151 -149h-88c0 39 0 64 -63 64zM508 254v-39h-305c0 -92 7 -102 133 -102c38 0 102 3 152 8v-112c-42 -10 -122 -17 -190 -17c-238 0 -253 73 -253 262c0 185 18 264 238 264c221 0 225 -75 225 -264z
M282 404c-70 0 -78 -14 -79 -106h155c0 97 -14 106 -76 106z" />
    <glyph glyph-name="emacron" unicode="&#x113;" horiz-adv-x="555" 
d="M447 687v-93h-329v93h329zM508 254v-39h-305c0 -92 7 -102 133 -102c38 0 102 3 152 8v-112c-42 -10 -122 -17 -190 -17c-238 0 -253 73 -253 262c0 185 18 264 238 264c221 0 225 -75 225 -264zM282 404c-70 0 -78 -14 -79 -106h155c0 97 -14 106 -76 106z" />
    <glyph glyph-name="eogonek" unicode="&#x119;" horiz-adv-x="555" 
d="M508 254v-39h-305c0 -92 7 -102 133 -102c38 0 102 3 152 8v-112h1c-26 -16 -63 -53 -63 -83c0 -20 9 -34 47 -34c3 0 9 0 17 1v-81c-19 -2 -46 -3 -68 -3c-100 0 -126 39 -126 84c0 33 19 69 48 100c-16 -1 -31 -1 -46 -1c-238 0 -253 73 -253 262c0 185 18 264 238 264
c221 0 225 -75 225 -264zM282 404c-70 0 -78 -14 -79 -106h155c0 97 -14 106 -76 106z" />
    <glyph glyph-name="uni1EBD" unicode="&#x1ebd;" horiz-adv-x="555" 
d="M198 616c-25 0 -25 -11 -25 -44h-80c0 90 3 141 92 141c38 0 78 -10 112 -18c27 -7 50 -14 69 -14c26 0 26 11 26 44h79c0 -90 -3 -142 -92 -142c-39 0 -77 11 -111 19c-27 7 -52 14 -70 14zM508 254v-39h-305c0 -92 7 -102 133 -102c38 0 102 3 152 8v-112
c-42 -10 -122 -17 -190 -17c-238 0 -253 73 -253 262c0 185 18 264 238 264c221 0 225 -75 225 -264zM282 404c-70 0 -78 -14 -79 -106h155c0 97 -14 106 -76 106z" />
    <glyph glyph-name="uni0259" unicode="&#x259;" horiz-adv-x="555" 
d="M257 518c238 0 253 -73 253 -262c0 -185 -18 -264 -238 -264c-221 0 -225 75 -225 264v39h305c0 92 -7 102 -133 102c-38 0 -102 -3 -152 -8v112c42 10 122 17 190 17zM273 106c70 0 78 14 79 106h-155c0 -97 14 -106 76 -106z" />
    <glyph glyph-name="f" unicode="f" horiz-adv-x="420" 
d="M113 0v389h-93v121h93v35c0 191 50 197 282 197v-110c-110 0 -121 -5 -121 -65v-57h121v-121h-121v-389h-161z" />
    <glyph glyph-name="g" unicode="g" horiz-adv-x="582" 
d="M265 -206c-65 0 -140 5 -180 13v111c41 -1 95 -3 139 -3c130 0 136 14 136 114v36h-7c-31 -52 -81 -63 -140 -63c-121 0 -168 57 -168 257c0 203 47 259 167 259c55 0 114 -12 144 -70h9l4 62h151v-452c0 -180 -16 -264 -255 -264zM283 132c38 0 56 7 66 31
c10 21 11 52 11 96c0 43 -1 75 -10 95c-10 25 -29 33 -67 33c-72 0 -78 -10 -78 -128c0 -117 6 -127 78 -127z" />
    <glyph glyph-name="uni01F5" unicode="&#x1f5;" horiz-adv-x="582" 
d="M205 576v5l91 140h155v-5l-132 -140h-114zM265 -206c-65 0 -140 5 -180 13v111c41 -1 95 -3 139 -3c130 0 136 14 136 114v36h-7c-31 -52 -81 -63 -140 -63c-121 0 -168 57 -168 257c0 203 47 259 167 259c55 0 114 -12 144 -70h9l4 62h151v-452
c0 -180 -16 -264 -255 -264zM283 132c38 0 56 7 66 31c10 21 11 52 11 96c0 43 -1 75 -10 95c-10 25 -29 33 -67 33c-72 0 -78 -10 -78 -128c0 -117 6 -127 78 -127z" />
    <glyph glyph-name="gbreve" unicode="&#x11f;" horiz-adv-x="582" 
d="M290 572c-134 0 -151 62 -151 149h88c0 -38 0 -64 63 -64s64 26 64 64h89c0 -87 -19 -149 -153 -149zM265 -206c-65 0 -140 5 -180 13v111c41 -1 95 -3 139 -3c130 0 136 14 136 114v36h-7c-31 -52 -81 -63 -140 -63c-121 0 -168 57 -168 257c0 203 47 259 167 259
c55 0 114 -12 144 -70h9l4 62h151v-452c0 -180 -16 -264 -255 -264zM283 132c38 0 56 7 66 31c10 21 11 52 11 96c0 43 -1 75 -10 95c-10 25 -29 33 -67 33c-72 0 -78 -10 -78 -128c0 -117 6 -127 78 -127z" />
    <glyph glyph-name="gcaron" unicode="&#x1e7;" horiz-adv-x="582" 
d="M216 576l-93 138v7h103l65 -81l65 81h103v-7l-94 -138h-149zM265 -206c-65 0 -140 5 -180 13v111c41 -1 95 -3 139 -3c130 0 136 14 136 114v36h-7c-31 -52 -81 -63 -140 -63c-121 0 -168 57 -168 257c0 203 47 259 167 259c55 0 114 -12 144 -70h9l4 62h151v-452
c0 -180 -16 -264 -255 -264zM283 132c38 0 56 7 66 31c10 21 11 52 11 96c0 43 -1 75 -10 95c-10 25 -29 33 -67 33c-72 0 -78 -10 -78 -128c0 -117 6 -127 78 -127z" />
    <glyph glyph-name="gcircumflex" unicode="&#x11d;" horiz-adv-x="582" 
d="M123 576v8l93 137h149l94 -137v-8h-103l-66 81l-64 -81h-103zM265 -206c-65 0 -140 5 -180 13v111c41 -1 95 -3 139 -3c130 0 136 14 136 114v36h-7c-31 -52 -81 -63 -140 -63c-121 0 -168 57 -168 257c0 203 47 259 167 259c55 0 114 -12 144 -70h9l4 62h151v-452
c0 -180 -16 -264 -255 -264zM283 132c38 0 56 7 66 31c10 21 11 52 11 96c0 43 -1 75 -10 95c-10 25 -29 33 -67 33c-72 0 -78 -10 -78 -128c0 -117 6 -127 78 -127z" />
    <glyph glyph-name="uni0123" unicode="&#x123;" horiz-adv-x="582" 
d="M211 576v80c0 119 19 149 168 149v-60c-56 0 -67 -7 -67 -38v-12h60v-119h-161zM265 -206c-65 0 -140 5 -180 13v111c41 -1 95 -3 139 -3c130 0 136 14 136 114v36h-7c-31 -52 -81 -63 -140 -63c-121 0 -168 57 -168 257c0 203 47 259 167 259c55 0 114 -12 144 -70h9
l4 62h151v-452c0 -180 -16 -264 -255 -264zM283 132c38 0 56 7 66 31c10 21 11 52 11 96c0 43 -1 75 -10 95c-10 25 -29 33 -67 33c-72 0 -78 -10 -78 -128c0 -117 6 -127 78 -127z" />
    <glyph glyph-name="gdotaccent" unicode="&#x121;" horiz-adv-x="582" 
d="M225 595v108h131v-108h-131zM265 -206c-65 0 -140 5 -180 13v111c41 -1 95 -3 139 -3c130 0 136 14 136 114v36h-7c-31 -52 -81 -63 -140 -63c-121 0 -168 57 -168 257c0 203 47 259 167 259c55 0 114 -12 144 -70h9l4 62h151v-452c0 -180 -16 -264 -255 -264zM283 132
c38 0 56 7 66 31c10 21 11 52 11 96c0 43 -1 75 -10 95c-10 25 -29 33 -67 33c-72 0 -78 -10 -78 -128c0 -117 6 -127 78 -127z" />
    <glyph glyph-name="h" unicode="h" horiz-adv-x="589" 
d="M61 0v743h160v-292h9c29 50 80 66 143 66c135 0 154 -69 154 -198v-319h-160v270c0 110 -6 116 -70 116c-69 0 -76 -26 -76 -120v-266h-160z" />
    <glyph glyph-name="hbar" unicode="&#x127;" horiz-adv-x="589" 
d="M373 517c135 0 154 -69 154 -198v-319h-160v270c0 110 -6 116 -70 116c-69 0 -76 -26 -76 -120v-266h-160v573h-59v115h59v55h160v-55h122v-115h-122v-122h9c29 50 80 66 143 66z" />
    <glyph glyph-name="hcircumflex" unicode="&#x125;" horiz-adv-x="589" 
d="M-27 767v8l93 137h149l94 -137v-8h-103l-66 81l-64 -81h-103zM61 0v743h160v-292h9c29 50 80 66 143 66c135 0 154 -69 154 -198v-319h-160v270c0 110 -6 116 -70 116c-69 0 -76 -26 -76 -120v-266h-160z" />
    <glyph glyph-name="uni1E25" unicode="&#x1e25;" horiz-adv-x="589" 
d="M61 0v743h160v-292h9c29 50 80 66 143 66c135 0 154 -69 154 -198v-319h-160v270c0 110 -6 116 -70 116c-69 0 -76 -26 -76 -120v-266h-160zM232 -212v116h125v-116h-125z" />
    <glyph glyph-name="i" unicode="i" horiz-adv-x="284" 
d="M60 613v130h164v-130h-164zM61 0v510h162v-510h-162z" />
    <glyph glyph-name="dotlessi" unicode="&#x131;" horiz-adv-x="284" 
d="M61 0v510h162v-510h-162z" />
    <glyph glyph-name="iacute" unicode="&#xed;" horiz-adv-x="284" 
d="M56 576v5l91 140h155v-5l-132 -140h-114zM61 0v510h162v-510h-162z" />
    <glyph glyph-name="ibreve" unicode="&#x12d;" horiz-adv-x="284" 
d="M141 572c-134 0 -151 62 -151 149h88c0 -38 0 -64 63 -64s64 26 64 64h89c0 -87 -19 -149 -153 -149zM61 0v510h162v-510h-162z" />
    <glyph glyph-name="uni01D0" unicode="&#x1d0;" horiz-adv-x="284" 
d="M67 576l-93 138v7h103l65 -81l65 81h103v-7l-94 -138h-149zM61 0v510h162v-510h-162z" />
    <glyph glyph-name="icircumflex" unicode="&#xee;" horiz-adv-x="284" 
d="M-26 576v8l93 137h149l94 -137v-8h-103l-66 81l-64 -81h-103zM61 0v510h162v-510h-162z" />
    <glyph glyph-name="uni0209" unicode="&#x209;" horiz-adv-x="284" 
d="M13 576l-112 119v4h127l79 -118v-5h-94zM203 576l-112 119v4h127l78 -118v-5h-93zM61 0v510h162v-510h-162z" />
    <glyph glyph-name="idieresis" unicode="&#xef;" horiz-adv-x="284" 
d="M-27 595v108h131v-108h-131zM185 595v108h130v-108h-130zM61 0v510h162v-510h-162z" />
    <glyph glyph-name="i.loclTRK" horiz-adv-x="284" 
d="M60 613v130h164v-130h-164zM61 0v510h162v-510h-162z" />
    <glyph glyph-name="uni1ECB" unicode="&#x1ecb;" horiz-adv-x="284" 
d="M60 613v130h164v-130h-164zM61 0v510h162v-510h-162zM80 -212v116h125v-116h-125z" />
    <glyph glyph-name="igrave" unicode="&#xec;" horiz-adv-x="284" 
d="M112 576l-132 140v5h155l91 -140v-5h-114zM61 0v510h162v-510h-162z" />
    <glyph glyph-name="uni1EC9" unicode="&#x1ec9;" horiz-adv-x="284" 
d="M81 567v6c0 37 9 55 48 66l18 5c31 9 36 12 36 31c0 28 -16 29 -65 29c-26 0 -76 -3 -104 -6v73c34 6 89 10 128 10c84 0 143 -5 143 -96c0 -58 -25 -70 -71 -84l-16 -4c-29 -9 -33 -13 -33 -30h-84zM61 0v510h162v-510h-162z" />
    <glyph glyph-name="uni020B" unicode="&#x20b;" horiz-adv-x="284" 
d="M143 725c134 0 151 -62 151 -149h-88c0 39 0 64 -63 64s-64 -25 -64 -64h-89c0 87 19 149 153 149zM61 0v510h162v-510h-162z" />
    <glyph glyph-name="ij" unicode="&#x133;" horiz-adv-x="569" 
d="M60 613v130h164v-130h-164zM344 614v129h164v-129h-164zM61 0v510h162v-510h-162zM264 -199v111c77 0 81 14 81 53v545h162v-510c0 -183 -44 -199 -243 -199z" />
    <glyph glyph-name="imacron" unicode="&#x12b;" horiz-adv-x="284" 
d="M-23 594v93h329v-93h-329zM61 0v510h162v-510h-162z" />
    <glyph glyph-name="iogonek" unicode="&#x12f;" horiz-adv-x="284" 
d="M60 743h164v-130h-164v130zM160 -83c0 -20 9 -34 47 -34c3 0 9 0 17 1v-81c-19 -2 -46 -3 -68 -3c-100 0 -126 39 -126 84c0 39 26 81 64 116h-33v510h162v-510c-26 -16 -63 -53 -63 -83z" />
    <glyph glyph-name="itilde" unicode="&#x129;" horiz-adv-x="284" 
d="M-48 572c0 90 3 141 92 141c38 0 78 -10 112 -18c27 -7 50 -14 69 -14c26 0 26 11 26 44h79c0 -90 -3 -142 -92 -142c-39 0 -77 11 -111 19c-27 7 -52 14 -70 14c-25 0 -25 -11 -25 -44h-80zM61 0v510h162v-510h-162z" />
    <glyph glyph-name="j" unicode="j" horiz-adv-x="284" 
d="M60 614v129h164v-129h-164zM-20 -199v111c77 0 81 14 81 53v545h162v-510c0 -183 -44 -199 -243 -199z" />
    <glyph glyph-name="uni0237" unicode="&#x237;" horiz-adv-x="284" 
d="M-20 -199v111c77 0 81 14 81 53v545h162v-510c0 -183 -44 -199 -243 -199z" />
    <glyph glyph-name="uni006A0301" horiz-adv-x="569" 
d="M56 576v5l91 140h155v-5l-132 -140h-114zM341 576v5l91 140h155v-5l-132 -140h-114zM61 0v510h162v-510h-162zM264 -199v111c77 0 81 14 81 53v545h162v-510c0 -183 -44 -199 -243 -199z" />
    <glyph glyph-name="jcircumflex" unicode="&#x135;" horiz-adv-x="284" 
d="M-26 576v8l93 137h149l94 -137v-8h-103l-66 81l-64 -81h-103zM-20 -199v111c77 0 81 14 81 53v545h162v-510c0 -183 -44 -199 -243 -199z" />
    <glyph glyph-name="k" unicode="k" horiz-adv-x="570" 
d="M61 0v743h160v-428h31l132 195h170l-171 -244l174 -266h-177l-128 194h-31v-194h-160z" />
    <glyph glyph-name="uni0137" unicode="&#x137;" horiz-adv-x="570" 
d="M61 0v743h160v-428h31l132 195h170l-171 -244l174 -266h-177l-128 194h-31v-194h-160zM205 -289v60c56 0 67 7 67 38v13h-60v118h161v-80c0 -119 -18 -149 -168 -149z" />
    <glyph glyph-name="kgreenlandic" unicode="&#x138;" horiz-adv-x="570" 
d="M61 0v510h160v-195h31l132 195h170l-171 -244l174 -266h-177l-128 194h-31v-194h-160z" />
    <glyph glyph-name="l" unicode="l" horiz-adv-x="284" 
d="M61 0v743h162v-743h-162z" />
    <glyph glyph-name="lacute" unicode="&#x13a;" horiz-adv-x="284" 
d="M54 773v5l91 140h155v-5l-132 -140h-114zM61 0v743h162v-743h-162z" />
    <glyph glyph-name="lcaron" unicode="&#x13e;" horiz-adv-x="284" 
d="M61 0v743h162v-743h-162zM253 429l13 202v57h124v-57l-47 -202h-90z" />
    <glyph glyph-name="uni013C" unicode="&#x13c;" horiz-adv-x="284" 
d="M61 0v743h162v-743h-162zM55 -289v60c56 0 67 7 67 38v13h-60v118h161v-80c0 -119 -18 -149 -168 -149z" />
    <glyph glyph-name="ldot" unicode="&#x140;" horiz-adv-x="381" 
d="M61 0v743h162v-743h-162zM257 227v145h152v-145h-152z" />
    <glyph glyph-name="uni01C9" unicode="&#x1c9;" horiz-adv-x="569" 
d="M61 0v743h162v-743h-162zM344 614v129h164v-129h-164zM264 -199v111c77 0 81 14 81 53v545h162v-510c0 -183 -44 -199 -243 -199z" />
    <glyph glyph-name="lslash" unicode="&#x142;" horiz-adv-x="303" 
d="M70 0v291l-54 -19v115l54 19v337h162v-281l55 20v-116l-55 -20v-346h-162z" />
    <glyph glyph-name="m" unicode="m" horiz-adv-x="865" 
d="M61 0v510h152l4 -62h8c29 51 80 70 142 70c79 0 117 -22 135 -70h9c29 51 82 70 144 70c127 0 149 -70 149 -199v-319h-160v270c0 110 -7 116 -64 116c-62 0 -68 -24 -68 -120v-266h-159v270c0 110 -7 116 -64 116c-62 0 -68 -25 -68 -120v-266h-160z" />
    <glyph glyph-name="n" unicode="n" horiz-adv-x="589" 
d="M61 0v510h152l4 -62h9c29 52 82 70 147 70c135 0 154 -70 154 -199v-319h-160v270c0 110 -6 116 -70 116c-69 0 -76 -26 -76 -120v-266h-160z" />
    <glyph glyph-name="nacute" unicode="&#x144;" horiz-adv-x="589" 
d="M209 576v5l91 140h155v-5l-132 -140h-114zM61 0v510h152l4 -62h9c29 52 82 70 147 70c135 0 154 -70 154 -199v-319h-160v270c0 110 -6 116 -70 116c-69 0 -76 -26 -76 -120v-266h-160z" />
    <glyph glyph-name="napostrophe" unicode="&#x149;" horiz-adv-x="686" 
d="M0 495v60c56 0 67 12 67 64v15h-60v109h161v-74c0 -139 -18 -174 -168 -174zM158 0v510h152l4 -62h9c29 52 82 70 147 70c135 0 154 -70 154 -199v-319h-160v270c0 110 -6 116 -70 116c-69 0 -76 -26 -76 -120v-266h-160z" />
    <glyph glyph-name="ncaron" unicode="&#x148;" horiz-adv-x="589" 
d="M219 576l-93 138v7h103l65 -81l65 81h103v-7l-94 -138h-149zM61 0v510h152l4 -62h9c29 52 82 70 147 70c135 0 154 -70 154 -199v-319h-160v270c0 110 -6 116 -70 116c-69 0 -76 -26 -76 -120v-266h-160z" />
    <glyph glyph-name="uni0146" unicode="&#x146;" horiz-adv-x="589" 
d="M61 0v510h152l4 -62h9c29 52 82 70 147 70c135 0 154 -70 154 -199v-319h-160v270c0 110 -6 116 -70 116c-69 0 -76 -26 -76 -120v-266h-160zM207 -289v60c56 0 67 7 67 38v13h-60v118h161v-80c0 -119 -18 -149 -168 -149z" />
    <glyph glyph-name="uni1E45" unicode="&#x1e45;" horiz-adv-x="589" 
d="M228 595v108h131v-108h-131zM61 0v510h152l4 -62h9c29 52 82 70 147 70c135 0 154 -70 154 -199v-319h-160v270c0 110 -6 116 -70 116c-69 0 -76 -26 -76 -120v-266h-160z" />
    <glyph glyph-name="eng" unicode="&#x14b;" horiz-adv-x="589" 
d="M286 -199v111c77 0 81 14 81 53v305c0 110 -6 116 -70 116c-69 0 -76 -26 -76 -120v-266h-160v510h152l4 -62h9c29 52 82 70 147 70c135 0 154 -70 154 -199v-319c0 -183 -43 -199 -241 -199z" />
    <glyph glyph-name="uni0272" unicode="&#x272;" horiz-adv-x="589" 
d="M-20 -199v111c77 0 81 14 81 53v545h152l4 -62h9c29 52 82 70 147 70c135 0 154 -70 154 -199v-319h-160v270c0 110 -6 116 -70 116c-69 0 -76 -26 -76 -120v-266c0 -183 -43 -199 -241 -199z" />
    <glyph glyph-name="uni01CC" unicode="&#x1cc;" horiz-adv-x="873" 
d="M649 614v129h164v-129h-164zM61 0v510h152l4 -62h9c29 52 82 70 147 70c135 0 154 -70 154 -199v-319h-160v270c0 110 -6 116 -70 116c-69 0 -76 -26 -76 -120v-266h-160zM569 -199v111c77 0 81 14 81 53v545h162v-510c0 -183 -44 -199 -243 -199z" />
    <glyph glyph-name="ntilde" unicode="&#xf1;" horiz-adv-x="589" 
d="M103 571c0 91 3 142 92 142c39 0 78 -11 112 -19c27 -7 50 -13 69 -13c26 0 26 10 26 43h79c0 -90 -3 -141 -92 -141c-39 0 -77 10 -111 19c-27 6 -52 13 -70 13c-25 0 -25 -11 -25 -44h-80zM61 0v510h152l4 -62h9c29 52 82 70 147 70c135 0 154 -70 154 -199v-319h-160
v270c0 110 -6 116 -70 116c-69 0 -76 -26 -76 -120v-266h-160z" />
    <glyph glyph-name="o" unicode="o" horiz-adv-x="570" 
d="M285 -8c-228 0 -240 58 -240 264s12 262 240 262s240 -56 240 -262s-12 -264 -240 -264zM285 113c80 0 80 13 80 143c0 129 0 141 -80 141s-80 -12 -80 -141c0 -130 0 -143 80 -143z" />
    <glyph glyph-name="oacute" unicode="&#xf3;" horiz-adv-x="570" 
d="M199 576v5l91 140h155v-5l-132 -140h-114zM285 -8c-228 0 -240 58 -240 264s12 262 240 262s240 -56 240 -262s-12 -264 -240 -264zM285 113c80 0 80 13 80 143c0 129 0 141 -80 141s-80 -12 -80 -141c0 -130 0 -143 80 -143z" />
    <glyph glyph-name="obreve" unicode="&#x14f;" horiz-adv-x="570" 
d="M284 572c-134 0 -151 62 -151 149h88c0 -38 0 -64 63 -64s64 26 64 64h89c0 -87 -19 -149 -153 -149zM285 -8c-228 0 -240 58 -240 264s12 262 240 262s240 -56 240 -262s-12 -264 -240 -264zM285 113c80 0 80 13 80 143c0 129 0 141 -80 141s-80 -12 -80 -141
c0 -130 0 -143 80 -143z" />
    <glyph glyph-name="uni01D2" unicode="&#x1d2;" horiz-adv-x="570" 
d="M210 576l-93 138v7h103l65 -81l65 81h103v-7l-94 -138h-149zM285 -8c-228 0 -240 58 -240 264s12 262 240 262s240 -56 240 -262s-12 -264 -240 -264zM285 113c80 0 80 13 80 143c0 129 0 141 -80 141s-80 -12 -80 -141c0 -130 0 -143 80 -143z" />
    <glyph glyph-name="ocircumflex" unicode="&#xf4;" horiz-adv-x="570" 
d="M118 576v8l93 137h149l94 -137v-8h-104l-65 81l-64 -81h-103zM285 -8c-228 0 -240 58 -240 264s12 262 240 262s240 -56 240 -262s-12 -264 -240 -264zM285 113c80 0 80 13 80 143c0 129 0 141 -80 141s-80 -12 -80 -141c0 -130 0 -143 80 -143z" />
    <glyph glyph-name="uni1ED1" unicode="&#x1ed1;" horiz-adv-x="570" 
d="M200 754v5l91 140h155v-5l-132 -140h-114zM117 576v8l93 137h149l94 -137v-8h-103l-66 81l-64 -81h-103zM285 -8c-228 0 -240 58 -240 264s12 262 240 262s240 -56 240 -262s-12 -264 -240 -264zM285 113c80 0 80 13 80 143c0 129 0 141 -80 141s-80 -12 -80 -141
c0 -130 0 -143 80 -143z" />
    <glyph glyph-name="uni1ED9" unicode="&#x1ed9;" horiz-adv-x="570" 
d="M117 576v8l93 137h149l94 -137v-8h-103l-66 81l-64 -81h-103zM285 -8c-228 0 -240 58 -240 264s12 262 240 262s240 -56 240 -262s-12 -264 -240 -264zM285 113c80 0 80 13 80 143c0 129 0 141 -80 141s-80 -12 -80 -141c0 -130 0 -143 80 -143zM223 -212v116h125v-116
h-125z" />
    <glyph glyph-name="uni1ED3" unicode="&#x1ed3;" horiz-adv-x="570" 
d="M255 754l-132 140v5h155l91 -140v-5h-114zM117 576v8l93 137h149l94 -137v-8h-103l-66 81l-64 -81h-103zM285 -8c-228 0 -240 58 -240 264s12 262 240 262s240 -56 240 -262s-12 -264 -240 -264zM285 113c80 0 80 13 80 143c0 129 0 141 -80 141s-80 -12 -80 -141
c0 -130 0 -143 80 -143z" />
    <glyph glyph-name="uni1ED5" unicode="&#x1ed5;" horiz-adv-x="570" 
d="M224 745v6c0 36 9 54 48 65l18 6c32 8 37 12 37 30c0 29 -17 30 -66 30c-25 0 -76 -3 -104 -6v73c35 5 89 10 129 10c83 0 142 -6 142 -96c0 -58 -24 -70 -71 -84l-15 -4c-30 -9 -34 -14 -34 -30h-84zM117 576v8l93 137h149l94 -137v-8h-103l-66 81l-64 -81h-103zM285 -8
c-228 0 -240 58 -240 264s12 262 240 262s240 -56 240 -262s-12 -264 -240 -264zM285 113c80 0 80 13 80 143c0 129 0 141 -80 141s-80 -12 -80 -141c0 -130 0 -143 80 -143z" />
    <glyph glyph-name="uni1ED7" unicode="&#x1ed7;" horiz-adv-x="570" 
d="M96 750c0 90 3 141 92 141c38 0 78 -10 112 -18c27 -7 50 -14 69 -14c26 0 26 11 26 44h79c0 -90 -3 -142 -92 -142c-39 0 -77 11 -111 19c-27 7 -52 13 -70 13c-25 0 -25 -11 -25 -43h-80zM117 576v8l93 137h149l94 -137v-8h-103l-66 81l-64 -81h-103zM285 -8
c-228 0 -240 58 -240 264s12 262 240 262s240 -56 240 -262s-12 -264 -240 -264zM285 113c80 0 80 13 80 143c0 129 0 141 -80 141s-80 -12 -80 -141c0 -130 0 -143 80 -143z" />
    <glyph glyph-name="uni020D" unicode="&#x20d;" horiz-adv-x="570" 
d="M156 576l-112 119v4h127l79 -118v-5h-94zM346 576l-112 119v4h127l78 -118v-5h-93zM285 -8c-228 0 -240 58 -240 264s12 262 240 262s240 -56 240 -262s-12 -264 -240 -264zM285 113c80 0 80 13 80 143c0 129 0 141 -80 141s-80 -12 -80 -141c0 -130 0 -143 80 -143z" />
    <glyph glyph-name="odieresis" unicode="&#xf6;" horiz-adv-x="570" 
d="M117 595v108h131v-108h-131zM329 595v108h130v-108h-130zM285 -8c-228 0 -240 58 -240 264s12 262 240 262s240 -56 240 -262s-12 -264 -240 -264zM285 113c80 0 80 13 80 143c0 129 0 141 -80 141s-80 -12 -80 -141c0 -130 0 -143 80 -143z" />
    <glyph glyph-name="uni022B" unicode="&#x22b;" horiz-adv-x="570" 
d="M120 754v93h329v-93h-329zM117 595v108h131v-108h-131zM329 595v108h130v-108h-130zM285 -8c-228 0 -240 58 -240 264s12 262 240 262s240 -56 240 -262s-12 -264 -240 -264zM285 113c80 0 80 13 80 143c0 129 0 141 -80 141s-80 -12 -80 -141c0 -130 0 -143 80 -143z
" />
    <glyph glyph-name="uni0231" unicode="&#x231;" horiz-adv-x="570" 
d="M120 773v93h329v-93h-329zM219 595v108h131v-108h-131zM285 -8c-228 0 -240 58 -240 264s12 262 240 262s240 -56 240 -262s-12 -264 -240 -264zM285 113c80 0 80 13 80 143c0 129 0 141 -80 141s-80 -12 -80 -141c0 -130 0 -143 80 -143z" />
    <glyph glyph-name="uni1ECD" unicode="&#x1ecd;" horiz-adv-x="570" 
d="M285 -8c-228 0 -240 58 -240 264s12 262 240 262s240 -56 240 -262s-12 -264 -240 -264zM285 113c80 0 80 13 80 143c0 129 0 141 -80 141s-80 -12 -80 -141c0 -130 0 -143 80 -143zM223 -212v116h125v-116h-125z" />
    <glyph glyph-name="ograve" unicode="&#xf2;" horiz-adv-x="570" 
d="M238 576l-132 140v5h154l91 -140v-5h-113zM285 -8c-228 0 -240 58 -240 264s12 262 240 262s240 -56 240 -262s-12 -264 -240 -264zM285 113c80 0 80 13 80 143c0 129 0 141 -80 141s-80 -12 -80 -141c0 -130 0 -143 80 -143z" />
    <glyph glyph-name="uni1ECF" unicode="&#x1ecf;" horiz-adv-x="570" 
d="M224 567v6c0 37 9 55 48 66l18 5c31 9 36 12 36 31c0 28 -16 29 -65 29c-26 0 -76 -3 -104 -6v73c34 6 89 10 128 10c84 0 143 -5 143 -96c0 -58 -25 -70 -71 -84l-16 -4c-29 -9 -33 -13 -33 -30h-84zM285 -8c-228 0 -240 58 -240 264s12 262 240 262s240 -56 240 -262
s-12 -264 -240 -264zM285 113c80 0 80 13 80 143c0 129 0 141 -80 141s-80 -12 -80 -141c0 -130 0 -143 80 -143z" />
    <glyph glyph-name="ohorn" unicode="&#x1a1;" horiz-adv-x="570" 
d="M453 601h104v-18c0 -71 -9 -107 -64 -122c29 -40 32 -105 32 -205c0 -206 -12 -264 -240 -264s-240 58 -240 264s12 262 240 262c46 0 84 -2 114 -8c48 2 54 18 54 64v27zM285 113c80 0 80 13 80 143c0 129 0 141 -80 141s-80 -12 -80 -141c0 -130 0 -143 80 -143z" />
    <glyph glyph-name="uni1EDB" unicode="&#x1edb;" horiz-adv-x="570" 
d="M445 716l-132 -140h-114v5l91 140h155v-5zM453 601h104v-18c0 -71 -9 -107 -64 -122c29 -40 32 -105 32 -205c0 -206 -12 -264 -240 -264s-240 58 -240 264s12 262 240 262c46 0 84 -2 114 -8c48 2 54 18 54 64v27zM285 113c80 0 80 13 80 143c0 129 0 141 -80 141
s-80 -12 -80 -141c0 -130 0 -143 80 -143z" />
    <glyph glyph-name="uni1EE3" unicode="&#x1ee3;" horiz-adv-x="570" 
d="M453 601h104v-18c0 -71 -9 -107 -64 -122c29 -40 32 -105 32 -205c0 -206 -12 -264 -240 -264s-240 58 -240 264s12 262 240 262c46 0 84 -2 114 -8c48 2 54 18 54 64v27zM285 113c80 0 80 13 80 143c0 129 0 141 -80 141s-80 -12 -80 -141c0 -130 0 -143 80 -143z
M223 -212v116h125v-116h-125z" />
    <glyph glyph-name="uni1EDD" unicode="&#x1edd;" horiz-adv-x="570" 
d="M369 576h-114l-132 140v5h155l91 -140v-5zM453 601h104v-18c0 -71 -9 -107 -64 -122c29 -40 32 -105 32 -205c0 -206 -12 -264 -240 -264s-240 58 -240 264s12 262 240 262c46 0 84 -2 114 -8c48 2 54 18 54 64v27zM285 113c80 0 80 13 80 143c0 129 0 141 -80 141
s-80 -12 -80 -141c0 -130 0 -143 80 -143z" />
    <glyph glyph-name="uni1EDF" unicode="&#x1edf;" horiz-adv-x="570" 
d="M326 675c0 28 -16 29 -65 29c-26 0 -76 -3 -104 -6v73c34 6 89 10 128 10c84 0 143 -5 143 -96c0 -58 -25 -70 -71 -84l-16 -4c-29 -9 -33 -13 -33 -30h-84v6c0 37 9 55 48 66l18 5c31 9 36 12 36 31zM453 601h104v-18c0 -71 -9 -107 -64 -122c29 -40 32 -105 32 -205
c0 -206 -12 -264 -240 -264s-240 58 -240 264s12 262 240 262c46 0 84 -2 114 -8c48 2 54 18 54 64v27zM285 113c80 0 80 13 80 143c0 129 0 141 -80 141s-80 -12 -80 -141c0 -130 0 -143 80 -143z" />
    <glyph glyph-name="uni1EE1" unicode="&#x1ee1;" horiz-adv-x="570" 
d="M200 616c-25 0 -25 -11 -25 -44h-80c0 90 3 141 92 141c38 0 78 -10 112 -18c27 -7 50 -14 69 -14c26 0 26 11 26 44h79c0 -90 -3 -142 -92 -142c-39 0 -77 11 -111 19c-27 7 -52 14 -70 14zM453 601h104v-18c0 -71 -9 -107 -64 -122c29 -40 32 -105 32 -205
c0 -206 -12 -264 -240 -264s-240 58 -240 264s12 262 240 262c46 0 84 -2 114 -8c48 2 54 18 54 64v27zM285 113c80 0 80 13 80 143c0 129 0 141 -80 141s-80 -12 -80 -141c0 -130 0 -143 80 -143z" />
    <glyph glyph-name="ohungarumlaut" unicode="&#x151;" horiz-adv-x="570" 
d="M137 576v5l78 121h127v-4l-112 -122h-93zM326 576v5l79 121h127v-4l-112 -122h-94zM285 -8c-228 0 -240 58 -240 264s12 262 240 262s240 -56 240 -262s-12 -264 -240 -264zM285 113c80 0 80 13 80 143c0 129 0 141 -80 141s-80 -12 -80 -141c0 -130 0 -143 80 -143z" />
    <glyph glyph-name="uni020F" unicode="&#x20f;" horiz-adv-x="570" 
d="M286 725c134 0 151 -62 151 -149h-88c0 39 0 64 -63 64s-64 -25 -64 -64h-89c0 87 19 149 153 149zM285 -8c-228 0 -240 58 -240 264s12 262 240 262s240 -56 240 -262s-12 -264 -240 -264zM285 113c80 0 80 13 80 143c0 129 0 141 -80 141s-80 -12 -80 -141
c0 -130 0 -143 80 -143z" />
    <glyph glyph-name="omacron" unicode="&#x14d;" horiz-adv-x="570" 
d="M120 594v93h329v-93h-329zM285 -8c-228 0 -240 58 -240 264s12 262 240 262s240 -56 240 -262s-12 -264 -240 -264zM285 113c80 0 80 13 80 143c0 129 0 141 -80 141s-80 -12 -80 -141c0 -130 0 -143 80 -143z" />
    <glyph glyph-name="uni01EB" unicode="&#x1eb;" horiz-adv-x="570" 
d="M358 -5c-25 -18 -55 -51 -55 -78c0 -20 9 -34 47 -34c3 0 9 0 17 1v-81c-19 -2 -46 -3 -68 -3c-100 0 -126 39 -126 84c0 37 23 76 57 109c-175 10 -185 75 -185 263c0 206 12 262 240 262s240 -56 240 -262c0 -181 -9 -248 -167 -261zM205 256c0 -130 0 -143 80 -143
s80 13 80 143c0 129 0 141 -80 141s-80 -12 -80 -141z" />
    <glyph glyph-name="oslash" unicode="&#xf8;" horiz-adv-x="570" 
d="M476 479c45 -38 49 -106 49 -223c0 -206 -12 -264 -240 -264c-33 0 -61 1 -85 4l-29 -51h-126l49 87c-45 38 -49 107 -49 224c0 206 12 262 240 262c32 0 60 -1 84 -4l29 51h127zM285 113c80 0 80 13 80 143c0 129 0 141 -80 141s-80 -12 -80 -141c0 -130 0 -143 80 -143
z" />
    <glyph glyph-name="oslashacute" unicode="&#x1ff;" horiz-adv-x="570" 
d="M445 716l-132 -140h-114v5l91 140h155v-5zM476 479c45 -38 49 -106 49 -223c0 -206 -12 -264 -240 -264c-33 0 -61 1 -85 4l-29 -51h-126l49 87c-45 38 -49 107 -49 224c0 206 12 262 240 262c32 0 60 -1 84 -4l29 51h127zM285 113c80 0 80 13 80 143
c0 129 0 141 -80 141s-80 -12 -80 -141c0 -130 0 -143 80 -143z" />
    <glyph glyph-name="otilde" unicode="&#xf5;" horiz-adv-x="570" 
d="M95 572c0 90 3 141 92 141c38 0 78 -10 112 -18c27 -7 50 -14 69 -14c26 0 26 11 26 44h79c0 -90 -3 -142 -92 -142c-39 0 -77 11 -111 19c-27 7 -52 14 -70 14c-25 0 -25 -11 -25 -44h-80zM285 -8c-228 0 -240 58 -240 264s12 262 240 262s240 -56 240 -262
s-12 -264 -240 -264zM285 113c80 0 80 13 80 143c0 129 0 141 -80 141s-80 -12 -80 -141c0 -130 0 -143 80 -143z" />
    <glyph glyph-name="uni022D" unicode="&#x22d;" horiz-adv-x="570" 
d="M120 772v93h329v-93h-329zM95 572c0 90 3 141 92 141c38 0 78 -10 112 -18c27 -7 50 -14 69 -14c26 0 26 11 26 44h79c0 -90 -3 -142 -92 -142c-39 0 -77 11 -111 19c-27 7 -52 14 -70 14c-25 0 -25 -11 -25 -44h-80zM285 -8c-228 0 -240 58 -240 264s12 262 240 262
s240 -56 240 -262s-12 -264 -240 -264zM285 113c80 0 80 13 80 143c0 129 0 141 -80 141s-80 -12 -80 -141c0 -130 0 -143 80 -143z" />
    <glyph glyph-name="oe" unicode="&#x153;" horiz-adv-x="879" 
d="M832 254v-39h-306c0 -92 7 -102 133 -102c39 0 103 3 153 8v-112c-42 -10 -119 -17 -184 -17c-82 0 -140 13 -179 42c-36 -30 -89 -42 -168 -42c-224 0 -236 58 -236 264s12 262 236 262c79 0 132 -13 167 -43c37 29 90 43 165 43c214 0 219 -75 219 -264zM605 404
c-69 0 -78 -14 -79 -106h155c0 97 -14 106 -76 106zM285 113c80 0 80 13 80 143c0 129 0 141 -80 141s-80 -12 -80 -141c0 -130 0 -143 80 -143z" />
    <glyph glyph-name="p" unicode="p" horiz-adv-x="582" 
d="M61 -199v709h152l4 -62h9c30 58 88 70 144 70c119 0 167 -56 167 -262c0 -204 -47 -264 -166 -264c-59 0 -109 11 -141 62h-9v-253h-160zM299 124c72 0 78 9 78 131s-6 132 -78 132c-39 0 -58 -9 -68 -34c-9 -22 -10 -53 -10 -98c0 -46 1 -77 9 -97c10 -26 30 -34 69 -34
z" />
    <glyph glyph-name="thorn" unicode="&#xfe;" horiz-adv-x="582" 
d="M61 -189v932h160v-293h9c30 57 84 68 140 68c119 0 167 -56 167 -262c0 -204 -47 -264 -166 -264c-59 0 -109 11 -141 62h-9v-243h-160zM299 124c72 0 78 9 78 131s-6 132 -78 132c-38 0 -57 -8 -67 -34c-10 -22 -11 -53 -11 -98c0 -44 1 -75 8 -93c10 -30 29 -38 70 -38
z" />
    <glyph glyph-name="q" unicode="q" horiz-adv-x="582" 
d="M360 -199v253h-7c-33 -51 -83 -62 -143 -62c-118 0 -165 59 -165 263c0 205 47 263 166 263c58 0 115 -12 145 -70h9l4 62h151v-709h-160zM283 124c39 0 58 8 68 34c8 18 9 49 9 97c0 49 -1 83 -12 104s-29 28 -65 28c-72 0 -78 -10 -78 -132s6 -131 78 -131z" />
    <glyph glyph-name="r" unicode="r" horiz-adv-x="408" 
d="M61 0v510h152l4 -87h9c28 75 78 95 159 95v-147c-126 0 -164 -40 -164 -178v-193h-160z" />
    <glyph glyph-name="racute" unicode="&#x155;" horiz-adv-x="408" 
d="M118 576v5l91 140h155v-5l-132 -140h-114zM61 0v510h152l4 -87h9c28 75 78 95 159 95v-147c-126 0 -164 -40 -164 -178v-193h-160z" />
    <glyph glyph-name="rcaron" unicode="&#x159;" horiz-adv-x="408" 
d="M129 576l-93 138v7h103l65 -81l65 81h103v-7l-94 -138h-149zM61 0v510h152l4 -87h9c28 75 78 95 159 95v-147c-126 0 -164 -40 -164 -178v-193h-160z" />
    <glyph glyph-name="uni0157" unicode="&#x157;" horiz-adv-x="408" 
d="M61 0v510h152l4 -87h9c28 75 78 95 159 95v-147c-126 0 -164 -40 -164 -178v-193h-160zM54 -289v60c56 0 67 7 67 38v13h-60v118h161v-80c0 -119 -18 -149 -168 -149z" />
    <glyph glyph-name="uni0211" unicode="&#x211;" horiz-adv-x="408" 
d="M74 576l-112 119v4h127l79 -118v-5h-94zM264 576l-112 119v4h127l78 -118v-5h-93zM61 0v510h152l4 -87h9c28 75 78 95 159 95v-147c-126 0 -164 -40 -164 -178v-193h-160z" />
    <glyph glyph-name="uni1E5B" unicode="&#x1e5b;" horiz-adv-x="408" 
d="M61 0v510h152l4 -87h9c28 75 78 95 159 95v-147c-126 0 -164 -40 -164 -178v-193h-160zM79 -212v116h125v-116h-125z" />
    <glyph glyph-name="uni0213" unicode="&#x213;" horiz-adv-x="408" 
d="M204 725c134 0 151 -62 151 -149h-88c0 39 0 64 -63 64s-64 -25 -64 -64h-89c0 87 19 149 153 149zM61 0v510h152l4 -87h9c28 75 78 95 159 95v-147c-126 0 -164 -40 -164 -178v-193h-160z" />
    <glyph glyph-name="s" unicode="s" horiz-adv-x="497" 
d="M259 -8c-65 0 -150 6 -205 14v112c42 -4 113 -8 158 -8c93 0 98 9 98 42c0 31 -5 34 -52 40l-119 15c-86 11 -101 65 -101 156c0 139 90 155 212 155c63 0 139 -7 181 -15v-112c-51 5 -112 9 -147 9c-79 0 -97 -3 -97 -39c0 -29 3 -34 46 -38l119 -15
c67 -9 107 -28 107 -152c0 -148 -83 -164 -200 -164z" />
    <glyph glyph-name="sacute" unicode="&#x15b;" horiz-adv-x="497" 
d="M163 576v5l91 140h155v-5l-132 -140h-114zM259 -8c-65 0 -150 6 -205 14v112c42 -4 113 -8 158 -8c93 0 98 9 98 42c0 31 -5 34 -52 40l-119 15c-86 11 -101 65 -101 156c0 139 90 155 212 155c63 0 139 -7 181 -15v-112c-51 5 -112 9 -147 9c-79 0 -97 -3 -97 -39
c0 -29 3 -34 46 -38l119 -15c67 -9 107 -28 107 -152c0 -148 -83 -164 -200 -164z" />
    <glyph glyph-name="uniA78C" unicode="&#xa78c;" horiz-adv-x="208" 
d="M33 269v474h142v-228l-33 -246h-109z" />
    <glyph glyph-name="scaron" unicode="&#x161;" horiz-adv-x="497" 
d="M173 576l-93 138v7h103l65 -81l65 81h103v-7l-94 -138h-149zM259 -8c-65 0 -150 6 -205 14v112c42 -4 113 -8 158 -8c93 0 98 9 98 42c0 31 -5 34 -52 40l-119 15c-86 11 -101 65 -101 156c0 139 90 155 212 155c63 0 139 -7 181 -15v-112c-51 5 -112 9 -147 9
c-79 0 -97 -3 -97 -39c0 -29 3 -34 46 -38l119 -15c67 -9 107 -28 107 -152c0 -148 -83 -164 -200 -164z" />
    <glyph glyph-name="scedilla" unicode="&#x15f;" horiz-adv-x="497" 
d="M459 156c0 -129 -63 -158 -157 -163l-34 -183h-145v5l70 179c-49 2 -101 7 -139 12v112c42 -4 113 -8 158 -8c93 0 98 9 98 42c0 31 -5 34 -52 40l-119 15c-86 11 -101 65 -101 156c0 139 90 155 212 155c63 0 139 -7 181 -15v-112c-51 5 -112 9 -147 9
c-79 0 -97 -3 -97 -39c0 -29 3 -34 46 -38l119 -15c67 -9 107 -28 107 -152z" />
    <glyph glyph-name="scircumflex" unicode="&#x15d;" horiz-adv-x="497" 
d="M80 576v8l93 137h149l94 -137v-8h-103l-66 81l-64 -81h-103zM259 -8c-65 0 -150 6 -205 14v112c42 -4 113 -8 158 -8c93 0 98 9 98 42c0 31 -5 34 -52 40l-119 15c-86 11 -101 65 -101 156c0 139 90 155 212 155c63 0 139 -7 181 -15v-112c-51 5 -112 9 -147 9
c-79 0 -97 -3 -97 -39c0 -29 3 -34 46 -38l119 -15c67 -9 107 -28 107 -152c0 -148 -83 -164 -200 -164z" />
    <glyph glyph-name="uni0219" unicode="&#x219;" horiz-adv-x="497" 
d="M259 -8c-65 0 -150 6 -205 14v112c42 -4 113 -8 158 -8c93 0 98 9 98 42c0 31 -5 34 -52 40l-119 15c-86 11 -101 65 -101 156c0 139 90 155 212 155c63 0 139 -7 181 -15v-112c-51 5 -112 9 -147 9c-79 0 -97 -3 -97 -39c0 -29 3 -34 46 -38l119 -15
c67 -9 107 -28 107 -152c0 -148 -83 -164 -200 -164zM161 -289v60c56 0 67 7 67 38v13h-60v118h161v-80c0 -119 -18 -149 -168 -149z" />
    <glyph glyph-name="uni1E63" unicode="&#x1e63;" horiz-adv-x="497" 
d="M259 -8c-65 0 -150 6 -205 14v112c42 -4 113 -8 158 -8c93 0 98 9 98 42c0 31 -5 34 -52 40l-119 15c-86 11 -101 65 -101 156c0 139 90 155 212 155c63 0 139 -7 181 -15v-112c-51 5 -112 9 -147 9c-79 0 -97 -3 -97 -39c0 -29 3 -34 46 -38l119 -15
c67 -9 107 -28 107 -152c0 -148 -83 -164 -200 -164zM186 -212v116h125v-116h-125z" />
    <glyph glyph-name="germandbls" unicode="&#xdf;" horiz-adv-x="602" 
d="M61 0v555c0 132 59 195 245 195c194 0 242 -63 242 -175c0 -85 -37 -127 -116 -140v-4c82 -15 125 -63 125 -192c0 -173 -37 -239 -232 -239h-43v121h24c79 0 89 4 89 124c0 114 -17 123 -89 123h-16v121h16c67 0 79 10 79 66c0 65 -17 74 -80 74c-61 0 -84 -8 -84 -91
v-538h-160z" />
    <glyph glyph-name="longs" unicode="&#x17f;" horiz-adv-x="400" 
d="M113 0v389h-93v121h93v35c0 191 50 197 282 197v-110c-110 0 -121 -5 -121 -65v-567h-161z" />
    <glyph glyph-name="t" unicode="t" horiz-adv-x="405" 
d="M112 0v389h-92v121h92v148h162v-148h110v-121h-110v-389h-162z" />
    <glyph glyph-name="tbar" unicode="&#x167;" horiz-adv-x="405" 
d="M384 389h-110v-105h110v-115h-110v-169h-162v169h-91v115h91v105h-92v121h92v148h162v-148h110v-121z" />
    <glyph glyph-name="tcaron" unicode="&#x165;" horiz-adv-x="405" 
d="M318 554l13 202v57h124v-57l-47 -202h-90zM112 0v389h-92v121h92v148h162v-148h110v-121h-110v-389h-162z" />
    <glyph glyph-name="uni0163" unicode="&#x163;" horiz-adv-x="405" 
d="M274 510h110v-121h-110v-389h-26l-36 -190h-145v5l73 185h-28v389h-92v121h92v148h162v-148z" />
    <glyph glyph-name="uni021B" unicode="&#x21b;" horiz-adv-x="405" 
d="M112 0v389h-92v121h92v148h162v-148h110v-121h-110v-389h-162zM106 -289v60c56 0 67 7 67 38v13h-60v118h161v-80c0 -119 -18 -149 -168 -149z" />
    <glyph glyph-name="uni1E6D" unicode="&#x1e6d;" horiz-adv-x="405" 
d="M112 0v389h-92v121h92v148h162v-148h110v-121h-110v-389h-162zM131 -212v116h125v-116h-125z" />
    <glyph glyph-name="u" unicode="u" horiz-adv-x="589" 
d="M216 -8c-135 0 -155 70 -155 199v319h160v-270c0 -110 7 -116 71 -116c68 0 75 26 75 120v266h160v-510h-152l-4 62h-8c-30 -52 -82 -70 -147 -70z" />
    <glyph glyph-name="uacute" unicode="&#xfa;" horiz-adv-x="589" 
d="M209 576v5l91 140h155v-5l-132 -140h-114zM216 -8c-135 0 -155 70 -155 199v319h160v-270c0 -110 7 -116 71 -116c68 0 75 26 75 120v266h160v-510h-152l-4 62h-8c-30 -52 -82 -70 -147 -70z" />
    <glyph glyph-name="ubreve" unicode="&#x16d;" horiz-adv-x="589" 
d="M293 572c-134 0 -151 62 -151 149h88c0 -38 0 -64 63 -64s64 26 64 64h89c0 -87 -19 -149 -153 -149zM216 -8c-135 0 -155 70 -155 199v319h160v-270c0 -110 7 -116 71 -116c68 0 75 26 75 120v266h160v-510h-152l-4 62h-8c-30 -52 -82 -70 -147 -70z" />
    <glyph glyph-name="uni01D4" unicode="&#x1d4;" horiz-adv-x="589" 
d="M219 576l-93 138v7h103l65 -81l65 81h103v-7l-94 -138h-149zM216 -8c-135 0 -155 70 -155 199v319h160v-270c0 -110 7 -116 71 -116c68 0 75 26 75 120v266h160v-510h-152l-4 62h-8c-30 -52 -82 -70 -147 -70z" />
    <glyph glyph-name="ucircumflex" unicode="&#xfb;" horiz-adv-x="589" 
d="M126 576v8l93 137h149l94 -137v-8h-103l-66 81l-64 -81h-103zM216 -8c-135 0 -155 70 -155 199v319h160v-270c0 -110 7 -116 71 -116c68 0 75 26 75 120v266h160v-510h-152l-4 62h-8c-30 -52 -82 -70 -147 -70z" />
    <glyph glyph-name="uni0215" unicode="&#x215;" horiz-adv-x="589" 
d="M165 576l-112 119v4h127l79 -118v-5h-94zM355 576l-112 119v4h127l78 -118v-5h-93zM216 -8c-135 0 -155 70 -155 199v319h160v-270c0 -110 7 -116 71 -116c68 0 75 26 75 120v266h160v-510h-152l-4 62h-8c-30 -52 -82 -70 -147 -70z" />
    <glyph glyph-name="udieresis" unicode="&#xfc;" horiz-adv-x="589" 
d="M126 595v108h131v-108h-131zM338 595v108h130v-108h-130zM216 -8c-135 0 -155 70 -155 199v319h160v-270c0 -110 7 -116 71 -116c68 0 75 26 75 120v266h160v-510h-152l-4 62h-8c-30 -52 -82 -70 -147 -70z" />
    <glyph glyph-name="uni01D8" unicode="&#x1d8;" horiz-adv-x="589" 
d="M208 736v5l91 140h155v-5l-132 -140h-114zM126 595v108h131v-108h-131zM338 595v108h130v-108h-130zM216 -8c-135 0 -155 70 -155 199v319h160v-270c0 -110 7 -116 71 -116c68 0 75 26 75 120v266h160v-510h-152l-4 62h-8c-30 -52 -82 -70 -147 -70z" />
    <glyph glyph-name="uni01DA" unicode="&#x1da;" horiz-adv-x="589" 
d="M219 736l-93 138v7h103l65 -81l65 81h103v-7l-94 -138h-149zM126 595v108h131v-108h-131zM338 595v108h130v-108h-130zM216 -8c-135 0 -155 70 -155 199v319h160v-270c0 -110 7 -116 71 -116c68 0 75 26 75 120v266h160v-510h-152l-4 62h-8c-30 -52 -82 -70 -147 -70z
" />
    <glyph glyph-name="uni01DC" unicode="&#x1dc;" horiz-adv-x="589" 
d="M263 736l-132 140v5h155l91 -140v-5h-114zM126 595v108h131v-108h-131zM338 595v108h130v-108h-130zM216 -8c-135 0 -155 70 -155 199v319h160v-270c0 -110 7 -116 71 -116c68 0 75 26 75 120v266h160v-510h-152l-4 62h-8c-30 -52 -82 -70 -147 -70z" />
    <glyph glyph-name="uni01D6" unicode="&#x1d6;" horiz-adv-x="589" 
d="M129 754v93h329v-93h-329zM126 595v108h131v-108h-131zM338 595v108h130v-108h-130zM216 -8c-135 0 -155 70 -155 199v319h160v-270c0 -110 7 -116 71 -116c68 0 75 26 75 120v266h160v-510h-152l-4 62h-8c-30 -52 -82 -70 -147 -70z" />
    <glyph glyph-name="uni1EE5" unicode="&#x1ee5;" horiz-adv-x="589" 
d="M216 -8c-135 0 -155 70 -155 199v319h160v-270c0 -110 7 -116 71 -116c68 0 75 26 75 120v266h160v-510h-152l-4 62h-8c-30 -52 -82 -70 -147 -70zM211 -212v116h125v-116h-125z" />
    <glyph glyph-name="ugrave" unicode="&#xf9;" horiz-adv-x="589" 
d="M264 576l-132 140v5h155l91 -140v-5h-114zM216 -8c-135 0 -155 70 -155 199v319h160v-270c0 -110 7 -116 71 -116c68 0 75 26 75 120v266h160v-510h-152l-4 62h-8c-30 -52 -82 -70 -147 -70z" />
    <glyph glyph-name="uni1EE7" unicode="&#x1ee7;" horiz-adv-x="589" 
d="M233 567v6c0 37 9 55 48 66l18 5c31 9 36 12 36 31c0 28 -16 29 -65 29c-26 0 -76 -3 -104 -6v73c34 6 89 10 128 10c84 0 143 -5 143 -96c0 -58 -25 -70 -71 -84l-16 -4c-29 -9 -33 -13 -33 -30h-84zM216 -8c-135 0 -155 70 -155 199v319h160v-270
c0 -110 7 -116 71 -116c68 0 75 26 75 120v266h160v-510h-152l-4 62h-8c-30 -52 -82 -70 -147 -70z" />
    <glyph glyph-name="uhorn" unicode="&#x1b0;" horiz-adv-x="589" 
d="M511 601h104v-18c0 -80 -12 -116 -88 -127v-456h-152l-4 62h-8c-30 -52 -82 -70 -147 -70c-135 0 -155 70 -155 199v319h160v-270c0 -110 7 -116 71 -116c68 0 75 26 75 120v266h79c58 0 65 15 65 64v27z" />
    <glyph glyph-name="uni1EE9" unicode="&#x1ee9;" horiz-adv-x="589" 
d="M455 716l-132 -140h-114v5l91 140h155v-5zM511 601h104v-18c0 -80 -12 -116 -88 -127v-456h-152l-4 62h-8c-30 -52 -82 -70 -147 -70c-135 0 -155 70 -155 199v319h160v-270c0 -110 7 -116 71 -116c68 0 75 26 75 120v266h79c58 0 65 15 65 64v27z" />
    <glyph glyph-name="uni1EF1" unicode="&#x1ef1;" horiz-adv-x="589" 
d="M511 601h104v-18c0 -80 -12 -116 -88 -127v-456h-152l-4 62h-8c-30 -52 -82 -70 -147 -70c-135 0 -155 70 -155 199v319h160v-270c0 -110 7 -116 71 -116c68 0 75 26 75 120v266h79c58 0 65 15 65 64v27zM211 -212v116h125v-116h-125z" />
    <glyph glyph-name="uni1EEB" unicode="&#x1eeb;" horiz-adv-x="589" 
d="M378 576h-114l-132 140v5h155l91 -140v-5zM511 601h104v-18c0 -80 -12 -116 -88 -127v-456h-152l-4 62h-8c-30 -52 -82 -70 -147 -70c-135 0 -155 70 -155 199v319h160v-270c0 -110 7 -116 71 -116c68 0 75 26 75 120v266h79c58 0 65 15 65 64v27z" />
    <glyph glyph-name="uni1EED" unicode="&#x1eed;" horiz-adv-x="589" 
d="M335 675c0 28 -16 29 -65 29c-26 0 -76 -3 -104 -6v73c34 6 89 10 128 10c84 0 143 -5 143 -96c0 -58 -25 -70 -71 -84l-16 -4c-29 -9 -33 -13 -33 -30h-84v6c0 37 9 55 48 66l18 5c31 9 36 12 36 31zM511 601h104v-18c0 -80 -12 -116 -88 -127v-456h-152l-4 62h-8
c-30 -52 -82 -70 -147 -70c-135 0 -155 70 -155 199v319h160v-270c0 -110 7 -116 71 -116c68 0 75 26 75 120v266h79c58 0 65 15 65 64v27z" />
    <glyph glyph-name="uni1EEF" unicode="&#x1eef;" horiz-adv-x="589" 
d="M209 616c-25 0 -25 -11 -25 -44h-80c0 90 3 141 92 141c38 0 78 -10 112 -18c27 -7 50 -14 69 -14c26 0 26 11 26 44h79c0 -90 -3 -142 -92 -142c-39 0 -77 11 -111 19c-27 7 -52 14 -70 14zM511 601h104v-18c0 -80 -12 -116 -88 -127v-456h-152l-4 62h-8
c-30 -52 -82 -70 -147 -70c-135 0 -155 70 -155 199v319h160v-270c0 -110 7 -116 71 -116c68 0 75 26 75 120v266h79c58 0 65 15 65 64v27z" />
    <glyph glyph-name="uhungarumlaut" unicode="&#x171;" horiz-adv-x="589" 
d="M146 576v5l78 121h127v-4l-112 -122h-93zM335 576v5l79 121h127v-4l-112 -122h-94zM216 -8c-135 0 -155 70 -155 199v319h160v-270c0 -110 7 -116 71 -116c68 0 75 26 75 120v266h160v-510h-152l-4 62h-8c-30 -52 -82 -70 -147 -70z" />
    <glyph glyph-name="uni0217" unicode="&#x217;" horiz-adv-x="589" 
d="M295 725c134 0 151 -62 151 -149h-88c0 39 0 64 -63 64s-64 -25 -64 -64h-89c0 87 19 149 153 149zM216 -8c-135 0 -155 70 -155 199v319h160v-270c0 -110 7 -116 71 -116c68 0 75 26 75 120v266h160v-510h-152l-4 62h-8c-30 -52 -82 -70 -147 -70z" />
    <glyph glyph-name="umacron" unicode="&#x16b;" horiz-adv-x="589" 
d="M129 594v93h329v-93h-329zM216 -8c-135 0 -155 70 -155 199v319h160v-270c0 -110 7 -116 71 -116c68 0 75 26 75 120v266h160v-510h-152l-4 62h-8c-30 -52 -82 -70 -147 -70z" />
    <glyph glyph-name="uogonek" unicode="&#x173;" horiz-adv-x="589" 
d="M512 -117c3 0 9 0 17 1v-81c-19 -2 -46 -3 -68 -3c-100 0 -126 39 -126 84c0 39 26 81 64 116h-24l-4 62h-8c-30 -52 -82 -70 -147 -70c-135 0 -155 70 -155 199v319h160v-270c0 -110 7 -116 71 -116c68 0 75 26 75 120v266h160v-510h1c-26 -16 -63 -53 -63 -83
c0 -20 9 -34 47 -34z" />
    <glyph glyph-name="uring" unicode="&#x16f;" horiz-adv-x="589" 
d="M293 562c-134 0 -145 33 -145 117c0 85 11 119 145 119c135 0 147 -34 147 -119c0 -84 -12 -117 -147 -117zM293 627c62 0 62 11 62 52c0 42 0 54 -62 54c-60 0 -61 -12 -61 -54c0 -41 1 -52 61 -52zM216 -8c-135 0 -155 70 -155 199v319h160v-270c0 -110 7 -116 71 -116
c68 0 75 26 75 120v266h160v-510h-152l-4 62h-8c-30 -52 -82 -70 -147 -70z" />
    <glyph glyph-name="utilde" unicode="&#x169;" horiz-adv-x="589" 
d="M104 572c0 90 3 141 92 141c38 0 78 -10 112 -18c27 -7 50 -14 69 -14c26 0 26 11 26 44h79c0 -90 -3 -142 -92 -142c-39 0 -77 11 -111 19c-27 7 -52 14 -70 14c-25 0 -25 -11 -25 -44h-80zM216 -8c-135 0 -155 70 -155 199v319h160v-270c0 -110 7 -116 71 -116
c68 0 75 26 75 120v266h160v-510h-152l-4 62h-8c-30 -52 -82 -70 -147 -70z" />
    <glyph glyph-name="v" unicode="v" horiz-adv-x="547" 
d="M166 0l-153 510h163l95 -367h10l92 367h160l-152 -510h-215z" />
    <glyph glyph-name="w" unicode="w" horiz-adv-x="839" 
d="M148 0l-130 510h159l72 -350h10l88 350h147l91 -350h9l71 350h155l-130 -510h-195l-71 268h-10l-70 -268h-196z" />
    <glyph glyph-name="wacute" unicode="&#x1e83;" horiz-adv-x="839" 
d="M334 576v5l91 140h155v-5l-132 -140h-114zM148 0l-130 510h159l72 -350h10l88 350h147l91 -350h9l71 350h155l-130 -510h-195l-71 268h-10l-70 -268h-196z" />
    <glyph glyph-name="wcircumflex" unicode="&#x175;" horiz-adv-x="839" 
d="M251 576v8l93 137h149l94 -137v-8h-103l-66 81l-64 -81h-103zM148 0l-130 510h159l72 -350h10l88 350h147l91 -350h9l71 350h155l-130 -510h-195l-71 268h-10l-70 -268h-196z" />
    <glyph glyph-name="wdieresis" unicode="&#x1e85;" horiz-adv-x="839" 
d="M251 595v108h131v-108h-131zM463 595v108h130v-108h-130zM148 0l-130 510h159l72 -350h10l88 350h147l91 -350h9l71 350h155l-130 -510h-195l-71 268h-10l-70 -268h-196z" />
    <glyph glyph-name="wgrave" unicode="&#x1e81;" horiz-adv-x="839" 
d="M389 576l-132 140v5h155l91 -140v-5h-114zM148 0l-130 510h159l72 -350h10l88 350h147l91 -350h9l71 350h155l-130 -510h-195l-71 268h-10l-70 -268h-196z" />
    <glyph glyph-name="x" unicode="x" horiz-adv-x="565" 
d="M12 0l170 259l-164 251h176l90 -146h6l89 146h166l-163 -250l171 -260h-176l-97 155h-7l-94 -155h-167z" />
    <glyph glyph-name="y" unicode="y" horiz-adv-x="589" 
d="M276 -206c-61 0 -135 5 -177 12v111c61 -1 101 -2 138 -2c126 0 130 15 130 112v41h-8c-28 -48 -78 -66 -143 -66c-135 0 -155 69 -155 198v310h160v-261c0 -110 7 -116 71 -116c68 0 75 26 75 120v257h160v-453c0 -180 -16 -263 -251 -263z" />
    <glyph glyph-name="yacute" unicode="&#xfd;" horiz-adv-x="589" 
d="M209 576v5l91 140h155v-5l-132 -140h-114zM276 -206c-61 0 -135 5 -177 12v111c61 -1 101 -2 138 -2c126 0 130 15 130 112v41h-8c-28 -48 -78 -66 -143 -66c-135 0 -155 69 -155 198v310h160v-261c0 -110 7 -116 71 -116c68 0 75 26 75 120v257h160v-453
c0 -180 -16 -263 -251 -263z" />
    <glyph glyph-name="ycircumflex" unicode="&#x177;" horiz-adv-x="589" 
d="M126 576v8l93 137h149l94 -137v-8h-103l-66 81l-64 -81h-103zM276 -206c-61 0 -135 5 -177 12v111c61 -1 101 -2 138 -2c126 0 130 15 130 112v41h-8c-28 -48 -78 -66 -143 -66c-135 0 -155 69 -155 198v310h160v-261c0 -110 7 -116 71 -116c68 0 75 26 75 120v257h160
v-453c0 -180 -16 -263 -251 -263z" />
    <glyph glyph-name="ydieresis" unicode="&#xff;" horiz-adv-x="589" 
d="M126 595v108h131v-108h-131zM338 595v108h130v-108h-130zM276 -206c-61 0 -135 5 -177 12v111c61 -1 101 -2 138 -2c126 0 130 15 130 112v41h-8c-28 -48 -78 -66 -143 -66c-135 0 -155 69 -155 198v310h160v-261c0 -110 7 -116 71 -116c68 0 75 26 75 120v257h160v-453
c0 -180 -16 -263 -251 -263z" />
    <glyph glyph-name="uni1EF5" unicode="&#x1ef5;" horiz-adv-x="589" 
d="M276 -206c-61 0 -135 5 -177 12v111c61 -1 101 -2 138 -2c126 0 130 15 130 112v41h-8c-28 -48 -78 -66 -143 -66c-135 0 -155 69 -155 198v310h160v-261c0 -110 7 -116 71 -116c68 0 75 26 75 120v257h160v-453c0 -180 -16 -263 -251 -263zM213 -418v116h125v-116h-125z
" />
    <glyph glyph-name="ygrave" unicode="&#x1ef3;" horiz-adv-x="589" 
d="M264 576l-132 140v5h155l91 -140v-5h-114zM276 -206c-61 0 -135 5 -177 12v111c61 -1 101 -2 138 -2c126 0 130 15 130 112v41h-8c-28 -48 -78 -66 -143 -66c-135 0 -155 69 -155 198v310h160v-261c0 -110 7 -116 71 -116c68 0 75 26 75 120v257h160v-453
c0 -180 -16 -263 -251 -263z" />
    <glyph glyph-name="uni1EF7" unicode="&#x1ef7;" horiz-adv-x="589" 
d="M233 567v6c0 37 9 55 48 66l18 5c31 9 36 12 36 31c0 28 -16 29 -65 29c-26 0 -76 -3 -104 -6v73c34 6 89 10 128 10c84 0 143 -5 143 -96c0 -58 -25 -70 -71 -84l-16 -4c-29 -9 -33 -13 -33 -30h-84zM276 -206c-61 0 -135 5 -177 12v111c61 -1 101 -2 138 -2
c126 0 130 15 130 112v41h-8c-28 -48 -78 -66 -143 -66c-135 0 -155 69 -155 198v310h160v-261c0 -110 7 -116 71 -116c68 0 75 26 75 120v257h160v-453c0 -180 -16 -263 -251 -263z" />
    <glyph glyph-name="uni0233" unicode="&#x233;" horiz-adv-x="589" 
d="M129 594v93h329v-93h-329zM276 -206c-61 0 -135 5 -177 12v111c61 -1 101 -2 138 -2c126 0 130 15 130 112v41h-8c-28 -48 -78 -66 -143 -66c-135 0 -155 69 -155 198v310h160v-261c0 -110 7 -116 71 -116c68 0 75 26 75 120v257h160v-453c0 -180 -16 -263 -251 -263z
" />
    <glyph glyph-name="uni1EF9" unicode="&#x1ef9;" horiz-adv-x="589" 
d="M104 572c0 90 3 141 92 141c38 0 78 -10 112 -18c27 -7 50 -14 69 -14c26 0 26 11 26 44h79c0 -90 -3 -142 -92 -142c-39 0 -77 11 -111 19c-27 7 -52 14 -70 14c-25 0 -25 -11 -25 -44h-80zM276 -206c-61 0 -135 5 -177 12v111c61 -1 101 -2 138 -2
c126 0 130 15 130 112v41h-8c-28 -48 -78 -66 -143 -66c-135 0 -155 69 -155 198v310h160v-261c0 -110 7 -116 71 -116c68 0 75 26 75 120v257h160v-453c0 -180 -16 -263 -251 -263z" />
    <glyph glyph-name="z" unicode="z" horiz-adv-x="524" 
d="M43 0v114l233 275h-221v121h423v-114l-233 -275h235v-121h-437z" />
    <glyph glyph-name="zacute" unicode="&#x17a;" horiz-adv-x="524" 
d="M183 576v5l91 140h155v-5l-132 -140h-114zM43 0v114l233 275h-221v121h423v-114l-233 -275h235v-121h-437z" />
    <glyph glyph-name="zcaron" unicode="&#x17e;" horiz-adv-x="524" 
d="M194 576l-93 138v7h103l65 -81l65 81h103v-7l-94 -138h-149zM43 0v114l233 275h-221v121h423v-114l-233 -275h235v-121h-437z" />
    <glyph glyph-name="zdotaccent" unicode="&#x17c;" horiz-adv-x="524" 
d="M203 595v108h131v-108h-131zM43 0v114l233 275h-221v121h423v-114l-233 -275h235v-121h-437z" />
    <glyph glyph-name="uni1E93" unicode="&#x1e93;" horiz-adv-x="524" 
d="M43 0v114l233 275h-221v121h423v-114l-233 -275h235v-121h-437zM206 -212v116h125v-116h-125z" />
    <glyph glyph-name="g_tilde.loclGUA" horiz-adv-x="582" 
d="M101 572c0 90 3 141 92 141c38 0 78 -10 112 -18c27 -7 50 -14 69 -14c26 0 26 11 26 44h79c0 -90 -3 -142 -92 -142c-39 0 -77 11 -111 19c-27 7 -52 14 -70 14c-25 0 -25 -11 -25 -44h-80zM265 -206c-65 0 -140 5 -180 13v111c41 -1 95 -3 139 -3c130 0 136 14 136 114
v36h-7c-31 -52 -81 -63 -140 -63c-121 0 -168 57 -168 257c0 203 47 259 167 259c55 0 114 -12 144 -70h9l4 62h151v-452c0 -180 -16 -264 -255 -264zM283 132c38 0 56 7 66 31c10 21 11 52 11 96c0 43 -1 75 -10 95c-10 25 -29 33 -67 33c-72 0 -78 -10 -78 -128
c0 -117 6 -127 78 -127z" />
    <glyph glyph-name="y.loclGUA" horiz-adv-x="547" 
d="M373 510h160l-207 -699h-161l56 189h-55l-153 510h163l95 -367h9z" />
    <glyph glyph-name="yacute.loclGUA" horiz-adv-x="547" 
d="M446 716l-132 -140h-114v5l91 140h155v-5zM373 510h160l-207 -699h-161l56 189h-55l-153 510h163l95 -367h9z" />
    <glyph glyph-name="ycircumflex.loclGUA" horiz-adv-x="547" 
d="M285 657l-64 -81h-103v8l93 137h149l94 -137v-8h-103zM373 510h160l-207 -699h-161l56 189h-55l-153 510h163l95 -367h9z" />
    <glyph glyph-name="ydieresis.loclGUA" horiz-adv-x="547" 
d="M248 703v-108h-131v108h131zM459 703v-108h-130v108h130zM373 510h160l-207 -699h-161l56 189h-55l-153 510h163l95 -367h9z" />
    <glyph glyph-name="uni1EF5.loclGUA" horiz-adv-x="547" 
d="M326 -189h-161l56 189h-55l-153 510h163l95 -367h9l93 367h160zM220 -401v116h125v-116h-125z" />
    <glyph glyph-name="ygrave.loclGUA" horiz-adv-x="547" 
d="M369 576h-114l-132 140v5h155l91 -140v-5zM373 510h160l-207 -699h-161l56 189h-55l-153 510h163l95 -367h9z" />
    <glyph glyph-name="uni1EF7.loclGUA" horiz-adv-x="547" 
d="M326 675c0 28 -16 29 -65 29c-26 0 -76 -3 -104 -6v73c34 6 89 10 128 10c84 0 143 -5 143 -96c0 -58 -25 -70 -71 -84l-16 -4c-29 -9 -33 -13 -33 -30h-84v6c0 37 9 55 48 66l18 5c31 9 36 12 36 31zM373 510h160l-207 -699h-161l56 189h-55l-153 510h163l95 -367h9z
" />
    <glyph glyph-name="uni0233.loclGUA" horiz-adv-x="547" 
d="M450 687v-93h-329v93h329zM373 510h160l-207 -699h-161l56 189h-55l-153 510h163l95 -367h9z" />
    <glyph glyph-name="uni1EF9.loclGUA" horiz-adv-x="547" 
d="M201 616c-25 0 -25 -11 -25 -44h-80c0 90 3 141 92 141c38 0 78 -10 112 -18c27 -7 50 -14 69 -14c26 0 26 11 26 44h79c0 -90 -3 -142 -92 -142c-39 0 -77 11 -111 19c-27 7 -52 14 -70 14zM373 510h160l-207 -699h-161l56 189h-55l-153 510h163l95 -367h9z" />
    <glyph glyph-name="cacute.loclPLK" horiz-adv-x="461" 
d="M220 598v5l46 140h154v-5l-86 -140h-114zM266 -8c-211 0 -221 95 -221 263c0 165 14 263 219 263c53 0 110 -6 153 -16v-113c-28 4 -74 8 -109 8c-93 0 -102 -23 -102 -142c0 -122 10 -142 103 -142c31 0 75 3 112 8v-113c-44 -10 -104 -16 -155 -16z" />
    <glyph glyph-name="nacute.loclPLK" horiz-adv-x="589" 
d="M268 598v5l46 140h154v-5l-86 -140h-114zM61 0v510h152l4 -62h9c29 52 82 70 147 70c135 0 154 -70 154 -199v-319h-160v270c0 110 -6 116 -70 116c-69 0 -76 -26 -76 -120v-266h-160z" />
    <glyph glyph-name="oacute.loclPLK" horiz-adv-x="570" 
d="M259 598v5l46 140h154v-5l-86 -140h-114zM285 -8c-228 0 -240 58 -240 264s12 262 240 262s240 -56 240 -262s-12 -264 -240 -264zM285 113c80 0 80 13 80 143c0 129 0 141 -80 141s-80 -12 -80 -141c0 -130 0 -143 80 -143z" />
    <glyph glyph-name="sacute.loclPLK" horiz-adv-x="497" 
d="M222 598v5l46 140h154v-5l-86 -140h-114zM259 -8c-65 0 -150 6 -205 14v112c42 -4 113 -8 158 -8c93 0 98 9 98 42c0 31 -5 34 -52 40l-119 15c-86 11 -101 65 -101 156c0 139 90 155 212 155c63 0 139 -7 181 -15v-112c-51 5 -112 9 -147 9c-79 0 -97 -3 -97 -39
c0 -29 3 -34 46 -38l119 -15c67 -9 107 -28 107 -152c0 -148 -83 -164 -200 -164z" />
    <glyph glyph-name="zacute.loclPLK" horiz-adv-x="524" 
d="M242 598v5l46 140h154v-5l-86 -140h-114zM43 0v114l233 275h-221v121h423v-114l-233 -275h235v-121h-437z" />
    <glyph glyph-name="ordfeminine" unicode="&#xaa;" horiz-adv-x="416" 
d="M140 312c-72 0 -105 35 -105 113c0 83 22 113 115 113c19 0 69 -2 102 -4v15c0 54 -8 56 -92 56c-22 0 -56 -2 -104 -5v83c42 8 96 13 144 13c157 0 170 -50 170 -153v-226h-113l-4 43h-6c-28 -43 -69 -48 -107 -48zM195 395c26 0 42 3 51 18c5 10 6 25 6 48v17h-65
c-36 0 -42 -7 -42 -42c0 -33 5 -41 50 -41z" />
    <glyph glyph-name="ordmasculine" unicode="&#xba;" horiz-adv-x="434" 
d="M217 313c-156 0 -175 41 -175 191c0 151 19 192 175 192s175 -41 175 -192c0 -150 -19 -191 -175 -191zM217 402c56 0 57 9 57 102c0 92 -1 102 -57 102c-57 0 -57 -10 -57 -102c0 -93 0 -102 57 -102z" />
    <glyph glyph-name="uni0394" unicode="&#x394;" horiz-adv-x="686" 
d="M8 0l217 688h236l217 -688h-670zM207 131h267l-131 424h-7z" />
    <glyph glyph-name="uni03A9" unicode="&#x3a9;" horiz-adv-x="704" 
d="M56 0v133h14c39 -11 78 -23 118 -34v7c-91 39 -130 128 -130 276c0 210 12 314 294 314s295 -104 295 -314c0 -148 -40 -237 -130 -276v-7c39 11 78 23 117 34h15v-133h-249v128c64 10 72 85 72 227c0 192 -5 208 -120 208s-120 -15 -120 -208c0 -142 9 -217 72 -227
v-128h-248z" />
    <glyph glyph-name="uni03BC" unicode="&#x3bc;" horiz-adv-x="589" 
d="M367 510h160v-510h-152l-4 62h-8c-26 -42 -65 -67 -139 -67h-3v-184h-160v699h160v-270c0 -110 7 -116 71 -116c68 0 75 26 75 120v266z" />
    <glyph glyph-name="pi" unicode="&#x3c0;" horiz-adv-x="586" 
d="M63 0v510h459v-510h-161v389h-136v-389h-162z" />
    <glyph glyph-name="zero" unicode="0" horiz-adv-x="658" 
d="M329 -8c-257 0 -274 58 -274 352s17 352 274 352s274 -58 274 -352s-17 -352 -274 -352zM329 125c98 0 101 5 101 219s-3 219 -101 219s-101 -5 -101 -219s3 -219 101 -219z" />
    <glyph glyph-name="one" unicode="1" horiz-adv-x="392" 
d="M145 0v514l-128 -54v136l182 92h119v-688h-173z" />
    <glyph glyph-name="two" unicode="2" horiz-adv-x="608" 
d="M219 153v-18h334v-135h-500v95c0 152 6 211 112 255l151 61c57 24 64 33 64 84c0 61 -25 68 -118 68c-44 0 -124 -6 -195 -15v126c64 13 165 22 242 22c133 0 244 -21 244 -191c0 -128 -41 -174 -114 -202l-171 -68c-19 -7 -32 -14 -39 -25c-8 -12 -10 -28 -10 -57z" />
    <glyph glyph-name="three" unicode="3" horiz-adv-x="604" 
d="M270 -8c-67 0 -160 9 -220 21v124c71 -7 155 -12 204 -12c89 0 120 3 120 76c0 68 -20 81 -91 81h-115v132h115c62 0 85 11 85 74c0 71 -23 75 -124 75c-58 0 -139 -6 -190 -13v125c59 12 151 21 217 21c208 0 271 -64 271 -181c0 -100 -40 -144 -118 -162v-4
c79 -18 124 -53 124 -165c0 -116 -49 -192 -278 -192z" />
    <glyph glyph-name="four" unicode="4" horiz-adv-x="646" 
d="M360 0v138h-326v119l234 431h186l-239 -417h149l50 167h116v-167h85v-133h-85v-138h-170z" />
    <glyph glyph-name="five" unicode="5" horiz-adv-x="621" 
d="M290 -8c-66 0 -158 8 -221 21v124c68 -7 152 -12 201 -12c104 0 124 15 124 88c0 78 -24 87 -128 87c-52 0 -131 -4 -189 -11v399h441v-135h-291v-129c35 4 88 8 126 8c173 0 215 -75 215 -207c0 -163 -51 -233 -278 -233z" />
    <glyph glyph-name="six" unicode="6" horiz-adv-x="660" 
d="M342 -8c-142 0 -217 14 -258 99c-21 46 -29 127 -29 251c0 104 7 180 28 233c37 91 114 121 266 121c56 0 148 -9 220 -22v-124c-73 7 -149 13 -188 13c-137 0 -154 -25 -154 -179h7c14 18 51 48 153 48c147 0 222 -33 222 -203c0 -173 -48 -237 -267 -237zM334 124
c89 0 109 7 109 86c0 83 -19 91 -109 91c-96 0 -104 -21 -104 -78c0 -95 25 -99 104 -99z" />
    <glyph glyph-name="seven" unicode="7" horiz-adv-x="568" 
d="M100 0l251 553h-318v135h500v-123l-243 -565h-190z" />
    <glyph glyph-name="eight" unicode="8" horiz-adv-x="676" 
d="M338 -8c-234 0 -284 73 -284 192c0 114 43 146 124 165v4c-80 18 -118 62 -118 162c0 118 63 181 278 181c214 0 278 -63 278 -181c0 -100 -39 -144 -119 -162v-4c81 -19 125 -51 125 -165c0 -119 -52 -192 -284 -192zM338 407c89 0 105 10 105 79c0 71 -15 81 -105 81
c-91 0 -105 -10 -105 -81c0 -69 15 -79 105 -79zM338 121c88 0 111 8 111 82c0 76 -21 85 -111 85c-91 0 -111 -9 -111 -85c0 -74 22 -82 111 -82z" />
    <glyph glyph-name="nine" unicode="9" horiz-adv-x="660" 
d="M310 -8c-57 0 -150 9 -220 22v124c73 -7 150 -13 188 -13c137 0 154 25 154 179h-6c-15 -18 -51 -48 -154 -48c-146 0 -221 33 -221 203c0 173 48 237 267 237c156 0 231 -16 263 -116c18 -55 24 -129 24 -234c0 -117 -9 -199 -37 -251c-41 -77 -118 -103 -258 -103z
M326 387c95 0 104 21 104 78c0 95 -26 99 -104 99c-89 0 -110 -7 -110 -86c0 -83 19 -91 110 -91z" />
    <glyph glyph-name="zero.lf" horiz-adv-x="658" 
d="M329 -8c-257 0 -274 58 -274 352s17 352 274 352s274 -58 274 -352s-17 -352 -274 -352zM329 125c98 0 101 5 101 219s-3 219 -101 219s-101 -5 -101 -219s3 -219 101 -219z" />
    <glyph glyph-name="one.lf" horiz-adv-x="392" 
d="M145 0v514l-128 -54v136l182 92h119v-688h-173z" />
    <glyph glyph-name="two.lf" horiz-adv-x="608" 
d="M219 153v-18h334v-135h-500v95c0 152 6 211 112 255l151 61c57 24 64 33 64 84c0 61 -25 68 -118 68c-44 0 -124 -6 -195 -15v126c64 13 165 22 242 22c133 0 244 -21 244 -191c0 -128 -41 -174 -114 -202l-171 -68c-19 -7 -32 -14 -39 -25c-8 -12 -10 -28 -10 -57z" />
    <glyph glyph-name="three.lf" horiz-adv-x="604" 
d="M270 -8c-67 0 -160 9 -220 21v124c71 -7 155 -12 204 -12c89 0 120 3 120 76c0 68 -20 81 -91 81h-115v132h115c62 0 85 11 85 74c0 71 -23 75 -124 75c-58 0 -139 -6 -190 -13v125c59 12 151 21 217 21c208 0 271 -64 271 -181c0 -100 -40 -144 -118 -162v-4
c79 -18 124 -53 124 -165c0 -116 -49 -192 -278 -192z" />
    <glyph glyph-name="four.lf" horiz-adv-x="646" 
d="M360 0v138h-326v119l234 431h186l-239 -417h149l50 167h116v-167h85v-133h-85v-138h-170z" />
    <glyph glyph-name="five.lf" horiz-adv-x="621" 
d="M290 -8c-66 0 -158 8 -221 21v124c68 -7 152 -12 201 -12c104 0 124 15 124 88c0 78 -24 87 -128 87c-52 0 -131 -4 -189 -11v399h441v-135h-291v-129c35 4 88 8 126 8c173 0 215 -75 215 -207c0 -163 -51 -233 -278 -233z" />
    <glyph glyph-name="six.lf" horiz-adv-x="660" 
d="M342 -8c-142 0 -217 14 -258 99c-21 46 -29 127 -29 251c0 104 7 180 28 233c37 91 114 121 266 121c56 0 148 -9 220 -22v-124c-73 7 -149 13 -188 13c-137 0 -154 -25 -154 -179h7c14 18 51 48 153 48c147 0 222 -33 222 -203c0 -173 -48 -237 -267 -237zM334 124
c89 0 109 7 109 86c0 83 -19 91 -109 91c-96 0 -104 -21 -104 -78c0 -95 25 -99 104 -99z" />
    <glyph glyph-name="seven.lf" horiz-adv-x="568" 
d="M100 0l251 553h-318v135h500v-123l-243 -565h-190z" />
    <glyph glyph-name="eight.lf" horiz-adv-x="676" 
d="M338 -8c-234 0 -284 73 -284 192c0 114 43 146 124 165v4c-80 18 -118 62 -118 162c0 118 63 181 278 181c214 0 278 -63 278 -181c0 -100 -39 -144 -119 -162v-4c81 -19 125 -51 125 -165c0 -119 -52 -192 -284 -192zM338 407c89 0 105 10 105 79c0 71 -15 81 -105 81
c-91 0 -105 -10 -105 -81c0 -69 15 -79 105 -79zM338 121c88 0 111 8 111 82c0 76 -21 85 -111 85c-91 0 -111 -9 -111 -85c0 -74 22 -82 111 -82z" />
    <glyph glyph-name="nine.lf" horiz-adv-x="660" 
d="M310 -8c-57 0 -150 9 -220 22v124c73 -7 150 -13 188 -13c137 0 154 25 154 179h-6c-15 -18 -51 -48 -154 -48c-146 0 -221 33 -221 203c0 173 48 237 267 237c156 0 231 -16 263 -116c18 -55 24 -129 24 -234c0 -117 -9 -199 -37 -251c-41 -77 -118 -103 -258 -103z
M326 387c95 0 104 21 104 78c0 95 -26 99 -104 99c-89 0 -110 -7 -110 -86c0 -83 19 -91 110 -91z" />
    <glyph glyph-name="zero.lf.zero" horiz-adv-x="658" 
d="M329 696c257 0 274 -58 274 -352s-17 -352 -274 -352s-274 58 -274 352s17 352 274 352zM329 563c-88 0 -100 -4 -101 -162h202c-1 158 -13 162 -101 162zM329 125c88 0 99 4 101 161h-202c2 -157 13 -161 101 -161z" />
    <glyph glyph-name="zero.osf" horiz-adv-x="616" 
d="M308 -7c-231 0 -248 45 -248 299c0 255 17 300 248 300c232 0 249 -45 249 -300c0 -254 -17 -299 -249 -299zM308 114c86 0 88 5 88 178c0 174 -3 179 -88 179s-88 -5 -88 -179s3 -178 88 -178z" />
    <glyph glyph-name="one.osf" horiz-adv-x="616" 
d="M102 0v121h151v305l-149 -47v121l200 85h110v-464h138v-121h-450z" />
    <glyph glyph-name="two.osf" horiz-adv-x="616" 
d="M79 0v112c0 103 6 153 108 191l130 49c52 20 56 26 56 64c0 50 -23 55 -104 55c-40 0 -113 -6 -177 -13v114c58 12 152 20 220 20c122 0 223 -20 223 -165c0 -109 -39 -147 -104 -172l-154 -57c-39 -14 -43 -18 -43 -50v-25h301v-123h-456z" />
    <glyph glyph-name="three.osf" horiz-adv-x="616" 
d="M281 -7c-62 0 -145 8 -199 18v113c63 -6 139 -10 183 -10c79 0 106 2 106 59s-22 64 -80 64h-104v118h104c50 0 75 5 75 58c0 55 -21 58 -110 58c-47 0 -120 -5 -171 -11v113c56 11 139 19 197 19c187 0 245 -54 245 -155c0 -84 -36 -122 -107 -137v-3
c74 -16 112 -47 112 -140c0 -100 -45 -164 -251 -164z" />
    <glyph glyph-name="four.osf" horiz-adv-x="616" 
d="M340 0v114h-291v108l206 363h172l-212 -350h130l46 132h107v-132h76v-121h-76v-114h-158z" />
    <glyph glyph-name="five.osf" horiz-adv-x="616" 
d="M293 -7c-58 0 -142 7 -200 18v113c61 -6 135 -10 181 -10c92 0 109 10 109 69c0 61 -21 68 -112 68c-48 0 -122 -4 -172 -10v344h400v-123h-261v-98c32 3 80 6 113 6c155 0 193 -65 193 -177c0 -138 -47 -200 -251 -200z" />
    <glyph glyph-name="six.osf" horiz-adv-x="616" 
d="M320 -7c-128 0 -197 11 -233 85c-19 38 -27 103 -27 213c0 100 9 163 34 210c36 68 108 91 232 91c51 0 136 -8 199 -19v-113c-62 6 -131 11 -169 11c-120 0 -137 -19 -137 -142h6c20 23 60 41 137 41c131 0 199 -30 199 -174c0 -146 -43 -203 -241 -203zM313 113
c77 0 95 5 95 67c0 64 -17 71 -95 71c-84 0 -91 -17 -91 -62c0 -74 21 -76 91 -76z" />
    <glyph glyph-name="seven.osf" horiz-adv-x="616" 
d="M139 0l243 462h-320v123h488v-112l-236 -473h-175z" />
    <glyph glyph-name="eight.osf" horiz-adv-x="616" 
d="M308 -7c-210 0 -257 62 -257 164c0 94 40 123 113 140v3c-71 15 -107 51 -107 138c0 100 57 154 251 154s252 -54 252 -154c0 -85 -36 -123 -107 -138v-3c72 -17 112 -44 112 -140c0 -102 -47 -164 -257 -164zM308 348c78 0 92 8 92 63c0 56 -13 64 -92 64
c-78 0 -91 -8 -91 -64c0 -55 13 -63 91 -63zM308 110c78 0 98 6 98 65c0 61 -19 67 -98 67s-96 -6 -96 -67c0 -59 19 -65 96 -65z" />
    <glyph glyph-name="nine.osf" horiz-adv-x="616" 
d="M289 -7c-55 0 -136 8 -200 19v113c63 -6 135 -11 170 -11c121 0 136 20 136 141h-5c-19 -21 -56 -40 -138 -40c-131 0 -198 29 -198 174c0 146 43 203 241 203c119 0 185 -10 223 -68c28 -42 37 -113 37 -231c0 -91 -7 -152 -32 -207c-30 -65 -96 -93 -234 -93zM302 334
c83 0 91 17 91 62c0 74 -22 76 -91 76c-77 0 -96 -5 -96 -67c0 -65 18 -71 96 -71z" />
    <glyph glyph-name="zero.osf.zero" horiz-adv-x="616" 
d="M308 592c232 0 249 -45 249 -300c0 -254 -17 -299 -249 -299c-231 0 -248 45 -248 299c0 255 17 300 248 300zM308 471c-75 0 -86 -4 -88 -125h176c-2 121 -13 125 -88 125zM308 114c77 0 87 4 88 127h-176c2 -124 12 -127 88 -127z" />
    <glyph glyph-name="four.ss01" horiz-adv-x="653" 
d="M364 0v137h-330v122l261 429h239v-416h89v-135h-89v-137h-170zM191 272h173v276h-6z" />
    <glyph glyph-name="six.ss01" horiz-adv-x="644" 
d="M323 -8c-240 0 -285 90 -285 245c0 184 163 367 274 451h201v-7c-74 -54 -188 -156 -247 -266l3 -4c34 13 74 19 128 19c183 0 209 -93 209 -218c0 -136 -44 -220 -283 -220zM323 123c96 0 118 11 118 88c0 84 -24 90 -118 90c-92 0 -112 -18 -112 -81
c0 -93 29 -97 112 -97z" />
    <glyph glyph-name="nine.ss01" horiz-adv-x="644" 
d="M131 0v6c73 55 188 155 247 267l-3 4c-34 -14 -74 -20 -128 -20c-184 0 -209 92 -209 218c0 136 43 221 283 221s285 -91 285 -246c0 -185 -167 -368 -275 -450h-200zM321 387c92 0 112 17 112 80c0 94 -29 97 -112 97c-96 0 -118 -10 -118 -88c0 -84 24 -89 118 -89z
" />
    <glyph glyph-name="zero.tf" horiz-adv-x="616" 
d="M308 -8c-257 0 -274 58 -274 352s17 352 274 352s274 -58 274 -352s-18 -352 -274 -352zM308 125c98 0 101 5 101 219s-3 219 -101 219s-102 -5 -102 -219s4 -219 102 -219z" />
    <glyph glyph-name="one.tf" horiz-adv-x="616" 
d="M80 0v133h168v381l-164 -57v133l219 98h118v-555h154v-133h-495z" />
    <glyph glyph-name="two.tf" horiz-adv-x="616" 
d="M229 153v-18h335v-135h-501v95c0 152 6 211 112 255l151 61c57 24 65 33 65 84c0 61 -25 68 -119 68c-44 0 -124 -6 -195 -15v126c64 13 165 22 242 22c133 0 245 -21 245 -191c0 -128 -42 -174 -115 -202l-171 -68c-18 -7 -32 -14 -39 -25c-8 -12 -10 -28 -10 -57z" />
    <glyph glyph-name="three.tf" horiz-adv-x="616" 
d="M278 -8c-67 0 -160 9 -220 21v124c71 -7 156 -12 204 -12c89 0 120 3 120 76c0 68 -20 81 -91 81h-115v132h115c62 0 85 11 85 74c0 71 -23 75 -124 75c-58 0 -138 -6 -190 -13v125c59 12 151 21 217 21c208 0 271 -64 271 -181c0 -100 -40 -144 -118 -162v-4
c79 -18 124 -53 124 -165c0 -116 -49 -192 -278 -192z" />
    <glyph glyph-name="four.tf" horiz-adv-x="616" 
d="M347 0v138h-326v119l234 431h186l-239 -417h149l49 167h117v-167h85v-133h-85v-138h-170z" />
    <glyph glyph-name="five.tf" horiz-adv-x="616" 
d="M292 -8c-66 0 -158 8 -221 21v124c68 -7 152 -12 201 -12c104 0 124 15 124 88c0 78 -24 87 -128 87c-53 0 -131 -4 -189 -11v399h441v-135h-291v-129c34 4 88 8 126 8c173 0 215 -75 215 -207c0 -163 -51 -233 -278 -233z" />
    <glyph glyph-name="six.tf" horiz-adv-x="616" 
d="M327 -8c-142 0 -217 14 -258 99c-21 46 -29 127 -29 251c0 104 6 180 28 233c37 91 114 121 266 121c56 0 148 -9 220 -22v-124c-73 7 -149 13 -188 13c-137 0 -154 -25 -154 -179h6c15 18 52 48 154 48c147 0 221 -33 221 -203c0 -173 -47 -237 -266 -237zM319 124
c89 0 109 7 109 86c0 83 -19 91 -109 91c-96 0 -104 -21 -104 -78c0 -95 25 -99 104 -99z" />
    <glyph glyph-name="seven.tf" horiz-adv-x="616" 
d="M128 0l251 553h-318v135h500v-123l-244 -565h-189z" />
    <glyph glyph-name="eight.tf" horiz-adv-x="616" 
d="M308 -8c-233 0 -284 73 -284 192c0 114 44 146 124 165v4c-80 18 -118 62 -118 162c0 118 63 181 278 181s278 -63 278 -181c0 -100 -39 -144 -118 -162v-4c80 -19 124 -51 124 -165c0 -119 -51 -192 -284 -192zM308 407c89 0 105 10 105 79c0 71 -15 81 -105 81
s-105 -10 -105 -81c0 -69 15 -79 105 -79zM308 121c88 0 111 8 111 82c0 76 -21 85 -111 85c-91 0 -111 -9 -111 -85c0 -74 22 -82 111 -82z" />
    <glyph glyph-name="nine.tf" horiz-adv-x="616" 
d="M290 -8c-58 0 -150 9 -220 22v124c73 -7 149 -13 188 -13c137 0 154 25 154 179h-6c-15 -18 -51 -48 -154 -48c-147 0 -221 33 -221 203c0 173 47 237 267 237c156 0 231 -16 263 -116c18 -55 24 -129 24 -234c0 -117 -9 -199 -37 -251c-41 -77 -118 -103 -258 -103z
M305 387c96 0 104 21 104 78c0 95 -25 99 -104 99c-88 0 -109 -7 -109 -86c0 -83 19 -91 109 -91z" />
    <glyph glyph-name="zero.tf.zero" horiz-adv-x="616" 
d="M308 696c257 0 274 -58 274 -352s-18 -352 -274 -352c-257 0 -274 58 -274 352s17 352 274 352zM308 563c-88 0 -100 -4 -102 -162h203c-1 158 -13 162 -101 162zM308 125c88 0 99 4 101 161h-203c2 -157 14 -161 102 -161z" />
    <glyph glyph-name="zero.tosf" horiz-adv-x="616" 
d="M308 -7c-231 0 -248 45 -248 299c0 255 17 300 248 300c232 0 249 -45 249 -300c0 -254 -17 -299 -249 -299zM308 114c86 0 88 5 88 178c0 174 -3 179 -88 179s-88 -5 -88 -179s3 -178 88 -178z" />
    <glyph glyph-name="one.tosf" horiz-adv-x="616" 
d="M102 0v121h151v305l-149 -47v121l200 85h110v-464h138v-121h-450z" />
    <glyph glyph-name="two.tosf" horiz-adv-x="616" 
d="M79 0v112c0 103 6 153 108 191l130 49c52 20 56 26 56 64c0 50 -23 55 -104 55c-40 0 -113 -6 -177 -13v114c58 12 152 20 220 20c122 0 223 -20 223 -165c0 -109 -39 -147 -104 -172l-154 -57c-39 -14 -43 -18 -43 -50v-25h301v-123h-456z" />
    <glyph glyph-name="three.tosf" horiz-adv-x="616" 
d="M281 -7c-62 0 -145 8 -199 18v113c63 -6 139 -10 183 -10c79 0 106 2 106 59s-22 64 -80 64h-104v118h104c50 0 75 5 75 58c0 55 -21 58 -110 58c-47 0 -120 -5 -171 -11v113c56 11 139 19 197 19c187 0 245 -54 245 -155c0 -84 -36 -122 -107 -137v-3
c74 -16 112 -47 112 -140c0 -100 -45 -164 -251 -164z" />
    <glyph glyph-name="four.tosf" horiz-adv-x="616" 
d="M340 0v114h-291v108l206 363h172l-212 -350h130l46 132h107v-132h76v-121h-76v-114h-158z" />
    <glyph glyph-name="five.tosf" horiz-adv-x="616" 
d="M293 -7c-58 0 -142 7 -200 18v113c61 -6 135 -10 181 -10c92 0 109 10 109 69c0 61 -21 68 -112 68c-48 0 -122 -4 -172 -10v344h400v-123h-261v-98c32 3 80 6 113 6c155 0 193 -65 193 -177c0 -138 -47 -200 -251 -200z" />
    <glyph glyph-name="six.tosf" horiz-adv-x="616" 
d="M320 -7c-128 0 -197 11 -233 85c-19 38 -27 103 -27 213c0 100 9 163 34 210c36 68 108 91 232 91c51 0 136 -8 199 -19v-113c-62 6 -131 11 -169 11c-120 0 -137 -19 -137 -142h6c20 23 60 41 137 41c131 0 199 -30 199 -174c0 -146 -43 -203 -241 -203zM313 113
c77 0 95 5 95 67c0 64 -17 71 -95 71c-84 0 -91 -17 -91 -62c0 -74 21 -76 91 -76z" />
    <glyph glyph-name="seven.tosf" horiz-adv-x="616" 
d="M139 0l243 462h-320v123h488v-112l-236 -473h-175z" />
    <glyph glyph-name="eight.tosf" horiz-adv-x="616" 
d="M308 -7c-210 0 -257 62 -257 164c0 94 40 123 113 140v3c-71 15 -107 51 -107 138c0 100 57 154 251 154s252 -54 252 -154c0 -85 -36 -123 -107 -138v-3c72 -17 112 -44 112 -140c0 -102 -47 -164 -257 -164zM308 348c78 0 92 8 92 63c0 56 -13 64 -92 64
c-78 0 -91 -8 -91 -64c0 -55 13 -63 91 -63zM308 110c78 0 98 6 98 65c0 61 -19 67 -98 67s-96 -6 -96 -67c0 -59 19 -65 96 -65z" />
    <glyph glyph-name="nine.tosf" horiz-adv-x="616" 
d="M289 -7c-55 0 -136 8 -200 19v113c63 -6 135 -11 170 -11c121 0 136 20 136 141h-5c-19 -21 -56 -40 -138 -40c-131 0 -198 29 -198 174c0 146 43 203 241 203c119 0 185 -10 223 -68c28 -42 37 -113 37 -231c0 -91 -7 -152 -32 -207c-30 -65 -96 -93 -234 -93zM302 334
c83 0 91 17 91 62c0 74 -22 76 -91 76c-77 0 -96 -5 -96 -67c0 -65 18 -71 96 -71z" />
    <glyph glyph-name="zero.tosf.zero" horiz-adv-x="616" 
d="M308 592c232 0 249 -45 249 -300c0 -254 -17 -299 -249 -299c-231 0 -248 45 -248 299c0 255 17 300 248 300zM308 471c-75 0 -86 -4 -88 -125h176c-2 121 -13 125 -88 125zM308 114c77 0 87 4 88 127h-176c2 -124 12 -127 88 -127z" />
    <glyph glyph-name="zero.zero" horiz-adv-x="658" 
d="M329 -8c-257 0 -269 58 -269 352s12 352 269 352s269 -58 269 -352s-12 -352 -269 -352zM229 401h200c-1 157 -10 162 -100 162s-99 -5 -100 -162zM329 125c90 0 99 4 100 161h-200c1 -157 10 -161 100 -161z" />
    <glyph glyph-name="uni2080" unicode="&#x2080;" horiz-adv-x="377" 
d="M189 -104c-144 0 -155 23 -155 194c0 170 11 194 155 194c143 0 155 -24 155 -194c0 -171 -11 -194 -155 -194zM189 -29c51 0 52 2 52 119c0 116 -1 118 -52 118c-52 0 -52 -2 -52 -118c0 -117 0 -119 52 -119z" />
    <glyph glyph-name="uni2081" unicode="&#x2081;" horiz-adv-x="229" 
d="M83 -100v281l-72 -30v78l102 50h68v-379h-98z" />
    <glyph glyph-name="uni2082" unicode="&#x2082;" horiz-adv-x="350" 
d="M32 -100v67c0 66 2 102 64 128l84 33c32 13 33 16 33 44c0 33 -12 36 -61 36c-25 0 -70 -2 -112 -7v71c36 7 93 12 137 12c75 0 139 -11 139 -106c0 -68 -19 -94 -71 -114l-93 -37c-20 -7 -21 -13 -21 -30v-20h185v-77h-284z" />
    <glyph glyph-name="uni2083" unicode="&#x2083;" horiz-adv-x="347" 
d="M156 -104c-37 0 -90 4 -125 11v71c39 -4 87 -7 114 -7c48 0 65 3 65 40c0 38 -11 44 -49 44h-65v74h65c34 0 46 6 46 40c0 36 -13 39 -68 39c-31 0 -75 -2 -106 -6v71c34 6 87 11 123 11c117 0 154 -32 154 -100c0 -55 -23 -79 -67 -89v-3c45 -9 70 -29 70 -91
c0 -67 -29 -105 -157 -105z" />
    <glyph glyph-name="uni2084" unicode="&#x2084;" horiz-adv-x="367" 
d="M205 -100v75h-184v67l124 237h110l-129 -229h82l30 90h66v-90h47v-75h-47v-75h-99z" />
    <glyph glyph-name="uni2085" unicode="&#x2085;" horiz-adv-x="358" 
d="M168 -104c-36 0 -87 4 -125 11v70c36 -3 84 -6 111 -6c59 0 69 6 69 48c0 41 -11 46 -71 46c-29 0 -72 -2 -105 -5v219h251v-76h-163v-68c20 3 45 4 71 4c98 0 120 -42 120 -114c0 -89 -30 -129 -158 -129z" />
    <glyph glyph-name="uni2086" unicode="&#x2086;" horiz-adv-x="375" 
d="M196 -104c-84 0 -129 8 -151 68c-8 23 -11 65 -11 125c0 53 3 93 13 121c21 57 65 74 154 74c31 0 82 -4 124 -12v-70c-42 3 -84 6 -106 6c-74 0 -84 -12 -84 -95h4c8 9 27 26 85 26c81 0 124 -16 124 -112c0 -95 -28 -131 -152 -131zM193 -30c47 0 58 3 58 47
s-9 48 -58 48c-52 0 -56 -10 -56 -42c0 -51 13 -53 56 -53z" />
    <glyph glyph-name="uni2087" unicode="&#x2087;" horiz-adv-x="326" 
d="M57 -100l141 303h-177v76h283v-69l-136 -310h-111z" />
    <glyph glyph-name="uni2088" unicode="&#x2088;" horiz-adv-x="387" 
d="M193 -104c-131 0 -160 38 -160 105c0 63 24 81 70 91v3c-46 9 -67 34 -67 89c0 68 37 100 157 100c122 0 158 -32 158 -100c0 -55 -22 -80 -66 -89v-3c45 -10 70 -28 70 -91c0 -67 -30 -105 -162 -105zM194 124c47 0 56 6 56 43c0 39 -8 45 -56 45c-49 0 -57 -6 -57 -45
c0 -37 9 -43 57 -43zM194 -32c48 0 59 5 59 45c0 41 -10 47 -59 47s-60 -6 -60 -47c0 -40 12 -45 60 -45z" />
    <glyph glyph-name="uni2089" unicode="&#x2089;" horiz-adv-x="375" 
d="M174 -104c-32 0 -85 4 -124 11v71c42 -4 84 -7 106 -7c74 0 84 13 84 95h-3c-8 -9 -28 -26 -85 -26c-81 0 -124 17 -124 112s27 132 151 132c90 0 135 -9 151 -69c9 -32 12 -71 12 -124c0 -59 -5 -102 -18 -131c-23 -49 -67 -64 -150 -64zM183 114c51 0 56 11 56 43
c0 50 -13 53 -56 53c-48 0 -59 -4 -59 -47c0 -45 10 -49 59 -49z" />
    <glyph glyph-name="zero.dnom" horiz-adv-x="377" 
d="M189 -4c-144 0 -155 23 -155 194c0 170 11 194 155 194c143 0 155 -24 155 -194c0 -171 -11 -194 -155 -194zM189 71c51 0 52 2 52 119c0 116 -1 118 -52 118c-52 0 -52 -2 -52 -118c0 -117 0 -119 52 -119z" />
    <glyph glyph-name="one.dnom" horiz-adv-x="229" 
d="M83 0v281l-72 -30v78l102 50h68v-379h-98z" />
    <glyph glyph-name="two.dnom" horiz-adv-x="350" 
d="M32 0v67c0 66 2 102 64 128l84 33c32 13 33 16 33 44c0 33 -12 36 -61 36c-25 0 -70 -2 -112 -7v71c36 7 93 12 137 12c75 0 139 -11 139 -106c0 -68 -19 -94 -71 -114l-93 -37c-20 -7 -21 -13 -21 -30v-20h185v-77h-284z" />
    <glyph glyph-name="three.dnom" horiz-adv-x="347" 
d="M156 -4c-37 0 -90 4 -125 11v71c39 -4 87 -7 114 -7c48 0 65 3 65 40c0 38 -11 44 -49 44h-65v74h65c34 0 46 6 46 40c0 36 -13 39 -68 39c-31 0 -75 -2 -106 -6v71c34 6 87 11 123 11c117 0 154 -32 154 -100c0 -55 -23 -79 -67 -89v-3c45 -9 70 -29 70 -91
c0 -67 -29 -105 -157 -105z" />
    <glyph glyph-name="four.dnom" horiz-adv-x="367" 
d="M205 0v75h-184v67l124 237h110l-129 -229h82l30 90h66v-90h47v-75h-47v-75h-99z" />
    <glyph glyph-name="five.dnom" horiz-adv-x="358" 
d="M168 -4c-36 0 -87 4 -125 11v70c36 -3 84 -6 111 -6c59 0 69 6 69 48c0 41 -11 46 -71 46c-29 0 -72 -2 -105 -5v219h251v-76h-163v-68c20 3 45 4 71 4c98 0 120 -42 120 -114c0 -89 -30 -129 -158 -129z" />
    <glyph glyph-name="six.dnom" horiz-adv-x="375" 
d="M196 -4c-84 0 -129 8 -151 68c-8 23 -11 65 -11 125c0 53 3 93 13 121c21 57 65 74 154 74c31 0 82 -4 124 -12v-70c-42 3 -84 6 -106 6c-74 0 -84 -12 -84 -95h4c8 9 27 26 85 26c81 0 124 -16 124 -112c0 -95 -28 -131 -152 -131zM193 70c47 0 58 3 58 47s-9 48 -58 48
c-52 0 -56 -10 -56 -42c0 -51 13 -53 56 -53z" />
    <glyph glyph-name="seven.dnom" horiz-adv-x="326" 
d="M57 0l141 303h-177v76h283v-69l-136 -310h-111z" />
    <glyph glyph-name="eight.dnom" horiz-adv-x="387" 
d="M193 -4c-131 0 -160 38 -160 105c0 63 24 81 70 91v3c-46 9 -67 34 -67 89c0 68 37 100 157 100c122 0 158 -32 158 -100c0 -55 -22 -80 -66 -89v-3c45 -10 70 -28 70 -91c0 -67 -30 -105 -162 -105zM194 224c47 0 56 6 56 43c0 39 -8 45 -56 45c-49 0 -57 -6 -57 -45
c0 -37 9 -43 57 -43zM194 68c48 0 59 5 59 45c0 41 -10 47 -59 47s-60 -6 -60 -47c0 -40 12 -45 60 -45z" />
    <glyph glyph-name="nine.dnom" horiz-adv-x="375" 
d="M174 -4c-32 0 -85 4 -124 11v71c42 -4 84 -7 106 -7c74 0 84 13 84 95h-3c-8 -9 -28 -26 -85 -26c-81 0 -124 17 -124 112s27 132 151 132c90 0 135 -9 151 -69c9 -32 12 -71 12 -124c0 -59 -5 -102 -18 -131c-23 -49 -67 -64 -150 -64zM183 214c51 0 56 11 56 43
c0 50 -13 53 -56 53c-48 0 -59 -4 -59 -47c0 -45 10 -49 59 -49z" />
    <glyph glyph-name="zero.numr" horiz-adv-x="377" 
d="M189 304c-144 0 -155 23 -155 194c0 170 11 194 155 194c143 0 155 -24 155 -194c0 -171 -11 -194 -155 -194zM189 379c51 0 52 2 52 119c0 116 -1 118 -52 118c-52 0 -52 -2 -52 -118c0 -117 0 -119 52 -119z" />
    <glyph glyph-name="one.numr" horiz-adv-x="229" 
d="M83 308v281l-72 -30v78l102 50h68v-379h-98z" />
    <glyph glyph-name="two.numr" horiz-adv-x="350" 
d="M32 308v67c0 66 2 102 64 128l84 33c32 13 33 16 33 44c0 33 -12 36 -61 36c-25 0 -70 -2 -112 -7v71c36 7 93 12 137 12c75 0 139 -11 139 -106c0 -68 -19 -94 -71 -114l-93 -37c-20 -7 -21 -13 -21 -30v-20h185v-77h-284z" />
    <glyph glyph-name="three.numr" horiz-adv-x="347" 
d="M156 304c-37 0 -90 4 -125 11v71c39 -4 87 -7 114 -7c48 0 65 3 65 40c0 38 -11 44 -49 44h-65v74h65c34 0 46 6 46 40c0 36 -13 39 -68 39c-31 0 -75 -2 -106 -6v71c34 6 87 11 123 11c117 0 154 -32 154 -100c0 -55 -23 -79 -67 -89v-3c45 -9 70 -29 70 -91
c0 -67 -29 -105 -157 -105z" />
    <glyph glyph-name="four.numr" horiz-adv-x="367" 
d="M205 308v75h-184v67l124 237h110l-129 -229h82l30 90h66v-90h47v-75h-47v-75h-99z" />
    <glyph glyph-name="five.numr" horiz-adv-x="358" 
d="M168 304c-36 0 -87 4 -125 11v70c36 -3 84 -6 111 -6c59 0 69 6 69 48c0 41 -11 46 -71 46c-29 0 -72 -2 -105 -5v219h251v-76h-163v-68c20 3 45 4 71 4c98 0 120 -42 120 -114c0 -89 -30 -129 -158 -129z" />
    <glyph glyph-name="six.numr" horiz-adv-x="375" 
d="M196 304c-84 0 -129 8 -151 68c-8 23 -11 65 -11 125c0 53 3 93 13 121c21 57 65 74 154 74c31 0 82 -4 124 -12v-70c-42 3 -84 6 -106 6c-74 0 -84 -12 -84 -95h4c8 9 27 26 85 26c81 0 124 -16 124 -112c0 -95 -28 -131 -152 -131zM193 378c47 0 58 3 58 47
s-9 48 -58 48c-52 0 -56 -10 -56 -42c0 -51 13 -53 56 -53z" />
    <glyph glyph-name="seven.numr" horiz-adv-x="326" 
d="M57 308l141 303h-177v76h283v-69l-136 -310h-111z" />
    <glyph glyph-name="eight.numr" horiz-adv-x="387" 
d="M193 304c-131 0 -160 38 -160 105c0 63 24 81 70 91v3c-46 9 -67 34 -67 89c0 68 37 100 157 100c122 0 158 -32 158 -100c0 -55 -22 -80 -66 -89v-3c45 -10 70 -28 70 -91c0 -67 -30 -105 -162 -105zM194 532c47 0 56 6 56 43c0 39 -8 45 -56 45c-49 0 -57 -6 -57 -45
c0 -37 9 -43 57 -43zM194 376c48 0 59 5 59 45c0 41 -10 47 -59 47s-60 -6 -60 -47c0 -40 12 -45 60 -45z" />
    <glyph glyph-name="nine.numr" horiz-adv-x="375" 
d="M174 304c-32 0 -85 4 -124 11v71c42 -4 84 -7 106 -7c74 0 84 13 84 95h-3c-8 -9 -28 -26 -85 -26c-81 0 -124 17 -124 112s27 132 151 132c90 0 135 -9 151 -69c9 -32 12 -71 12 -124c0 -59 -5 -102 -18 -131c-23 -49 -67 -64 -150 -64zM183 522c51 0 56 11 56 43
c0 50 -13 53 -56 53c-48 0 -59 -4 -59 -47c0 -45 10 -49 59 -49z" />
    <glyph glyph-name="uni2070" unicode="&#x2070;" horiz-adv-x="377" 
d="M189 416c-144 0 -155 23 -155 194c0 170 11 194 155 194c143 0 155 -24 155 -194c0 -171 -11 -194 -155 -194zM189 491c51 0 52 2 52 119c0 116 -1 118 -52 118c-52 0 -52 -2 -52 -118c0 -117 0 -119 52 -119z" />
    <glyph glyph-name="uni00B9" unicode="&#xb9;" horiz-adv-x="229" 
d="M83 420v281l-72 -30v78l102 50h68v-379h-98z" />
    <glyph glyph-name="uni00B2" unicode="&#xb2;" horiz-adv-x="350" 
d="M32 420v67c0 66 2 102 64 128l84 33c32 13 33 16 33 44c0 33 -12 36 -61 36c-25 0 -70 -2 -112 -7v71c36 7 93 12 137 12c75 0 139 -11 139 -106c0 -68 -19 -94 -71 -114l-93 -37c-20 -7 -21 -13 -21 -30v-20h185v-77h-284z" />
    <glyph glyph-name="uni00B3" unicode="&#xb3;" horiz-adv-x="347" 
d="M156 416c-37 0 -90 4 -125 11v71c39 -4 87 -7 114 -7c48 0 65 3 65 40c0 38 -11 44 -49 44h-65v74h65c34 0 46 6 46 40c0 36 -13 39 -68 39c-31 0 -75 -2 -106 -6v71c34 6 87 11 123 11c117 0 154 -32 154 -100c0 -55 -23 -79 -67 -89v-3c45 -9 70 -29 70 -91
c0 -67 -29 -105 -157 -105z" />
    <glyph glyph-name="uni2074" unicode="&#x2074;" horiz-adv-x="367" 
d="M205 420v75h-184v67l124 237h110l-129 -229h82l30 90h66v-90h47v-75h-47v-75h-99z" />
    <glyph glyph-name="uni2075" unicode="&#x2075;" horiz-adv-x="358" 
d="M168 416c-36 0 -87 4 -125 11v70c36 -3 84 -6 111 -6c59 0 69 6 69 48c0 41 -11 46 -71 46c-29 0 -72 -2 -105 -5v219h251v-76h-163v-68c20 3 45 4 71 4c98 0 120 -42 120 -114c0 -89 -30 -129 -158 -129z" />
    <glyph glyph-name="uni2076" unicode="&#x2076;" horiz-adv-x="375" 
d="M196 416c-84 0 -129 8 -151 68c-8 23 -11 65 -11 125c0 53 3 93 13 121c21 57 65 74 154 74c31 0 82 -4 124 -12v-70c-42 3 -84 6 -106 6c-74 0 -84 -12 -84 -95h4c8 9 27 26 85 26c81 0 124 -16 124 -112c0 -95 -28 -131 -152 -131zM193 490c47 0 58 3 58 47
s-9 48 -58 48c-52 0 -56 -10 -56 -42c0 -51 13 -53 56 -53z" />
    <glyph glyph-name="uni2077" unicode="&#x2077;" horiz-adv-x="326" 
d="M57 420l141 303h-177v76h283v-69l-136 -310h-111z" />
    <glyph glyph-name="uni2078" unicode="&#x2078;" horiz-adv-x="387" 
d="M193 416c-131 0 -160 38 -160 105c0 63 24 81 70 91v3c-46 9 -67 34 -67 89c0 68 37 100 157 100c122 0 158 -32 158 -100c0 -55 -22 -80 -66 -89v-3c45 -10 70 -28 70 -91c0 -67 -30 -105 -162 -105zM194 644c47 0 56 6 56 43c0 39 -8 45 -56 45c-49 0 -57 -6 -57 -45
c0 -37 9 -43 57 -43zM194 488c48 0 59 5 59 45c0 41 -10 47 -59 47s-60 -6 -60 -47c0 -40 12 -45 60 -45z" />
    <glyph glyph-name="uni2079" unicode="&#x2079;" horiz-adv-x="375" 
d="M174 416c-32 0 -85 4 -124 11v71c42 -4 84 -7 106 -7c74 0 84 13 84 95h-3c-8 -9 -28 -26 -85 -26c-81 0 -124 17 -124 112s27 132 151 132c90 0 135 -9 151 -69c9 -32 12 -71 12 -124c0 -59 -5 -102 -18 -131c-23 -49 -67 -64 -150 -64zM183 634c51 0 56 11 56 43
c0 50 -13 53 -56 53c-48 0 -59 -4 -59 -47c0 -45 10 -49 59 -49z" />
    <glyph glyph-name="fraction" unicode="&#x2044;" horiz-adv-x="161" 
d="M-193 0l446 688h101l-446 -688h-101z" />
    <glyph glyph-name="onehalf" unicode="&#xbd;" horiz-adv-x="740" 
d="M36 0l446 688h101l-446 -688h-101zM83 308v281l-72 -30v78l102 50h68v-379h-98zM422 0v67c0 66 2 102 64 128l84 33c32 13 33 16 33 44c0 33 -12 36 -61 36c-25 0 -70 -2 -112 -7v71c36 7 93 12 137 12c75 0 139 -11 139 -106c0 -68 -19 -94 -71 -114l-93 -37
c-20 -7 -21 -13 -21 -30v-20h185v-77h-284z" />
    <glyph glyph-name="uni2153" unicode="&#x2153;" horiz-adv-x="737" 
d="M36 0l446 688h101l-446 -688h-101zM83 308v281l-72 -30v78l102 50h68v-379h-98zM546 -4c-37 0 -90 4 -125 11v71c39 -4 87 -7 114 -7c48 0 65 3 65 40c0 38 -11 44 -49 44h-65v74h65c34 0 46 6 46 40c0 36 -13 39 -68 39c-31 0 -75 -2 -106 -6v71c34 6 87 11 123 11
c117 0 154 -32 154 -100c0 -55 -23 -79 -67 -89v-3c45 -9 70 -29 70 -91c0 -67 -29 -105 -157 -105z" />
    <glyph glyph-name="uni2154" unicode="&#x2154;" horiz-adv-x="858" 
d="M32 308v67c0 66 2 102 64 128l84 33c32 13 33 16 33 44c0 33 -12 36 -61 36c-25 0 -70 -2 -112 -7v71c36 7 93 12 137 12c75 0 139 -11 139 -106c0 -68 -19 -94 -71 -114l-93 -37c-20 -7 -21 -13 -21 -30v-20h185v-77h-284zM157 0l446 688h101l-446 -688h-101zM667 -4
c-37 0 -90 4 -125 11v71c39 -4 87 -7 114 -7c48 0 65 3 65 40c0 38 -11 44 -49 44h-65v74h65c34 0 46 6 46 40c0 36 -13 39 -68 39c-31 0 -75 -2 -106 -6v71c34 6 87 11 123 11c117 0 154 -32 154 -100c0 -55 -23 -79 -67 -89v-3c45 -9 70 -29 70 -91
c0 -67 -29 -105 -157 -105z" />
    <glyph glyph-name="onequarter" unicode="&#xbc;" horiz-adv-x="697" 
d="M36 0l446 688h101l-446 -688h-101zM83 308v281l-72 -30v78l102 50h68v-379h-98zM534 0v75h-184v67l124 237h110l-129 -229h82l30 90h66v-90h47v-75h-47v-75h-99z" />
    <glyph glyph-name="threequarters" unicode="&#xbe;" horiz-adv-x="815" 
d="M156 304c-37 0 -90 4 -125 11v71c39 -4 87 -7 114 -7c48 0 65 3 65 40c0 38 -11 44 -49 44h-65v74h65c34 0 46 6 46 40c0 36 -13 39 -68 39c-31 0 -75 -2 -106 -6v71c34 6 87 11 123 11c117 0 154 -32 154 -100c0 -55 -23 -79 -67 -89v-3c45 -9 70 -29 70 -91
c0 -67 -29 -105 -157 -105zM154 0l446 688h101l-446 -688h-101zM652 0v75h-184v67l124 237h110l-129 -229h82l30 90h66v-90h47v-75h-47v-75h-99z" />
    <glyph glyph-name="oneeighth" unicode="&#x215b;" horiz-adv-x="778" 
d="M36 0l446 688h101l-446 -688h-101zM83 308v281l-72 -30v78l102 50h68v-379h-98zM583 -4c-131 0 -160 38 -160 105c0 63 24 81 70 91v3c-46 9 -67 34 -67 89c0 68 37 100 157 100c122 0 158 -32 158 -100c0 -55 -22 -80 -66 -89v-3c45 -10 70 -28 70 -91
c0 -67 -30 -105 -162 -105zM584 224c47 0 56 6 56 43c0 39 -8 45 -56 45c-49 0 -57 -6 -57 -45c0 -37 9 -43 57 -43zM584 68c48 0 59 5 59 45c0 41 -10 47 -59 47s-60 -6 -60 -47c0 -40 12 -45 60 -45z" />
    <glyph glyph-name="threeeighths" unicode="&#x215c;" horiz-adv-x="896" 
d="M156 304c-37 0 -90 4 -125 11v71c39 -4 87 -7 114 -7c48 0 65 3 65 40c0 38 -11 44 -49 44h-65v74h65c34 0 46 6 46 40c0 36 -13 39 -68 39c-31 0 -75 -2 -106 -6v71c34 6 87 11 123 11c117 0 154 -32 154 -100c0 -55 -23 -79 -67 -89v-3c45 -9 70 -29 70 -91
c0 -67 -29 -105 -157 -105zM154 0l446 688h101l-446 -688h-101zM701 -4c-131 0 -160 38 -160 105c0 63 24 81 70 91v3c-46 9 -67 34 -67 89c0 68 37 100 157 100c122 0 158 -32 158 -100c0 -55 -22 -80 -66 -89v-3c45 -10 70 -28 70 -91c0 -67 -30 -105 -162 -105zM702 224
c47 0 56 6 56 43c0 39 -8 45 -56 45c-49 0 -57 -6 -57 -45c0 -37 9 -43 57 -43zM702 68c48 0 59 5 59 45c0 41 -10 47 -59 47s-60 -6 -60 -47c0 -40 12 -45 60 -45z" />
    <glyph glyph-name="fiveeighths" unicode="&#x215d;" horiz-adv-x="907" 
d="M165 0l446 688h101l-446 -688h-101zM168 304c-36 0 -87 4 -125 11v70c36 -3 84 -6 111 -6c59 0 69 6 69 48c0 41 -11 46 -71 46c-29 0 -72 -2 -105 -5v219h251v-76h-163v-68c20 3 45 4 71 4c98 0 120 -42 120 -114c0 -89 -30 -129 -158 -129zM712 -4
c-131 0 -160 38 -160 105c0 63 24 81 70 91v3c-46 9 -67 34 -67 89c0 68 37 100 157 100c122 0 158 -32 158 -100c0 -55 -22 -80 -66 -89v-3c45 -10 70 -28 70 -91c0 -67 -30 -105 -162 -105zM713 224c47 0 56 6 56 43c0 39 -8 45 -56 45c-49 0 -57 -6 -57 -45
c0 -37 9 -43 57 -43zM713 68c48 0 59 5 59 45c0 41 -10 47 -59 47s-60 -6 -60 -47c0 -40 12 -45 60 -45z" />
    <glyph glyph-name="seveneighths" unicode="&#x215e;" horiz-adv-x="832" 
d="M90 0l446 688h101l-446 -688h-101zM57 308l141 303h-177v76h283v-69l-136 -310h-111zM637 -4c-131 0 -160 38 -160 105c0 63 24 81 70 91v3c-46 9 -67 34 -67 89c0 68 37 100 157 100c122 0 158 -32 158 -100c0 -55 -22 -80 -66 -89v-3c45 -10 70 -28 70 -91
c0 -67 -30 -105 -162 -105zM638 224c47 0 56 6 56 43c0 39 -8 45 -56 45c-49 0 -57 -6 -57 -45c0 -37 9 -43 57 -43zM638 68c48 0 59 5 59 45c0 41 -10 47 -59 47s-60 -6 -60 -47c0 -40 12 -45 60 -45z" />
    <glyph glyph-name="period" unicode="." horiz-adv-x="298" 
d="M64 0v145h170v-145h-170z" />
    <glyph glyph-name="comma" unicode="," horiz-adv-x="298" 
d="M56 -147v64c58 0 69 13 69 67v16h-61v145h170v-108c0 -147 -21 -184 -178 -184z" />
    <glyph glyph-name="colon" unicode=":" horiz-adv-x="298" 
d="M64 365v145h170v-145h-170zM64 0v145h170v-145h-170z" />
    <glyph glyph-name="semicolon" unicode=";" horiz-adv-x="298" 
d="M64 365v145h170v-145h-170zM56 -147v64c58 0 69 13 69 67v16h-61v145h170v-108c0 -147 -21 -184 -178 -184z" />
    <glyph glyph-name="ellipsis" unicode="&#x2026;" horiz-adv-x="893" 
d="M64 0v145h170v-145h-170zM361 0v145h171v-145h-171zM660 0v145h170v-145h-170z" />
    <glyph glyph-name="exclam" unicode="!" horiz-adv-x="328" 
d="M112 232c-11 92 -33 351 -33 412v44h185v-44c0 -61 -22 -320 -33 -412h-119zM86 0v145h171v-145h-171z" />
    <glyph glyph-name="exclamdown" unicode="&#xa1;" horiz-adv-x="313" 
d="M71 365v145h170v-145h-170zM63 -178v44c0 61 23 320 33 412h119c11 -92 33 -351 33 -412v-44h-185z" />
    <glyph glyph-name="question" unicode="?" horiz-adv-x="513" 
d="M136 232v68c0 78 24 101 70 117l32 11c42 14 50 21 50 73c0 60 -23 62 -96 62c-41 0 -116 -5 -156 -11v126c56 11 142 18 206 18c134 0 215 -34 215 -187c0 -111 -40 -142 -96 -162l-34 -11c-45 -16 -48 -17 -48 -73v-31h-143zM123 0v145h170v-145h-170z" />
    <glyph glyph-name="questiondown" unicode="&#xbf;" horiz-adv-x="456" 
d="M217 365v145h170v-145h-170zM268 -186c-153 0 -215 46 -215 187c0 95 25 137 85 158l42 15c48 16 51 16 51 73v31h143v-68c0 -78 -24 -101 -70 -117l-28 -10c-46 -15 -53 -22 -53 -74c0 -60 23 -62 95 -62c41 0 109 5 156 11v-126c-56 -11 -142 -18 -206 -18z" />
    <glyph glyph-name="periodcentered" unicode="&#xb7;" horiz-adv-x="297" 
d="M64 227v145h170v-145h-170z" />
    <glyph glyph-name="bullet" unicode="&#x2022;" horiz-adv-x="391" 
d="M194 222c-115 0 -120 16 -120 120c0 106 5 123 120 123c118 0 122 -17 122 -123c0 -104 -4 -120 -122 -120z" />
    <glyph glyph-name="asterisk" unicode="*" horiz-adv-x="449" 
d="M183 321l11 129l-109 -75l-42 73l119 55l-119 58l42 72l109 -75l-11 130h83l-11 -129l110 74l41 -72l-120 -58l120 -55l-41 -73l-110 75l11 -129h-83z" />
    <glyph glyph-name="exclamdbl" unicode="&#x203c;" horiz-adv-x="585" 
d="M112 232c-11 92 -33 351 -33 412v44h185v-44c0 -61 -22 -320 -33 -412h-119zM369 232c-11 92 -33 351 -33 412v44h185v-44c0 -61 -22 -320 -33 -412h-119zM86 0v145h171v-145h-171zM344 0v145h170v-145h-170z" />
    <glyph glyph-name="numbersign" unicode="#" horiz-adv-x="723" 
d="M100 0l40 176h-88v99h110l31 136h-104v99h127l41 178h107l-42 -178h127l41 178h106l-41 -178h89v-99h-112l-31 -136h106v-99h-128l-40 -176h-107l40 176h-126l-40 -176h-106zM269 275h126l31 136h-126z" />
    <glyph glyph-name="slash" unicode="/" horiz-adv-x="407" 
d="M-9 -55l288 798h136l-289 -798h-135z" />
    <glyph glyph-name="backslash" unicode="\" horiz-adv-x="407" 
d="M280 -55l-289 798h136l288 -798h-135z" />
    <glyph glyph-name="exclam.case" horiz-adv-x="328" 
d="M112 232c-11 92 -33 351 -33 412v44h185v-44c0 -61 -22 -320 -33 -412h-119zM86 0v145h171v-145h-171z" />
    <glyph glyph-name="exclamdown.case" horiz-adv-x="327" 
d="M72 543v145h170v-145h-170zM64 0v44c0 61 23 320 34 412h118c11 -92 33 -351 33 -412v-44h-185z" />
    <glyph glyph-name="question.case" horiz-adv-x="513" 
d="M136 232v68c0 78 24 101 70 117l32 11c42 14 50 21 50 73c0 60 -23 62 -96 62c-41 0 -116 -5 -156 -11v126c56 11 142 18 206 18c134 0 215 -34 215 -187c0 -111 -40 -142 -96 -162l-34 -11c-45 -16 -48 -17 -48 -73v-31h-143zM123 0v145h170v-145h-170z" />
    <glyph glyph-name="questiondown.case" horiz-adv-x="513" 
d="M222 543v145h170v-145h-170zM274 -8c-153 0 -216 46 -216 187c0 95 26 137 86 158l42 15c47 16 51 16 51 73v31h142v-68c0 -78 -23 -101 -69 -117l-28 -10c-47 -15 -54 -22 -54 -74c0 -60 23 -62 95 -62c42 0 109 5 157 11v-126c-57 -11 -142 -18 -206 -18z" />
    <glyph glyph-name="periodcentered.loclCAT.case" horiz-adv-x="278" 
d="M64 227v145h151v-145h-151z" />
    <glyph glyph-name="periodcentered.loclCAT" horiz-adv-x="278" 
d="M64 227v145h151v-145h-151z" />
    <glyph glyph-name="exclam.ss02" horiz-adv-x="794" 
d="M397 -8c-194 0 -352 158 -352 352s158 352 352 352s352 -158 352 -352s-158 -352 -352 -352zM397 37c169 0 307 138 307 307s-138 307 -307 307s-307 -138 -307 -307s138 -307 307 -307zM377 268c-4 24 -14 115 -14 212v99h68v-99c0 -97 -10 -188 -14 -212h-40zM363 109
v82h68v-82h-68z" />
    <glyph glyph-name="bullet.ss02" horiz-adv-x="783" 
d="M392 421c-63 0 -113 39 -113 112c0 90 76 163 113 163c36 0 112 -73 112 -163c0 -73 -50 -112 -112 -112zM392 481c29 0 52 18 52 52c0 57 -35 103 -52 103s-53 -46 -53 -103c0 -34 23 -52 53 -52zM203 231c-90 0 -163 76 -163 113c0 36 73 112 163 112
c73 0 112 -50 112 -112c0 -63 -39 -113 -112 -113zM581 231c-74 0 -113 50 -113 113c0 62 39 112 113 112c89 0 162 -76 162 -112c0 -37 -73 -113 -162 -113zM203 291c34 0 52 23 52 53c0 29 -18 52 -52 52c-57 0 -103 -35 -103 -52s46 -53 103 -53zM581 291
c56 0 102 36 102 53s-46 52 -102 52c-35 0 -53 -23 -53 -52c0 -30 18 -53 53 -53zM392 -8c-37 0 -113 73 -113 163c0 73 50 112 113 112c62 0 112 -39 112 -112c0 -90 -76 -163 -112 -163zM392 52c17 0 52 46 52 103c0 34 -23 52 -52 52c-30 0 -53 -18 -53 -52
c0 -57 36 -103 53 -103z" />
    <glyph glyph-name="asterisk.ss02" horiz-adv-x="817" 
d="M178 -14l91 276l-234 174h287l87 269l85 -269h288l-232 -174l90 -276l-231 170z" />
    <glyph glyph-name="parenleft" unicode="(" horiz-adv-x="353" 
d="M228 -150c-122 134 -164 184 -164 447c0 262 42 320 164 446h105c-79 -104 -121 -151 -121 -446c0 -296 42 -343 121 -447h-105z" />
    <glyph glyph-name="parenright" unicode=")" horiz-adv-x="353" 
d="M20 -150c79 104 121 151 121 447c0 295 -42 342 -121 446h106c121 -126 163 -184 163 -446c0 -263 -42 -313 -163 -447h-106z" />
    <glyph glyph-name="braceleft" unicode="{" horiz-adv-x="363" 
d="M238 -150c-36 16 -129 87 -129 190v112c0 52 -13 104 -86 110v68c73 6 86 59 86 111v112c0 103 94 174 129 190h105c-22 -22 -91 -95 -91 -175v-122c0 -76 -35 -130 -119 -146v-7c84 -16 119 -70 119 -146v-122c0 -80 69 -153 91 -175h-105z" />
    <glyph glyph-name="braceright" unicode="}" horiz-adv-x="363" 
d="M19 -150c23 22 92 95 92 175v122c0 76 34 130 119 146v7c-85 16 -119 70 -119 146v122c0 80 -69 153 -92 175h106c35 -16 129 -87 129 -190v-112c0 -52 12 -105 86 -111v-68c-74 -6 -86 -58 -86 -110v-112c0 -103 -94 -174 -129 -190h-106z" />
    <glyph glyph-name="bracketleft" unicode="[" horiz-adv-x="379" 
d="M74 -150v893h261v-98l-119 -4v-689l119 -4v-98h-261z" />
    <glyph glyph-name="bracketright" unicode="]" horiz-adv-x="379" 
d="M44 -150v98l118 4v689l-118 4v98h261v-893h-261z" />
    <glyph glyph-name="parenleft.ss02" horiz-adv-x="397" 
d="M397 0c-207 0 -352 144 -352 348c0 205 145 348 352 348v-696z" />
    <glyph glyph-name="parenright.ss02" horiz-adv-x="397" 
d="M0 0v696c207 0 352 -143 352 -348c0 -204 -145 -348 -352 -348z" />
    <glyph glyph-name="bracketleft.ss02" horiz-adv-x="397" 
d="M45 0v348c0 205 145 348 352 348v-696h-352z" />
    <glyph glyph-name="bracketright.ss02" horiz-adv-x="397" 
d="M0 0v696c207 0 352 -143 352 -348v-348h-352z" />
    <glyph glyph-name="hyphen" unicode="-" horiz-adv-x="372" 
d="M50 220v129h271v-129h-271z" />
    <glyph glyph-name="uni00AD" unicode="&#xad;" horiz-adv-x="372" 
d="M50 220v129h271v-129h-271z" />
    <glyph glyph-name="endash" unicode="&#x2013;" horiz-adv-x="476" 
d="M44 247v114h388v-114h-388z" />
    <glyph glyph-name="emdash" unicode="&#x2014;" horiz-adv-x="876" 
d="M44 247v114h788v-114h-788z" />
    <glyph glyph-name="uni2010" unicode="&#x2010;" horiz-adv-x="600" 
d="M50 220v129h271v-129h-271z" />
    <glyph glyph-name="underscore" unicode="_" horiz-adv-x="387" 
d="M0 -185v115h387v-115h-387z" />
    <glyph glyph-name="underscoredbl" unicode="&#x2017;" horiz-adv-x="387" 
d="M0 -165v100h387v-100h-387zM0 -290v101h387v-101h-387z" />
    <glyph glyph-name="quotesinglbase" unicode="&#x201a;" horiz-adv-x="289" 
d="M57 -140v60c56 0 67 13 67 64v16h-60v136h161v-101c0 -139 -19 -175 -168 -175z" />
    <glyph glyph-name="quotedblbase" unicode="&#x201e;" horiz-adv-x="510" 
d="M57 -140v60c56 0 67 13 67 64v16h-60v136h161v-101c0 -139 -19 -175 -168 -175zM277 -140v60c56 0 67 13 67 64v16h-59v136h160v-101c0 -139 -18 -175 -168 -175z" />
    <glyph glyph-name="quotedblleft" unicode="&#x201c;" horiz-adv-x="510" 
d="M64 412v102c0 139 19 174 168 174v-60c-56 0 -67 -12 -67 -63v-16h60v-137h-161zM285 412v102c0 139 18 174 168 174v-60c-56 0 -67 -12 -67 -63v-16h59v-137h-160z" />
    <glyph glyph-name="quotedblright" unicode="&#x201d;" horiz-adv-x="510" 
d="M57 412v60c56 0 67 13 67 64v16h-60v136h161v-101c0 -139 -19 -175 -168 -175zM277 412v60c56 0 67 13 67 64v16h-59v136h160v-101c0 -139 -18 -175 -168 -175z" />
    <glyph glyph-name="quoteleft" unicode="&#x2018;" horiz-adv-x="289" 
d="M64 412v102c0 139 19 174 168 174v-60c-56 0 -67 -12 -67 -63v-16h60v-137h-161z" />
    <glyph glyph-name="quoteright" unicode="&#x2019;" horiz-adv-x="289" 
d="M57 412v60c56 0 67 13 67 64v16h-60v136h161v-101c0 -139 -19 -175 -168 -175z" />
    <glyph glyph-name="guillemotleft" unicode="&#xab;" horiz-adv-x="501" 
d="M155 99l-131 205l131 206h102l-104 -206l104 -205h-102zM347 99l-131 205l131 206h102l-103 -206l103 -205h-102z" />
    <glyph glyph-name="guillemotright" unicode="&#xbb;" horiz-adv-x="501" 
d="M52 99l104 205l-104 206h102l131 -206l-131 -205h-102zM244 99l104 205l-104 206h102l131 -206l-131 -205h-102z" />
    <glyph glyph-name="guilsinglleft" unicode="&#x2039;" horiz-adv-x="309" 
d="M154 99l-131 205l131 206h103l-104 -206l104 -205h-103z" />
    <glyph glyph-name="guilsinglright" unicode="&#x203a;" horiz-adv-x="309" 
d="M52 99l104 205l-104 206h103l131 -206l-131 -205h-103z" />
    <glyph glyph-name="quotedbl" unicode="&#x22;" horiz-adv-x="472" 
d="M82 429l-17 202v57h142v-57l-17 -202h-108zM281 429l-17 202v57h143v-57l-17 -202h-109z" />
    <glyph glyph-name="quotesingle" unicode="'" horiz-adv-x="272" 
d="M82 429l-17 202v57h142v-57l-17 -202h-108z" />
    <glyph glyph-name="uni27E8" unicode="&#x27e8;" horiz-adv-x="315" 
d="M172 -62l-147 406l147 406h136l-147 -406l146 -406h-135z" />
    <glyph glyph-name="uni27E9" unicode="&#x27e9;" horiz-adv-x="315" 
d="M8 -62l146 406l-147 406h136l147 -406l-147 -406h-135z" />
    <glyph glyph-name="uni2003" unicode="&#x2003;" horiz-adv-x="1000" 
 />
    <glyph glyph-name="uni2002" unicode="&#x2002;" horiz-adv-x="300" 
 />
    <glyph glyph-name="uni2005" unicode="&#x2005;" horiz-adv-x="250" 
 />
    <glyph glyph-name="uni00A0" unicode="&#xa0;" horiz-adv-x="251" 
 />
    <glyph glyph-name="uni2004" unicode="&#x2004;" horiz-adv-x="333" 
 />
    <glyph glyph-name="uni20B5" unicode="&#x20b5;" horiz-adv-x="566" 
d="M523 134v-127c-31 -6 -75 -11 -119 -13v-77h-117v77c-203 12 -232 96 -232 350s29 338 232 350v77h117v-77c43 -3 86 -9 115 -16v-124c-63 6 -107 9 -133 9c-150 0 -158 -18 -158 -219s8 -219 158 -219c42 0 99 4 137 9z" />
    <glyph glyph-name="cent" unicode="&#xa2;" horiz-adv-x="466" 
d="M420 201v-117c-26 -7 -51 -13 -91 -15v-77h-116v78c-134 15 -163 103 -163 272c0 152 27 258 163 274v80h116v-80c27 -2 54 -7 87 -15v-117c-26 4 -70 7 -104 7c-88 0 -99 -22 -99 -149c0 -129 13 -149 100 -149c32 0 77 4 107 8z" />
    <glyph glyph-name="colonmonetary" unicode="&#x20a1;" horiz-adv-x="566" 
d="M602 771l-121 -641c15 1 30 2 42 4v-127c-18 -4 -42 -7 -67 -9l-15 -81h-92l14 75h-18h-21l-14 -75h-93l16 82c-155 25 -178 116 -178 345c0 276 34 352 290 352h19l14 75h93l-15 -82c13 -1 26 -3 38 -6l16 88h92zM228 344c0 -115 3 -170 33 -196l78 414
c-105 -6 -111 -41 -111 -218zM386 125h2l82 433c-14 2 -27 2 -39 3l-82 -435c11 -1 24 -1 37 -1z" />
    <glyph glyph-name="currency" unicode="&#xa4;" horiz-adv-x="677" 
d="M127 -1l-82 82l74 73c-19 42 -21 104 -21 191c0 86 2 147 20 189l-73 73l82 82l84 -84c33 8 74 11 127 11c54 0 96 -3 128 -11l85 85l82 -82l-74 -74c17 -42 20 -102 20 -189s-3 -149 -21 -190l75 -74l-83 -83l-85 85c-32 -8 -73 -11 -127 -11c-53 0 -95 4 -127 11z
M338 193c80 0 81 14 81 152s-1 150 -81 150s-80 -12 -80 -150s0 -152 80 -152z" />
    <glyph glyph-name="dollar" unicode="$" horiz-adv-x="536" 
d="M483 239c0 -116 -38 -159 -155 -170v-77h-117v76c-45 3 -95 8 -143 15v116c25 -2 98 -8 162 -8c96 0 101 9 101 44c0 33 -5 35 -48 41l-100 13c-115 15 -131 76 -131 168c0 107 53 148 159 159v80h117v-79c49 -2 91 -8 127 -15v-116c-54 5 -115 9 -151 9
c-81 0 -99 -3 -99 -40c0 -33 2 -36 45 -41l112 -14c80 -11 121 -35 121 -161z" />
    <glyph glyph-name="dong" unicode="&#x20ab;" horiz-adv-x="566" 
d="M556 688v-86h-60v-518h-143l-4 61h-9c-28 -57 -83 -69 -136 -69c-108 0 -155 57 -155 220s47 222 154 222c56 0 104 -11 134 -62h8v146h-121v86h121v55h151v-55h60zM267 189c66 0 77 15 77 113c0 88 -11 103 -77 103c-60 0 -67 -12 -67 -108s7 -108 67 -108zM59 0v49h437
v-49h-437z" />
    <glyph glyph-name="Euro" unicode="&#x20ac;" horiz-adv-x="607" 
d="M389 -8c-211 0 -268 55 -282 235h-75v83h72v69h-72v83h75c14 171 73 234 282 234c81 0 153 -13 171 -18v-123c-21 3 -88 9 -130 9c-114 0 -146 -9 -154 -102h235v-83h-238v-69h238v-83h-235c8 -94 39 -103 154 -103c60 0 116 6 134 8v-125c-21 -4 -94 -15 -175 -15z" />
    <glyph glyph-name="florin" unicode="&#x192;" horiz-adv-x="497" 
d="M468 631c-119 0 -122 -1 -147 -121h121l-25 -121h-122l-83 -390c-40 -188 -78 -194 -321 -194l23 110c108 0 120 6 133 65l88 409h-93l25 121h93v2c49 222 84 230 331 230z" />
    <glyph glyph-name="franc" unicode="&#x20a3;" horiz-adv-x="565" 
d="M540 550h-294v-154h257v-138h-257v-81h163v-83h-163v-94h-172v94h-74v83h74v511h466v-138z" />
    <glyph glyph-name="uni20B2" unicode="&#x20b2;" horiz-adv-x="615" 
d="M310 394h246v-106c0 -146 -12 -206 -184 -216v-80h-116v81c-165 11 -201 78 -201 271s39 260 201 272v80h116v-80c53 -3 113 -11 158 -21v-120c-70 8 -134 14 -170 14c-129 0 -134 -3 -134 -145c0 -132 12 -142 80 -142c79 0 82 5 82 67v21h-78v104z" />
    <glyph glyph-name="uni20AD" unicode="&#x20ad;" horiz-adv-x="680" 
d="M480 287l200 -287h-195l-196 282h-42v-282h-173v287h-61v127h61v274h173v-269h42l198 269h190l-209 -274h152v-127h-140z" />
    <glyph glyph-name="lira" unicode="&#x20a4;" horiz-adv-x="600" 
d="M291 133h268v-133h-516v133h74v94h-74v83h75v69h-75v83h76c8 173 68 234 269 234c55 0 122 -7 160 -17v-125c-41 5 -93 9 -118 9c-52 0 -86 -3 -105 -18c-21 -15 -30 -40 -33 -83h205v-83h-206v-69h206v-83h-206v-94z" />
    </font>
</defs>
</svg>
